<svg width="18" height="19" viewBox="0 0 18 19" fill="none" xmlns="http://www.w3.org/2000/svg">
<path id="Vector" d="M1.80128 18.5C1.52801 18.4987 1.2664 18.3891 1.07381 18.1953C0.881216 18.0014 0.773363 17.7391 0.773898 17.4658C0.77629 17.3619 0.792505 17.2588 0.822113 17.1592L1.56222 14.4821C1.59316 14.3833 1.5582 14.2837 1.5128 14.2049L1.50396 14.1888C1.50074 14.1836 1.48547 14.1623 1.47463 14.1467C1.46378 14.131 1.45132 14.1141 1.44007 14.0976L1.43244 14.0868C0.497928 12.6704 -0.00013679 11.0108 4.30028e-05 9.31397C-0.00718928 7.00009 0.898052 4.81397 2.54983 3.1554C4.25906 1.44299 6.54526 0.500001 8.99299 0.500001C11.0695 0.498975 13.0843 1.20526 14.7057 2.5025C16.2908 3.77817 17.3925 5.55607 17.8079 7.51196C17.9358 8.10614 18.0002 8.71222 18 9.32C18 11.6877 17.0903 13.9116 15.4382 15.5826C13.7715 17.2701 11.5335 18.1967 9.13683 18.1967C8.29307 18.1967 7.21345 17.9813 6.69513 17.835C6.07155 17.6607 5.48051 17.4333 5.41542 17.4092C5.34653 17.3828 5.27342 17.3692 5.19966 17.369C5.11965 17.3685 5.04038 17.3842 4.96662 17.4152L4.93246 17.4284L2.22116 18.408C2.08799 18.464 1.94569 18.4952 1.80128 18.5Z" fill="#000C76"/>
</svg>
