<svg width="18" height="18" viewBox="0 0 18 18" fill="none" xmlns="http://www.w3.org/2000/svg">
<path id="Vector" d="M17.7189 0.28237C17.5874 0.150932 17.4208 0.0602963 17.239 0.0213737C17.0572 -0.0175489 16.8681 -0.00309893 16.6943 0.0629842L0.621354 6.14672H0.61814C0.432817 6.218 0.274015 6.34475 0.163423 6.50967C0.0528308 6.67458 -0.00415925 6.86961 0.000236432 7.06813C0.00463212 7.26664 0.0701992 7.45896 0.187983 7.61881C0.305766 7.77867 0.470023 7.89827 0.658319 7.96127L0.674793 7.9665L6.19142 10.3223C6.29902 10.355 6.41331 10.3588 6.52287 10.3335C6.63244 10.3082 6.73344 10.2546 6.81581 10.178L15.6697 1.92776C15.6961 1.90138 15.7274 1.88045 15.7619 1.86617C15.7964 1.8519 15.8333 1.84455 15.8706 1.84455C15.908 1.84455 15.9449 1.8519 15.9794 1.86617C16.0138 1.88045 16.0452 1.90138 16.0715 1.92776C16.0979 1.95415 16.1188 1.98547 16.1331 2.01994C16.1474 2.05441 16.1548 2.09136 16.1548 2.12867C16.1548 2.16598 16.1474 2.20292 16.1331 2.23739C16.1188 2.27186 16.0979 2.30319 16.0715 2.32957L7.8211 11.1797C7.74455 11.2621 7.69094 11.3631 7.66563 11.4727C7.64032 11.5823 7.64419 11.6965 7.67686 11.8041L10.0334 17.3241C10.0358 17.3322 10.0382 17.3394 10.041 17.347C10.1696 17.7195 10.495 17.9823 10.8884 18C10.9057 18 10.9117 18 10.9286 18C11.1272 18.0011 11.3215 17.9425 11.4863 17.8317C11.6511 17.7209 11.7788 17.5631 11.8527 17.3788L17.9355 1.30979C18.0025 1.13592 18.0177 0.946352 17.9793 0.764018C17.9408 0.581684 17.8504 0.41439 17.7189 0.28237Z" fill="#8784FF"/>
</svg>
