<svg width="66" height="31" viewBox="0 0 66 31" fill="none" xmlns="http://www.w3.org/2000/svg">
<rect width="66" height="31" rx="12" fill="white"/>
<path d="M13.8013 24.5C13.528 24.4987 13.2664 24.3891 13.0738 24.1953C12.8812 24.0014 12.7734 23.7391 12.7739 23.4658C12.7763 23.3619 12.7925 23.2588 12.8221 23.1592L13.5622 20.4821C13.5932 20.3833 13.5582 20.2837 13.5128 20.2049L13.504 20.1888C13.5007 20.1836 13.4855 20.1623 13.4746 20.1467C13.4638 20.131 13.4513 20.1141 13.4401 20.0976L13.4324 20.0868C12.4979 18.6704 11.9999 17.0108 12 15.314C11.9928 13.0001 12.8981 10.814 14.5498 9.1554C16.2591 7.44299 18.5453 6.5 20.993 6.5C23.0695 6.49898 25.0843 7.20526 26.7057 8.5025C28.2908 9.77817 29.3925 11.5561 29.8079 13.512C29.9358 14.1061 30.0002 14.7122 30 15.32C30 17.6877 29.0903 19.9116 27.4382 21.5826C25.7715 23.2701 23.5335 24.1967 21.1368 24.1967C20.2931 24.1967 19.2134 23.9813 18.6951 23.835C18.0715 23.6607 17.4805 23.4333 17.4154 23.4092C17.3465 23.3828 17.2734 23.3692 17.1997 23.369C17.1197 23.3685 17.0404 23.3842 16.9666 23.4152L16.9325 23.4284L14.2212 24.408C14.088 24.464 13.9457 24.4952 13.8013 24.5Z" fill="#DEDEDE"/>
<path d="M38.8867 12.3828H36.0508V15.125C36.6992 15.1211 37.2715 15.0996 37.7676 15.0605C38.2637 15.0215 38.7617 14.9531 39.2617 14.8555L39.3789 15.9102C38.7852 16.0195 38.1992 16.0938 37.6211 16.1328C37.043 16.1719 36.332 16.1914 35.4883 16.1914H34.7617V11.3281H38.8867V12.3828ZM43.4102 17.4336H42.168V14.1406H41.0664V16.4844H39.8477V10.6367H41.0664V13.0742H42.168V10.4492H43.4102V17.4336ZM40.4336 17.2695C40.4336 17.6797 40.5781 18.0742 40.8672 18.4531C41.1562 18.832 41.5664 19.1582 42.0977 19.4316C42.6289 19.7051 43.2422 19.8906 43.9375 19.9883L43.3867 20.9961C42.5625 20.8594 41.8379 20.6074 41.2129 20.2402C40.5879 19.873 40.1113 19.4219 39.7832 18.8867C39.4551 19.418 38.9766 19.8672 38.3477 20.2344C37.7227 20.6055 37 20.8594 36.1797 20.9961L35.6406 19.9883C36.3281 19.8906 36.9355 19.7051 37.4629 19.4316C37.9941 19.1582 38.4043 18.832 38.6934 18.4531C38.9824 18.0742 39.1289 17.6797 39.1328 17.2695V16.918H40.4336V17.2695ZM52.2188 11.5977C52.2188 12.0898 52.2051 12.5371 52.1777 12.9395C52.1543 13.3379 52.0957 13.7812 52.002 14.2695H53.4023V15.3008H43.7227V14.2695H50.6895C50.7754 13.8359 50.834 13.4355 50.8652 13.0684C50.8965 12.6973 50.9141 12.3164 50.918 11.9258H44.918V10.8945H52.2188V11.5977ZM52.207 19.0156H46.1484V19.918H52.4766V20.9375H44.8477V18.0195H50.9062V17.1641H44.8359V16.1445H52.207V19.0156Z" fill="#DEDEDE"/>
</svg>
