<svg width="18" height="19" viewBox="0 0 18 19" fill="none" xmlns="http://www.w3.org/2000/svg">
<g id="Frame">
<g id="like-1--reward-social-up-rating-media-like-thumb-hand">
<path id="Union" fill-rule="evenodd" clip-rule="evenodd" d="M5.67 17.1642C6.10202 17.3705 6.57467 17.4777 7.05343 17.4779H13.9269C14.6933 17.4779 15.4346 17.204 16.0169 16.7056C16.5992 16.2073 16.9842 15.5172 17.1026 14.7599L17.9074 9.6132C17.965 9.24628 17.9424 8.87125 17.8412 8.51389C17.74 8.15654 17.5625 7.82536 17.3211 7.54312C17.0797 7.26088 16.78 7.0343 16.4426 6.87895C16.1053 6.7236 15.7383 6.64317 15.3669 6.6432H11.1459V3.61278C11.1465 3.15001 10.9934 2.70013 10.7107 2.33375C10.428 1.96736 10.0317 1.7052 9.5839 1.5884C9.13611 1.47159 8.66222 1.50677 8.23658 1.68839C7.81094 1.87002 7.45765 2.18781 7.23214 2.59192L4.56171 7.36192C4.40058 7.64988 4.31602 7.97437 4.31614 8.30435V15.3012C4.31608 15.6654 4.41918 16.0223 4.6135 16.3303C4.80781 16.6384 5.0854 16.8852 5.41414 17.0421L5.67 17.1642ZM1.34228 7.59849C1.17401 7.59832 1.00735 7.63132 0.851834 7.6956C0.696319 7.75988 0.554998 7.85418 0.43595 7.9731C0.316902 8.09203 0.22246 8.23326 0.158025 8.38871C0.0935902 8.54416 0.0604247 8.71079 0.0604248 8.87906V15.4516C0.0604248 15.7916 0.195477 16.1176 0.435872 16.358C0.676267 16.5984 1.00231 16.7335 1.34228 16.7335H1.98C2.15049 16.7335 2.31401 16.6658 2.43457 16.5452C2.55512 16.4246 2.62285 16.2611 2.62285 16.0906V8.24006C2.62285 8.06956 2.55512 7.90605 2.43457 7.78549C2.31401 7.66493 2.15049 7.5972 1.98 7.5972L1.34228 7.59849Z" fill="#DEDEDE"/>
</g>
</g>
</svg>
