<svg width="76" height="31" viewBox="0 0 76 31" fill="none" xmlns="http://www.w3.org/2000/svg">
<rect width="76" height="31" rx="12" fill="white"/>
<path fill-rule="evenodd" clip-rule="evenodd" d="M17.67 23.1642C18.102 23.3705 18.5747 23.4777 19.0534 23.4779H25.9269C26.6933 23.4779 27.4346 23.204 28.0169 22.7056C28.5992 22.2073 28.9842 21.5172 29.1026 20.7599L29.9074 15.6132C29.965 15.2463 29.9424 14.8712 29.8412 14.5139C29.74 14.1565 29.5625 13.8254 29.3211 13.5431C29.0797 13.2609 28.78 13.0343 28.4426 12.8789C28.1053 12.7236 27.7383 12.6432 27.3669 12.6432H23.1459V9.61278C23.1465 9.15001 22.9934 8.70013 22.7107 8.33375C22.428 7.96736 22.0317 7.7052 21.5839 7.5884C21.1361 7.47159 20.6622 7.50677 20.2366 7.68839C19.8109 7.87002 19.4576 8.18781 19.2321 8.59192L16.5617 13.3619C16.4006 13.6499 16.316 13.9744 16.3161 14.3043V21.3012C16.3161 21.6654 16.4192 22.0223 16.6135 22.3303C16.8078 22.6384 17.0854 22.8852 17.4141 23.0421L17.67 23.1642ZM13.3423 13.5985C13.174 13.5983 13.0073 13.6313 12.8518 13.6956C12.6963 13.7599 12.555 13.8542 12.436 13.9731C12.3169 14.092 12.2225 14.2333 12.158 14.3887C12.0936 14.5442 12.0604 14.7108 12.0604 14.8791V21.4516C12.0604 21.7916 12.1955 22.1176 12.4359 22.358C12.6763 22.5984 13.0023 22.7335 13.3423 22.7335H13.98C14.1505 22.7335 14.314 22.6658 14.4346 22.5452C14.5551 22.4246 14.6229 22.2611 14.6229 22.0906V14.2401C14.6229 14.0696 14.5551 13.9061 14.4346 13.7855C14.314 13.6649 14.1505 13.5972 13.98 13.5972L13.3423 13.5985Z" fill="#000C76"/>
<path d="M39.8125 14.668H44.0195V15.7227H34.3398V14.668H38.5234V13.6016H39.8125V14.668ZM43.1406 11.7383H40.1055C40.1875 11.9922 40.3789 12.2266 40.6797 12.4414C40.9805 12.6562 41.375 12.8359 41.8633 12.9805C42.3555 13.1211 42.918 13.2109 43.5508 13.25L43.1406 14.2227C42.1602 14.1484 41.3242 13.9512 40.6328 13.6309C39.9414 13.3105 39.457 12.9004 39.1797 12.4004C38.9023 12.9004 38.416 13.3105 37.7207 13.6309C37.0293 13.9473 36.1953 14.1445 35.2188 14.2227L34.7969 13.25C35.4141 13.2148 35.9668 13.127 36.4551 12.9863C36.9473 12.8418 37.3438 12.6621 37.6445 12.4473C37.9492 12.2285 38.1465 11.9922 38.2363 11.7383H35.2305V10.7422H43.1406V11.7383ZM43.1055 17.8906H35.2305V16.9062H38.5117V16.0508H39.8242V16.9062H43.1055V17.8906ZM39.1562 18.2773C40.1914 18.2773 40.9902 18.3965 41.5527 18.6348C42.1191 18.873 42.4023 19.2188 42.4023 19.6719C42.4023 20.1289 42.1191 20.4766 41.5527 20.7148C40.9902 20.957 40.1914 21.0781 39.1562 21.0781C38.1172 21.0781 37.3203 20.959 36.7656 20.7207C36.2109 20.4824 35.9336 20.1328 35.9336 19.6719C35.9336 19.2188 36.2109 18.873 36.7656 18.6348C37.3203 18.3965 38.1172 18.2773 39.1562 18.2773ZM39.1562 19.1562C38.5273 19.1562 38.0547 19.1973 37.7383 19.2793C37.4258 19.3613 37.2695 19.4922 37.2695 19.6719C37.2695 20.0312 37.8984 20.2109 39.1562 20.2109C40.4102 20.2109 41.043 20.0312 41.0547 19.6719C41.0508 19.4922 40.8926 19.3613 40.5801 19.2793C40.2676 19.1973 39.793 19.1562 39.1562 19.1562ZM46.5703 11.2227C47.1016 11.2227 47.5742 11.377 47.9883 11.6855C48.4023 11.9902 48.7266 12.4258 48.9609 12.9922C49.1992 13.5547 49.3203 14.2109 49.3242 14.9609C49.3203 15.7188 49.1992 16.3809 48.9609 16.9473C48.7266 17.5137 48.4023 17.9492 47.9883 18.2539C47.5742 18.5586 47.1016 18.7109 46.5703 18.7109C46.0352 18.7109 45.5586 18.5586 45.1406 18.2539C44.7227 17.9453 44.3965 17.5078 44.1621 16.9414C43.9277 16.375 43.8125 15.7148 43.8164 14.9609C43.8125 14.2148 43.9277 13.5586 44.1621 12.9922C44.3965 12.4258 44.7227 11.9902 45.1406 11.6855C45.5586 11.377 46.0352 11.2227 46.5703 11.2227ZM46.5703 12.3945C46.2734 12.3945 46.0117 12.498 45.7852 12.7051C45.5586 12.9082 45.3828 13.2031 45.2578 13.5898C45.1328 13.9727 45.0703 14.4297 45.0703 14.9609C45.0703 15.4961 45.1328 15.957 45.2578 16.3438C45.3828 16.7305 45.5586 17.0273 45.7852 17.2344C46.0117 17.4375 46.2734 17.5391 46.5703 17.5391C46.8711 17.5391 47.1348 17.4375 47.3613 17.2344C47.5879 17.0273 47.7617 16.7305 47.8828 16.3438C48.0078 15.957 48.0703 15.4961 48.0703 14.9609C48.0703 14.4297 48.0078 13.9707 47.8828 13.584C47.7617 13.1973 47.5879 12.9023 47.3613 12.6992C47.1348 12.4961 46.8711 12.3945 46.5703 12.3945ZM52.0195 14.5156H53.6484V15.6172H52.0195V21.043H50.7188V10.4492H52.0195V14.5156ZM62.7734 19.7539H53.0938V18.6875H55.332V16.0098C54.9023 15.7598 54.5684 15.4492 54.3301 15.0781C54.0957 14.707 53.9805 14.2891 53.9844 13.8242C53.9805 13.2734 54.1465 12.7852 54.4824 12.3594C54.8184 11.9336 55.2852 11.6055 55.8828 11.375C56.4805 11.1406 57.1562 11.0234 57.9102 11.0234C58.668 11.0234 59.3457 11.1406 59.9434 11.375C60.5449 11.6055 61.0137 11.9336 61.3496 12.3594C61.6895 12.7812 61.8594 13.2695 61.8594 13.8242C61.8594 14.2773 61.7441 14.6895 61.5137 15.0605C61.2871 15.4277 60.9648 15.7344 60.5469 15.9805V18.6875H62.7734V19.7539ZM57.9102 12.0547C57.3828 12.0547 56.918 12.127 56.5156 12.2715C56.1172 12.4121 55.8066 12.6152 55.584 12.8809C55.3652 13.1465 55.2578 13.4609 55.2617 13.8242C55.2578 14.1836 55.3652 14.4961 55.584 14.7617C55.8066 15.0273 56.1191 15.2324 56.5215 15.377C56.9238 15.5215 57.3867 15.5938 57.9102 15.5938C58.4336 15.5938 58.8965 15.5215 59.2988 15.377C59.7051 15.2324 60.0195 15.0273 60.2422 14.7617C60.4688 14.4961 60.582 14.1836 60.582 13.8242C60.582 13.4648 60.4688 13.1523 60.2422 12.8867C60.0195 12.6172 59.707 12.4121 59.3047 12.2715C58.9023 12.127 58.4375 12.0547 57.9102 12.0547ZM59.2227 18.6875V16.4785C58.8086 16.5684 58.3711 16.6133 57.9102 16.6133C57.4688 16.6133 57.0391 16.5703 56.6211 16.4844V18.6875H59.2227Z" fill="#000C76"/>
</svg>
