<svg width="42" height="28" viewBox="0 0 42 28" fill="none" xmlns="http://www.w3.org/2000/svg">
<path d="M14 16C15.1046 16 16 15.1046 16 14C16 12.8954 15.1046 12 14 12C12.8954 12 12 12.8954 12 14C12 15.1046 12.8954 16 14 16Z" fill="#BCBCBC"/>
<path d="M21 16C22.1046 16 23 15.1046 23 14C23 12.8954 22.1046 12 21 12C19.8954 12 19 12.8954 19 14C19 15.1046 19.8954 16 21 16Z" fill="#BCBCBC"/>
<path d="M28 16C29.1046 16 30 15.1046 30 14C30 12.8954 29.1046 12 28 12C26.8954 12 26 12.8954 26 14C26 15.1046 26.8954 16 28 16Z" fill="#BCBCBC"/>
</svg>
