<svg width="44" height="44" viewBox="0 0 44 44" fill="none" xmlns="http://www.w3.org/2000/svg">
<path d="M44 22C44 9.85029 34.1497 0 22 0C9.85029 0 0 9.85029 0 22C0 34.1497 9.85029 44 22 44C34.1497 44 44 34.1497 44 22ZM21.5082 31.6631C21.3504 31.5066 21.2249 31.3205 21.139 31.1155C21.0532 30.9105 21.0085 30.6905 21.0076 30.4683C21.0067 30.246 21.0496 30.0257 21.1339 29.82C21.2181 29.6144 21.3421 29.4273 21.4987 29.2695L27.0325 23.6923H12.9038C12.455 23.6923 12.0246 23.514 11.7072 23.1966C11.3898 22.8793 11.2115 22.4488 11.2115 22C11.2115 21.5512 11.3898 21.1207 11.7072 20.8034C12.0246 20.486 12.455 20.3077 12.9038 20.3077H27.0325L21.4987 14.7305C21.3421 14.5726 21.2182 14.3853 21.134 14.1795C21.0498 13.9737 21.007 13.7533 21.008 13.531C21.009 13.3086 21.0538 13.0886 21.1398 12.8836C21.2258 12.6785 21.3513 12.4924 21.5092 12.3359C21.6672 12.1793 21.8544 12.0554 22.0602 11.9712C22.266 11.8871 22.4864 11.8442 22.7087 11.8452C23.1578 11.8472 23.5877 12.0275 23.9038 12.3464L32.3009 20.808C32.6154 21.125 32.7919 21.5534 32.7919 22C32.7919 22.4466 32.6154 22.875 32.3009 23.192L23.9038 31.6536C23.7473 31.8117 23.5611 31.9374 23.3559 32.0235C23.1507 32.1095 22.9305 32.1543 22.708 32.1552C22.4855 32.1561 22.265 32.1131 22.0591 32.0286C21.8532 31.9442 21.666 31.82 21.5082 31.6631Z" fill="white"/>
</svg>
