<svg width="1929" height="840" viewBox="0 0 1929 840" fill="none" xmlns="http://www.w3.org/2000/svg">
<rect width="1920" height="840" fill="url(#paint0_linear_3264_2613)"/>
<rect width="2.08163" height="58.2782" rx="0.5" transform="matrix(0.621343 0.783539 -0.783203 0.621766 616.886 608.567)" fill="url(#paint1_linear_3264_2613)" fill-opacity="0.4"/>
<rect width="2.08163" height="58.2782" rx="0.5" transform="matrix(0.621343 0.783539 -0.783203 0.621766 647.638 644.157)" fill="url(#paint2_linear_3264_2613)" fill-opacity="0.4"/>
<rect width="2.08163" height="134.177" rx="0.5" transform="matrix(0.621343 0.783539 -0.783203 0.621766 677.949 590.023)" fill="url(#paint3_linear_3264_2613)" fill-opacity="0.4"/>
<g filter="url(#filter0_d_3264_2613)">
<path d="M648.5 37L649.715 40.2846L653 41.5L649.715 42.7154L648.5 46L647.285 42.7154L644 41.5L647.285 40.2846L648.5 37Z" fill="url(#paint4_radial_3264_2613)" fill-opacity="0.85" shape-rendering="crispEdges"/>
</g>
<g filter="url(#filter1_d_3264_2613)">
<path d="M180 579.023L180.898 581.787H183.804L181.453 583.496L182.351 586.26L180 584.551L177.649 586.26L178.547 583.496L176.196 581.787H179.102L180 579.023Z" fill="url(#paint5_radial_3264_2613)" fill-opacity="0.85" shape-rendering="crispEdges"/>
</g>
<g filter="url(#filter2_d_3264_2613)">
<path d="M435.5 530L435.977 531.673L437.665 531.25L436.455 532.5L437.665 533.75L435.977 533.327L435.5 535L435.023 533.327L433.335 533.75L434.545 532.5L433.335 531.25L435.023 531.673L435.5 530Z" fill="url(#paint6_radial_3264_2613)" fill-opacity="0.85" shape-rendering="crispEdges"/>
</g>
<g filter="url(#filter3_d_3264_2613)">
<path d="M549.5 222L549.977 223.673L551.665 223.25L550.455 224.5L551.665 225.75L549.977 225.327L549.5 227L549.023 225.327L547.335 225.75L548.545 224.5L547.335 223.25L549.023 223.673L549.5 222Z" fill="url(#paint7_radial_3264_2613)" fill-opacity="0.85" shape-rendering="crispEdges"/>
</g>
<g filter="url(#filter4_d_3264_2613)">
<path d="M1326 129L1326.76 131.677L1329.46 131L1327.53 133L1329.46 135L1326.76 134.323L1326 137L1325.24 134.323L1322.54 135L1324.47 133L1322.54 131L1325.24 131.677L1326 129Z" fill="url(#paint8_radial_3264_2613)" fill-opacity="0.85" shape-rendering="crispEdges"/>
</g>
<g filter="url(#filter5_d_3264_2613)">
<path d="M1722 305.023L1722.57 307.031L1724.6 306.523L1723.15 308.023L1724.6 309.523L1722.57 309.016L1722 311.023L1721.43 309.016L1719.4 309.523L1720.85 308.023L1719.4 306.523L1721.43 307.031L1722 305.023Z" fill="url(#paint9_radial_3264_2613)" fill-opacity="0.85" shape-rendering="crispEdges"/>
</g>
<g filter="url(#filter6_d_3264_2613)">
<path d="M1798.5 390L1799.17 392.342L1801.53 391.75L1799.84 393.5L1801.53 395.25L1799.17 394.658L1798.5 397L1797.83 394.658L1795.47 395.25L1797.16 393.5L1795.47 391.75L1797.83 392.342L1798.5 390Z" fill="url(#paint10_radial_3264_2613)" fill-opacity="0.85" shape-rendering="crispEdges"/>
</g>
<g filter="url(#filter7_d_3264_2613)">
<path d="M1892 212L1893.08 214.92L1896 216L1893.08 217.08L1892 220L1890.92 217.08L1888 216L1890.92 214.92L1892 212Z" fill="url(#paint11_radial_3264_2613)" fill-opacity="0.85" shape-rendering="crispEdges"/>
</g>
<g filter="url(#filter8_d_3264_2613)">
<path d="M277.5 368L277.977 369.673L279.665 369.25L278.455 370.5L279.665 371.75L277.977 371.327L277.5 373L277.023 371.327L275.335 371.75L276.545 370.5L275.335 369.25L277.023 369.673L277.5 368Z" fill="url(#paint12_radial_3264_2613)" fill-opacity="0.85" shape-rendering="crispEdges"/>
</g>
<g filter="url(#filter9_d_3264_2613)">
<path d="M357 161.023L357.573 163.031L359.598 162.523L358.146 164.023L359.598 165.523L357.573 165.016L357 167.023L356.427 165.016L354.402 165.523L355.854 164.023L354.402 162.523L356.427 163.031L357 161.023Z" fill="url(#paint13_radial_3264_2613)" fill-opacity="0.85" shape-rendering="crispEdges"/>
</g>
<g filter="url(#filter10_d_3264_2613)">
<path d="M217.5 340.023L217.905 341.118L219 341.523L217.905 341.929L217.5 343.023L217.095 341.929L216 341.523L217.095 341.118L217.5 340.023Z" fill="url(#paint14_radial_3264_2613)" fill-opacity="0.85" shape-rendering="crispEdges"/>
</g>
<g filter="url(#filter11_d_3264_2613)">
<path d="M136.5 78.0234L137.932 83.0425L142.995 81.7734L139.365 85.5234L142.995 89.2734L137.932 88.0044L136.5 93.0234L135.068 88.0044L130.005 89.2734L133.635 85.5234L130.005 81.7734L135.068 83.0425L136.5 78.0234Z" fill="url(#paint15_radial_3264_2613)" fill-opacity="0.85" shape-rendering="crispEdges"/>
</g>
<g filter="url(#filter12_d_3264_2613)">
<path d="M1313 682L1313.81 684.19L1316 685L1313.81 685.81L1313 688L1312.19 685.81L1310 685L1312.19 684.19L1313 682Z" fill="url(#paint16_radial_3264_2613)" fill-opacity="0.85" shape-rendering="crispEdges"/>
</g>
<g filter="url(#filter13_d_3264_2613)">
<path d="M1319 491L1319.57 493.008L1321.6 492.5L1320.15 494L1321.6 495.5L1319.57 494.992L1319 497L1318.43 494.992L1316.4 495.5L1317.85 494L1316.4 492.5L1318.43 493.008L1319 491Z" fill="url(#paint17_radial_3264_2613)" fill-opacity="0.85" shape-rendering="crispEdges"/>
</g>
<g filter="url(#filter14_d_3264_2613)">
<path d="M1153 37L1153.57 39.0076L1155.6 38.5L1154.15 40L1155.6 41.5L1153.57 40.9924L1153 43L1152.43 40.9924L1150.4 41.5L1151.85 40L1150.4 38.5L1152.43 39.0076L1153 37Z" fill="url(#paint18_radial_3264_2613)" fill-opacity="0.85" shape-rendering="crispEdges"/>
</g>
<g filter="url(#filter15_d_3264_2613)">
<path d="M1184 362L1184.57 364.008L1186.6 363.5L1185.15 365L1186.6 366.5L1184.57 365.992L1184 368L1183.43 365.992L1181.4 366.5L1182.85 365L1181.4 363.5L1183.43 364.008L1184 362Z" fill="url(#paint19_radial_3264_2613)" fill-opacity="0.85" shape-rendering="crispEdges"/>
</g>
<g filter="url(#filter16_d_3264_2613)">
<path d="M712.547 278.113L713.024 279.786L714.712 279.363L713.502 280.613L714.712 281.863L713.024 281.44L712.547 283.113L712.069 281.44L710.382 281.863L711.592 280.613L710.382 279.363L712.069 279.786L712.547 278.113Z" fill="url(#paint20_radial_3264_2613)" fill-opacity="0.85" shape-rendering="crispEdges"/>
</g>
<path fill-rule="evenodd" clip-rule="evenodd" d="M1460.28 0C1412.6 40.5068 1373.27 92.3326 1346.82 153.679C1254.98 366.684 1353.2 613.808 1566.21 705.646C1684.42 756.614 1813.14 749.042 1920 695.798V0H1460.28ZM1879.08 383.17C1913.99 302.21 1876.66 208.283 1795.7 173.377C1714.74 138.471 1620.81 175.804 1585.91 256.764C1551 337.723 1588.33 431.65 1669.29 466.556C1750.25 501.462 1844.18 464.129 1879.08 383.17Z" fill="url(#paint21_linear_3264_2613)" fill-opacity="0.1"/>
<path fill-rule="evenodd" clip-rule="evenodd" d="M521.952 585.461C490.331 571.828 455.233 568.446 421.59 575.792C387.948 583.138 357.453 600.842 334.393 626.415C311.333 651.989 296.866 684.146 293.027 718.366C289.188 752.587 296.17 787.15 312.99 817.197C317.5 825.253 322.656 832.875 328.388 840H585.075C603.529 817.065 615.558 789.527 619.78 760.217L518.703 745.658C516.837 758.612 510.959 770.656 501.894 780.097C492.829 789.538 481.033 795.9 468.165 798.29C455.297 800.68 442.003 798.977 430.153 793.421C418.303 787.865 408.491 778.735 402.098 767.315C395.705 755.894 393.051 742.758 394.511 729.751C395.97 716.744 401.468 704.522 410.233 694.802C418.998 685.082 430.588 678.353 443.375 675.561C456.162 672.769 469.502 674.054 481.521 679.236L521.952 585.461Z" fill="url(#paint22_linear_3264_2613)" fill-opacity="0.25"/>
<defs>
<filter id="filter0_d_3264_2613" x="611.216" y="4.21564" width="74.5687" height="74.5687" filterUnits="userSpaceOnUse" color-interpolation-filters="sRGB">
<feFlood flood-opacity="0" result="BackgroundImageFix"/>
<feColorMatrix in="SourceAlpha" type="matrix" values="0 0 0 0 0 0 0 0 0 0 0 0 0 0 0 0 0 0 127 0" result="hardAlpha"/>
<feOffset/>
<feGaussianBlur stdDeviation="16.3922"/>
<feComposite in2="hardAlpha" operator="out"/>
<feColorMatrix type="matrix" values="0 0 0 0 1 0 0 0 0 1 0 0 0 0 1 0 0 0 0.25 0"/>
<feBlend mode="normal" in2="BackgroundImageFix" result="effect1_dropShadow_3264_2613"/>
<feBlend mode="normal" in="SourceGraphic" in2="effect1_dropShadow_3264_2613" result="shape"/>
</filter>
<filter id="filter1_d_3264_2613" x="143.411" y="546.239" width="73.1771" height="72.8051" filterUnits="userSpaceOnUse" color-interpolation-filters="sRGB">
<feFlood flood-opacity="0" result="BackgroundImageFix"/>
<feColorMatrix in="SourceAlpha" type="matrix" values="0 0 0 0 0 0 0 0 0 0 0 0 0 0 0 0 0 0 127 0" result="hardAlpha"/>
<feOffset/>
<feGaussianBlur stdDeviation="16.3922"/>
<feComposite in2="hardAlpha" operator="out"/>
<feColorMatrix type="matrix" values="0 0 0 0 1 0 0 0 0 1 0 0 0 0 1 0 0 0 0.25 0"/>
<feBlend mode="normal" in2="BackgroundImageFix" result="effect1_dropShadow_3264_2613"/>
<feBlend mode="normal" in="SourceGraphic" in2="effect1_dropShadow_3264_2613" result="shape"/>
</filter>
<filter id="filter2_d_3264_2613" x="400.551" y="497.216" width="69.8988" height="70.5687" filterUnits="userSpaceOnUse" color-interpolation-filters="sRGB">
<feFlood flood-opacity="0" result="BackgroundImageFix"/>
<feColorMatrix in="SourceAlpha" type="matrix" values="0 0 0 0 0 0 0 0 0 0 0 0 0 0 0 0 0 0 127 0" result="hardAlpha"/>
<feOffset/>
<feGaussianBlur stdDeviation="16.3922"/>
<feComposite in2="hardAlpha" operator="out"/>
<feColorMatrix type="matrix" values="0 0 0 0 1 0 0 0 0 1 0 0 0 0 1 0 0 0 0.25 0"/>
<feBlend mode="normal" in2="BackgroundImageFix" result="effect1_dropShadow_3264_2613"/>
<feBlend mode="normal" in="SourceGraphic" in2="effect1_dropShadow_3264_2613" result="shape"/>
</filter>
<filter id="filter3_d_3264_2613" x="514.551" y="189.216" width="69.8988" height="70.5687" filterUnits="userSpaceOnUse" color-interpolation-filters="sRGB">
<feFlood flood-opacity="0" result="BackgroundImageFix"/>
<feColorMatrix in="SourceAlpha" type="matrix" values="0 0 0 0 0 0 0 0 0 0 0 0 0 0 0 0 0 0 127 0" result="hardAlpha"/>
<feOffset/>
<feGaussianBlur stdDeviation="16.3922"/>
<feComposite in2="hardAlpha" operator="out"/>
<feColorMatrix type="matrix" values="0 0 0 0 1 0 0 0 0 1 0 0 0 0 1 0 0 0 0.25 0"/>
<feBlend mode="normal" in2="BackgroundImageFix" result="effect1_dropShadow_3264_2613"/>
<feBlend mode="normal" in="SourceGraphic" in2="effect1_dropShadow_3264_2613" result="shape"/>
</filter>
<filter id="filter4_d_3264_2613" x="1289.75" y="96.2156" width="72.4969" height="73.5687" filterUnits="userSpaceOnUse" color-interpolation-filters="sRGB">
<feFlood flood-opacity="0" result="BackgroundImageFix"/>
<feColorMatrix in="SourceAlpha" type="matrix" values="0 0 0 0 0 0 0 0 0 0 0 0 0 0 0 0 0 0 127 0" result="hardAlpha"/>
<feOffset/>
<feGaussianBlur stdDeviation="16.3922"/>
<feComposite in2="hardAlpha" operator="out"/>
<feColorMatrix type="matrix" values="0 0 0 0 1 0 0 0 0 1 0 0 0 0 1 0 0 0 0.25 0"/>
<feBlend mode="normal" in2="BackgroundImageFix" result="effect1_dropShadow_3264_2613"/>
<feBlend mode="normal" in="SourceGraphic" in2="effect1_dropShadow_3264_2613" result="shape"/>
</filter>
<filter id="filter5_d_3264_2613" x="1686.62" y="272.239" width="70.765" height="71.5687" filterUnits="userSpaceOnUse" color-interpolation-filters="sRGB">
<feFlood flood-opacity="0" result="BackgroundImageFix"/>
<feColorMatrix in="SourceAlpha" type="matrix" values="0 0 0 0 0 0 0 0 0 0 0 0 0 0 0 0 0 0 127 0" result="hardAlpha"/>
<feOffset/>
<feGaussianBlur stdDeviation="16.3922"/>
<feComposite in2="hardAlpha" operator="out"/>
<feColorMatrix type="matrix" values="0 0 0 0 1 0 0 0 0 1 0 0 0 0 1 0 0 0 0.25 0"/>
<feBlend mode="normal" in2="BackgroundImageFix" result="effect1_dropShadow_3264_2613"/>
<feBlend mode="normal" in="SourceGraphic" in2="effect1_dropShadow_3264_2613" result="shape"/>
</filter>
<filter id="filter6_d_3264_2613" x="1762.68" y="357.216" width="71.6307" height="72.5687" filterUnits="userSpaceOnUse" color-interpolation-filters="sRGB">
<feFlood flood-opacity="0" result="BackgroundImageFix"/>
<feColorMatrix in="SourceAlpha" type="matrix" values="0 0 0 0 0 0 0 0 0 0 0 0 0 0 0 0 0 0 127 0" result="hardAlpha"/>
<feOffset/>
<feGaussianBlur stdDeviation="16.3922"/>
<feComposite in2="hardAlpha" operator="out"/>
<feColorMatrix type="matrix" values="0 0 0 0 1 0 0 0 0 1 0 0 0 0 1 0 0 0 0.25 0"/>
<feBlend mode="normal" in2="BackgroundImageFix" result="effect1_dropShadow_3264_2613"/>
<feBlend mode="normal" in="SourceGraphic" in2="effect1_dropShadow_3264_2613" result="shape"/>
</filter>
<filter id="filter7_d_3264_2613" x="1855.22" y="179.216" width="73.5687" height="73.5687" filterUnits="userSpaceOnUse" color-interpolation-filters="sRGB">
<feFlood flood-opacity="0" result="BackgroundImageFix"/>
<feColorMatrix in="SourceAlpha" type="matrix" values="0 0 0 0 0 0 0 0 0 0 0 0 0 0 0 0 0 0 127 0" result="hardAlpha"/>
<feOffset/>
<feGaussianBlur stdDeviation="16.3922"/>
<feComposite in2="hardAlpha" operator="out"/>
<feColorMatrix type="matrix" values="0 0 0 0 1 0 0 0 0 1 0 0 0 0 1 0 0 0 0.25 0"/>
<feBlend mode="normal" in2="BackgroundImageFix" result="effect1_dropShadow_3264_2613"/>
<feBlend mode="normal" in="SourceGraphic" in2="effect1_dropShadow_3264_2613" result="shape"/>
</filter>
<filter id="filter8_d_3264_2613" x="242.551" y="335.216" width="69.8988" height="70.5687" filterUnits="userSpaceOnUse" color-interpolation-filters="sRGB">
<feFlood flood-opacity="0" result="BackgroundImageFix"/>
<feColorMatrix in="SourceAlpha" type="matrix" values="0 0 0 0 0 0 0 0 0 0 0 0 0 0 0 0 0 0 127 0" result="hardAlpha"/>
<feOffset/>
<feGaussianBlur stdDeviation="16.3922"/>
<feComposite in2="hardAlpha" operator="out"/>
<feColorMatrix type="matrix" values="0 0 0 0 1 0 0 0 0 1 0 0 0 0 1 0 0 0 0.25 0"/>
<feBlend mode="normal" in2="BackgroundImageFix" result="effect1_dropShadow_3264_2613"/>
<feBlend mode="normal" in="SourceGraphic" in2="effect1_dropShadow_3264_2613" result="shape"/>
</filter>
<filter id="filter9_d_3264_2613" x="321.617" y="128.239" width="70.765" height="71.5687" filterUnits="userSpaceOnUse" color-interpolation-filters="sRGB">
<feFlood flood-opacity="0" result="BackgroundImageFix"/>
<feColorMatrix in="SourceAlpha" type="matrix" values="0 0 0 0 0 0 0 0 0 0 0 0 0 0 0 0 0 0 127 0" result="hardAlpha"/>
<feOffset/>
<feGaussianBlur stdDeviation="16.3922"/>
<feComposite in2="hardAlpha" operator="out"/>
<feColorMatrix type="matrix" values="0 0 0 0 1 0 0 0 0 1 0 0 0 0 1 0 0 0 0.25 0"/>
<feBlend mode="normal" in2="BackgroundImageFix" result="effect1_dropShadow_3264_2613"/>
<feBlend mode="normal" in="SourceGraphic" in2="effect1_dropShadow_3264_2613" result="shape"/>
</filter>
<filter id="filter10_d_3264_2613" x="183.216" y="307.239" width="68.5687" height="68.5687" filterUnits="userSpaceOnUse" color-interpolation-filters="sRGB">
<feFlood flood-opacity="0" result="BackgroundImageFix"/>
<feColorMatrix in="SourceAlpha" type="matrix" values="0 0 0 0 0 0 0 0 0 0 0 0 0 0 0 0 0 0 127 0" result="hardAlpha"/>
<feOffset/>
<feGaussianBlur stdDeviation="16.3922"/>
<feComposite in2="hardAlpha" operator="out"/>
<feColorMatrix type="matrix" values="0 0 0 0 1 0 0 0 0 1 0 0 0 0 1 0 0 0 0.25 0"/>
<feBlend mode="normal" in2="BackgroundImageFix" result="effect1_dropShadow_3264_2613"/>
<feBlend mode="normal" in="SourceGraphic" in2="effect1_dropShadow_3264_2613" result="shape"/>
</filter>
<filter id="filter11_d_3264_2613" x="97.2204" y="45.2391" width="78.5592" height="80.5687" filterUnits="userSpaceOnUse" color-interpolation-filters="sRGB">
<feFlood flood-opacity="0" result="BackgroundImageFix"/>
<feColorMatrix in="SourceAlpha" type="matrix" values="0 0 0 0 0 0 0 0 0 0 0 0 0 0 0 0 0 0 127 0" result="hardAlpha"/>
<feOffset/>
<feGaussianBlur stdDeviation="16.3922"/>
<feComposite in2="hardAlpha" operator="out"/>
<feColorMatrix type="matrix" values="0 0 0 0 1 0 0 0 0 1 0 0 0 0 1 0 0 0 0.25 0"/>
<feBlend mode="normal" in2="BackgroundImageFix" result="effect1_dropShadow_3264_2613"/>
<feBlend mode="normal" in="SourceGraphic" in2="effect1_dropShadow_3264_2613" result="shape"/>
</filter>
<filter id="filter12_d_3264_2613" x="1277.22" y="649.216" width="71.5687" height="71.5687" filterUnits="userSpaceOnUse" color-interpolation-filters="sRGB">
<feFlood flood-opacity="0" result="BackgroundImageFix"/>
<feColorMatrix in="SourceAlpha" type="matrix" values="0 0 0 0 0 0 0 0 0 0 0 0 0 0 0 0 0 0 127 0" result="hardAlpha"/>
<feOffset/>
<feGaussianBlur stdDeviation="16.3922"/>
<feComposite in2="hardAlpha" operator="out"/>
<feColorMatrix type="matrix" values="0 0 0 0 1 0 0 0 0 1 0 0 0 0 1 0 0 0 0.25 0"/>
<feBlend mode="normal" in2="BackgroundImageFix" result="effect1_dropShadow_3264_2613"/>
<feBlend mode="normal" in="SourceGraphic" in2="effect1_dropShadow_3264_2613" result="shape"/>
</filter>
<filter id="filter13_d_3264_2613" x="1283.62" y="458.216" width="70.765" height="71.5687" filterUnits="userSpaceOnUse" color-interpolation-filters="sRGB">
<feFlood flood-opacity="0" result="BackgroundImageFix"/>
<feColorMatrix in="SourceAlpha" type="matrix" values="0 0 0 0 0 0 0 0 0 0 0 0 0 0 0 0 0 0 127 0" result="hardAlpha"/>
<feOffset/>
<feGaussianBlur stdDeviation="16.3922"/>
<feComposite in2="hardAlpha" operator="out"/>
<feColorMatrix type="matrix" values="0 0 0 0 1 0 0 0 0 1 0 0 0 0 1 0 0 0 0.25 0"/>
<feBlend mode="normal" in2="BackgroundImageFix" result="effect1_dropShadow_3264_2613"/>
<feBlend mode="normal" in="SourceGraphic" in2="effect1_dropShadow_3264_2613" result="shape"/>
</filter>
<filter id="filter14_d_3264_2613" x="1117.62" y="4.21564" width="70.765" height="71.5687" filterUnits="userSpaceOnUse" color-interpolation-filters="sRGB">
<feFlood flood-opacity="0" result="BackgroundImageFix"/>
<feColorMatrix in="SourceAlpha" type="matrix" values="0 0 0 0 0 0 0 0 0 0 0 0 0 0 0 0 0 0 127 0" result="hardAlpha"/>
<feOffset/>
<feGaussianBlur stdDeviation="16.3922"/>
<feComposite in2="hardAlpha" operator="out"/>
<feColorMatrix type="matrix" values="0 0 0 0 1 0 0 0 0 1 0 0 0 0 1 0 0 0 0.25 0"/>
<feBlend mode="normal" in2="BackgroundImageFix" result="effect1_dropShadow_3264_2613"/>
<feBlend mode="normal" in="SourceGraphic" in2="effect1_dropShadow_3264_2613" result="shape"/>
</filter>
<filter id="filter15_d_3264_2613" x="1148.62" y="329.216" width="70.765" height="71.5687" filterUnits="userSpaceOnUse" color-interpolation-filters="sRGB">
<feFlood flood-opacity="0" result="BackgroundImageFix"/>
<feColorMatrix in="SourceAlpha" type="matrix" values="0 0 0 0 0 0 0 0 0 0 0 0 0 0 0 0 0 0 127 0" result="hardAlpha"/>
<feOffset/>
<feGaussianBlur stdDeviation="16.3922"/>
<feComposite in2="hardAlpha" operator="out"/>
<feColorMatrix type="matrix" values="0 0 0 0 1 0 0 0 0 1 0 0 0 0 1 0 0 0 0.25 0"/>
<feBlend mode="normal" in2="BackgroundImageFix" result="effect1_dropShadow_3264_2613"/>
<feBlend mode="normal" in="SourceGraphic" in2="effect1_dropShadow_3264_2613" result="shape"/>
</filter>
<filter id="filter16_d_3264_2613" x="677.597" y="245.329" width="69.8988" height="70.5687" filterUnits="userSpaceOnUse" color-interpolation-filters="sRGB">
<feFlood flood-opacity="0" result="BackgroundImageFix"/>
<feColorMatrix in="SourceAlpha" type="matrix" values="0 0 0 0 0 0 0 0 0 0 0 0 0 0 0 0 0 0 127 0" result="hardAlpha"/>
<feOffset/>
<feGaussianBlur stdDeviation="16.3922"/>
<feComposite in2="hardAlpha" operator="out"/>
<feColorMatrix type="matrix" values="0 0 0 0 1 0 0 0 0 1 0 0 0 0 1 0 0 0 0.25 0"/>
<feBlend mode="normal" in2="BackgroundImageFix" result="effect1_dropShadow_3264_2613"/>
<feBlend mode="normal" in="SourceGraphic" in2="effect1_dropShadow_3264_2613" result="shape"/>
</filter>
<linearGradient id="paint0_linear_3264_2613" x1="960" y1="-3.76913e-07" x2="960" y2="987.299" gradientUnits="userSpaceOnUse">
<stop/>
<stop/>
<stop offset="0.225869" stop-color="#000414"/>
<stop offset="0.558892" stop-color="#000A40"/>
</linearGradient>
<linearGradient id="paint1_linear_3264_2613" x1="1.04081" y1="0" x2="1.04081" y2="58.2782" gradientUnits="userSpaceOnUse">
<stop stop-color="white" stop-opacity="0.26"/>
<stop offset="1" stop-color="white"/>
</linearGradient>
<linearGradient id="paint2_linear_3264_2613" x1="1.04081" y1="0" x2="1.04081" y2="58.2782" gradientUnits="userSpaceOnUse">
<stop stop-color="white" stop-opacity="0.26"/>
<stop offset="1" stop-color="white"/>
</linearGradient>
<linearGradient id="paint3_linear_3264_2613" x1="1.04081" y1="0" x2="1.04081" y2="134.177" gradientUnits="userSpaceOnUse">
<stop stop-color="white" stop-opacity="0.26"/>
<stop offset="1" stop-color="white"/>
</linearGradient>
<radialGradient id="paint4_radial_3264_2613" cx="0" cy="0" r="1" gradientUnits="userSpaceOnUse" gradientTransform="translate(648.5 41.5) rotate(90) scale(4.5)">
<stop stop-color="white"/>
<stop offset="1" stop-color="#CECECE" stop-opacity="0.65"/>
</radialGradient>
<radialGradient id="paint5_radial_3264_2613" cx="0" cy="0" r="1" gradientUnits="userSpaceOnUse" gradientTransform="translate(180 583.023) rotate(90) scale(4)">
<stop stop-color="white"/>
<stop offset="1" stop-color="#CECECE" stop-opacity="0.65"/>
</radialGradient>
<radialGradient id="paint6_radial_3264_2613" cx="0" cy="0" r="1" gradientUnits="userSpaceOnUse" gradientTransform="translate(435.5 532.5) rotate(90) scale(2.5)">
<stop stop-color="white"/>
<stop offset="1" stop-color="#CECECE" stop-opacity="0.65"/>
</radialGradient>
<radialGradient id="paint7_radial_3264_2613" cx="0" cy="0" r="1" gradientUnits="userSpaceOnUse" gradientTransform="translate(549.5 224.5) rotate(90) scale(2.5)">
<stop stop-color="white"/>
<stop offset="1" stop-color="#CECECE" stop-opacity="0.65"/>
</radialGradient>
<radialGradient id="paint8_radial_3264_2613" cx="0" cy="0" r="1" gradientUnits="userSpaceOnUse" gradientTransform="translate(1326 133) rotate(90) scale(4)">
<stop stop-color="white"/>
<stop offset="1" stop-color="#CECECE" stop-opacity="0.65"/>
</radialGradient>
<radialGradient id="paint9_radial_3264_2613" cx="0" cy="0" r="1" gradientUnits="userSpaceOnUse" gradientTransform="translate(1722 308.023) rotate(90) scale(3)">
<stop stop-color="white"/>
<stop offset="1" stop-color="#CECECE" stop-opacity="0.65"/>
</radialGradient>
<radialGradient id="paint10_radial_3264_2613" cx="0" cy="0" r="1" gradientUnits="userSpaceOnUse" gradientTransform="translate(1798.5 393.5) rotate(90) scale(3.5)">
<stop stop-color="white"/>
<stop offset="1" stop-color="#CECECE" stop-opacity="0.65"/>
</radialGradient>
<radialGradient id="paint11_radial_3264_2613" cx="0" cy="0" r="1" gradientUnits="userSpaceOnUse" gradientTransform="translate(1892 216) rotate(90) scale(4)">
<stop stop-color="white"/>
<stop offset="1" stop-color="#CECECE" stop-opacity="0.65"/>
</radialGradient>
<radialGradient id="paint12_radial_3264_2613" cx="0" cy="0" r="1" gradientUnits="userSpaceOnUse" gradientTransform="translate(277.5 370.5) rotate(90) scale(2.5)">
<stop stop-color="white"/>
<stop offset="1" stop-color="#CECECE" stop-opacity="0.65"/>
</radialGradient>
<radialGradient id="paint13_radial_3264_2613" cx="0" cy="0" r="1" gradientUnits="userSpaceOnUse" gradientTransform="translate(357 164.023) rotate(90) scale(3)">
<stop stop-color="white"/>
<stop offset="1" stop-color="#CECECE" stop-opacity="0.65"/>
</radialGradient>
<radialGradient id="paint14_radial_3264_2613" cx="0" cy="0" r="1" gradientUnits="userSpaceOnUse" gradientTransform="translate(217.5 341.523) rotate(90) scale(1.5)">
<stop stop-color="white"/>
<stop offset="1" stop-color="#CECECE" stop-opacity="0.65"/>
</radialGradient>
<radialGradient id="paint15_radial_3264_2613" cx="0" cy="0" r="1" gradientUnits="userSpaceOnUse" gradientTransform="translate(136.5 85.5234) rotate(90) scale(7.5)">
<stop stop-color="white"/>
<stop offset="1" stop-color="#CECECE" stop-opacity="0.65"/>
</radialGradient>
<radialGradient id="paint16_radial_3264_2613" cx="0" cy="0" r="1" gradientUnits="userSpaceOnUse" gradientTransform="translate(1313 685) rotate(90) scale(3)">
<stop stop-color="white"/>
<stop offset="1" stop-color="#CECECE" stop-opacity="0.65"/>
</radialGradient>
<radialGradient id="paint17_radial_3264_2613" cx="0" cy="0" r="1" gradientUnits="userSpaceOnUse" gradientTransform="translate(1319 494) rotate(90) scale(3)">
<stop stop-color="white"/>
<stop offset="1" stop-color="#CECECE" stop-opacity="0.65"/>
</radialGradient>
<radialGradient id="paint18_radial_3264_2613" cx="0" cy="0" r="1" gradientUnits="userSpaceOnUse" gradientTransform="translate(1153 40) rotate(90) scale(3)">
<stop stop-color="white"/>
<stop offset="1" stop-color="#CECECE" stop-opacity="0.65"/>
</radialGradient>
<radialGradient id="paint19_radial_3264_2613" cx="0" cy="0" r="1" gradientUnits="userSpaceOnUse" gradientTransform="translate(1184 365) rotate(90) scale(3)">
<stop stop-color="white"/>
<stop offset="1" stop-color="#CECECE" stop-opacity="0.65"/>
</radialGradient>
<radialGradient id="paint20_radial_3264_2613" cx="0" cy="0" r="1" gradientUnits="userSpaceOnUse" gradientTransform="translate(712.547 280.613) rotate(90) scale(2.5)">
<stop stop-color="white"/>
<stop offset="1" stop-color="#CECECE" stop-opacity="0.65"/>
</radialGradient>
<linearGradient id="paint21_linear_3264_2613" x1="1566.21" y1="705.646" x2="1898.78" y2="-65.7123" gradientUnits="userSpaceOnUse">
<stop stop-color="#F5F5F5"/>
<stop offset="1" stop-color="#F5F5F5" stop-opacity="0.15"/>
</linearGradient>
<linearGradient id="paint22_linear_3264_2613" x1="391.51" y1="888.002" x2="521.952" y2="585.462" gradientUnits="userSpaceOnUse">
<stop stop-color="#F5F5F5"/>
<stop offset="1" stop-color="#F5F5F5" stop-opacity="0.15"/>
</linearGradient>
</defs>
</svg>
