<svg width="1920" height="1080" viewBox="0 0 1920 1080" fill="none" xmlns="http://www.w3.org/2000/svg">
<g clip-path="url(#clip0_6483_11625)">
<rect width="1920" height="1080" fill="white"/>
<rect width="1920" height="1080" fill="url(#paint0_linear_6483_11625)"/>
<g filter="url(#filter0_d_6483_11625)">
<path d="M217.5 340.023L217.905 341.118L219 341.523L217.905 341.929L217.5 343.023L217.095 341.929L216 341.523L217.095 341.118L217.5 340.023Z" fill="url(#paint1_radial_6483_11625)" fill-opacity="0.85" shape-rendering="crispEdges"/>
</g>
<g filter="url(#filter1_d_6483_11625)">
<path d="M1489 519.023L1490.35 522.673L1494 524.023L1490.35 525.374L1489 529.023L1487.65 525.374L1484 524.023L1487.65 522.673L1489 519.023Z" fill="url(#paint2_radial_6483_11625)" fill-opacity="0.85" shape-rendering="crispEdges"/>
</g>
<g filter="url(#filter2_d_6483_11625)">
<path d="M712.547 278.113L713.024 279.786L714.712 279.363L713.502 280.613L714.712 281.863L713.024 281.44L712.547 283.113L712.069 281.44L710.382 281.863L711.592 280.613L710.382 279.363L712.069 279.786L712.547 278.113Z" fill="url(#paint3_radial_6483_11625)" fill-opacity="0.85" shape-rendering="crispEdges"/>
</g>
<rect width="2.08163" height="58.2782" rx="0.5" transform="matrix(0.621343 0.783539 -0.783203 0.621766 815.644 844.567)" fill="url(#paint4_linear_6483_11625)" fill-opacity="0.4"/>
<rect width="2.08163" height="58.2782" rx="0.5" transform="matrix(0.621343 0.783539 -0.783203 0.621766 846.396 880.157)" fill="url(#paint5_linear_6483_11625)" fill-opacity="0.4"/>
<rect width="2.08163" height="134.177" rx="0.5" transform="matrix(0.621343 0.783539 -0.783203 0.621766 876.707 826.023)" fill="url(#paint6_linear_6483_11625)" fill-opacity="0.4"/>
<g filter="url(#filter3_d_6483_11625)">
<path d="M537 480.023L538.891 485.133L544 487.023L538.891 488.914L537 494.023L535.109 488.914L530 487.023L535.109 485.133L537 480.023Z" fill="url(#paint7_radial_6483_11625)" fill-opacity="0.85" shape-rendering="crispEdges"/>
</g>
<g filter="url(#filter4_d_6483_11625)">
<path d="M180 819.023L180.898 821.787H183.804L181.453 823.496L182.351 826.26L180 824.551L177.649 826.26L178.547 823.496L176.196 821.787H179.102L180 819.023Z" fill="url(#paint8_radial_6483_11625)" fill-opacity="0.85" shape-rendering="crispEdges"/>
</g>
<g filter="url(#filter5_d_6483_11625)">
<path d="M478 734.023L478.764 736.7L481.464 736.023L479.528 738.023L481.464 740.023L478.764 739.347L478 742.023L477.236 739.347L474.536 740.023L476.472 738.023L474.536 736.023L477.236 736.7L478 734.023Z" fill="url(#paint9_radial_6483_11625)" fill-opacity="0.85" shape-rendering="crispEdges"/>
</g>
<g filter="url(#filter6_d_6483_11625)">
<path d="M1034 411.023L1034.76 413.7L1037.46 413.023L1035.53 415.023L1037.46 417.023L1034.76 416.347L1034 419.023L1033.24 416.347L1030.54 417.023L1032.47 415.023L1030.54 413.023L1033.24 413.7L1034 411.023Z" fill="url(#paint10_radial_6483_11625)" fill-opacity="0.85" shape-rendering="crispEdges"/>
</g>
<g filter="url(#filter7_d_6483_11625)">
<path d="M1722 545.023L1722.57 547.031L1724.6 546.523L1723.15 548.023L1724.6 549.523L1722.57 549.016L1722 551.023L1721.43 549.016L1719.4 549.523L1720.85 548.023L1719.4 546.523L1721.43 547.031L1722 545.023Z" fill="url(#paint11_radial_6483_11625)" fill-opacity="0.85" shape-rendering="crispEdges"/>
</g>
<g filter="url(#filter8_d_6483_11625)">
<path d="M1806.5 679.023L1807.55 682.704L1811.26 681.773L1808.6 684.523L1811.26 687.273L1807.55 686.343L1806.5 690.023L1805.45 686.343L1801.74 687.273L1804.4 684.523L1801.74 681.773L1805.45 682.704L1806.5 679.023Z" fill="url(#paint12_radial_6483_11625)" fill-opacity="0.85" shape-rendering="crispEdges"/>
</g>
<g filter="url(#filter9_d_6483_11625)">
<path d="M1843 560.023L1844.08 562.943L1847 564.023L1844.08 565.104L1843 568.023L1841.92 565.104L1839 564.023L1841.92 562.943L1843 560.023Z" fill="url(#paint13_radial_6483_11625)" fill-opacity="0.85" shape-rendering="crispEdges"/>
</g>
<g filter="url(#filter10_d_6483_11625)">
<path d="M310.5 628.023L310.977 629.696L312.665 629.273L311.455 630.523L312.665 631.773L310.977 631.35L310.5 633.023L310.023 631.35L308.335 631.773L309.545 630.523L308.335 629.273L310.023 629.696L310.5 628.023Z" fill="url(#paint14_radial_6483_11625)" fill-opacity="0.85" shape-rendering="crispEdges"/>
</g>
<g filter="url(#filter11_d_6483_11625)">
<path d="M357 401.023L357.573 403.031L359.598 402.523L358.146 404.023L359.598 405.523L357.573 405.016L357 407.023L356.427 405.016L354.402 405.523L355.854 404.023L354.402 402.523L356.427 403.031L357 401.023Z" fill="url(#paint15_radial_6483_11625)" fill-opacity="0.85" shape-rendering="crispEdges"/>
</g>
<g filter="url(#filter12_d_6483_11625)">
<path d="M136.5 318.023L137.932 323.042L142.995 321.773L139.365 325.523L142.995 329.273L137.932 328.004L136.5 333.023L135.068 328.004L130.005 329.273L133.635 325.523L130.005 321.773L135.068 323.042L136.5 318.023Z" fill="url(#paint16_radial_6483_11625)" fill-opacity="0.85" shape-rendering="crispEdges"/>
</g>
<g filter="url(#filter13_d_6483_11625)">
<path d="M1001.5 823.023L1002.99 827.038L1007 828.523L1002.99 830.009L1001.5 834.023L1000.01 830.009L996 828.523L1000.01 827.038L1001.5 823.023Z" fill="url(#paint17_radial_6483_11625)" fill-opacity="0.85" shape-rendering="crispEdges"/>
</g>
<path fill-rule="evenodd" clip-rule="evenodd" d="M620.348 811.573C653.99 804.227 689.089 807.609 720.71 821.243L680.279 915.018C668.26 909.836 654.919 908.55 642.133 911.342C629.346 914.134 617.755 920.863 608.99 930.583C600.226 940.303 594.727 952.526 593.268 965.532C591.809 978.539 594.462 991.676 600.856 1003.1C607.249 1014.52 617.06 1023.65 628.91 1029.2C640.761 1034.76 654.054 1036.46 666.922 1034.07C679.791 1031.68 691.586 1025.32 700.651 1015.88C709.716 1006.44 715.595 994.394 717.461 981.439L818.538 995.999C814.054 1027.13 800.763 1056.26 780.323 1080H530.656C523.503 1071.69 517.16 1062.65 511.748 1052.98C494.927 1022.93 487.946 988.368 491.785 954.147C495.624 919.927 510.09 887.77 533.151 862.197C556.211 836.623 586.705 818.919 620.348 811.573Z" fill="url(#paint18_linear_6483_11625)" fill-opacity="0.2"/>
<g filter="url(#filter14_d_6483_11625)">
<path d="M648.5 277L649.715 280.285L653 281.5L649.715 282.715L648.5 286L647.285 282.715L644 281.5L647.285 280.285L648.5 277Z" fill="url(#paint19_radial_6483_11625)" fill-opacity="0.85" shape-rendering="crispEdges"/>
</g>
<g filter="url(#filter15_d_6483_11625)">
<path d="M845.5 362L845.977 363.673L847.665 363.25L846.455 364.5L847.665 365.75L845.977 365.327L845.5 367L845.023 365.327L843.335 365.75L844.545 364.5L843.335 363.25L845.023 363.673L845.5 362Z" fill="url(#paint20_radial_6483_11625)" fill-opacity="0.85" shape-rendering="crispEdges"/>
</g>
<g filter="url(#filter16_d_6483_11625)">
<path d="M712.547 518.113L713.024 519.786L714.712 519.363L713.502 520.613L714.712 521.863L713.024 521.44L712.547 523.113L712.069 521.44L710.382 521.863L711.592 520.613L710.382 519.363L712.069 519.786L712.547 518.113Z" fill="url(#paint21_radial_6483_11625)" fill-opacity="0.85" shape-rendering="crispEdges"/>
</g>
<path d="M1415.29 357.679C1507.13 144.674 1754.25 46.4494 1967.25 138.287C2180.26 230.125 2278.48 477.249 2186.65 690.254C2094.81 903.259 1847.68 1001.48 1634.68 909.646C1421.67 817.808 1323.45 570.684 1415.29 357.679ZM1947.56 587.17C1982.46 506.21 1945.13 412.283 1864.17 377.377C1783.21 342.471 1689.28 379.804 1654.38 460.764C1619.47 541.723 1656.8 635.65 1737.76 670.556C1818.72 705.462 1912.65 668.129 1947.56 587.17Z" fill="url(#paint22_linear_6483_11625)" fill-opacity="0.1"/>
</g>
<defs>
<filter id="filter0_d_6483_11625" x="183.216" y="307.239" width="68.5687" height="68.5687" filterUnits="userSpaceOnUse" color-interpolation-filters="sRGB">
<feFlood flood-opacity="0" result="BackgroundImageFix"/>
<feColorMatrix in="SourceAlpha" type="matrix" values="0 0 0 0 0 0 0 0 0 0 0 0 0 0 0 0 0 0 127 0" result="hardAlpha"/>
<feOffset/>
<feGaussianBlur stdDeviation="16.3922"/>
<feComposite in2="hardAlpha" operator="out"/>
<feColorMatrix type="matrix" values="0 0 0 0 1 0 0 0 0 1 0 0 0 0 1 0 0 0 0.25 0"/>
<feBlend mode="normal" in2="BackgroundImageFix" result="effect1_dropShadow_6483_11625"/>
<feBlend mode="normal" in="SourceGraphic" in2="effect1_dropShadow_6483_11625" result="shape"/>
</filter>
<filter id="filter1_d_6483_11625" x="1451.22" y="486.239" width="75.5687" height="75.5687" filterUnits="userSpaceOnUse" color-interpolation-filters="sRGB">
<feFlood flood-opacity="0" result="BackgroundImageFix"/>
<feColorMatrix in="SourceAlpha" type="matrix" values="0 0 0 0 0 0 0 0 0 0 0 0 0 0 0 0 0 0 127 0" result="hardAlpha"/>
<feOffset/>
<feGaussianBlur stdDeviation="16.3922"/>
<feComposite in2="hardAlpha" operator="out"/>
<feColorMatrix type="matrix" values="0 0 0 0 1 0 0 0 0 1 0 0 0 0 1 0 0 0 0.25 0"/>
<feBlend mode="normal" in2="BackgroundImageFix" result="effect1_dropShadow_6483_11625"/>
<feBlend mode="normal" in="SourceGraphic" in2="effect1_dropShadow_6483_11625" result="shape"/>
</filter>
<filter id="filter2_d_6483_11625" x="677.597" y="245.329" width="69.8989" height="70.5687" filterUnits="userSpaceOnUse" color-interpolation-filters="sRGB">
<feFlood flood-opacity="0" result="BackgroundImageFix"/>
<feColorMatrix in="SourceAlpha" type="matrix" values="0 0 0 0 0 0 0 0 0 0 0 0 0 0 0 0 0 0 127 0" result="hardAlpha"/>
<feOffset/>
<feGaussianBlur stdDeviation="16.3922"/>
<feComposite in2="hardAlpha" operator="out"/>
<feColorMatrix type="matrix" values="0 0 0 0 1 0 0 0 0 1 0 0 0 0 1 0 0 0 0.25 0"/>
<feBlend mode="normal" in2="BackgroundImageFix" result="effect1_dropShadow_6483_11625"/>
<feBlend mode="normal" in="SourceGraphic" in2="effect1_dropShadow_6483_11625" result="shape"/>
</filter>
<filter id="filter3_d_6483_11625" x="497.216" y="447.239" width="79.5687" height="79.5687" filterUnits="userSpaceOnUse" color-interpolation-filters="sRGB">
<feFlood flood-opacity="0" result="BackgroundImageFix"/>
<feColorMatrix in="SourceAlpha" type="matrix" values="0 0 0 0 0 0 0 0 0 0 0 0 0 0 0 0 0 0 127 0" result="hardAlpha"/>
<feOffset/>
<feGaussianBlur stdDeviation="16.3922"/>
<feComposite in2="hardAlpha" operator="out"/>
<feColorMatrix type="matrix" values="0 0 0 0 1 0 0 0 0 1 0 0 0 0 1 0 0 0 0.25 0"/>
<feBlend mode="normal" in2="BackgroundImageFix" result="effect1_dropShadow_6483_11625"/>
<feBlend mode="normal" in="SourceGraphic" in2="effect1_dropShadow_6483_11625" result="shape"/>
</filter>
<filter id="filter4_d_6483_11625" x="143.411" y="786.239" width="73.1772" height="72.8051" filterUnits="userSpaceOnUse" color-interpolation-filters="sRGB">
<feFlood flood-opacity="0" result="BackgroundImageFix"/>
<feColorMatrix in="SourceAlpha" type="matrix" values="0 0 0 0 0 0 0 0 0 0 0 0 0 0 0 0 0 0 127 0" result="hardAlpha"/>
<feOffset/>
<feGaussianBlur stdDeviation="16.3922"/>
<feComposite in2="hardAlpha" operator="out"/>
<feColorMatrix type="matrix" values="0 0 0 0 1 0 0 0 0 1 0 0 0 0 1 0 0 0 0.25 0"/>
<feBlend mode="normal" in2="BackgroundImageFix" result="effect1_dropShadow_6483_11625"/>
<feBlend mode="normal" in="SourceGraphic" in2="effect1_dropShadow_6483_11625" result="shape"/>
</filter>
<filter id="filter5_d_6483_11625" x="441.752" y="701.239" width="72.4969" height="73.5687" filterUnits="userSpaceOnUse" color-interpolation-filters="sRGB">
<feFlood flood-opacity="0" result="BackgroundImageFix"/>
<feColorMatrix in="SourceAlpha" type="matrix" values="0 0 0 0 0 0 0 0 0 0 0 0 0 0 0 0 0 0 127 0" result="hardAlpha"/>
<feOffset/>
<feGaussianBlur stdDeviation="16.3922"/>
<feComposite in2="hardAlpha" operator="out"/>
<feColorMatrix type="matrix" values="0 0 0 0 1 0 0 0 0 1 0 0 0 0 1 0 0 0 0.25 0"/>
<feBlend mode="normal" in2="BackgroundImageFix" result="effect1_dropShadow_6483_11625"/>
<feBlend mode="normal" in="SourceGraphic" in2="effect1_dropShadow_6483_11625" result="shape"/>
</filter>
<filter id="filter6_d_6483_11625" x="997.752" y="378.239" width="72.4969" height="73.5687" filterUnits="userSpaceOnUse" color-interpolation-filters="sRGB">
<feFlood flood-opacity="0" result="BackgroundImageFix"/>
<feColorMatrix in="SourceAlpha" type="matrix" values="0 0 0 0 0 0 0 0 0 0 0 0 0 0 0 0 0 0 127 0" result="hardAlpha"/>
<feOffset/>
<feGaussianBlur stdDeviation="16.3922"/>
<feComposite in2="hardAlpha" operator="out"/>
<feColorMatrix type="matrix" values="0 0 0 0 1 0 0 0 0 1 0 0 0 0 1 0 0 0 0.25 0"/>
<feBlend mode="normal" in2="BackgroundImageFix" result="effect1_dropShadow_6483_11625"/>
<feBlend mode="normal" in="SourceGraphic" in2="effect1_dropShadow_6483_11625" result="shape"/>
</filter>
<filter id="filter7_d_6483_11625" x="1686.62" y="512.239" width="70.7648" height="71.5687" filterUnits="userSpaceOnUse" color-interpolation-filters="sRGB">
<feFlood flood-opacity="0" result="BackgroundImageFix"/>
<feColorMatrix in="SourceAlpha" type="matrix" values="0 0 0 0 0 0 0 0 0 0 0 0 0 0 0 0 0 0 127 0" result="hardAlpha"/>
<feOffset/>
<feGaussianBlur stdDeviation="16.3922"/>
<feComposite in2="hardAlpha" operator="out"/>
<feColorMatrix type="matrix" values="0 0 0 0 1 0 0 0 0 1 0 0 0 0 1 0 0 0 0.25 0"/>
<feBlend mode="normal" in2="BackgroundImageFix" result="effect1_dropShadow_6483_11625"/>
<feBlend mode="normal" in="SourceGraphic" in2="effect1_dropShadow_6483_11625" result="shape"/>
</filter>
<filter id="filter8_d_6483_11625" x="1768.95" y="646.239" width="75.0951" height="76.5687" filterUnits="userSpaceOnUse" color-interpolation-filters="sRGB">
<feFlood flood-opacity="0" result="BackgroundImageFix"/>
<feColorMatrix in="SourceAlpha" type="matrix" values="0 0 0 0 0 0 0 0 0 0 0 0 0 0 0 0 0 0 127 0" result="hardAlpha"/>
<feOffset/>
<feGaussianBlur stdDeviation="16.3922"/>
<feComposite in2="hardAlpha" operator="out"/>
<feColorMatrix type="matrix" values="0 0 0 0 1 0 0 0 0 1 0 0 0 0 1 0 0 0 0.25 0"/>
<feBlend mode="normal" in2="BackgroundImageFix" result="effect1_dropShadow_6483_11625"/>
<feBlend mode="normal" in="SourceGraphic" in2="effect1_dropShadow_6483_11625" result="shape"/>
</filter>
<filter id="filter9_d_6483_11625" x="1806.22" y="527.239" width="73.5687" height="73.5687" filterUnits="userSpaceOnUse" color-interpolation-filters="sRGB">
<feFlood flood-opacity="0" result="BackgroundImageFix"/>
<feColorMatrix in="SourceAlpha" type="matrix" values="0 0 0 0 0 0 0 0 0 0 0 0 0 0 0 0 0 0 127 0" result="hardAlpha"/>
<feOffset/>
<feGaussianBlur stdDeviation="16.3922"/>
<feComposite in2="hardAlpha" operator="out"/>
<feColorMatrix type="matrix" values="0 0 0 0 1 0 0 0 0 1 0 0 0 0 1 0 0 0 0.25 0"/>
<feBlend mode="normal" in2="BackgroundImageFix" result="effect1_dropShadow_6483_11625"/>
<feBlend mode="normal" in="SourceGraphic" in2="effect1_dropShadow_6483_11625" result="shape"/>
</filter>
<filter id="filter10_d_6483_11625" x="275.551" y="595.239" width="69.8988" height="70.5687" filterUnits="userSpaceOnUse" color-interpolation-filters="sRGB">
<feFlood flood-opacity="0" result="BackgroundImageFix"/>
<feColorMatrix in="SourceAlpha" type="matrix" values="0 0 0 0 0 0 0 0 0 0 0 0 0 0 0 0 0 0 127 0" result="hardAlpha"/>
<feOffset/>
<feGaussianBlur stdDeviation="16.3922"/>
<feComposite in2="hardAlpha" operator="out"/>
<feColorMatrix type="matrix" values="0 0 0 0 1 0 0 0 0 1 0 0 0 0 1 0 0 0 0.25 0"/>
<feBlend mode="normal" in2="BackgroundImageFix" result="effect1_dropShadow_6483_11625"/>
<feBlend mode="normal" in="SourceGraphic" in2="effect1_dropShadow_6483_11625" result="shape"/>
</filter>
<filter id="filter11_d_6483_11625" x="321.618" y="368.239" width="70.7649" height="71.5687" filterUnits="userSpaceOnUse" color-interpolation-filters="sRGB">
<feFlood flood-opacity="0" result="BackgroundImageFix"/>
<feColorMatrix in="SourceAlpha" type="matrix" values="0 0 0 0 0 0 0 0 0 0 0 0 0 0 0 0 0 0 127 0" result="hardAlpha"/>
<feOffset/>
<feGaussianBlur stdDeviation="16.3922"/>
<feComposite in2="hardAlpha" operator="out"/>
<feColorMatrix type="matrix" values="0 0 0 0 1 0 0 0 0 1 0 0 0 0 1 0 0 0 0.25 0"/>
<feBlend mode="normal" in2="BackgroundImageFix" result="effect1_dropShadow_6483_11625"/>
<feBlend mode="normal" in="SourceGraphic" in2="effect1_dropShadow_6483_11625" result="shape"/>
</filter>
<filter id="filter12_d_6483_11625" x="97.2204" y="285.239" width="78.5591" height="80.5687" filterUnits="userSpaceOnUse" color-interpolation-filters="sRGB">
<feFlood flood-opacity="0" result="BackgroundImageFix"/>
<feColorMatrix in="SourceAlpha" type="matrix" values="0 0 0 0 0 0 0 0 0 0 0 0 0 0 0 0 0 0 127 0" result="hardAlpha"/>
<feOffset/>
<feGaussianBlur stdDeviation="16.3922"/>
<feComposite in2="hardAlpha" operator="out"/>
<feColorMatrix type="matrix" values="0 0 0 0 1 0 0 0 0 1 0 0 0 0 1 0 0 0 0.25 0"/>
<feBlend mode="normal" in2="BackgroundImageFix" result="effect1_dropShadow_6483_11625"/>
<feBlend mode="normal" in="SourceGraphic" in2="effect1_dropShadow_6483_11625" result="shape"/>
</filter>
<filter id="filter13_d_6483_11625" x="963.216" y="790.239" width="76.5687" height="76.5687" filterUnits="userSpaceOnUse" color-interpolation-filters="sRGB">
<feFlood flood-opacity="0" result="BackgroundImageFix"/>
<feColorMatrix in="SourceAlpha" type="matrix" values="0 0 0 0 0 0 0 0 0 0 0 0 0 0 0 0 0 0 127 0" result="hardAlpha"/>
<feOffset/>
<feGaussianBlur stdDeviation="16.3922"/>
<feComposite in2="hardAlpha" operator="out"/>
<feColorMatrix type="matrix" values="0 0 0 0 1 0 0 0 0 1 0 0 0 0 1 0 0 0 0.25 0"/>
<feBlend mode="normal" in2="BackgroundImageFix" result="effect1_dropShadow_6483_11625"/>
<feBlend mode="normal" in="SourceGraphic" in2="effect1_dropShadow_6483_11625" result="shape"/>
</filter>
<filter id="filter14_d_6483_11625" x="611.216" y="244.216" width="74.5687" height="74.5687" filterUnits="userSpaceOnUse" color-interpolation-filters="sRGB">
<feFlood flood-opacity="0" result="BackgroundImageFix"/>
<feColorMatrix in="SourceAlpha" type="matrix" values="0 0 0 0 0 0 0 0 0 0 0 0 0 0 0 0 0 0 127 0" result="hardAlpha"/>
<feOffset/>
<feGaussianBlur stdDeviation="16.3922"/>
<feComposite in2="hardAlpha" operator="out"/>
<feColorMatrix type="matrix" values="0 0 0 0 1 0 0 0 0 1 0 0 0 0 1 0 0 0 0.25 0"/>
<feBlend mode="normal" in2="BackgroundImageFix" result="effect1_dropShadow_6483_11625"/>
<feBlend mode="normal" in="SourceGraphic" in2="effect1_dropShadow_6483_11625" result="shape"/>
</filter>
<filter id="filter15_d_6483_11625" x="810.551" y="329.216" width="69.8989" height="70.5687" filterUnits="userSpaceOnUse" color-interpolation-filters="sRGB">
<feFlood flood-opacity="0" result="BackgroundImageFix"/>
<feColorMatrix in="SourceAlpha" type="matrix" values="0 0 0 0 0 0 0 0 0 0 0 0 0 0 0 0 0 0 127 0" result="hardAlpha"/>
<feOffset/>
<feGaussianBlur stdDeviation="16.3922"/>
<feComposite in2="hardAlpha" operator="out"/>
<feColorMatrix type="matrix" values="0 0 0 0 1 0 0 0 0 1 0 0 0 0 1 0 0 0 0.25 0"/>
<feBlend mode="normal" in2="BackgroundImageFix" result="effect1_dropShadow_6483_11625"/>
<feBlend mode="normal" in="SourceGraphic" in2="effect1_dropShadow_6483_11625" result="shape"/>
</filter>
<filter id="filter16_d_6483_11625" x="677.597" y="485.329" width="69.8989" height="70.5687" filterUnits="userSpaceOnUse" color-interpolation-filters="sRGB">
<feFlood flood-opacity="0" result="BackgroundImageFix"/>
<feColorMatrix in="SourceAlpha" type="matrix" values="0 0 0 0 0 0 0 0 0 0 0 0 0 0 0 0 0 0 127 0" result="hardAlpha"/>
<feOffset/>
<feGaussianBlur stdDeviation="16.3922"/>
<feComposite in2="hardAlpha" operator="out"/>
<feColorMatrix type="matrix" values="0 0 0 0 1 0 0 0 0 1 0 0 0 0 1 0 0 0 0.25 0"/>
<feBlend mode="normal" in2="BackgroundImageFix" result="effect1_dropShadow_6483_11625"/>
<feBlend mode="normal" in="SourceGraphic" in2="effect1_dropShadow_6483_11625" result="shape"/>
</filter>
<linearGradient id="paint0_linear_6483_11625" x1="960" y1="-4.84603e-07" x2="960" y2="1269.38" gradientUnits="userSpaceOnUse">
<stop/>
<stop/>
<stop offset="0.225869" stop-color="#000414"/>
<stop offset="0.558892" stop-color="#000A40"/>
</linearGradient>
<radialGradient id="paint1_radial_6483_11625" cx="0" cy="0" r="1" gradientUnits="userSpaceOnUse" gradientTransform="translate(217.5 341.523) rotate(90) scale(1.5)">
<stop stop-color="white"/>
<stop offset="1" stop-color="#CECECE" stop-opacity="0.65"/>
</radialGradient>
<radialGradient id="paint2_radial_6483_11625" cx="0" cy="0" r="1" gradientUnits="userSpaceOnUse" gradientTransform="translate(1489 524.023) rotate(90) scale(5)">
<stop stop-color="white"/>
<stop offset="1" stop-color="#CECECE" stop-opacity="0.65"/>
</radialGradient>
<radialGradient id="paint3_radial_6483_11625" cx="0" cy="0" r="1" gradientUnits="userSpaceOnUse" gradientTransform="translate(712.547 280.613) rotate(90) scale(2.5)">
<stop stop-color="white"/>
<stop offset="1" stop-color="#CECECE" stop-opacity="0.65"/>
</radialGradient>
<linearGradient id="paint4_linear_6483_11625" x1="1.04081" y1="0" x2="1.04081" y2="58.2782" gradientUnits="userSpaceOnUse">
<stop stop-color="white" stop-opacity="0.26"/>
<stop offset="1" stop-color="white"/>
</linearGradient>
<linearGradient id="paint5_linear_6483_11625" x1="1.04081" y1="0" x2="1.04081" y2="58.2782" gradientUnits="userSpaceOnUse">
<stop stop-color="white" stop-opacity="0.26"/>
<stop offset="1" stop-color="white"/>
</linearGradient>
<linearGradient id="paint6_linear_6483_11625" x1="1.04081" y1="0" x2="1.04081" y2="134.177" gradientUnits="userSpaceOnUse">
<stop stop-color="white" stop-opacity="0.26"/>
<stop offset="1" stop-color="white"/>
</linearGradient>
<radialGradient id="paint7_radial_6483_11625" cx="0" cy="0" r="1" gradientUnits="userSpaceOnUse" gradientTransform="translate(537 487.023) rotate(90) scale(7)">
<stop stop-color="white"/>
<stop offset="1" stop-color="#CECECE" stop-opacity="0.65"/>
</radialGradient>
<radialGradient id="paint8_radial_6483_11625" cx="0" cy="0" r="1" gradientUnits="userSpaceOnUse" gradientTransform="translate(180 823.023) rotate(90) scale(4)">
<stop stop-color="white"/>
<stop offset="1" stop-color="#CECECE" stop-opacity="0.65"/>
</radialGradient>
<radialGradient id="paint9_radial_6483_11625" cx="0" cy="0" r="1" gradientUnits="userSpaceOnUse" gradientTransform="translate(478 738.023) rotate(90) scale(4)">
<stop stop-color="white"/>
<stop offset="1" stop-color="#CECECE" stop-opacity="0.65"/>
</radialGradient>
<radialGradient id="paint10_radial_6483_11625" cx="0" cy="0" r="1" gradientUnits="userSpaceOnUse" gradientTransform="translate(1034 415.023) rotate(90) scale(4)">
<stop stop-color="white"/>
<stop offset="1" stop-color="#CECECE" stop-opacity="0.65"/>
</radialGradient>
<radialGradient id="paint11_radial_6483_11625" cx="0" cy="0" r="1" gradientUnits="userSpaceOnUse" gradientTransform="translate(1722 548.023) rotate(90) scale(3)">
<stop stop-color="white"/>
<stop offset="1" stop-color="#CECECE" stop-opacity="0.65"/>
</radialGradient>
<radialGradient id="paint12_radial_6483_11625" cx="0" cy="0" r="1" gradientUnits="userSpaceOnUse" gradientTransform="translate(1806.5 684.523) rotate(90) scale(5.5)">
<stop stop-color="white"/>
<stop offset="1" stop-color="#CECECE" stop-opacity="0.65"/>
</radialGradient>
<radialGradient id="paint13_radial_6483_11625" cx="0" cy="0" r="1" gradientUnits="userSpaceOnUse" gradientTransform="translate(1843 564.023) rotate(90) scale(4)">
<stop stop-color="white"/>
<stop offset="1" stop-color="#CECECE" stop-opacity="0.65"/>
</radialGradient>
<radialGradient id="paint14_radial_6483_11625" cx="0" cy="0" r="1" gradientUnits="userSpaceOnUse" gradientTransform="translate(310.5 630.523) rotate(90) scale(2.5)">
<stop stop-color="white"/>
<stop offset="1" stop-color="#CECECE" stop-opacity="0.65"/>
</radialGradient>
<radialGradient id="paint15_radial_6483_11625" cx="0" cy="0" r="1" gradientUnits="userSpaceOnUse" gradientTransform="translate(357 404.023) rotate(90) scale(3)">
<stop stop-color="white"/>
<stop offset="1" stop-color="#CECECE" stop-opacity="0.65"/>
</radialGradient>
<radialGradient id="paint16_radial_6483_11625" cx="0" cy="0" r="1" gradientUnits="userSpaceOnUse" gradientTransform="translate(136.5 325.523) rotate(90) scale(7.5)">
<stop stop-color="white"/>
<stop offset="1" stop-color="#CECECE" stop-opacity="0.65"/>
</radialGradient>
<radialGradient id="paint17_radial_6483_11625" cx="0" cy="0" r="1" gradientUnits="userSpaceOnUse" gradientTransform="translate(1001.5 828.523) rotate(90) scale(5.5)">
<stop stop-color="white"/>
<stop offset="1" stop-color="#CECECE" stop-opacity="0.65"/>
</radialGradient>
<linearGradient id="paint18_linear_6483_11625" x1="590.268" y1="1123.78" x2="720.71" y2="821.243" gradientUnits="userSpaceOnUse">
<stop stop-color="#F5F5F5"/>
<stop offset="1" stop-color="#F5F5F5" stop-opacity="0.15"/>
</linearGradient>
<radialGradient id="paint19_radial_6483_11625" cx="0" cy="0" r="1" gradientUnits="userSpaceOnUse" gradientTransform="translate(648.5 281.5) rotate(90) scale(4.5)">
<stop stop-color="white"/>
<stop offset="1" stop-color="#CECECE" stop-opacity="0.65"/>
</radialGradient>
<radialGradient id="paint20_radial_6483_11625" cx="0" cy="0" r="1" gradientUnits="userSpaceOnUse" gradientTransform="translate(845.5 364.5) rotate(90) scale(2.5)">
<stop stop-color="white"/>
<stop offset="1" stop-color="#CECECE" stop-opacity="0.65"/>
</radialGradient>
<radialGradient id="paint21_radial_6483_11625" cx="0" cy="0" r="1" gradientUnits="userSpaceOnUse" gradientTransform="translate(712.547 520.613) rotate(90) scale(2.5)">
<stop stop-color="white"/>
<stop offset="1" stop-color="#CECECE" stop-opacity="0.65"/>
</radialGradient>
<linearGradient id="paint22_linear_6483_11625" x1="1655.78" y1="859.373" x2="1908.9" y2="272.284" gradientUnits="userSpaceOnUse">
<stop stop-color="#F5F5F5"/>
<stop offset="1" stop-color="#F5F5F5" stop-opacity="0.15"/>
</linearGradient>
<clipPath id="clip0_6483_11625">
<rect width="1920" height="1080" fill="white"/>
</clipPath>
</defs>
</svg>
