<svg width="44" height="44" viewBox="0 0 44 44" fill="none" xmlns="http://www.w3.org/2000/svg">
<path d="M0 22C0 9.85029 9.85029 0 22 0C34.1497 0 44 9.85029 44 22C44 34.1497 34.1497 44 22 44C9.85029 44 0 34.1497 0 22ZM22.4918 31.6631C22.6496 31.5066 22.7751 31.3205 22.861 31.1155C22.9468 30.9105 22.9915 30.6905 22.9924 30.4683C22.9933 30.246 22.9504 30.0257 22.8661 29.82C22.7819 29.6144 22.6579 29.4273 22.5013 29.2695L16.9675 23.6923H31.0962C31.545 23.6923 31.9754 23.514 32.2928 23.1966C32.6102 22.8793 32.7885 22.4488 32.7885 22C32.7885 21.5512 32.6102 21.1207 32.2928 20.8034C31.9754 20.486 31.545 20.3077 31.0962 20.3077H16.9675L22.5013 14.7305C22.6579 14.5726 22.7818 14.3853 22.866 14.1795C22.9502 13.9737 22.993 13.7533 22.992 13.531C22.991 13.3086 22.9462 13.0886 22.8602 12.8836C22.7742 12.6785 22.6487 12.4924 22.4908 12.3359C22.3328 12.1793 22.1456 12.0554 21.9398 11.9712C21.734 11.8871 21.5136 11.8442 21.2913 11.8452C20.8422 11.8472 20.4123 12.0275 20.0962 12.3464L11.6991 20.808C11.3846 21.125 11.2081 21.5534 11.2081 22C11.2081 22.4466 11.3846 22.875 11.6991 23.192L20.0962 31.6536C20.2527 31.8117 20.4389 31.9374 20.6441 32.0235C20.8493 32.1095 21.0695 32.1543 21.292 32.1552C21.5145 32.1561 21.735 32.1131 21.9409 32.0286C22.1468 31.9442 22.334 31.82 22.4918 31.6631Z" fill="white"/>
</svg>
