<svg width="18" height="18" viewBox="0 0 18 18" fill="none" xmlns="http://www.w3.org/2000/svg">
<path d="M10.4791 2.51585L11.2791 1.07251C11.2893 1.05402 11.2958 1.03369 11.2982 1.01269C11.3006 0.991685 11.2988 0.970421 11.293 0.950108C11.2871 0.929795 11.2773 0.910832 11.2642 0.894301C11.251 0.87777 11.2347 0.863996 11.2162 0.853763C11.1977 0.843531 11.1774 0.837042 11.1564 0.834666C11.1354 0.83229 11.1141 0.834075 11.0938 0.839917C11.0735 0.845759 11.0545 0.855545 11.038 0.868716C11.0214 0.881887 11.0077 0.898186 10.9974 0.91668L10.1891 2.37501C9.49907 2.07247 8.75381 1.91627 8.00036 1.91627C7.24691 1.91627 6.50165 2.07247 5.81161 2.37501L5.00327 0.91668C4.98261 0.879108 4.94787 0.851283 4.90669 0.839328C4.86551 0.827372 4.82126 0.832265 4.78369 0.85293C4.74612 0.873595 4.71829 0.908339 4.70634 0.949519C4.69438 0.990698 4.69928 1.03494 4.71994 1.07251L5.51994 2.51585C4.75877 2.89126 4.11566 3.46901 3.66115 4.18577C3.20663 4.90252 2.95827 5.7306 2.94327 6.57918H13.0574C13.0423 5.73042 12.7937 4.90223 12.3389 4.18546C11.884 3.46869 11.2406 2.89103 10.4791 2.51585ZM5.66661 4.72835C5.58301 4.72835 5.50129 4.70355 5.43179 4.65708C5.3623 4.61062 5.30814 4.54459 5.27619 4.46734C5.24424 4.39009 5.23592 4.30509 5.25229 4.22311C5.26866 4.14113 5.30898 4.06585 5.36815 4.0068C5.42732 3.94775 5.50268 3.90757 5.58469 3.89136C5.66671 3.87516 5.75168 3.88364 5.82887 3.91575C5.90606 3.94785 5.97199 4.00214 6.01831 4.07173C6.06463 4.14131 6.08927 4.22308 6.08911 4.30668C6.08889 4.41859 6.04428 4.52584 5.96507 4.60489C5.88586 4.68395 5.77852 4.72835 5.66661 4.72835ZM10.3349 4.72835C10.2513 4.72835 10.1696 4.70355 10.1001 4.65708C10.0306 4.61062 9.97648 4.54459 9.94452 4.46734C9.91257 4.39009 9.90425 4.30509 9.92062 4.22311C9.93699 4.14113 9.97731 4.06585 10.0365 4.0068C10.0957 3.94775 10.171 3.90757 10.253 3.89136C10.335 3.87516 10.42 3.88364 10.4972 3.91575C10.5744 3.94785 10.6403 4.00214 10.6866 4.07173C10.733 4.14131 10.7576 4.22308 10.7574 4.30668C10.7572 4.41859 10.7126 4.52584 10.6334 4.60489C10.5542 4.68395 10.4469 4.72835 10.3349 4.72835ZM2.94161 14.3092C2.94139 14.4701 2.97293 14.6294 3.03442 14.7781C3.09592 14.9268 3.18616 15.0619 3.29996 15.1756C3.41377 15.2893 3.54891 15.3795 3.69762 15.4409C3.84634 15.5022 4.00572 15.5337 4.16661 15.5333H4.97744V18.0333C4.97744 18.334 5.09689 18.6224 5.30951 18.835C5.52213 19.0476 5.8105 19.1671 6.11119 19.1671C6.41188 19.1671 6.70025 19.0476 6.91287 18.835C7.12549 18.6224 7.24494 18.334 7.24494 18.0333V15.5333H8.75661V18.0333C8.75661 18.3339 8.87601 18.6222 9.08855 18.8347C9.3011 19.0473 9.58936 19.1667 9.88994 19.1667C10.1905 19.1667 10.4788 19.0473 10.6913 18.8347C10.9039 18.6222 11.0233 18.3339 11.0233 18.0333V15.5333H11.8349C11.9956 15.5335 12.1547 15.5019 12.3032 15.4404C12.4517 15.379 12.5866 15.2889 12.7002 15.1753C12.8138 15.0617 12.9039 14.9268 12.9654 14.7783C13.0268 14.6298 13.0584 14.4707 13.0583 14.31V6.97918H2.94161V14.3092ZM1.38577 6.78418C1.08519 6.78462 0.79705 6.90428 0.58458 7.11691C0.37211 7.32953 0.252662 7.61776 0.252441 7.91835V12.6425C0.252441 12.7913 0.281756 12.9387 0.338711 13.0762C0.395667 13.2137 0.479147 13.3387 0.584387 13.4439C0.689627 13.5491 0.814565 13.6326 0.952067 13.6896C1.08957 13.7465 1.23694 13.7758 1.38577 13.7758C1.53461 13.7758 1.68198 13.7465 1.81948 13.6896C1.95698 13.6326 2.08192 13.5491 2.18716 13.4439C2.2924 13.3387 2.37588 13.2137 2.43284 13.0762C2.48979 12.9387 2.51911 12.7913 2.51911 12.6425V7.91835C2.51867 7.6179 2.39912 7.32989 2.18668 7.11745C1.97423 6.905 1.68622 6.78545 1.38577 6.78501M14.6124 6.78501C14.3119 6.78546 14.0237 6.90512 13.8112 7.11774C13.5988 7.33037 13.4793 7.61859 13.4791 7.91918V12.6433C13.4791 12.7922 13.5084 12.9396 13.5654 13.0771C13.6223 13.2146 13.7058 13.3395 13.8111 13.4447C13.9163 13.55 14.0412 13.6335 14.1787 13.6904C14.3162 13.7474 14.4636 13.7767 14.6124 13.7767C14.7613 13.7767 14.9086 13.7474 15.0461 13.6904C15.1837 13.6335 15.3086 13.55 15.4138 13.4447C15.5191 13.3395 15.6025 13.2146 15.6595 13.0771C15.7165 12.9396 15.7458 12.7922 15.7458 12.6433V7.91835C15.7453 7.6179 15.6258 7.32989 15.4133 7.11745C15.2009 6.905 14.9129 6.78545 14.6124 6.78501Z" fill="white"/>
</svg>
