<svg width="20" height="20" viewBox="0 0 20 20" fill="none" xmlns="http://www.w3.org/2000/svg">
<path d="M12.4791 2.51585L13.2791 1.07251C13.2893 1.05402 13.2958 1.03369 13.2982 1.01269C13.3006 0.991685 13.2988 0.970421 13.293 0.950108C13.2871 0.929795 13.2773 0.910832 13.2642 0.894301C13.251 0.87777 13.2347 0.863996 13.2162 0.853763C13.1977 0.843531 13.1774 0.837042 13.1564 0.834666C13.1354 0.83229 13.1141 0.834075 13.0938 0.839917C13.0735 0.845759 13.0545 0.855545 13.038 0.868716C13.0214 0.881887 13.0077 0.898186 12.9974 0.91668L12.1891 2.37501C11.4991 2.07247 10.7538 1.91627 10.0004 1.91627C9.24691 1.91627 8.50165 2.07247 7.81161 2.37501L7.00327 0.91668C6.98261 0.879108 6.94787 0.851283 6.90669 0.839328C6.86551 0.827372 6.82126 0.832265 6.78369 0.85293C6.74612 0.873595 6.71829 0.908339 6.70634 0.949519C6.69438 0.990698 6.69928 1.03494 6.71994 1.07251L7.51994 2.51585C6.75877 2.89126 6.11566 3.46901 5.66115 4.18577C5.20663 4.90252 4.95827 5.7306 4.94327 6.57918H15.0574C15.0423 5.73042 14.7937 4.90223 14.3389 4.18546C13.884 3.46869 13.2406 2.89103 12.4791 2.51585ZM7.66661 4.72835C7.58301 4.72835 7.50129 4.70355 7.43179 4.65708C7.3623 4.61062 7.30814 4.54459 7.27619 4.46734C7.24424 4.39009 7.23592 4.30509 7.25229 4.22311C7.26866 4.14113 7.30898 4.06585 7.36815 4.0068C7.42732 3.94775 7.50268 3.90757 7.58469 3.89136C7.66671 3.87516 7.75168 3.88364 7.82887 3.91575C7.90606 3.94785 7.97199 4.00214 8.01831 4.07173C8.06463 4.14131 8.08927 4.22308 8.08911 4.30668C8.08889 4.41859 8.04428 4.52584 7.96507 4.60489C7.88586 4.68395 7.77852 4.72835 7.66661 4.72835ZM12.3349 4.72835C12.2513 4.72835 12.1696 4.70355 12.1001 4.65708C12.0306 4.61062 11.9765 4.54459 11.9445 4.46734C11.9126 4.39009 11.9043 4.30509 11.9206 4.22311C11.937 4.14113 11.9773 4.06585 12.0365 4.0068C12.0957 3.94775 12.171 3.90757 12.253 3.89136C12.335 3.87516 12.42 3.88364 12.4972 3.91575C12.5744 3.94785 12.6403 4.00214 12.6866 4.07173C12.733 4.14131 12.7576 4.22308 12.7574 4.30668C12.7572 4.41859 12.7126 4.52584 12.6334 4.60489C12.5542 4.68395 12.4469 4.72835 12.3349 4.72835ZM4.94161 14.3092C4.94139 14.4701 4.97293 14.6294 5.03442 14.7781C5.09592 14.9268 5.18616 15.0619 5.29996 15.1756C5.41377 15.2893 5.54891 15.3795 5.69762 15.4409C5.84634 15.5022 6.00572 15.5337 6.16661 15.5333H6.97744V18.0333C6.97744 18.334 7.09689 18.6224 7.30951 18.835C7.52213 19.0476 7.8105 19.1671 8.11119 19.1671C8.41188 19.1671 8.70025 19.0476 8.91287 18.835C9.12549 18.6224 9.24494 18.334 9.24494 18.0333V15.5333H10.7566V18.0333C10.7566 18.3339 10.876 18.6222 11.0886 18.8347C11.3011 19.0473 11.5894 19.1667 11.8899 19.1667C12.1905 19.1667 12.4788 19.0473 12.6913 18.8347C12.9039 18.6222 13.0233 18.3339 13.0233 18.0333V15.5333H13.8349C13.9956 15.5335 14.1547 15.5019 14.3032 15.4404C14.4517 15.379 14.5866 15.2889 14.7002 15.1753C14.8138 15.0617 14.9039 14.9268 14.9654 14.7783C15.0268 14.6298 15.0584 14.4707 15.0583 14.31V6.97918H4.94161V14.3092ZM3.38577 6.78418C3.08519 6.78462 2.79705 6.90428 2.58458 7.11691C2.37211 7.32953 2.25266 7.61776 2.25244 7.91835V12.6425C2.25244 12.7913 2.28176 12.9387 2.33871 13.0762C2.39567 13.2137 2.47915 13.3387 2.58439 13.4439C2.68963 13.5491 2.81456 13.6326 2.95207 13.6896C3.08957 13.7465 3.23694 13.7758 3.38577 13.7758C3.53461 13.7758 3.68198 13.7465 3.81948 13.6896C3.95698 13.6326 4.08192 13.5491 4.18716 13.4439C4.2924 13.3387 4.37588 13.2137 4.43284 13.0762C4.48979 12.9387 4.51911 12.7913 4.51911 12.6425V7.91835C4.51867 7.6179 4.39912 7.32989 4.18668 7.11745C3.97423 6.905 3.68622 6.78545 3.38577 6.78501M16.6124 6.78501C16.3119 6.78546 16.0237 6.90512 15.8112 7.11774C15.5988 7.33037 15.4793 7.61859 15.4791 7.91918V12.6433C15.4791 12.7922 15.5084 12.9396 15.5654 13.0771C15.6223 13.2146 15.7058 13.3395 15.8111 13.4447C15.9163 13.55 16.0412 13.6335 16.1787 13.6904C16.3162 13.7474 16.4636 13.7767 16.6124 13.7767C16.7613 13.7767 16.9086 13.7474 17.0461 13.6904C17.1837 13.6335 17.3086 13.55 17.4138 13.4447C17.5191 13.3395 17.6025 13.2146 17.6595 13.0771C17.7165 12.9396 17.7458 12.7922 17.7458 12.6433V7.91835C17.7453 7.6179 17.6258 7.32989 17.4133 7.11745C17.2009 6.905 16.9129 6.78545 16.6124 6.78501Z" fill="white"/>
</svg>
