<svg width="20" height="20" viewBox="0 0 20 20" fill="none" xmlns="http://www.w3.org/2000/svg">
<g id="uil:android">
<path id="Vector" d="M12.4792 2.51585L13.2792 1.07251C13.2894 1.05402 13.2959 1.03369 13.2983 1.01269C13.3006 0.991685 13.2989 0.970421 13.293 0.950108C13.2872 0.929795 13.2774 0.910832 13.2642 0.894301C13.251 0.87777 13.2347 0.863996 13.2163 0.853763C13.1978 0.843531 13.1774 0.837042 13.1564 0.834666C13.1354 0.83229 13.1142 0.834075 13.0938 0.839917C13.0735 0.845759 13.0546 0.855545 13.038 0.868716C13.0215 0.881887 13.0077 0.898186 12.9975 0.91668L12.1892 2.37501C11.4991 2.07247 10.7539 1.91627 10.0004 1.91627C9.24697 1.91627 8.50171 2.07247 7.81167 2.37501L7.00334 0.91668C6.98267 0.879108 6.94793 0.851283 6.90675 0.839328C6.86557 0.827372 6.82132 0.832265 6.78375 0.85293C6.74618 0.873595 6.71836 0.908339 6.7064 0.949519C6.69444 0.990698 6.69934 1.03494 6.72 1.07251L7.52 2.51585C6.75883 2.89126 6.11572 3.46901 5.66121 4.18577C5.2067 4.90252 4.95833 5.7306 4.94334 6.57918H15.0575C15.0424 5.73042 14.7937 4.90223 14.3389 4.18546C13.8841 3.46869 13.2407 2.89103 12.4792 2.51585ZM7.66667 4.72835C7.58307 4.72835 7.50135 4.70355 7.43185 4.65708C7.36236 4.61062 7.3082 4.54459 7.27625 4.46734C7.2443 4.39009 7.23598 4.30509 7.25235 4.22311C7.26872 4.14113 7.30904 4.06585 7.36821 4.0068C7.42738 3.94775 7.50274 3.90757 7.58476 3.89136C7.66677 3.87516 7.75174 3.88364 7.82893 3.91575C7.90612 3.94785 7.97205 4.00214 8.01837 4.07173C8.0647 4.14131 8.08933 4.22308 8.08917 4.30668C8.08895 4.41859 8.04434 4.52584 7.96513 4.60489C7.88592 4.68395 7.77858 4.72835 7.66667 4.72835ZM12.335 4.72835C12.2514 4.72835 12.1697 4.70355 12.1002 4.65708C12.0307 4.61062 11.9765 4.54459 11.9446 4.46734C11.9126 4.39009 11.9043 4.30509 11.9207 4.22311C11.9371 4.14113 11.9774 4.06585 12.0365 4.0068C12.0957 3.94775 12.1711 3.90757 12.2531 3.89136C12.3351 3.87516 12.4201 3.88364 12.4973 3.91575C12.5745 3.94785 12.6404 4.00214 12.6867 4.07173C12.733 4.14131 12.7577 4.22308 12.7575 4.30668C12.7573 4.41859 12.7127 4.52584 12.6335 4.60489C12.5543 4.68395 12.4469 4.72835 12.335 4.72835ZM4.94167 14.3092C4.94145 14.4701 4.97299 14.6294 5.03449 14.7781C5.09598 14.9268 5.18622 15.0619 5.30002 15.1756C5.41383 15.2893 5.54897 15.3795 5.69769 15.4409C5.8464 15.5022 6.00578 15.5337 6.16667 15.5333H6.9775V18.0333C6.9775 18.334 7.09695 18.6224 7.30957 18.835C7.52219 19.0476 7.81056 19.1671 8.11125 19.1671C8.41194 19.1671 8.70032 19.0476 8.91293 18.835C9.12555 18.6224 9.245 18.334 9.245 18.0333V15.5333H10.7567V18.0333C10.7567 18.3339 10.8761 18.6222 11.0886 18.8347C11.3012 19.0473 11.5894 19.1667 11.89 19.1667C12.1906 19.1667 12.4788 19.0473 12.6914 18.8347C12.9039 18.6222 13.0233 18.3339 13.0233 18.0333V15.5333H13.835C13.9957 15.5335 14.1548 15.5019 14.3033 15.4404C14.4518 15.379 14.5867 15.2889 14.7003 15.1753C14.8139 15.0617 14.904 14.9268 14.9654 14.7783C15.0269 14.6298 15.0584 14.4707 15.0583 14.31V6.97918H4.94167V14.3092ZM3.38584 6.78418C3.08525 6.78462 2.79711 6.90428 2.58464 7.11691C2.37217 7.32953 2.25272 7.61776 2.2525 7.91835V12.6425C2.2525 12.7913 2.28182 12.9387 2.33877 13.0762C2.39573 13.2137 2.47921 13.3387 2.58445 13.4439C2.68969 13.5491 2.81463 13.6326 2.95213 13.6896C3.08963 13.7465 3.237 13.7758 3.38584 13.7758C3.53467 13.7758 3.68204 13.7465 3.81954 13.6896C3.95705 13.6326 4.08198 13.5491 4.18722 13.4439C4.29246 13.3387 4.37594 13.2137 4.4329 13.0762C4.48985 12.9387 4.51917 12.7913 4.51917 12.6425V7.91835C4.51873 7.6179 4.39918 7.32989 4.18674 7.11745C3.97429 6.905 3.68628 6.78545 3.38584 6.78501M16.6125 6.78501C16.3119 6.78546 16.0238 6.90512 15.8113 7.11774C15.5988 7.33037 15.4794 7.61859 15.4792 7.91918V12.6433C15.4792 12.7922 15.5085 12.9396 15.5654 13.0771C15.6224 13.2146 15.7059 13.3395 15.8111 13.4447C15.9164 13.55 16.0413 13.6335 16.1788 13.6904C16.3163 13.7474 16.4637 13.7767 16.6125 13.7767C16.7613 13.7767 16.9087 13.7474 17.0462 13.6904C17.1837 13.6335 17.3087 13.55 17.4139 13.4447C17.5191 13.3395 17.6026 13.2146 17.6596 13.0771C17.7165 12.9396 17.7458 12.7922 17.7458 12.6433V7.91835C17.7454 7.6179 17.6258 7.32989 17.4134 7.11745C17.201 6.905 16.9129 6.78545 16.6125 6.78501Z" fill="white"/>
</g>
</svg>
