<svg width="18" height="20" viewBox="0 0 18 20" fill="none" xmlns="http://www.w3.org/2000/svg">
<path d="M14.9974 19.1976C13.8344 20.253 12.5645 20.0864 11.3422 19.5864C10.0486 19.0754 8.86179 19.0531 7.49699 19.5864C5.78802 20.2752 4.88607 20.0752 3.86544 19.1976C-1.92605 13.6094 -1.07157 5.09936 5.5032 4.78828C7.10535 4.86605 8.22093 5.6104 9.15848 5.67706C10.5589 5.41043 11.8999 4.64386 13.3953 4.74385C15.1873 4.87716 16.5403 5.54374 17.4303 6.74359C13.7276 8.82111 14.6058 13.3872 18 14.6648C17.3235 16.3313 16.4453 17.9866 14.9856 19.2087L14.9974 19.1976ZM9.0398 4.72163C8.86179 2.24416 11.0099 0.199975 13.4784 0C13.8225 2.8663 10.7013 4.99937 9.0398 4.72163Z" fill="white"/>
</svg>
