<svg width="34" height="24" viewBox="0 0 34 24" fill="none" xmlns="http://www.w3.org/2000/svg">
<path d="M6.71875 4.39453H3.02734V9.51562C3.96484 9.51172 4.75977 9.48633 5.41211 9.43945C6.06445 9.39258 6.71875 9.30469 7.375 9.17578L7.50391 10.0898C6.77344 10.2266 6.05469 10.3203 5.34766 10.3711C4.64062 10.418 3.76953 10.4414 2.73438 10.4414H1.90234V3.46875H6.71875V4.39453ZM10.1523 13.0195H9.03906V7.17188H6.12109V6.24609H9.03906V2.49609H10.1523V13.0195ZM21.3672 11.6953H11.7578V10.7695H15.9883V8.61328H12.8594V3.21094H13.9727V5.01562H19.1289V3.21094H20.2305V8.61328H17.0898V10.7695H21.3672V11.6953ZM19.1289 7.71094V5.91797H13.9727V7.71094H19.1289ZM30.8594 12.9961H29.7344V2.49609H30.8594V12.9961ZM27.7305 3.62109C27.7305 5.24609 27.3418 6.69141 26.5645 7.95703C25.791 9.21875 24.543 10.2617 22.8203 11.0859L22.2344 10.1836C23.6133 9.52734 24.6582 8.72852 25.3691 7.78711C26.084 6.8457 26.4961 5.75391 26.6055 4.51172H22.7383V3.62109H27.7305Z" fill="white"/>
<path d="M1 19.5C0.723858 19.5 0.5 19.7239 0.5 20C0.5 20.2761 0.723858 20.5 1 20.5V19.5ZM33.3536 20.3536C33.5488 20.1583 33.5488 19.8417 33.3536 19.6464L30.1716 16.4645C29.9763 16.2692 29.6597 16.2692 29.4645 16.4645C29.2692 16.6597 29.2692 16.9763 29.4645 17.1716L32.2929 20L29.4645 22.8284C29.2692 23.0237 29.2692 23.3403 29.4645 23.5355C29.6597 23.7308 29.9763 23.7308 30.1716 23.5355L33.3536 20.3536ZM1 20.5H33V19.5H1V20.5Z" fill="white"/>
</svg>
