<svg width="20" height="20" viewBox="0 0 20 20" fill="none" xmlns="http://www.w3.org/2000/svg">
<path d="M13.6322 11.6671C13.6989 11.1171 13.7489 10.5671 13.7489 10.0004C13.7489 9.43375 13.6989 8.88375 13.6322 8.33375H16.4489C16.5822 8.86708 16.6655 9.42542 16.6655 10.0004C16.6655 10.5754 16.5822 11.1337 16.4489 11.6671M12.1572 16.3004C12.6572 15.3754 13.0405 14.3754 13.3072 13.3337H15.7655C14.9582 14.724 13.6773 15.7771 12.1572 16.3004ZM11.9489 11.6671H8.04886C7.96553 11.1171 7.91553 10.5671 7.91553 10.0004C7.91553 9.43375 7.96553 8.87542 8.04886 8.33375H11.9489C12.0239 8.87542 12.0822 9.43375 12.0822 10.0004C12.0822 10.5671 12.0239 11.1171 11.9489 11.6671ZM9.99886 16.6337C9.30719 15.6337 8.74886 14.5254 8.40719 13.3337H11.5905C11.2489 14.5254 10.6905 15.6337 9.99886 16.6337ZM6.66553 6.66708H4.23219C5.03124 5.2731 6.31119 4.21832 7.83219 3.70042C7.33219 4.62542 6.95719 5.62542 6.66553 6.66708ZM4.23219 13.3337H6.66553C6.95719 14.3754 7.33219 15.3754 7.83219 16.3004C6.31438 15.7768 5.03623 14.7235 4.23219 13.3337ZM3.54886 11.6671C3.41553 11.1337 3.33219 10.5754 3.33219 10.0004C3.33219 9.42542 3.41553 8.86708 3.54886 8.33375H6.36553C6.29886 8.88375 6.24886 9.43375 6.24886 10.0004C6.24886 10.5671 6.29886 11.1171 6.36553 11.6671M9.99886 3.35875C10.6905 4.35875 11.2489 5.47542 11.5905 6.66708H8.40719C8.74886 5.47542 9.30719 4.35875 9.99886 3.35875ZM15.7655 6.66708H13.3072C13.0464 5.63496 12.6602 4.63866 12.1572 3.70042C13.6905 4.22542 14.9655 5.28375 15.7655 6.66708ZM9.99886 1.66708C5.39053 1.66708 1.66553 5.41708 1.66553 10.0004C1.66553 12.2106 2.5435 14.3302 4.1063 15.893C4.88013 16.6668 5.79878 17.2806 6.80983 17.6994C7.82088 18.1182 8.90451 18.3337 9.99886 18.3337C12.209 18.3337 14.3286 17.4558 15.8914 15.893C17.4542 14.3302 18.3322 12.2106 18.3322 10.0004C18.3322 8.90607 18.1166 7.82243 17.6979 6.81139C17.2791 5.80034 16.6652 4.88168 15.8914 4.10786C15.1176 3.33404 14.1989 2.72021 13.1879 2.30142C12.1768 1.88263 11.0932 1.66708 9.99886 1.66708Z" fill="white"/>
</svg>
