<svg width="18" height="18" viewBox="0 0 18 18" fill="none" xmlns="http://www.w3.org/2000/svg">
<path d="M12.6322 10.6671C12.6989 10.1171 12.7489 9.56708 12.7489 9.00042C12.7489 8.43375 12.6989 7.88375 12.6322 7.33375H15.4489C15.5822 7.86708 15.6655 8.42542 15.6655 9.00042C15.6655 9.57542 15.5822 10.1337 15.4489 10.6671M11.1572 15.3004C11.6572 14.3754 12.0405 13.3754 12.3072 12.3337H14.7655C13.9582 13.724 12.6773 14.7771 11.1572 15.3004ZM10.9489 10.6671H7.04886C6.96553 10.1171 6.91553 9.56708 6.91553 9.00042C6.91553 8.43375 6.96553 7.87542 7.04886 7.33375H10.9489C11.0239 7.87542 11.0822 8.43375 11.0822 9.00042C11.0822 9.56708 11.0239 10.1171 10.9489 10.6671ZM8.99886 15.6337C8.30719 14.6337 7.74886 13.5254 7.40719 12.3337H10.5905C10.2489 13.5254 9.69053 14.6337 8.99886 15.6337ZM5.66553 5.66708H3.23219C4.03124 4.2731 5.31119 3.21832 6.83219 2.70042C6.33219 3.62542 5.95719 4.62542 5.66553 5.66708ZM3.23219 12.3337H5.66553C5.95719 13.3754 6.33219 14.3754 6.83219 15.3004C5.31438 14.7768 4.03623 13.7235 3.23219 12.3337ZM2.54886 10.6671C2.41553 10.1337 2.33219 9.57542 2.33219 9.00042C2.33219 8.42542 2.41553 7.86708 2.54886 7.33375H5.36553C5.29886 7.88375 5.24886 8.43375 5.24886 9.00042C5.24886 9.56708 5.29886 10.1171 5.36553 10.6671M8.99886 2.35875C9.69053 3.35875 10.2489 4.47542 10.5905 5.66708H7.40719C7.74886 4.47542 8.30719 3.35875 8.99886 2.35875ZM14.7655 5.66708H12.3072C12.0464 4.63496 11.6602 3.63866 11.1572 2.70042C12.6905 3.22542 13.9655 4.28375 14.7655 5.66708ZM8.99886 0.667084C4.39053 0.667084 0.665527 4.41708 0.665527 9.00042C0.665527 11.2106 1.5435 13.3302 3.1063 14.893C3.88013 15.6668 4.79878 16.2806 5.80983 16.6994C6.82088 17.1182 7.90451 17.3337 8.99886 17.3337C11.209 17.3337 13.3286 16.4558 14.8914 14.893C16.4542 13.3302 17.3322 11.2106 17.3322 9.00042C17.3322 7.90607 17.1166 6.82243 16.6979 5.81139C16.2791 4.80034 15.6652 3.88168 14.8914 3.10786C14.1176 2.33404 13.1989 1.72021 12.1879 1.30142C11.1768 0.882632 10.0932 0.667084 8.99886 0.667084Z" fill="white"/>
</svg>
