<svg width="20" height="20" viewBox="0 0 20 20" fill="none" xmlns="http://www.w3.org/2000/svg">
<g id="Frame">
<path id="Vector" d="M13.6323 11.6671C13.699 11.1171 13.749 10.5671 13.749 10.0004C13.749 9.43375 13.699 8.88375 13.6323 8.33375H16.449C16.5823 8.86708 16.6656 9.42542 16.6656 10.0004C16.6656 10.5754 16.5823 11.1337 16.449 11.6671M12.1573 16.3004C12.6573 15.3754 13.0406 14.3754 13.3073 13.3337H15.7656C14.9583 14.724 13.6774 15.7771 12.1573 16.3004ZM11.949 11.6671H8.04895C7.96562 11.1171 7.91562 10.5671 7.91562 10.0004C7.91562 9.43375 7.96562 8.87542 8.04895 8.33375H11.949C12.024 8.87542 12.0823 9.43375 12.0823 10.0004C12.0823 10.5671 12.024 11.1171 11.949 11.6671ZM9.99895 16.6337C9.30729 15.6337 8.74895 14.5254 8.40729 13.3337H11.5906C11.249 14.5254 10.6906 15.6337 9.99895 16.6337ZM6.66562 6.66708H4.23229C5.03133 5.2731 6.31128 4.21832 7.83228 3.70042C7.33228 4.62542 6.95729 5.62542 6.66562 6.66708ZM4.23229 13.3337H6.66562C6.95729 14.3754 7.33228 15.3754 7.83228 16.3004C6.31447 15.7768 5.03632 14.7235 4.23229 13.3337ZM3.54895 11.6671C3.41562 11.1337 3.33229 10.5754 3.33229 10.0004C3.33229 9.42542 3.41562 8.86708 3.54895 8.33375H6.36562C6.29895 8.88375 6.24895 9.43375 6.24895 10.0004C6.24895 10.5671 6.29895 11.1171 6.36562 11.6671M9.99895 3.35875C10.6906 4.35875 11.249 5.47542 11.5906 6.66708H8.40729C8.74895 5.47542 9.30729 4.35875 9.99895 3.35875ZM15.7656 6.66708H13.3073C13.0465 5.63496 12.6603 4.63866 12.1573 3.70042C13.6906 4.22542 14.9656 5.28375 15.7656 6.66708ZM9.99895 1.66708C5.39062 1.66708 1.66562 5.41708 1.66562 10.0004C1.66562 12.2106 2.54359 14.3302 4.1064 15.893C4.88022 16.6668 5.79888 17.2806 6.80992 17.6994C7.82097 18.1182 8.9046 18.3337 9.99895 18.3337C12.2091 18.3337 14.3287 17.4558 15.8915 15.893C17.4543 14.3302 18.3323 12.2106 18.3323 10.0004C18.3323 8.90607 18.1167 7.82243 17.6979 6.81139C17.2792 5.80034 16.6653 4.88168 15.8915 4.10786C15.1177 3.33404 14.199 2.72021 13.188 2.30142C12.1769 1.88263 11.0933 1.66708 9.99895 1.66708Z" fill="white"/>
</g>
</svg>
