<svg width="68" height="68" viewBox="0 0 68 68" fill="none" xmlns="http://www.w3.org/2000/svg">
<rect width="68" height="68" rx="34" fill="white"/>
<path d="M36.7932 34.0197L34.8553 32.0811C34.4114 31.6371 33.8098 31.3869 33.182 31.3853C32.5542 31.3836 31.9513 31.6306 31.5051 32.0722L18.0321 44.5061C17.5416 44.9684 17.2195 45.5577 17.1898 46.2175C17.1755 46.5448 17.2288 46.8714 17.3464 47.1772C17.464 47.4829 17.6434 47.761 17.8733 47.9943L20.7679 50.9208C20.7694 50.9227 20.7711 50.9244 20.773 50.926C21.2203 51.3718 21.8255 51.6231 22.4571 51.6251H22.5447C23.2045 51.6006 23.7952 51.2911 24.2643 50.7961L36.785 37.3848C37.007 37.1646 37.1834 36.9029 37.304 36.6144C37.4246 36.326 37.4871 36.0166 37.4879 35.7039C37.4886 35.3913 37.4277 35.0816 37.3084 34.7925C37.1892 34.5035 37.0141 34.2409 36.7932 34.0197Z" fill="#000C76"/>
<path d="M52.3672 30.1016L52.3442 30.0786L49.8007 27.5611C49.6517 27.4126 49.4748 27.2951 49.2802 27.2153C49.0855 27.1356 48.877 27.0952 48.6667 27.0964C48.3258 27.0968 47.9938 27.2043 47.7174 27.4037C47.7174 27.3718 47.7219 27.3406 47.7241 27.3132C47.7575 26.8307 47.8094 26.1019 47.3381 25.4414C46.7778 24.6861 46.1626 23.9732 45.4975 23.3083C45.4957 23.3062 45.4937 23.3042 45.4916 23.3024C44.503 22.3286 42.3514 20.4947 39.0553 19.1506C37.8053 18.6376 36.467 18.3741 35.1158 18.375C32.7735 18.375 30.9922 19.4319 30.3101 20.0583C29.9239 20.4272 29.5717 20.8301 29.2577 21.2621C29.1077 21.4692 29.0285 21.7191 29.032 21.9747C29.0354 22.2304 29.1212 22.4781 29.2768 22.6811C29.4323 22.884 29.6491 23.0314 29.8951 23.1012C30.141 23.171 30.4029 23.1596 30.6419 23.0686C30.85 22.9908 31.0627 22.9256 31.2787 22.8734C31.7285 22.7783 32.1899 22.7495 32.648 22.788C33.627 22.8689 34.7848 23.3551 35.2969 23.7596C36.1653 24.458 36.5831 25.3991 36.6521 26.8092C36.6655 27.0927 36.0792 28.1556 35.1678 29.3683C34.9941 29.5971 34.9094 29.8812 34.9292 30.1678C34.9489 30.4544 35.0719 30.724 35.2754 30.9269L37.8292 33.4807C38.0438 33.6959 38.3327 33.8205 38.6365 33.8291C38.9402 33.8376 39.2357 33.7294 39.462 33.5268C40.1842 32.8818 41.2841 31.9095 41.6686 31.6713C42.2393 31.3202 42.6475 31.2527 42.7596 31.2408C43.0504 31.2123 43.343 31.274 43.5975 31.4175C43.5988 31.4302 43.5974 31.443 43.5934 31.4551C43.5895 31.4673 43.583 31.4785 43.5745 31.488L43.4394 31.6164L43.4172 31.6372C43.2679 31.7859 43.1496 31.9626 43.0689 32.1572C42.9883 32.3519 42.9469 32.5606 42.9473 32.7712C42.9476 32.9819 42.9896 33.1905 43.0709 33.3848C43.1522 33.5792 43.2711 33.7556 43.4209 33.9038L45.9636 36.4206C46.1126 36.5689 46.2896 36.6863 46.4842 36.766C46.6789 36.8456 46.8874 36.8858 47.0977 36.8844C47.52 36.8851 47.9256 36.7198 48.2273 36.4243L52.3464 32.3556C52.3605 32.3415 52.3746 32.3266 52.388 32.3118C52.6643 32.0089 52.8158 31.6126 52.8119 31.2026C52.8081 30.7926 52.6492 30.3992 52.3672 30.1016Z" fill="#000C76"/>
</svg>
