<svg width="118" height="42" viewBox="0 0 118 42" fill="none" xmlns="http://www.w3.org/2000/svg">
<rect x="0.5" width="117" height="42" rx="21" fill="#8784FF"/>
<circle cx="21.5" cy="21" r="17" fill="white"/>
<g clip-path="url(#clip0_2618_184)">
<path d="M29.5 16.4286C29.5 15.8223 29.2592 15.241 28.8305 14.8123C28.4019 14.3836 27.8205 14.1428 27.2143 14.1428H26.6429V13.5875C26.6429 13.28 26.4064 13.016 26.0989 13.0007C26.0217 12.9969 25.9445 13.0089 25.872 13.0359C25.7995 13.0629 25.7332 13.1044 25.6772 13.1577C25.6212 13.2111 25.5766 13.2753 25.5462 13.3464C25.5157 13.4175 25.5 13.494 25.5 13.5714V14.1428H17.5V13.5875C17.5 13.28 17.2636 13.016 16.9561 13.0007C16.8788 12.9969 16.8016 13.0089 16.7291 13.0359C16.6566 13.0629 16.5904 13.1044 16.5344 13.1577C16.4784 13.2111 16.4338 13.2753 16.4033 13.3464C16.3729 13.4175 16.3572 13.494 16.3571 13.5714V14.1428H15.7857C15.1795 14.1428 14.5981 14.3836 14.1695 14.8123C13.7408 15.241 13.5 15.8223 13.5 16.4286V16.8571C13.5 16.895 13.5151 16.9314 13.5418 16.9582C13.5686 16.9849 13.605 17 13.6429 17H29.3571C29.395 17 29.4314 16.9849 29.4582 16.9582C29.4849 16.9314 29.5 16.895 29.5 16.8571V16.4286Z" fill="#8784FF"/>
<path d="M13.5 26.6842C13.5 27.2984 13.7408 27.8874 14.1695 28.3217C14.5981 28.756 15.1795 29 15.7857 29H27.2143C27.8205 29 28.4019 28.756 28.8305 28.3217C29.2592 27.8874 29.5 27.2984 29.5 26.6842V18.1447C29.5 18.1064 29.485 18.0695 29.4582 18.0424C29.4314 18.0152 29.395 18 29.3571 18H13.6429C13.605 18 13.5686 18.0152 13.5418 18.0424C13.5151 18.0695 13.5 18.1064 13.5 18.1447V26.6842Z" fill="#8784FF"/>
</g>
<path d="M50.4461 15.0547C50.4461 16.5814 50.061 17.8643 49.2908 18.9033C48.5206 19.9378 47.3152 20.7559 45.6746 21.3574L45.0047 20.3047C46.4357 19.7943 47.4747 19.1198 48.1219 18.2812L45.2234 18.6094L45.0184 17.3789L48.7234 17.1875C48.8237 16.9095 48.8943 16.6087 48.9354 16.2852H45.5652V15.0547H50.4461ZM55.5184 20.7695H54.0691V18.2402H52.7703V20.7012H51.3348V14.6035H52.7703V17.0098H54.0691V14.3711H55.5184V20.7695ZM55.5184 24.4062H48.6824V25.377H55.9559V26.5664H47.1648V23.2988H54.0145V22.4375H47.1512V21.248H55.5184V24.4062ZM66.3372 23.4629H64.8333V14.3711H66.3372V23.4629ZM66.679 26.4707H58.1067V22.7246H59.638V25.2402H66.679V26.4707ZM62.3997 19.0195H58.2161V20.5781C59.4101 20.5736 60.4059 20.5462 61.2034 20.4961C62.0055 20.4414 62.8144 20.3411 63.6302 20.1953L63.7942 21.4121C62.9101 21.5762 62.0237 21.6855 61.135 21.7402C60.2509 21.7949 59.1321 21.8223 57.7786 21.8223H56.7259V17.8711H60.8958V16.4219H56.6985V15.2051H62.3997V19.0195ZM73.4373 16.7227H69.322V22.4785C70.3338 22.4694 71.2065 22.4375 71.9402 22.3828C72.6739 22.3281 73.4099 22.2324 74.1482 22.0957L74.3123 23.3262C73.4874 23.4902 72.6671 23.5996 71.8513 23.6543C71.0356 23.709 70.0102 23.7363 68.7752 23.7363H67.7908V15.4785H73.4373V16.7227ZM77.5662 26.7305H76.0486V19.9492H72.781V18.7051H76.0486V14.3574H77.5662V26.7305ZM91.9167 23.0254H87.0222V26.7305H85.5183V23.0254H80.6511V21.7812H91.9167V23.0254ZM90.864 17.0234H87.0495C87.0997 17.4382 87.3047 17.8415 87.6648 18.2334C88.0248 18.6253 88.517 18.9648 89.1413 19.252C89.7657 19.5391 90.4766 19.7305 91.2741 19.8262L90.7136 21.0293C89.711 20.9017 88.8223 20.6305 88.0476 20.2158C87.2774 19.7965 86.6872 19.2839 86.2771 18.6777C85.8669 19.2884 85.2745 19.8011 84.4997 20.2158C83.725 20.6305 82.8295 20.9017 81.8132 21.0293L81.2663 19.8262C82.0639 19.7305 82.7748 19.5413 83.3991 19.2588C84.0235 18.9717 84.518 18.6322 84.8825 18.2402C85.2471 17.8483 85.4545 17.4427 85.5046 17.0234H81.6902V15.8203H85.5183V14.3711H87.0222V15.8203H90.864V17.0234ZM101.45 19.1836H103.282V20.4551H101.45V26.6895H99.9328V14.3574H101.45V19.1836ZM98.1828 15.6426C98.1828 19.6986 96.3098 22.6471 92.5637 24.4883L91.7023 23.3125C93.2062 22.5651 94.3661 21.6605 95.1818 20.5986C96.0021 19.5368 96.4898 18.304 96.6447 16.9004H92.3723V15.6426H98.1828Z" fill="white"/>
<defs>
<clipPath id="clip0_2618_184">
<rect width="16" height="16" fill="white" transform="translate(13.5 13)"/>
</clipPath>
</defs>
</svg>
