<svg width="118" height="42" viewBox="0 0 118 42" fill="none" xmlns="http://www.w3.org/2000/svg">
<rect x="0.5" y="0.5" width="117" height="41" rx="20.5" stroke="#D1D1D1"/>
<circle cx="21" cy="21" r="17" fill="#E5E5F2"/>
<g clip-path="url(#clip0_2677_1411)">
<path d="M29 16.4286C29 15.8223 28.7592 15.241 28.3305 14.8123C27.9019 14.3836 27.3205 14.1428 26.7143 14.1428H26.1429V13.5875C26.1429 13.28 25.9064 13.016 25.5989 13.0007C25.5217 12.9969 25.4445 13.0089 25.372 13.0359C25.2995 13.0629 25.2332 13.1044 25.1772 13.1577C25.1212 13.2111 25.0766 13.2753 25.0462 13.3464C25.0157 13.4175 25 13.494 25 13.5714V14.1428H17V13.5875C17 13.28 16.7636 13.016 16.4561 13.0007C16.3788 12.9969 16.3016 13.0089 16.2291 13.0359C16.1566 13.0629 16.0904 13.1044 16.0344 13.1577C15.9784 13.2111 15.9338 13.2753 15.9033 13.3464C15.8729 13.4175 15.8572 13.494 15.8571 13.5714V14.1428H15.2857C14.6795 14.1428 14.0981 14.3836 13.6695 14.8123C13.2408 15.241 13 15.8223 13 16.4286V16.8571C13 16.895 13.0151 16.9314 13.0418 16.9582C13.0686 16.9849 13.105 17 13.1429 17H28.8571C28.895 17 28.9314 16.9849 28.9582 16.9582C28.9849 16.9314 29 16.895 29 16.8571V16.4286Z" fill="#8784FF"/>
<path d="M13 26.6842C13 27.2984 13.2408 27.8874 13.6695 28.3217C14.0981 28.756 14.6795 29 15.2857 29H26.7143C27.3205 29 27.9019 28.756 28.3305 28.3217C28.7592 27.8874 29 27.2984 29 26.6842V18.1447C29 18.1064 28.985 18.0695 28.9582 18.0424C28.9314 18.0152 28.895 18 28.8571 18H13.1429C13.105 18 13.0686 18.0152 13.0418 18.0424C13.0151 18.0695 13 18.1064 13 18.1447V26.6842Z" fill="#8784FF"/>
</g>
<path d="M50.3777 15.1504C50.3777 18.0898 48.7827 20.1589 45.5926 21.3574L45.1141 20.5918C46.7729 19.9766 47.9441 19.1357 48.6277 18.0693L45.2098 18.4316L45.032 17.5293L49.0311 17.2695C49.1769 16.873 49.2703 16.4629 49.3113 16.0391H45.6199V15.1504H50.3777ZM55.2586 20.8652H54.2332V18.1582H52.5789V20.7695H51.5535V14.6992H52.5789V17.2559H54.2332V14.4668H55.2586V20.8652ZM55.2586 24.2559H48.2859V25.582H55.7508V26.4434H47.2195V23.4355H54.2059V22.2734H47.1922V21.4121H55.2586V24.2559ZM66.0774 23.4082H65.0247V14.4668H66.0774V23.4082ZM66.4329 26.3477H58.1067V22.7109H59.1868V25.4453H66.4329V26.3477ZM62.222 18.8418H57.7376V20.7832C58.9544 20.7832 59.9934 20.7559 60.8548 20.7012C61.7207 20.6419 62.6093 20.5326 63.5208 20.373L63.6302 21.2617C62.6959 21.4212 61.789 21.5306 60.9095 21.5898C60.0299 21.6445 58.9544 21.6764 57.6829 21.6855H56.6985V17.9941H61.1555V16.2031H56.6712V15.3281H62.222V18.8418ZM73.3689 16.5176H68.8709V22.7109C70.0284 22.7109 71.0014 22.6836 71.7898 22.6289C72.5828 22.5742 73.3826 22.4694 74.1892 22.3145L74.3259 23.2031C73.4646 23.3672 72.6215 23.4788 71.7966 23.5381C70.9718 23.5973 69.9464 23.627 68.7205 23.627H67.7908V15.6152H73.3689V16.5176ZM77.2654 26.6348H76.1853V19.7715H72.6443V18.8828H76.1853V14.4531H77.2654V26.6348ZM91.903 22.7109H86.8855V26.6348H85.8327V22.7109H80.8288V21.8086H91.903V22.7109ZM86.8991 16.8594C86.8991 17.347 87.1019 17.8141 87.5075 18.2607C87.9131 18.7028 88.4463 19.0788 89.1072 19.3887C89.768 19.6986 90.4629 19.9036 91.1921 20.0039L90.7956 20.8652C90.1667 20.7695 89.5606 20.6032 88.9773 20.3662C88.3985 20.1292 87.8812 19.8353 87.4255 19.4844C86.9743 19.1335 86.6234 18.7415 86.3728 18.3086C86.1221 18.7461 85.7667 19.1403 85.3064 19.4912C84.8506 19.8421 84.3311 20.1361 83.7478 20.373C83.1644 20.6055 82.556 20.7695 81.9226 20.8652L81.5261 20.0039C82.2553 19.9036 82.9502 19.7008 83.6111 19.3955C84.2719 19.0856 84.8073 18.7096 85.2175 18.2676C85.6277 17.821 85.8327 17.3516 85.8327 16.8594V16.8457H81.9089V15.9707H85.8327V14.4531H86.8855V15.9707H90.8366V16.8457H86.8991V16.8594ZM101.355 19.4023H103.323V20.3047H101.355V26.6074H100.288V14.4531H101.355V19.4023ZM98.2102 15.7656C98.2102 17.5749 97.7567 19.2155 96.8498 20.6875C95.9429 22.1549 94.537 23.3581 92.632 24.2969L92.0305 23.4492C93.5936 22.6699 94.8036 21.7083 95.6604 20.5645C96.5171 19.416 97.007 18.1172 97.1301 16.668H92.591V15.7656H98.2102Z" fill="#868686"/>
<defs>
<clipPath id="clip0_2677_1411">
<rect width="16" height="16" fill="white" transform="translate(13 13)"/>
</clipPath>
</defs>
</svg>
