<svg width="143" height="42" viewBox="0 0 143 42" fill="none" xmlns="http://www.w3.org/2000/svg">
<rect x="1" y="0.5" width="141" height="41" rx="20.5" stroke="#D1D1D1"/>
<circle cx="21.5" cy="21" r="17" fill="#E5E5F2"/>
<path d="M21 12.0624C16.0719 12.0624 12.0625 16.0719 12.0625 20.9999C12.0625 25.928 16.0719 29.9374 21 29.9374C25.9281 29.9374 29.9375 25.928 29.9375 20.9999C29.9375 16.0719 25.9281 12.0624 21 12.0624ZM18.8421 17.082C19.3865 16.505 20.1527 16.1874 21 16.1874C21.8473 16.1874 22.6066 16.5071 23.1532 17.0872C23.707 17.675 23.9764 18.4648 23.9129 19.3138C23.7857 20.9999 22.4794 22.3749 21 22.3749C19.5206 22.3749 18.2118 20.9999 18.0871 19.3134C18.024 18.4575 18.293 17.6651 18.8421 17.082ZM21 28.5624C19.9904 28.5631 18.991 28.361 18.061 27.9682C17.131 27.5754 16.2893 26.9998 15.5859 26.2756C15.9888 25.7011 16.5021 25.2127 17.0959 24.8388C18.1911 24.1367 19.5773 23.7499 21 23.7499C22.4227 23.7499 23.8089 24.1367 24.9029 24.8388C25.4971 25.2125 26.0109 25.701 26.4141 26.2756C25.7107 26.9999 24.8691 27.5755 23.9391 27.9684C23.009 28.3612 22.0096 28.5632 21 28.5624Z" fill="#8784FF"/>
<path d="M48.6456 16.8047C48.6456 17.2103 48.7504 17.6113 48.96 18.0078C49.1742 18.4043 49.4727 18.762 49.8555 19.0811C50.2429 19.3955 50.6873 19.6393 51.1886 19.8125L50.71 20.6055C50.113 20.4004 49.5958 20.0973 49.1583 19.6963C48.7208 19.2952 48.3881 18.835 48.1602 18.3154C47.9369 18.8805 47.6065 19.3841 47.169 19.8262C46.7315 20.2682 46.2165 20.6055 45.6241 20.8379L45.1046 20.0176C45.6059 19.8262 46.0456 19.5596 46.4239 19.2178C46.8067 18.876 47.1029 18.4954 47.3126 18.0762C47.5222 17.6569 47.6293 17.2331 47.6339 16.8047V16.6953H45.3917V15.8477H47.6339V14.5215H48.6456V15.8477H50.8468V16.6953H48.6456V16.8047ZM55.3721 20.9609H54.3468V18.1172H52.7608V20.8652H51.7218V14.6992H52.7608V17.2285H54.3468V14.4668H55.3721V20.9609ZM55.3721 24.3105H48.3995V25.6094H55.8643V26.4434H47.3331V23.5039H54.3194V22.3418H47.3057V21.5078H55.3721V24.3105ZM66.191 23.4082H65.1382V14.4668H66.191V23.4082ZM66.5464 26.3477H58.2203V22.7109H59.3004V25.4453H66.5464V26.3477ZM62.3355 18.8418H57.8511V20.7832C59.0679 20.7832 60.107 20.7559 60.9683 20.7012C61.8342 20.6419 62.7229 20.5326 63.6343 20.373L63.7437 21.2617C62.8095 21.4212 61.9026 21.5306 61.023 21.5898C60.1434 21.6445 59.0679 21.6764 57.7964 21.6855H56.8121V17.9941H61.2691V16.2031H56.7847V15.3281H62.3355V18.8418ZM77.3653 26.6348H76.2852V19.7715H73.6192V18.8828H76.2852V14.4531H77.3653V26.6348ZM71.5 18.0625C71.5 18.7233 71.6436 19.3932 71.9307 20.0723C72.2224 20.7467 72.6143 21.3529 73.1065 21.8906C73.5987 22.4284 74.1387 22.8294 74.7266 23.0938L74.084 23.9551C73.3959 23.6178 72.7738 23.1074 72.2178 22.4238C71.6664 21.7357 71.2517 20.9655 70.9737 20.1133C70.6957 21.0111 70.2764 21.8268 69.7159 22.5605C69.1553 23.2897 68.5287 23.8366 67.836 24.2012L67.1797 23.3672C67.7631 23.0801 68.3008 22.6562 68.793 22.0957C69.2898 21.5306 69.684 20.8949 69.9756 20.1885C70.2673 19.4775 70.4154 18.7689 70.42 18.0625V16.5996H67.6446V15.7109H74.2891V16.5996H71.5V18.0625ZM91.0186 21.6992H89.9385V18.5137H87.4912V17.625H89.9385V14.4531H91.0186V21.6992ZM86.9854 22.082C87.8285 22.082 88.5553 22.1709 89.166 22.3486C89.7767 22.5264 90.2438 22.7839 90.5674 23.1211C90.8955 23.4583 91.0596 23.8639 91.0596 24.3379C91.0596 24.8118 90.8955 25.2174 90.5674 25.5547C90.2438 25.8965 89.7767 26.1562 89.166 26.334C88.5553 26.5117 87.8285 26.6029 86.9854 26.6074C86.1423 26.6029 85.4154 26.5117 84.8047 26.334C84.194 26.1562 83.7246 25.8965 83.3965 25.5547C83.0729 25.2174 82.9111 24.8118 82.9111 24.3379C82.9111 23.8639 83.0729 23.4583 83.3965 23.1211C83.7246 22.7839 84.194 22.5264 84.8047 22.3486C85.4154 22.1709 86.1423 22.082 86.9854 22.082ZM86.9854 22.916C86.3701 22.916 85.8346 22.973 85.3789 23.0869C84.9232 23.2008 84.5745 23.3649 84.333 23.5791C84.0915 23.7933 83.973 24.0462 83.9775 24.3379C83.973 24.625 84.0915 24.8757 84.333 25.0898C84.5745 25.2995 84.9232 25.4613 85.3789 25.5752C85.8346 25.6891 86.3701 25.7461 86.9854 25.7461C87.6006 25.7461 88.1338 25.6891 88.585 25.5752C89.0407 25.4613 89.3893 25.2995 89.6309 25.0898C89.8724 24.8757 89.9932 24.625 89.9932 24.3379C89.9932 24.0462 89.8724 23.7933 89.6309 23.5791C89.3893 23.3649 89.0407 23.2008 88.585 23.0869C88.1338 22.973 87.6006 22.916 86.9854 22.916ZM85.167 16.6816C85.167 17.2057 85.2923 17.7139 85.543 18.2061C85.7936 18.6937 86.1445 19.1289 86.5957 19.5117C87.0514 19.89 87.5732 20.1816 88.1611 20.3867L87.6006 21.248C86.9215 21.002 86.3245 20.6374 85.8096 20.1543C85.2992 19.6712 84.9141 19.113 84.6543 18.4795C84.39 19.1904 83.9867 19.8193 83.4443 20.3662C82.9066 20.9085 82.2777 21.3164 81.5576 21.5898L80.9971 20.7285C81.5941 20.5098 82.1273 20.1953 82.5967 19.7852C83.0661 19.3704 83.4307 18.8942 83.6904 18.3564C83.9548 17.8187 84.0869 17.265 84.0869 16.6953V16.2441H81.3389V15.3418H87.8877V16.2441H85.167V16.6816ZM103.191 25.0488H92.062V24.1602H97.0659V21.5352H93.3745V15.3145H94.4546V17.5156H100.771V15.3145H101.824V21.5352H98.1186V24.1602H103.191V25.0488ZM100.771 20.6602V18.3906H94.4546V20.6602H100.771ZM115.791 23.4629H114.711V20.1953H111.84V21.3848H106.331V15.2734H107.397V17.4336H110.788V15.2734H111.84V16.6953H114.711V14.4668H115.791V23.4629ZM116.065 26.3477H107.93V22.5742H109.01V25.4453H116.065V26.3477ZM110.788 20.4961V18.2812H107.397V20.4961H110.788ZM114.711 19.3066V17.5977H111.84V19.3066H114.711ZM126.911 21.7676H125.831V20.127H122.604V19.2383H125.831V17.5977H122.721C122.329 18.5638 121.682 19.3978 120.779 20.0996C119.877 20.8014 118.767 21.3483 117.45 21.7402L116.999 20.8926C117.979 20.6009 118.829 20.2295 119.549 19.7783C120.269 19.3226 120.836 18.7985 121.251 18.2061C121.666 17.6136 121.909 16.9688 121.982 16.2715H117.614V15.3691H123.151C123.151 15.8385 123.099 16.2943 122.994 16.7363H125.831V14.4668H126.911V21.7676ZM122.933 21.8906C123.748 21.8906 124.462 21.984 125.072 22.1709C125.683 22.3577 126.152 22.6266 126.48 22.9775C126.813 23.3239 126.979 23.7363 126.979 24.2148C126.979 24.6979 126.813 25.1149 126.48 25.4658C126.152 25.8167 125.683 26.0856 125.072 26.2725C124.462 26.4593 123.748 26.5527 122.933 26.5527C122.108 26.5527 121.39 26.4593 120.779 26.2725C120.169 26.0856 119.697 25.8167 119.364 25.4658C119.036 25.1149 118.872 24.6979 118.872 24.2148C118.872 23.7363 119.036 23.3239 119.364 22.9775C119.697 22.6266 120.169 22.3577 120.779 22.1709C121.39 21.984 122.108 21.8906 122.933 21.8906ZM122.933 22.752C122.326 22.7474 121.795 22.8044 121.34 22.9229C120.889 23.0368 120.54 23.2054 120.294 23.4287C120.048 23.652 119.925 23.9141 119.925 24.2148C119.925 24.5156 120.048 24.7777 120.294 25.001C120.54 25.2197 120.889 25.3861 121.34 25.5C121.791 25.6185 122.322 25.6777 122.933 25.6777C123.534 25.6777 124.058 25.6185 124.505 25.5C124.951 25.3861 125.295 25.2197 125.537 25.001C125.783 24.7777 125.908 24.5156 125.913 24.2148C125.908 23.9141 125.783 23.652 125.537 23.4287C125.291 23.2054 124.945 23.0368 124.498 22.9229C124.051 22.8044 123.53 22.7474 122.933 22.752Z" fill="#868686"/>
</svg>
