<svg width="14" height="14" viewBox="0 0 14 14" fill="none" xmlns="http://www.w3.org/2000/svg">
<g clip-path="url(#clip0_6526_18091)">
<path d="M7 0C3.14024 0 0 3.14024 0 7C0 10.8598 3.14024 14 7 14C10.8598 14 14 10.8598 14 7C14 3.14024 10.8598 0 7 0ZM9.69231 7.53846H7.53846V9.69231C7.53846 9.83512 7.48173 9.97208 7.38075 10.0731C7.27977 10.174 7.14281 10.2308 7 10.2308C6.85719 10.2308 6.72023 10.174 6.61925 10.0731C6.51827 9.97208 6.46154 9.83512 6.46154 9.69231V7.53846H4.30769C4.16488 7.53846 4.02792 7.48173 3.92694 7.38075C3.82596 7.27977 3.76923 7.14281 3.76923 7C3.76923 6.85719 3.82596 6.72023 3.92694 6.61925C4.02792 6.51827 4.16488 6.46154 4.30769 6.46154H6.46154V4.30769C6.46154 4.16488 6.51827 4.02792 6.61925 3.92694C6.72023 3.82596 6.85719 3.76923 7 3.76923C7.14281 3.76923 7.27977 3.82596 7.38075 3.92694C7.48173 4.02792 7.53846 4.16488 7.53846 4.30769V6.46154H9.69231C9.83512 6.46154 9.97208 6.51827 10.0731 6.61925C10.174 6.72023 10.2308 6.85719 10.2308 7C10.2308 7.14281 10.174 7.27977 10.0731 7.38075C9.97208 7.48173 9.83512 7.53846 9.69231 7.53846Z" fill="#414463"/>
<path d="M7 4.45508V9.54599" stroke="white" stroke-width="2" stroke-linecap="round" stroke-linejoin="round"/>
<path d="M9.5455 7H4.45459" stroke="white" stroke-width="2" stroke-linecap="round" stroke-linejoin="round"/>
</g>
<defs>
<clipPath id="clip0_6526_18091">
<rect width="14" height="14" fill="white"/>
</clipPath>
</defs>
</svg>
