<svg width="142" height="42" viewBox="0 0 142 42" fill="none" xmlns="http://www.w3.org/2000/svg">
<rect width="142" height="42" rx="21" fill="#8784FF"/>
<circle cx="21" cy="21" r="17" fill="white"/>
<path d="M20.5 12.0625C15.5719 12.0625 11.5625 16.0719 11.5625 21C11.5625 25.9281 15.5719 29.9375 20.5 29.9375C25.4281 29.9375 29.4375 25.9281 29.4375 21C29.4375 16.0719 25.4281 12.0625 20.5 12.0625ZM18.3421 17.0821C18.8865 16.505 19.6527 16.1875 20.5 16.1875C21.3473 16.1875 22.1066 16.5072 22.6532 17.0873C23.207 17.6751 23.4764 18.4648 23.4129 19.3139C23.2857 21 21.9794 22.375 20.5 22.375C19.0206 22.375 17.7118 21 17.5871 19.3135C17.524 18.4575 17.793 17.6652 18.3421 17.0821ZM20.5 28.5625C19.4904 28.5632 18.491 28.3611 17.561 27.9683C16.631 27.5755 15.7893 26.9999 15.0859 26.2757C15.4888 25.7012 16.0021 25.2127 16.5959 24.8388C17.6911 24.1367 19.0773 23.75 20.5 23.75C21.9227 23.75 23.3089 24.1367 24.4029 24.8388C24.9971 25.2126 25.5109 25.701 25.9141 26.2757C25.2107 27 24.3691 27.5756 23.4391 27.9684C22.509 28.3612 21.5096 28.5633 20.5 28.5625Z" fill="#8784FF"/>
<path d="M50.4835 16.8047H48.4737C48.4828 17.1738 48.5808 17.5361 48.7677 17.8916C48.9545 18.2425 49.2257 18.5592 49.5811 18.8418C49.9412 19.1243 50.3695 19.3477 50.8663 19.5117L50.21 20.6191C49.6404 20.4414 49.1482 20.1794 48.7335 19.833C48.3233 19.4867 48.002 19.0811 47.7696 18.6162C47.5417 19.1266 47.2227 19.5755 46.8126 19.9629C46.4024 20.3503 45.9125 20.6465 45.3428 20.8516L44.6593 19.7031C45.1469 19.5208 45.5684 19.2747 45.9239 18.9648C46.2794 18.6549 46.5505 18.3132 46.7374 17.9395C46.9242 17.5612 47.0245 17.1829 47.0382 16.8047H45.0011V15.6016H47.0382V14.4121H48.4737V15.6016H50.4835V16.8047ZM55.2276 20.8926H53.7784V18.2266H52.5889V20.8105H51.1534V14.6035H52.5889V17.0098H53.7784V14.3711H55.2276V20.8926ZM55.2276 24.4746H48.3917V25.4316H55.6651V26.5664H46.8741V23.3672H53.7237V22.5195H46.8604V21.3711H55.2276V24.4746ZM66.0464 23.4629H64.5425V14.3711H66.0464V23.4629ZM66.3882 26.4707H57.816V22.7246H59.3472V25.2402H66.3882V26.4707ZM62.1089 19.0195H57.9254V20.5781C59.1194 20.5736 60.1151 20.5462 60.9127 20.4961C61.7147 20.4414 62.5237 20.3411 63.3394 20.1953L63.5035 21.4121C62.6194 21.5762 61.733 21.6855 60.8443 21.7402C59.9602 21.7949 58.8414 21.8223 57.4879 21.8223H56.4351V17.8711H60.605V16.4219H56.4078V15.2051H62.1089V19.0195ZM77.2618 26.7305H75.7442V19.9766H73.3653V18.7324H75.7442V14.3574H77.2618V26.7305ZM71.4375 17.6387C71.4375 18.3587 71.5629 19.0697 71.8135 19.7715C72.0642 20.4733 72.4265 21.1022 72.9004 21.6582C73.3744 22.2096 73.9349 22.6243 74.5821 22.9023L73.6797 24.1191C72.9779 23.7865 72.3718 23.2988 71.8614 22.6562C71.3509 22.0137 70.9567 21.2708 70.6787 20.4277C70.3962 21.321 69.9952 22.1117 69.4756 22.7998C68.9607 23.488 68.3523 24.0098 67.6504 24.3652L66.7344 23.1758C67.377 22.875 67.9353 22.4352 68.4092 21.8564C68.8877 21.2731 69.2523 20.6146 69.503 19.8809C69.7582 19.1471 69.8881 18.3997 69.8926 17.6387V16.8184H67.2403V15.5742H74.0899V16.8184H71.4375V17.6387ZM90.71 21.6992H89.1924V18.6777H87.0869V17.4336H89.1924V14.3574H90.71V21.6992ZM86.5264 22.0137C87.3968 22.0137 88.1488 22.1071 88.7822 22.2939C89.4202 22.4762 89.9079 22.7451 90.2451 23.1006C90.5824 23.4515 90.751 23.873 90.751 24.3652C90.751 24.8574 90.5824 25.279 90.2451 25.6299C89.9079 25.9854 89.4202 26.2542 88.7822 26.4365C88.1488 26.6234 87.3968 26.7168 86.5264 26.7168C85.6605 26.7168 84.9108 26.6234 84.2773 26.4365C83.6439 26.2542 83.1585 25.9854 82.8213 25.6299C82.4886 25.279 82.3245 24.8574 82.3291 24.3652C82.3245 23.873 82.4886 23.4515 82.8213 23.1006C83.1585 22.7451 83.6439 22.4762 84.2773 22.2939C84.9108 22.1071 85.6605 22.0137 86.5264 22.0137ZM86.5264 23.1758C85.6605 23.1758 84.9951 23.2783 84.5303 23.4834C84.0654 23.6839 83.833 23.9779 83.833 24.3652C83.833 24.748 84.0654 25.0397 84.5303 25.2402C84.9951 25.4408 85.6605 25.541 86.5264 25.541C87.3923 25.541 88.0599 25.4408 88.5293 25.2402C88.9987 25.0397 89.2334 24.748 89.2334 24.3652C89.2334 23.9779 88.9987 23.6839 88.5293 23.4834C88.0599 23.2783 87.3923 23.1758 86.5264 23.1758ZM84.8994 16.4766C84.8994 16.987 85.0111 17.4837 85.2344 17.9668C85.4577 18.4453 85.7881 18.876 86.2256 19.2588C86.6631 19.637 87.1917 19.931 87.8115 20.1406L87.0459 21.3438C86.376 21.1159 85.7949 20.7809 85.3027 20.3389C84.8151 19.8923 84.4323 19.3727 84.1543 18.7803C83.8763 19.4502 83.4798 20.0358 82.9648 20.5371C82.4499 21.0339 81.8324 21.4121 81.1123 21.6719L80.3193 20.4688C80.9619 20.25 81.5111 19.9333 81.9668 19.5186C82.4225 19.0993 82.7666 18.6276 82.999 18.1035C83.236 17.5794 83.3545 17.0417 83.3545 16.4902V16.3945H80.7842V15.1641H87.4561V16.3945H84.8994V16.4766ZM102.773 25.2266H91.48V23.9824H96.3471V21.5762H92.7241V15.1777H94.2417V17.2012H99.9702V15.1777H101.488V21.5762H97.8511V23.9824H102.773V25.2266ZM99.9702 20.3457V18.418H94.2417V20.3457H99.9702ZM115.291 23.4902H113.774V20.3867H111.286V21.4805H105.502V15.1777H107.02V17.1738H109.782V15.1777H111.286V16.5039H113.774V14.3711H115.291V23.4902ZM115.565 26.4707H107.143V22.5879H108.688V25.2402H115.565V26.4707ZM109.782 20.2773V18.3496H107.02V20.2773H109.782ZM113.774 19.1562V17.7344H111.286V19.1562H113.774ZM126.411 21.5898H124.893V20.2227H121.954V18.9922H124.893V17.666H122.07C121.683 18.6458 121.045 19.4798 120.156 20.168C119.272 20.8516 118.153 21.3802 116.8 21.7539L116.184 20.5508C117.606 20.1634 118.709 19.6188 119.493 18.917C120.277 18.2152 120.73 17.3971 120.853 16.4629H116.841V15.2324H122.515C122.515 15.6745 122.478 16.0846 122.405 16.4629H124.893V14.3711H126.411V21.5898ZM122.323 21.7266C123.153 21.7266 123.882 21.8268 124.511 22.0273C125.14 22.2279 125.627 22.5127 125.974 22.8818C126.32 23.251 126.493 23.6862 126.493 24.1875C126.493 24.6888 126.32 25.124 125.974 25.4932C125.627 25.8623 125.14 26.1471 124.511 26.3477C123.882 26.5482 123.153 26.6484 122.323 26.6484C121.485 26.6484 120.749 26.5482 120.115 26.3477C119.482 26.1471 118.992 25.8623 118.645 25.4932C118.299 25.124 118.126 24.6888 118.126 24.1875C118.126 23.6862 118.299 23.251 118.645 22.8818C118.992 22.5127 119.482 22.2279 120.115 22.0273C120.749 21.8268 121.485 21.7266 122.323 21.7266ZM122.323 22.916C121.48 22.916 120.822 23.0277 120.348 23.251C119.878 23.4697 119.643 23.7819 119.643 24.1875C119.643 24.5885 119.88 24.8984 120.354 25.1172C120.828 25.3359 121.485 25.4453 122.323 25.4453C123.143 25.4453 123.791 25.3359 124.265 25.1172C124.739 24.8984 124.976 24.5885 124.976 24.1875C124.976 23.7819 124.739 23.4697 124.265 23.251C123.795 23.0277 123.148 22.916 122.323 22.916Z" fill="white"/>
</svg>
