<svg width="68" height="68" viewBox="0 0 68 68" fill="none" xmlns="http://www.w3.org/2000/svg">
<circle cx="34" cy="34" r="34" fill="white"/>
<path d="M35.7931 33.0196L33.8553 31.081C33.4114 30.637 32.8098 30.3868 32.182 30.3851C31.5542 30.3835 30.9513 30.6305 30.505 31.0721L17.0321 43.5059C16.5415 43.9683 16.2194 44.5576 16.1897 45.2174C16.1754 45.5447 16.2288 45.8713 16.3464 46.177C16.464 46.4827 16.6434 46.7609 16.8733 46.9942L19.7678 49.9207C19.7693 49.9226 19.7711 49.9243 19.773 49.9259C20.2203 50.3717 20.8255 50.6229 21.457 50.625H21.5446C22.2044 50.6005 22.7952 50.291 23.2643 49.796L35.785 36.3846C36.007 36.1645 36.1834 35.9027 36.304 35.6143C36.4246 35.3259 36.4871 35.0164 36.4878 34.7038C36.4886 34.3912 36.4276 34.0814 36.3084 33.7924C36.1892 33.5034 36.0141 33.2408 35.7931 33.0196Z" fill="#000C76"/>
<path d="M51.3672 29.1016L51.3442 29.0786L48.8007 26.5611C48.6517 26.4126 48.4748 26.2951 48.2801 26.2153C48.0855 26.1356 47.877 26.0952 47.6666 26.0964C47.3258 26.0968 46.9937 26.2043 46.7174 26.4037C46.7174 26.3718 46.7218 26.3406 46.7241 26.3132C46.7575 25.8307 46.8094 25.1019 46.3381 24.4414C45.7778 23.6861 45.1626 22.9732 44.4975 22.3083C44.4957 22.3062 44.4937 22.3042 44.4916 22.3024C43.503 21.3286 41.3514 19.4947 38.0553 18.1506C36.8053 17.6376 35.467 17.3741 34.1158 17.375C31.7734 17.375 29.9922 18.4319 29.3101 19.0583C28.9239 19.4272 28.5717 19.8301 28.2577 20.2621C28.1077 20.4692 28.0285 20.7191 28.032 20.9747C28.0354 21.2304 28.1212 21.4781 28.2767 21.6811C28.4322 21.884 28.6491 22.0313 28.8951 22.1012C29.141 22.171 29.4029 22.1596 29.6419 22.0686C29.85 21.9908 30.0627 21.9256 30.2787 21.8734C30.7285 21.7783 31.1898 21.7495 31.648 21.788C32.627 21.8689 33.7848 22.3551 34.2969 22.7596C35.1652 23.458 35.5831 24.3991 35.6521 25.8092C35.6655 26.0927 35.0791 27.1555 34.1677 28.3683C33.9941 28.5971 33.9094 28.8812 33.9291 29.1678C33.9489 29.4544 34.0719 29.724 34.2754 29.9269L36.8292 32.4807C37.0438 32.6959 37.3327 32.8205 37.6365 32.8291C37.9402 32.8376 38.2357 32.7294 38.462 32.5268C39.1842 31.8818 40.2841 30.9095 40.6686 30.6713C41.2393 30.3202 41.6475 30.2527 41.7596 30.2408C42.0504 30.2123 42.3429 30.274 42.5975 30.4175C42.5988 30.4302 42.5974 30.443 42.5934 30.4551C42.5895 30.4673 42.583 30.4785 42.5745 30.488L42.4394 30.6164L42.4172 30.6372C42.2679 30.7858 42.1495 30.9626 42.0689 31.1572C41.9882 31.3519 41.9469 31.5606 41.9472 31.7712C41.9476 31.9819 41.9896 32.1905 42.0709 32.3848C42.1522 32.5792 42.2711 32.7556 42.4209 32.9038L44.9636 35.4205C45.1126 35.5689 45.2896 35.6863 45.4842 35.766C45.6789 35.8456 45.8874 35.8858 46.0977 35.8844C46.52 35.8851 46.9256 35.7198 47.2273 35.4243L51.3464 31.3556C51.3605 31.3415 51.3746 31.3266 51.388 31.3118C51.6643 31.0089 51.8158 30.6126 51.8119 30.2026C51.8081 29.7926 51.6492 29.3992 51.3672 29.1016Z" fill="#000C76"/>
</svg>
