<svg width="143" height="42" viewBox="0 0 143 42" fill="none" xmlns="http://www.w3.org/2000/svg">
<rect x="1" y="0.5" width="141" height="41" rx="20.5" stroke="#D1D1D1"/>
<circle cx="21.5" cy="21" r="17" fill="#E5E5F2"/>
<path d="M21.8627 28.9081L17.7277 24.7731L13.5928 20.6382C13.4721 20.5174 13.3829 20.3688 13.3329 20.2055C13.2829 20.0422 13.2737 19.8691 13.3061 19.7014C13.3385 19.5337 13.4114 19.3765 13.5186 19.2435C13.6258 19.1105 13.764 19.0059 13.921 18.9387L19.42 16.5817C19.5463 16.5276 19.6606 16.4492 19.7566 16.3509C19.8525 16.2526 19.9282 16.1364 19.9792 16.0089L21.3202 12.6568C21.3845 12.4963 21.4875 12.3543 21.6201 12.2434C21.7528 12.1325 21.9108 12.0562 22.0802 12.0214C22.2495 11.9866 22.4249 11.9943 22.5905 12.0439C22.7561 12.0935 22.9068 12.1835 23.0292 12.3056L30.1953 19.4717C30.3174 19.5941 30.4073 19.7448 30.457 19.9104C30.5066 20.076 30.5143 20.2514 30.4795 20.4207C30.4447 20.5901 30.3684 20.7481 30.2575 20.8808C30.1466 21.0134 30.0046 21.1164 29.8441 21.1807L26.492 22.5217C26.3645 22.5727 26.2483 22.6484 26.15 22.7443C26.0517 22.8403 25.9733 22.9546 25.9192 23.0809L23.5622 28.5799C23.495 28.7369 23.3904 28.8751 23.2574 28.9823C23.1244 29.0895 22.9672 29.1624 22.7995 29.1948C22.6318 29.2272 22.4587 29.218 22.2954 29.168C22.1321 29.118 21.9835 29.0288 21.8627 28.9081Z" fill="#8784FF"/>
<path d="M12.5 29.9993L17.7262 24.7731ZM17.7262 24.7731L21.8611 28.9081C21.9819 29.0288 22.1305 29.118 22.2938 29.168C22.4572 29.218 22.6302 29.2272 22.7979 29.1948C22.9656 29.1624 23.1228 29.0895 23.2558 28.9823C23.3888 28.8751 23.4934 28.7369 23.5606 28.5799L25.9176 23.0809C25.9717 22.9546 26.0501 22.8403 26.1484 22.7443C26.2467 22.6484 26.3629 22.5727 26.4904 22.5217L29.8425 21.1807C30.003 21.1164 30.1451 21.0134 30.256 20.8808C30.3668 20.7481 30.4431 20.5901 30.4779 20.4207C30.5127 20.2514 30.505 20.076 30.4554 19.9104C30.4058 19.7448 30.3158 19.5941 30.1937 19.4717L23.0276 12.3056C22.9052 12.1835 22.7545 12.0935 22.5889 12.0439C22.4233 11.9943 22.2479 11.9866 22.0786 12.0214C21.9093 12.0562 21.7512 12.1325 21.6186 12.2434C21.4859 12.3543 21.3829 12.4963 21.3186 12.6568L19.9776 16.0089C19.9266 16.1364 19.8509 16.2526 19.755 16.3509C19.659 16.4492 19.5447 16.5276 19.4184 16.5817L13.9194 18.9387C13.7624 19.0059 13.6243 19.1105 13.5171 19.2435C13.4099 19.3765 13.3369 19.5337 13.3045 19.7014C13.2721 19.8691 13.2813 20.0422 13.3313 20.2055C13.3813 20.3688 13.4705 20.5174 13.5912 20.6382L17.7262 24.7731Z" fill="#8784FF"/>
<path d="M12.5 29.9993L17.7262 24.7731M17.7262 24.7731L21.8611 28.9081C21.9819 29.0288 22.1305 29.118 22.2938 29.168C22.4572 29.218 22.6302 29.2272 22.7979 29.1948C22.9656 29.1624 23.1228 29.0895 23.2558 28.9823C23.3888 28.8751 23.4934 28.7369 23.5606 28.5799L25.9176 23.0809C25.9717 22.9546 26.0501 22.8403 26.1484 22.7443C26.2467 22.6484 26.3629 22.5727 26.4904 22.5217L29.8425 21.1807C30.003 21.1164 30.1451 21.0134 30.256 20.8808C30.3668 20.7481 30.4431 20.5901 30.4779 20.4207C30.5127 20.2514 30.505 20.076 30.4554 19.9104C30.4058 19.7448 30.3158 19.5941 30.1937 19.4717L23.0276 12.3056C22.9052 12.1835 22.7545 12.0935 22.5889 12.0439C22.4233 11.9943 22.2479 11.9866 22.0786 12.0214C21.9093 12.0562 21.7512 12.1325 21.6186 12.2434C21.4859 12.3543 21.3829 12.4963 21.3186 12.6568L19.9776 16.0089C19.9266 16.1364 19.8509 16.2526 19.755 16.3509C19.659 16.4492 19.5447 16.5276 19.4184 16.5817L13.9194 18.9387C13.7624 19.0059 13.6243 19.1105 13.5171 19.2435C13.4099 19.3765 13.3369 19.5337 13.3045 19.7014C13.2721 19.8691 13.2813 20.0422 13.3313 20.2055C13.3813 20.3688 13.4705 20.5174 13.5912 20.6382L17.7262 24.7731Z" stroke="#8784FF" stroke-linecap="round" stroke-linejoin="round"/>
<path d="M50.546 22.1367C51.4164 22.1367 52.1706 22.2256 52.8087 22.4033C53.4512 22.5765 53.9457 22.8317 54.2921 23.1689C54.6384 23.5016 54.8116 23.9004 54.8116 24.3652C54.8116 24.8255 54.6384 25.222 54.2921 25.5547C53.9457 25.8874 53.4512 26.1403 52.8087 26.3135C52.1661 26.4912 51.4119 26.5801 50.546 26.5801C49.6801 26.5801 48.9281 26.4912 48.2901 26.3135C47.6521 26.1403 47.1599 25.8874 46.8136 25.5547C46.4672 25.222 46.294 24.8255 46.294 24.3652C46.294 23.9004 46.4672 23.5016 46.8136 23.1689C47.1599 22.8317 47.6521 22.5765 48.2901 22.4033C48.9281 22.2256 49.6801 22.1367 50.546 22.1367ZM50.546 22.957C49.9034 22.9616 49.3406 23.0208 48.8575 23.1348C48.3744 23.2487 48.003 23.4128 47.7432 23.627C47.4835 23.8366 47.3559 24.0827 47.3604 24.3652C47.3559 24.6432 47.4835 24.887 47.7432 25.0967C48.003 25.3018 48.3744 25.459 48.8575 25.5684C49.3406 25.6777 49.9034 25.7324 50.546 25.7324C51.1886 25.7324 51.7491 25.6777 52.2276 25.5684C52.7107 25.459 53.0821 25.3018 53.3419 25.0967C53.6062 24.887 53.7406 24.6432 53.7452 24.3652C53.7406 24.0827 53.6062 23.8366 53.3419 23.627C53.0821 23.4128 52.7107 23.2487 52.2276 23.1348C51.7491 23.0208 51.1886 22.9616 50.546 22.957ZM54.7159 16.1074C54.7159 16.7637 54.6954 17.3265 54.6544 17.7959C54.6179 18.2607 54.5245 18.7734 54.3741 19.334L53.3214 19.2109C53.4672 18.6504 53.5583 18.1491 53.5948 17.707C53.6313 17.265 53.6495 16.7318 53.6495 16.1074V15.957H46.3761V15.082H54.7159V16.1074ZM56.1241 21.002H45.0636V20.127H49.6436V17.7754H50.6964V20.127H56.1241V21.002ZM60.5171 18.1855C60.5171 18.8555 60.6653 19.5231 60.9615 20.1885C61.2577 20.8493 61.6565 21.4395 62.1578 21.959C62.6636 22.474 63.2151 22.8613 63.8121 23.1211L63.2105 23.9688C62.495 23.6406 61.8502 23.1462 61.2759 22.4854C60.7017 21.82 60.2733 21.0703 59.9908 20.2363C59.7082 21.1296 59.2798 21.9385 58.7056 22.6631C58.136 23.3831 57.5048 23.9186 56.8121 24.2695L56.1695 23.4219C56.7437 23.1439 57.2792 22.7246 57.7759 22.1641C58.2772 21.6035 58.6783 20.9723 58.9791 20.2705C59.2798 19.5641 59.4325 18.8691 59.4371 18.1855V16.5996H56.566V15.7109H63.4156V16.5996H60.5171V18.1855ZM66.191 26.6074H65.1109V14.4531H66.191V26.6074ZM71.3633 17.7207C71.3633 18.418 71.5046 19.1152 71.7871 19.8125C72.0697 20.5052 72.4502 21.125 72.9287 21.6719C73.4118 22.2188 73.9382 22.6335 74.5079 22.916L73.8516 23.7773C73.1817 23.4264 72.5801 22.9115 72.0469 22.2324C71.5183 21.5534 71.1195 20.7923 70.8506 19.9492C70.5817 20.847 70.1761 21.6582 69.6338 22.3828C69.0915 23.1029 68.4786 23.6452 67.795 24.0098L67.1114 23.1484C67.6993 22.8613 68.2347 22.4307 68.7178 21.8564C69.2054 21.2777 69.5905 20.626 69.8731 19.9014C70.1602 19.1722 70.306 18.4453 70.3106 17.7207V15.5059H71.3633V17.7207ZM76.6954 19.3887H78.7325V20.3184H76.6954V26.6074H75.6289V14.4531H76.6954V19.3887ZM87.9107 17.8438H89.7427V18.7598H87.9107V22.3008H86.8443V14.4531H87.9107V17.8438ZM84.0689 22.3828C84.8892 22.3828 85.5978 22.4671 86.1948 22.6357C86.7918 22.7998 87.2499 23.0413 87.5689 23.3604C87.8879 23.6748 88.0474 24.0508 88.0474 24.4883C88.0474 24.9258 87.8879 25.3018 87.5689 25.6162C87.2499 25.9307 86.7918 26.1699 86.1948 26.334C85.5978 26.498 84.8892 26.5801 84.0689 26.5801C83.244 26.5801 82.5331 26.498 81.9361 26.334C81.339 26.1699 80.881 25.9307 80.562 25.6162C80.243 25.3018 80.0858 24.9258 80.0904 24.4883C80.0858 24.0508 80.243 23.6748 80.562 23.3604C80.881 23.0413 81.339 22.7998 81.9361 22.6357C82.5376 22.4671 83.2486 22.3828 84.0689 22.3828ZM84.0689 23.2305C83.1529 23.2305 82.4374 23.3398 81.9224 23.5586C81.4074 23.7773 81.1522 24.0872 81.1568 24.4883C81.1522 24.748 81.2661 24.9736 81.4986 25.165C81.731 25.3519 82.0659 25.4954 82.5034 25.5957C82.9455 25.696 83.4673 25.7461 84.0689 25.7461C84.6704 25.7461 85.19 25.696 85.6275 25.5957C86.065 25.4954 86.3999 25.3519 86.6323 25.165C86.8648 24.9782 86.981 24.7526 86.981 24.4883C86.981 24.0872 86.7235 23.7773 86.2085 23.5586C85.6981 23.3398 84.9849 23.2305 84.0689 23.2305ZM85.6821 16.6953H78.4361V15.8477H81.5259V14.3574H82.5923V15.8477H85.6821V16.6953ZM82.0591 17.3242C82.6379 17.3242 83.146 17.4131 83.5835 17.5908C84.0256 17.7686 84.3674 18.0192 84.6089 18.3428C84.855 18.6663 84.9803 19.0423 84.9849 19.4707C84.9803 19.9036 84.855 20.2819 84.6089 20.6055C84.3674 20.929 84.0256 21.1797 83.5835 21.3574C83.146 21.5306 82.6379 21.6172 82.0591 21.6172C81.4758 21.6172 80.9608 21.5306 80.5142 21.3574C80.0721 21.1797 79.7303 20.929 79.4888 20.6055C79.2473 20.2819 79.1288 19.9036 79.1333 19.4707C79.1288 19.0423 79.2473 18.6663 79.4888 18.3428C79.7303 18.0192 80.0721 17.7686 80.5142 17.5908C80.9608 17.4131 81.4758 17.3242 82.0591 17.3242ZM82.0591 18.1309C81.6808 18.1354 81.3459 18.1947 81.0542 18.3086C80.7671 18.418 80.5438 18.5752 80.3843 18.7803C80.2293 18.9808 80.1542 19.2109 80.1587 19.4707C80.1542 19.7305 80.2293 19.9606 80.3843 20.1611C80.5438 20.3571 80.7671 20.5098 81.0542 20.6191C81.3459 20.7285 81.6808 20.7832 82.0591 20.7832C82.4328 20.7832 82.7632 20.7285 83.0503 20.6191C83.342 20.5098 83.5676 20.3571 83.7271 20.1611C83.8866 19.9606 83.9686 19.7305 83.9732 19.4707C83.9686 19.2109 83.8866 18.9808 83.7271 18.7803C83.5676 18.5752 83.342 18.418 83.0503 18.3086C82.7632 18.1947 82.4328 18.1354 82.0591 18.1309ZM102.097 23.4355H101.031V14.4668H102.097V23.4355ZM102.384 26.3477H94.1675V22.6152H95.2475V25.4453H102.384V26.3477ZM99.185 16.4902H97.9546V20.5371C98.6837 20.4824 99.2944 20.4232 99.7866 20.3594L99.8686 21.1797C98.7567 21.3483 97.59 21.46 96.3686 21.5146C95.1473 21.5648 93.8257 21.5898 92.4038 21.5898L92.2671 20.7012L93.8257 20.6943V16.4902H92.6089V15.6152H99.185V16.4902ZM94.8647 20.6738C95.4663 20.6602 96.1499 20.6351 96.9155 20.5986V16.4902H94.8647V20.6738ZM115.791 20.7422H114.711V17.584H112.004V16.6953H114.711V14.4531H115.791V20.7422ZM115.791 24.2559H108.997V25.582H116.243V26.4434H107.944V23.4355H114.725V22.2188H107.916V21.3574H115.791V24.2559ZM109.858 15.998C109.853 16.5221 109.979 17.0257 110.234 17.5088C110.489 17.9919 110.847 18.418 111.307 18.7871C111.767 19.1562 112.291 19.4388 112.879 19.6348L112.305 20.4688C111.631 20.2272 111.036 19.8763 110.521 19.416C110.006 18.9557 109.614 18.4202 109.345 17.8096C109.09 18.4977 108.698 19.0993 108.169 19.6143C107.641 20.1247 107.014 20.5098 106.289 20.7695L105.702 19.9082C106.308 19.7077 106.843 19.4137 107.308 19.0264C107.777 18.6344 108.142 18.1787 108.402 17.6592C108.666 17.1351 108.801 16.5814 108.805 15.998V14.8496H109.858V15.998ZM126.911 21.6992H125.831V18.5137H123.384V17.625H125.831V14.4531H126.911V21.6992ZM122.878 22.082C123.721 22.082 124.448 22.1709 125.059 22.3486C125.669 22.5264 126.136 22.7839 126.46 23.1211C126.788 23.4583 126.952 23.8639 126.952 24.3379C126.952 24.8118 126.788 25.2174 126.46 25.5547C126.136 25.8965 125.669 26.1562 125.059 26.334C124.448 26.5117 123.721 26.6029 122.878 26.6074C122.035 26.6029 121.308 26.5117 120.697 26.334C120.087 26.1562 119.617 25.8965 119.289 25.5547C118.965 25.2174 118.804 24.8118 118.804 24.3379C118.804 23.8639 118.965 23.4583 119.289 23.1211C119.617 22.7839 120.087 22.5264 120.697 22.3486C121.308 22.1709 122.035 22.082 122.878 22.082ZM122.878 22.916C122.263 22.916 121.727 22.973 121.271 23.0869C120.816 23.2008 120.467 23.3649 120.226 23.5791C119.984 23.7933 119.865 24.0462 119.87 24.3379C119.865 24.625 119.984 24.8757 120.226 25.0898C120.467 25.2995 120.816 25.4613 121.271 25.5752C121.727 25.6891 122.263 25.7461 122.878 25.7461C123.493 25.7461 124.026 25.6891 124.477 25.5752C124.933 25.4613 125.282 25.2995 125.523 25.0898C125.765 24.8757 125.886 24.625 125.886 24.3379C125.886 24.0462 125.765 23.7933 125.523 23.5791C125.282 23.3649 124.933 23.2008 124.477 23.0869C124.026 22.973 123.493 22.916 122.878 22.916ZM121.059 16.6816C121.059 17.2057 121.185 17.7139 121.435 18.2061C121.686 18.6937 122.037 19.1289 122.488 19.5117C122.944 19.89 123.466 20.1816 124.054 20.3867L123.493 21.248C122.814 21.002 122.217 20.6374 121.702 20.1543C121.192 19.6712 120.807 19.113 120.547 18.4795C120.282 19.1904 119.879 19.8193 119.337 20.3662C118.799 20.9085 118.17 21.3164 117.45 21.5898L116.89 20.7285C117.487 20.5098 118.02 20.1953 118.489 19.7852C118.959 19.3704 119.323 18.8942 119.583 18.3564C119.847 17.8187 119.979 17.265 119.979 16.6953V16.2441H117.231V15.3418H123.78V16.2441H121.059V16.6816Z" fill="#868686"/>
</svg>
