<svg width="142" height="42" viewBox="0 0 142 42" fill="none" xmlns="http://www.w3.org/2000/svg">
<rect width="142" height="42" rx="21" fill="#7682F6"/>
<circle cx="21" cy="21" r="17" fill="white"/>
<path d="M21.3627 28.9081L17.2277 24.7731L13.0928 20.6382C12.9721 20.5174 12.8829 20.3688 12.8329 20.2055C12.7829 20.0422 12.7737 19.8691 12.8061 19.7014C12.8385 19.5337 12.9114 19.3765 13.0186 19.2435C13.1258 19.1105 13.264 19.0059 13.421 18.9387L18.92 16.5817C19.0463 16.5276 19.1606 16.4492 19.2566 16.3509C19.3525 16.2526 19.4282 16.1364 19.4792 16.0089L20.8202 12.6568C20.8845 12.4963 20.9875 12.3543 21.1201 12.2434C21.2528 12.1325 21.4108 12.0562 21.5802 12.0214C21.7495 11.9866 21.9249 11.9943 22.0905 12.0439C22.2561 12.0935 22.4068 12.1835 22.5292 12.3056L29.6953 19.4717C29.8174 19.5941 29.9074 19.7448 29.957 19.9104C30.0066 20.076 30.0143 20.2514 29.9795 20.4207C29.9447 20.5901 29.8684 20.7481 29.7575 20.8808C29.6466 21.0134 29.5046 21.1164 29.3441 21.1807L25.992 22.5217C25.8645 22.5727 25.7483 22.6484 25.65 22.7443C25.5517 22.8403 25.4733 22.9546 25.4192 23.0809L23.0622 28.5799C22.995 28.7369 22.8904 28.8751 22.7574 28.9823C22.6244 29.0895 22.4672 29.1624 22.2995 29.1948C22.1318 29.2272 21.9587 29.218 21.7954 29.168C21.6321 29.118 21.4835 29.0288 21.3627 28.9081Z" fill="#7682F6"/>
<path d="M12 29.9993L17.2262 24.7731L12 29.9993ZM17.2262 24.7731L21.3611 28.9081C21.4819 29.0288 21.6305 29.118 21.7938 29.168C21.9572 29.218 22.1302 29.2272 22.2979 29.1948C22.4656 29.1624 22.6228 29.0895 22.7558 28.9823C22.8888 28.8751 22.9934 28.7369 23.0606 28.5799L25.4176 23.0809C25.4717 22.9546 25.5501 22.8403 25.6484 22.7443C25.7467 22.6484 25.8629 22.5727 25.9904 22.5217L29.3425 21.1807C29.503 21.1164 29.6451 21.0134 29.756 20.8808C29.8668 20.7481 29.9431 20.5901 29.9779 20.4207C30.0127 20.2514 30.005 20.076 29.9554 19.9104C29.9058 19.7448 29.8158 19.5941 29.6937 19.4717L22.5276 12.3056C22.4052 12.1835 22.2545 12.0935 22.0889 12.0439C21.9233 11.9943 21.7479 11.9866 21.5786 12.0214C21.4093 12.0562 21.2512 12.1325 21.1186 12.2434C20.9859 12.3543 20.8829 12.4963 20.8186 12.6568L19.4776 16.0089C19.4266 16.1364 19.3509 16.2526 19.255 16.3509C19.159 16.4492 19.0447 16.5276 18.9184 16.5817L13.4194 18.9387C13.2624 19.0059 13.1243 19.1105 13.0171 19.2435C12.9099 19.3765 12.8369 19.5337 12.8045 19.7014C12.7721 19.8691 12.7813 20.0422 12.8313 20.2055C12.8813 20.3688 12.9705 20.5174 13.0912 20.6382L17.2262 24.7731Z" fill="#7682F6"/>
<path d="M12 29.9993L17.2262 24.7731M17.2262 24.7731L21.3611 28.9081C21.4819 29.0288 21.6305 29.118 21.7938 29.168C21.9572 29.218 22.1302 29.2272 22.2979 29.1948C22.4656 29.1624 22.6228 29.0895 22.7558 28.9823C22.8888 28.8751 22.9934 28.7369 23.0606 28.5799L25.4176 23.0809C25.4717 22.9546 25.5501 22.8403 25.6484 22.7443C25.7467 22.6484 25.8629 22.5727 25.9904 22.5217L29.3425 21.1807C29.503 21.1164 29.6451 21.0134 29.756 20.8808C29.8668 20.7481 29.9431 20.5901 29.9779 20.4207C30.0127 20.2514 30.005 20.076 29.9554 19.9104C29.9058 19.7448 29.8158 19.5941 29.6937 19.4717L22.5276 12.3056C22.4052 12.1835 22.2545 12.0935 22.0889 12.0439C21.9233 11.9943 21.7479 11.9866 21.5786 12.0214C21.4093 12.0562 21.2512 12.1325 21.1186 12.2434C20.9859 12.3543 20.8829 12.4963 20.8186 12.6568L19.4776 16.0089C19.4266 16.1364 19.3509 16.2526 19.255 16.3509C19.159 16.4492 19.0447 16.5276 18.9184 16.5817L13.4194 18.9387C13.2624 19.0059 13.1243 19.1105 13.0171 19.2435C12.9099 19.3765 12.8369 19.5337 12.8045 19.7014C12.7721 19.8691 12.7813 20.0422 12.8313 20.2055C12.8813 20.3688 12.9705 20.5174 13.0912 20.6382L17.2262 24.7731Z" stroke="#7682F6" stroke-linecap="round" stroke-linejoin="round"/>
<path d="M50.2237 22.082C51.1169 22.0866 51.8917 22.1823 52.5479 22.3691C53.2042 22.5514 53.71 22.8158 54.0655 23.1621C54.4255 23.5085 54.6078 23.9232 54.6124 24.4062C54.6078 24.8802 54.4255 25.2881 54.0655 25.6299C53.71 25.9762 53.2019 26.2406 52.5411 26.4229C51.8848 26.6097 51.1124 26.7031 50.2237 26.7031C49.3396 26.7031 48.5671 26.6097 47.9063 26.4229C47.2501 26.2406 46.7419 25.9762 46.3819 25.6299C46.0264 25.2881 45.8487 24.8802 45.8487 24.4062C45.8487 23.9232 46.0264 23.5085 46.3819 23.1621C46.7419 22.8158 47.2501 22.5514 47.9063 22.3691C48.5626 22.1823 49.335 22.0866 50.2237 22.082ZM50.2237 23.2305C49.3305 23.2305 48.6309 23.333 48.1251 23.5381C47.6238 23.7432 47.3754 24.0326 47.38 24.4062C47.3754 24.7663 47.6238 25.0443 48.1251 25.2402C48.6264 25.4316 49.3259 25.5273 50.2237 25.5273C51.1261 25.5273 51.8302 25.4316 52.336 25.2402C52.8464 25.0443 53.1039 24.7663 53.1085 24.4062C53.1039 24.0326 52.8464 23.7432 52.336 23.5381C51.8302 23.333 51.1261 23.2305 50.2237 23.2305ZM54.5303 15.9707C54.5303 16.627 54.5098 17.1966 54.4688 17.6797C54.4324 18.1628 54.3389 18.6868 54.1886 19.252L52.6846 19.1152C52.8214 18.5729 52.9102 18.083 52.9512 17.6455C52.9923 17.2035 53.0128 16.7044 53.0128 16.1484H45.9718V14.9453H54.5303V15.9707ZM55.8975 21.1934H44.6866V19.9629H49.0343V17.7207H50.5382V19.9629H55.8975V21.1934ZM60.441 17.8711C60.441 18.5501 60.5686 19.2223 60.8238 19.8877C61.0836 20.5485 61.4527 21.1432 61.9312 21.6719C62.4143 22.196 62.9794 22.5924 63.6265 22.8613L62.7925 24.0645C62.077 23.7591 61.455 23.3011 60.9263 22.6904C60.3977 22.0798 59.9875 21.3711 59.6959 20.5645C59.4042 21.4303 58.9918 22.1982 58.4586 22.8682C57.9299 23.5335 57.3101 24.0326 56.5992 24.3652L55.7242 23.1758C56.3576 22.8841 56.9136 22.4557 57.3921 21.8906C57.8752 21.3255 58.2466 20.6921 58.5064 19.9902C58.7662 19.2839 58.8961 18.5775 58.8961 17.8711V16.832H56.1754V15.5742H63.148V16.832H60.441V17.8711ZM66.0601 26.7168H64.5289V14.3574H66.0601V26.7168ZM71.3145 17.3242C71.3099 18.0625 71.4261 18.7871 71.6631 19.498C71.9047 20.2044 72.2533 20.8379 72.709 21.3984C73.1648 21.959 73.7025 22.3874 74.3223 22.6836L73.3926 23.9004C72.7364 23.5677 72.1667 23.0938 71.6836 22.4785C71.2051 21.8633 70.8314 21.1523 70.5625 20.3457C70.2845 21.207 69.8926 21.9681 69.3868 22.6289C68.8855 23.2852 68.2884 23.7865 67.5957 24.1328L66.6661 22.916C67.3086 22.6107 67.8646 22.1663 68.334 21.583C68.808 20.9951 69.168 20.332 69.4141 19.5938C69.6648 18.8509 69.7924 18.0944 69.7969 17.3242V15.3555H71.3145V17.3242ZM76.5782 19.1973H78.4786V20.4961H76.5782V26.7168H75.0606V14.3574H76.5782V19.1973ZM87.7661 17.6113H89.4888V18.8828H87.7661V22.2461H86.2486V14.3574H87.7661V17.6113ZM83.7739 22.3555C84.6125 22.3555 85.3417 22.4421 85.9614 22.6152C86.5858 22.7884 87.0643 23.0391 87.397 23.3672C87.7342 23.6908 87.9029 24.0781 87.9029 24.5293C87.9029 24.9759 87.7342 25.361 87.397 25.6846C87.0643 26.0127 86.5858 26.2633 85.9614 26.4365C85.3417 26.6143 84.6125 26.7031 83.7739 26.7031C82.9217 26.7031 82.1835 26.6165 81.5591 26.4434C80.9393 26.2702 80.4631 26.0195 80.1304 25.6914C79.8023 25.3633 79.6405 24.9759 79.645 24.5293C79.6405 24.0781 79.8023 23.6908 80.1304 23.3672C80.4631 23.0391 80.9393 22.7884 81.5591 22.6152C82.1835 22.4421 82.9217 22.3555 83.7739 22.3555ZM83.7739 23.5176C82.9126 23.5176 82.2586 23.6019 81.812 23.7705C81.3654 23.9391 81.1444 24.1921 81.1489 24.5293C81.1398 24.8574 81.3631 25.1104 81.8189 25.2881C82.2746 25.4658 82.9263 25.5547 83.7739 25.5547C84.6079 25.5547 85.2505 25.4658 85.7017 25.2881C86.1574 25.1104 86.3853 24.8574 86.3853 24.5293C86.3853 24.1921 86.162 23.9391 85.7154 23.7705C85.2687 23.6019 84.6216 23.5176 83.7739 23.5176ZM85.3599 16.8047H78.0318V15.6152H80.9439V14.2754H82.4614V15.6152H85.3599V16.8047ZM81.6958 17.2969C82.2883 17.2969 82.8124 17.3903 83.2681 17.5771C83.7238 17.7594 84.077 18.0192 84.3277 18.3564C84.5829 18.6891 84.7127 19.0742 84.7173 19.5117C84.7127 19.9492 84.5829 20.3343 84.3277 20.667C84.077 20.9997 83.7238 21.2572 83.2681 21.4395C82.8124 21.6217 82.2883 21.7129 81.6958 21.7129C81.0988 21.7129 80.5702 21.6217 80.1099 21.4395C79.6542 21.2572 79.2987 20.9997 79.0435 20.667C78.7883 20.3343 78.6607 19.9492 78.6607 19.5117C78.6607 19.0742 78.7883 18.6891 79.0435 18.3564C79.2987 18.0192 79.6542 17.7594 80.1099 17.5771C80.5702 17.3903 81.0988 17.2969 81.6958 17.2969ZM81.6958 18.418C81.2219 18.418 80.8436 18.516 80.5611 18.7119C80.2785 18.9079 80.1372 19.1745 80.1372 19.5117C80.1372 19.8444 80.2762 20.1042 80.5542 20.291C80.8368 20.4733 81.2173 20.5645 81.6958 20.5645C82.1743 20.5645 82.5549 20.471 82.8374 20.2842C83.1245 20.0973 83.2681 19.8398 83.2681 19.5117C83.2681 19.1745 83.1245 18.9079 82.8374 18.7119C82.5549 18.516 82.1743 18.418 81.6958 18.418ZM101.775 23.4629H100.244V14.3711H101.775V23.4629ZM102.062 26.4707H93.5444V22.6289H95.0757V25.2402H102.062V26.4707ZM98.7261 16.6543H97.6186V20.3389C98.1199 20.3024 98.6622 20.25 99.2456 20.1816L99.3413 21.3027C98.2247 21.485 97.0581 21.6035 95.8413 21.6582C94.629 21.7129 93.2983 21.7402 91.8491 21.7402L91.685 20.5098L93.0932 20.5029V16.6543H92.0132V15.4375H98.7261V16.6543ZM94.5561 20.4824C95.2762 20.4642 95.8139 20.446 96.1694 20.4277V16.6543H94.5561V20.4824ZM115.291 20.6875H113.774V17.5566H111.313V16.3398H113.774V14.3574H115.291V20.6875ZM115.291 24.4199H108.661V25.3633H115.688V26.5664H107.17V23.2852H113.788V22.4102H107.157V21.2207H115.291V24.4199ZM109.426 15.752C109.426 16.2669 109.538 16.7591 109.761 17.2285C109.984 17.6979 110.315 18.1149 110.752 18.4795C111.19 18.8395 111.719 19.1152 112.338 19.3066L111.532 20.4824C110.871 20.2591 110.299 19.9401 109.816 19.5254C109.333 19.1061 108.955 18.6117 108.681 18.042C108.403 18.6846 108.009 19.2406 107.498 19.71C106.993 20.1748 106.382 20.5234 105.666 20.7559L104.873 19.5391C105.521 19.3431 106.07 19.056 106.521 18.6777C106.977 18.2949 107.318 17.8529 107.546 17.3516C107.779 16.8503 107.895 16.3171 107.895 15.752V14.7676H109.426V15.752ZM126.411 21.6992H124.893V18.6777H122.788V17.4336H124.893V14.3574H126.411V21.6992ZM122.227 22.0137C123.098 22.0137 123.85 22.1071 124.483 22.2939C125.121 22.4762 125.609 22.7451 125.946 23.1006C126.283 23.4515 126.452 23.873 126.452 24.3652C126.452 24.8574 126.283 25.279 125.946 25.6299C125.609 25.9854 125.121 26.2542 124.483 26.4365C123.85 26.6234 123.098 26.7168 122.227 26.7168C121.362 26.7168 120.612 26.6234 119.978 26.4365C119.345 26.2542 118.86 25.9854 118.522 25.6299C118.19 25.279 118.026 24.8574 118.03 24.3652C118.026 23.873 118.19 23.4515 118.522 23.1006C118.86 22.7451 119.345 22.4762 119.978 22.2939C120.612 22.1071 121.362 22.0137 122.227 22.0137ZM122.227 23.1758C121.362 23.1758 120.696 23.2783 120.231 23.4834C119.767 23.6839 119.534 23.9779 119.534 24.3652C119.534 24.748 119.767 25.0397 120.231 25.2402C120.696 25.4408 121.362 25.541 122.227 25.541C123.093 25.541 123.761 25.4408 124.23 25.2402C124.7 25.0397 124.934 24.748 124.934 24.3652C124.934 23.9779 124.7 23.6839 124.23 23.4834C123.761 23.2783 123.093 23.1758 122.227 23.1758ZM120.601 16.4766C120.601 16.987 120.712 17.4837 120.935 17.9668C121.159 18.4453 121.489 18.876 121.927 19.2588C122.364 19.637 122.893 19.931 123.513 20.1406L122.747 21.3438C122.077 21.1159 121.496 20.7809 121.004 20.3389C120.516 19.8923 120.133 19.3727 119.855 18.7803C119.577 19.4502 119.181 20.0358 118.666 20.5371C118.151 21.0339 117.533 21.4121 116.813 21.6719L116.02 20.4688C116.663 20.25 117.212 19.9333 117.668 19.5186C118.124 19.0993 118.468 18.6276 118.7 18.1035C118.937 17.5794 119.056 17.0417 119.056 16.4902V16.3945H116.485V15.1641H123.157V16.3945H120.601V16.4766Z" fill="white"/>
</svg>
