<svg width="52" height="38" viewBox="0 0 52 38" fill="none" xmlns="http://www.w3.org/2000/svg">
<rect width="52" height="38" rx="10" fill="#EAEAFF"/>
<path d="M24.6602 21.8945H23.1426V17.3691H20.9551V16.1387H23.1426V12.8711H24.6602V21.8945ZM24.9746 24.9707H16.5527V21.1016H18.0703V23.7402H24.9746V24.9707ZM18.8496 15.332C18.8496 15.8379 18.9613 16.3324 19.1846 16.8154C19.4079 17.2939 19.7383 17.7246 20.1758 18.1074C20.6133 18.4857 21.1419 18.7773 21.7617 18.9824L20.9961 20.1992C20.3216 19.9668 19.7383 19.6296 19.2461 19.1875C18.7585 18.7409 18.3757 18.2191 18.0977 17.6221C17.8197 18.2874 17.4232 18.8662 16.9082 19.3584C16.3932 19.846 15.778 20.2129 15.0625 20.459L14.2832 19.2285C14.9212 19.0189 15.4658 18.7135 15.917 18.3125C16.3727 17.9069 16.7168 17.4466 16.9492 16.9316C17.1862 16.4121 17.3047 15.8743 17.3047 15.3184V14.9902H14.7344V13.7598H21.4062V14.9902H18.8496V15.332ZM32.7812 18.832H37.6758V20.0488H26.4102V18.832H31.2773V17.2188H32.7812V18.832ZM32.7949 13.5273C32.7949 14.0286 32.9681 14.5049 33.3145 14.9561C33.6654 15.4027 34.1621 15.7832 34.8047 16.0977C35.4473 16.4121 36.1901 16.6217 37.0332 16.7266L36.4453 17.916C35.429 17.7565 34.5335 17.458 33.7588 17.0205C32.9886 16.5785 32.4076 16.0339 32.0156 15.3867C31.6191 16.0339 31.0335 16.5785 30.2588 17.0205C29.4886 17.458 28.5931 17.7565 27.5723 17.916L27.0254 16.7266C27.8548 16.6217 28.5885 16.4098 29.2266 16.0908C29.8691 15.7718 30.3659 15.389 30.7168 14.9424C31.0723 14.4912 31.25 14.0195 31.25 13.5273V13.0625H32.7949V13.5273ZM32.0293 20.8555C32.9225 20.8555 33.6882 20.9398 34.3262 21.1084C34.9642 21.277 35.4518 21.5254 35.7891 21.8535C36.1309 22.1771 36.304 22.569 36.3086 23.0293C36.304 23.4896 36.1309 23.8815 35.7891 24.2051C35.4518 24.5332 34.9642 24.7816 34.3262 24.9502C33.6882 25.1188 32.9225 25.2031 32.0293 25.2031C31.1315 25.2031 30.359 25.1188 29.7119 24.9502C29.0693 24.7816 28.5771 24.5332 28.2354 24.2051C27.8936 23.8815 27.7227 23.4896 27.7227 23.0293C27.7227 22.569 27.8936 22.1771 28.2354 21.8535C28.5771 21.5254 29.0693 21.277 29.7119 21.1084C30.359 20.9398 31.1315 20.8555 32.0293 20.8555ZM32.0293 22.0176C30.1745 22.0176 29.2539 22.3548 29.2676 23.0293C29.263 23.3711 29.4932 23.6286 29.958 23.8018C30.4274 23.9704 31.1178 24.0547 32.0293 24.0547C32.9225 24.0547 33.6038 23.9681 34.0732 23.7949C34.5472 23.6217 34.7865 23.3665 34.791 23.0293C34.7865 22.6921 34.5495 22.4391 34.0801 22.2705C33.6107 22.1019 32.9271 22.0176 32.0293 22.0176Z" fill="#8784FF"/>
</svg>
