<svg width="29" height="33" viewBox="0 0 29 33" fill="none" xmlns="http://www.w3.org/2000/svg">
<path d="M28.2308 15.4H18.8077C17.9508 15.4 17.1291 15.0523 16.5232 14.4335C15.9173 13.8146 15.5769 12.9752 15.5769 12.1V2.475C15.5769 2.40207 15.5486 2.33212 15.4981 2.28055C15.4476 2.22897 15.3791 2.2 15.3077 2.2H11.7236C11.5979 1.96222 11.4514 1.73649 11.2861 1.52556C10.51 0.54175 9.35702 0 8.03846 0C5.50231 0 3.73077 2.03569 3.73077 4.95V14.85C3.73077 16.5688 5.09981 17.6 6.42308 17.6C6.77771 17.604 7.12955 17.5355 7.45795 17.3987C7.78634 17.2619 8.08468 17.0595 8.33546 16.8034C8.58624 16.5472 8.78441 16.2425 8.91834 15.907C9.05227 15.5716 9.11926 15.2122 9.11539 14.85V4.4C9.11539 4.10826 9.00192 3.82847 8.79996 3.62218C8.598 3.41589 8.32408 3.3 8.03846 3.3C7.75284 3.3 7.47892 3.41589 7.27696 3.62218C7.075 3.82847 6.96154 4.10826 6.96154 4.4V14.85C6.96388 14.9229 6.95155 14.9955 6.92532 15.0633C6.89909 15.1311 6.85951 15.1927 6.80904 15.2442C6.75856 15.2958 6.69826 15.3362 6.63188 15.363C6.56549 15.3898 6.49442 15.4024 6.42308 15.4C6.27298 15.4 5.88462 15.301 5.88462 14.85V4.95C5.88462 3.62038 6.45067 2.2 8.03846 2.2C10.0368 2.2 10.1923 4.27281 10.1923 4.90737V14.4464C10.1923 15.6461 9.82413 16.731 9.1551 17.5031C8.47596 18.2875 7.53163 18.7 6.42308 18.7C5.31452 18.7 4.37019 18.2875 3.69106 17.5031C3.02202 16.731 2.65385 15.6461 2.65385 14.4464V8.8C2.65385 8.50826 2.54038 8.22847 2.33842 8.02218C2.13646 7.81589 1.86254 7.7 1.57692 7.7C1.29131 7.7 1.01739 7.81589 0.815423 8.02218C0.613461 8.22847 0.5 8.50826 0.5 8.8V14.4464C0.5 17.9878 2.73394 20.6085 5.88462 20.8766V28.6C5.88462 29.767 6.33846 30.8861 7.14631 31.7113C7.95416 32.5364 9.04984 33 10.1923 33H24.1923C25.3348 33 26.4305 32.5364 27.2383 31.7113C28.0462 30.8861 28.5 29.767 28.5 28.6V15.675C28.5 15.6021 28.4716 15.5321 28.4211 15.4805C28.3707 15.429 28.3022 15.4 28.2308 15.4Z" fill="black"/>
<path d="M18.5825 14H27.3653C27.3919 13.9999 27.418 13.9911 27.4401 13.9747C27.4623 13.9584 27.4795 13.9352 27.4897 13.908C27.4999 13.8809 27.5026 13.8511 27.4974 13.8223C27.4923 13.7935 27.4795 13.767 27.4606 13.7462L17.7307 3.04329C17.7118 3.02259 17.6877 3.00852 17.6616 3.00283C17.6354 2.99713 17.6083 3.00008 17.5836 3.0113C17.559 3.02251 17.5379 3.04149 17.523 3.06585C17.5081 3.09022 17.5001 3.11887 17.5 3.14822V12.8092C17.5 13.125 17.6141 13.4279 17.8171 13.6512C18.0201 13.8745 18.2954 14 18.5825 14Z" fill="black"/>
</svg>
