<svg width="93" height="42" viewBox="0 0 93 42" fill="none" xmlns="http://www.w3.org/2000/svg">
<rect width="93" height="42" rx="21" fill="#000C76"/>
<circle cx="21" cy="21" r="17" fill="white"/>
<path d="M27 15H15C14.4697 15.0005 13.9614 15.2019 13.5864 15.5598C13.2115 15.9177 13.0006 16.4029 13 16.9091V25.0909C13.0006 25.5971 13.2115 26.0823 13.5864 26.4402C13.9614 26.7981 14.4697 26.9995 15 27H27C27.5303 26.9995 28.0386 26.7981 28.4136 26.4402C28.7885 26.0823 28.9994 25.5971 29 25.0909V16.9091C28.9994 16.4029 28.7885 15.9177 28.4136 15.5598C28.0386 15.2019 27.5303 15.0005 27 15ZM26.4936 18.1578L21.3507 21.976C21.2504 22.0504 21.127 22.0908 21 22.0908C20.873 22.0908 20.7496 22.0504 20.6493 21.976L15.5064 18.1578C15.446 18.1143 15.3953 18.0597 15.3571 17.9973C15.319 17.9348 15.2942 17.8658 15.2843 17.7941C15.2744 17.7225 15.2795 17.6496 15.2993 17.5799C15.3191 17.5101 15.3532 17.4448 15.3997 17.3878C15.4462 17.3307 15.504 17.283 15.57 17.2475C15.6359 17.212 15.7086 17.1893 15.7838 17.1809C15.859 17.1724 15.9352 17.1783 16.008 17.1982C16.0808 17.218 16.1487 17.2515 16.2079 17.2967L21 20.8544L25.7921 17.2967C25.912 17.2103 26.0626 17.1724 26.2115 17.1912C26.3603 17.21 26.4955 17.284 26.5876 17.3972C26.6798 17.5103 26.7216 17.6536 26.704 17.7959C26.6864 17.9383 26.6108 18.0683 26.4936 18.1578Z" fill="#000C76"/>
<path d="M54.9946 23.4492H53.6958V19.1973H51.1529V18.1172H53.6958V14.4258H54.9946V23.4492ZM51.2349 15.3418C51.2303 16.3945 50.9956 17.3607 50.5308 18.2402C50.0705 19.1198 49.412 19.8854 48.5552 20.5371C47.6984 21.1888 46.6821 21.7038 45.5064 22.082L44.9595 21.043C45.871 20.7467 46.6753 20.3708 47.3726 19.915C48.0698 19.4548 48.6281 18.9284 49.0474 18.3359C49.4667 17.7389 49.7196 17.1009 49.8062 16.4219H45.5884V15.3418H51.2349ZM55.3091 26.4023H47.106V22.5195H48.4185V25.3496H55.3091V26.4023ZM59.8936 15.2871C60.5316 15.2826 61.1035 15.4033 61.6094 15.6494C62.1152 15.8955 62.5094 16.2419 62.792 16.6885C63.0791 17.1305 63.2249 17.6341 63.2295 18.1992C63.2249 18.7643 63.0791 19.2702 62.792 19.7168C62.5094 20.1589 62.1152 20.5052 61.6094 20.7559C61.1035 21.002 60.5316 21.125 59.8936 21.125C59.2555 21.125 58.6813 21.002 58.1709 20.7559C57.665 20.5052 57.2686 20.1589 56.9814 19.7168C56.6943 19.2702 56.5531 18.7643 56.5576 18.1992C56.5531 17.6341 56.6943 17.1305 56.9814 16.6885C57.2686 16.2419 57.665 15.8955 58.1709 15.6494C58.6813 15.4033 59.2555 15.2826 59.8936 15.2871ZM59.8936 16.4082C59.4971 16.4082 59.1416 16.4834 58.8271 16.6338C58.5173 16.7796 58.2734 16.9893 58.0957 17.2627C57.9225 17.5316 57.8382 17.8438 57.8428 18.1992C57.8382 18.5547 57.9225 18.8691 58.0957 19.1426C58.2734 19.4115 58.5173 19.6211 58.8271 19.7715C59.1416 19.9173 59.4971 19.9902 59.8936 19.9902C60.29 19.9902 60.6432 19.9173 60.9531 19.7715C61.2676 19.6211 61.5137 19.4115 61.6914 19.1426C61.8691 18.8691 61.958 18.5547 61.958 18.1992C61.958 17.8438 61.8691 17.5316 61.6914 17.2627C61.5137 16.9893 61.2676 16.7796 60.9531 16.6338C60.6432 16.4834 60.29 16.4082 59.8936 16.4082ZM66.0322 26.6895H64.7334V14.4121H66.0322V26.6895ZM55.9697 22.9707C57.4827 22.9707 58.8955 22.9456 60.208 22.8955C61.5251 22.8408 62.7783 22.7292 63.9678 22.5605L64.0635 23.5039C62.8421 23.7409 61.6003 23.8913 60.3379 23.9551C59.0801 24.0189 57.6787 24.0508 56.1338 24.0508L55.9697 22.9707ZM76.646 17.584H78.4233V18.6914H76.646V21.7949H75.3471V14.4121H76.646V17.584ZM76.646 26.5117H68.8257V22.4375H76.646V26.5117ZM70.0971 25.459H75.3608V23.4629H70.0971V25.459ZM74.3354 16.6953H67.0346V15.6562H70.0425V14.3164H71.3413V15.6562H74.3354V16.6953ZM70.685 17.2285C71.2684 17.2285 71.7833 17.3197 72.23 17.502C72.6811 17.6842 73.0298 17.9417 73.2759 18.2744C73.5265 18.6025 73.6518 18.9831 73.6518 19.416C73.6518 19.8535 73.5265 20.2386 73.2759 20.5713C73.0298 20.8994 72.6811 21.1546 72.23 21.3369C71.7833 21.5192 71.2684 21.6126 70.685 21.6172C70.0926 21.6126 69.5708 21.5192 69.1196 21.3369C68.6684 21.1546 68.3198 20.8994 68.0737 20.5713C67.8276 20.2386 67.7046 19.8535 67.7046 19.416C67.7046 18.9831 67.8276 18.6025 68.0737 18.2744C68.3244 17.9417 68.673 17.6842 69.1196 17.502C69.5708 17.3197 70.0926 17.2285 70.685 17.2285ZM70.685 18.2266C70.3387 18.222 70.0356 18.2676 69.7759 18.3633C69.5161 18.459 69.3133 18.598 69.1675 18.7803C69.0262 18.9626 68.9578 19.1745 68.9624 19.416C68.9578 19.7943 69.1105 20.0928 69.4204 20.3115C69.7348 20.5257 70.1564 20.6328 70.685 20.6328C71.2091 20.6328 71.6307 20.5257 71.9497 20.3115C72.2687 20.0928 72.4305 19.7943 72.435 19.416C72.4305 19.1745 72.3553 18.9626 72.2095 18.7803C72.0636 18.598 71.8585 18.459 71.5942 18.3633C71.3299 18.2676 71.0268 18.222 70.685 18.2266Z" fill="white"/>
</svg>
