<svg width="202" height="202" viewBox="0 0 202 202" fill="none" xmlns="http://www.w3.org/2000/svg">
<g filter="url(#filter0_d_7584_2145)">
<path d="M72.6514 113.185L75.6678 91.0483C76.619 84.0678 82.5808 78.8633 89.6258 78.8633H113.184C120.157 78.8633 126.081 83.9656 127.115 90.8621L130.433 112.999C131.71 121.515 125.114 129.174 116.502 129.174H86.6093C78.0734 129.174 71.4989 121.643 72.6514 113.185Z" fill="#FFCD6B"/>
<ellipse cx="101.667" cy="86.9151" rx="25.1553" ry="14.087" fill="url(#paint0_linear_7584_2145)"/>
<g filter="url(#filter1_d_7584_2145)">
<path d="M83.5518 80.8828L84.3671 83.0861L86.5705 83.9014L84.3671 84.7168L83.5518 86.9201L82.7365 84.7168L80.5332 83.9014L82.7365 83.0861L83.5518 80.8828Z" fill="url(#paint1_radial_7584_2145)" fill-opacity="0.85" shape-rendering="crispEdges"/>
</g>
<g filter="url(#filter2_d_7584_2145)">
<path d="M89.5921 84.9062L89.8639 85.6407L90.5984 85.9125L89.8639 86.1842L89.5921 86.9187L89.3204 86.1842L88.5859 85.9125L89.3204 85.6407L89.5921 84.9062Z" fill="url(#paint2_radial_7584_2145)" fill-opacity="0.85" shape-rendering="crispEdges"/>
</g>
<g filter="url(#filter3_d_7584_2145)">
<path d="M84.5593 88.9219L85.1028 90.3908L86.5717 90.9343L85.1028 91.4778L84.5593 92.9467L84.0158 91.4778L82.5469 90.9343L84.0158 90.3908L84.5593 88.9219Z" fill="url(#paint3_radial_7584_2145)" fill-opacity="0.85" shape-rendering="crispEdges"/>
</g>
</g>
<g filter="url(#filter4_d_7584_2145)">
<circle cx="101" cy="101" r="54" fill="white"/>
</g>
<g filter="url(#filter5_d_7584_2145)">
<path fill-rule="evenodd" clip-rule="evenodd" d="M102.171 136.224C122.269 136.224 138.562 119.931 138.562 99.8325C138.562 79.7341 122.269 63.4412 102.171 63.4412C82.0722 63.4412 65.7793 79.7341 65.7793 99.8325C65.7793 119.931 82.0722 136.224 102.171 136.224ZM102.173 116.205C111.217 116.205 118.549 108.873 118.549 99.829C118.549 90.7847 111.217 83.4529 102.173 83.4529C93.1287 83.4529 85.7969 90.7847 85.7969 99.829C85.7969 108.873 93.1287 116.205 102.173 116.205Z" fill="url(#paint4_linear_7584_2145)"/>
<g filter="url(#filter6_d_7584_2145)">
<path d="M92.161 72.5349L92.8982 74.5271L94.8903 75.2643L92.8982 76.0014L92.161 77.9936L91.4238 76.0014L89.4316 75.2643L91.4238 74.5271L92.161 72.5349Z" fill="url(#paint5_radial_7584_2145)" fill-opacity="0.85" shape-rendering="crispEdges"/>
</g>
<g filter="url(#filter7_d_7584_2145)">
<path d="M124.918 87.0896L125.163 87.7537L125.827 87.9994L125.163 88.2451L124.918 88.9092L124.672 88.2451L124.008 87.9994L124.672 87.7537L124.918 87.0896Z" fill="url(#paint6_radial_7584_2145)" fill-opacity="0.85" shape-rendering="crispEdges"/>
</g>
<g filter="url(#filter8_d_7584_2145)">
<path d="M77.609 77.9958L77.8547 78.6599L78.5188 78.9056L77.8547 79.1514L77.609 79.8154L77.3633 79.1514L76.6992 78.9056L77.3633 78.6599L77.609 77.9958Z" fill="url(#paint7_radial_7584_2145)" fill-opacity="0.85" shape-rendering="crispEdges"/>
</g>
<g filter="url(#filter9_d_7584_2145)">
<path d="M82.1535 114.386L82.645 115.715L83.9731 116.206L82.645 116.697L82.1535 118.026L81.6621 116.697L80.334 116.206L81.6621 115.715L82.1535 114.386Z" fill="url(#paint8_radial_7584_2145)" fill-opacity="0.85" shape-rendering="crispEdges"/>
</g>
<g filter="url(#filter10_d_7584_2145)">
<path d="M72.1481 99.8318L72.2669 100.415L72.7329 100.045L72.449 100.568L73.044 100.584L72.4903 100.802L72.936 101.196L72.3714 101.008L72.4592 101.596L72.1481 101.089L71.8369 101.596L71.9247 101.008L71.3602 101.196L71.8058 100.802L71.2521 100.584L71.8471 100.568L71.5633 100.045L72.0292 100.415L72.1481 99.8318Z" fill="url(#paint9_radial_7584_2145)" fill-opacity="0.85" shape-rendering="crispEdges"/>
</g>
<g filter="url(#filter11_d_7584_2145)">
<path d="M96.7141 123.484L96.9518 124.651L97.8837 123.91L97.316 124.956L98.506 124.988L97.3985 125.424L98.2899 126.213L97.1608 125.836L97.3364 127.014L96.7141 125.999L96.0918 127.014L96.2674 125.836L95.1383 126.213L96.0296 125.424L94.9222 124.988L96.1122 124.956L95.5445 123.91L96.4764 124.651L96.7141 123.484Z" fill="url(#paint10_radial_7584_2145)" fill-opacity="0.85" shape-rendering="crispEdges"/>
</g>
<g filter="url(#filter12_d_7584_2145)">
<path d="M112.177 68.8943L112.296 69.4775L112.762 69.1071L112.478 69.6303L113.073 69.6461L112.52 69.8644L112.965 70.259L112.401 70.0703L112.489 70.659L112.177 70.1516L111.866 70.659L111.954 70.0703L111.389 70.259L111.835 69.8644L111.281 69.6461L111.876 69.6303L111.593 69.1071L112.059 69.4775L112.177 68.8943Z" fill="url(#paint11_radial_7584_2145)" fill-opacity="0.85" shape-rendering="crispEdges"/>
</g>
<g filter="url(#filter13_d_7584_2145)">
<path d="M119.455 125.308L119.574 125.892L120.04 125.521L119.756 126.044L120.351 126.06L119.797 126.278L120.243 126.673L119.678 126.484L119.766 127.073L119.455 126.566L119.144 127.073L119.231 126.484L118.667 126.673L119.112 126.278L118.559 126.06L119.154 126.044L118.87 125.521L119.336 125.892L119.455 125.308Z" fill="url(#paint12_radial_7584_2145)" fill-opacity="0.85" shape-rendering="crispEdges"/>
</g>
<g filter="url(#filter14_d_7584_2145)">
<path d="M121.279 107.113L121.398 107.696L121.864 107.326L121.58 107.849L122.175 107.865L121.621 108.083L122.067 108.478L121.502 108.289L121.59 108.878L121.279 108.37L120.968 108.878L121.056 108.289L120.491 108.478L120.937 108.083L120.383 107.865L120.978 107.849L120.694 107.326L121.16 107.696L121.279 107.113Z" fill="url(#paint13_radial_7584_2145)" fill-opacity="0.85" shape-rendering="crispEdges"/>
</g>
<g filter="url(#filter15_d_7584_2145)">
<path d="M134.015 96.1873L134.134 96.7705L134.6 96.4001L134.316 96.9233L134.911 96.9391L134.357 97.1574L134.803 97.5519L134.239 97.3632L134.326 97.952L134.015 97.4445L133.704 97.952L133.792 97.3632L133.227 97.5519L133.673 97.1574L133.119 96.9391L133.714 96.9233L133.43 96.4001L133.896 96.7705L134.015 96.1873Z" fill="url(#paint14_radial_7584_2145)" fill-opacity="0.85" shape-rendering="crispEdges"/>
</g>
</g>
<defs>
<filter id="filter0_d_7584_2145" x="63.1287" y="68.1325" width="76.8544" height="75.1283" filterUnits="userSpaceOnUse" color-interpolation-filters="sRGB">
<feFlood flood-opacity="0" result="BackgroundImageFix"/>
<feColorMatrix in="SourceAlpha" type="matrix" values="0 0 0 0 0 0 0 0 0 0 0 0 0 0 0 0 0 0 127 0" result="hardAlpha"/>
<feOffset dy="4.69565"/>
<feGaussianBlur stdDeviation="4.69565"/>
<feComposite in2="hardAlpha" operator="out"/>
<feColorMatrix type="matrix" values="0 0 0 0 0 0 0 0 0 0 0 0 0 0 0 0 0 0 0.25 0"/>
<feBlend mode="normal" in2="BackgroundImageFix" result="effect1_dropShadow_7584_2145"/>
<feBlend mode="normal" in="SourceGraphic" in2="effect1_dropShadow_7584_2145" result="shape"/>
</filter>
<filter id="filter1_d_7584_2145" x="57.0549" y="57.4046" width="52.9936" height="52.9939" filterUnits="userSpaceOnUse" color-interpolation-filters="sRGB">
<feFlood flood-opacity="0" result="BackgroundImageFix"/>
<feColorMatrix in="SourceAlpha" type="matrix" values="0 0 0 0 0 0 0 0 0 0 0 0 0 0 0 0 0 0 127 0" result="hardAlpha"/>
<feOffset/>
<feGaussianBlur stdDeviation="11.7391"/>
<feComposite in2="hardAlpha" operator="out"/>
<feColorMatrix type="matrix" values="0 0 0 0 1 0 0 0 0 1 0 0 0 0 1 0 0 0 0.25 0"/>
<feBlend mode="normal" in2="BackgroundImageFix" result="effect1_dropShadow_7584_2145"/>
<feBlend mode="normal" in="SourceGraphic" in2="effect1_dropShadow_7584_2145" result="shape"/>
</filter>
<filter id="filter2_d_7584_2145" x="65.1077" y="61.428" width="48.9687" height="48.969" filterUnits="userSpaceOnUse" color-interpolation-filters="sRGB">
<feFlood flood-opacity="0" result="BackgroundImageFix"/>
<feColorMatrix in="SourceAlpha" type="matrix" values="0 0 0 0 0 0 0 0 0 0 0 0 0 0 0 0 0 0 127 0" result="hardAlpha"/>
<feOffset/>
<feGaussianBlur stdDeviation="11.7391"/>
<feComposite in2="hardAlpha" operator="out"/>
<feColorMatrix type="matrix" values="0 0 0 0 1 0 0 0 0 1 0 0 0 0 1 0 0 0 0.25 0"/>
<feBlend mode="normal" in2="BackgroundImageFix" result="effect1_dropShadow_7584_2145"/>
<feBlend mode="normal" in="SourceGraphic" in2="effect1_dropShadow_7584_2145" result="shape"/>
</filter>
<filter id="filter3_d_7584_2145" x="59.0686" y="65.4436" width="50.9814" height="50.9814" filterUnits="userSpaceOnUse" color-interpolation-filters="sRGB">
<feFlood flood-opacity="0" result="BackgroundImageFix"/>
<feColorMatrix in="SourceAlpha" type="matrix" values="0 0 0 0 0 0 0 0 0 0 0 0 0 0 0 0 0 0 127 0" result="hardAlpha"/>
<feOffset/>
<feGaussianBlur stdDeviation="11.7391"/>
<feComposite in2="hardAlpha" operator="out"/>
<feColorMatrix type="matrix" values="0 0 0 0 1 0 0 0 0 1 0 0 0 0 1 0 0 0 0.25 0"/>
<feBlend mode="normal" in2="BackgroundImageFix" result="effect1_dropShadow_7584_2145"/>
<feBlend mode="normal" in="SourceGraphic" in2="effect1_dropShadow_7584_2145" result="shape"/>
</filter>
<filter id="filter4_d_7584_2145" x="0.0434799" y="0.0434799" width="201.913" height="201.913" filterUnits="userSpaceOnUse" color-interpolation-filters="sRGB">
<feFlood flood-opacity="0" result="BackgroundImageFix"/>
<feColorMatrix in="SourceAlpha" type="matrix" values="0 0 0 0 0 0 0 0 0 0 0 0 0 0 0 0 0 0 127 0" result="hardAlpha"/>
<feOffset/>
<feGaussianBlur stdDeviation="23.4783"/>
<feComposite in2="hardAlpha" operator="out"/>
<feColorMatrix type="matrix" values="0 0 0 0 1 0 0 0 0 1 0 0 0 0 1 0 0 0 0.25 0"/>
<feBlend mode="normal" in2="BackgroundImageFix" result="effect1_dropShadow_7584_2145"/>
<feBlend mode="normal" in="SourceGraphic" in2="effect1_dropShadow_7584_2145" result="shape"/>
</filter>
<filter id="filter5_d_7584_2145" x="56.388" y="58.7455" width="91.5653" height="91.5653" filterUnits="userSpaceOnUse" color-interpolation-filters="sRGB">
<feFlood flood-opacity="0" result="BackgroundImageFix"/>
<feColorMatrix in="SourceAlpha" type="matrix" values="0 0 0 0 0 0 0 0 0 0 0 0 0 0 0 0 0 0 127 0" result="hardAlpha"/>
<feOffset dy="4.69565"/>
<feGaussianBlur stdDeviation="4.69565"/>
<feComposite in2="hardAlpha" operator="out"/>
<feColorMatrix type="matrix" values="0 0 0 0 0 0 0 0 0 0 0 0 0 0 0 0 0 0 0.25 0"/>
<feBlend mode="normal" in2="BackgroundImageFix" result="effect1_dropShadow_7584_2145"/>
<feBlend mode="normal" in="SourceGraphic" in2="effect1_dropShadow_7584_2145" result="shape"/>
</filter>
<filter id="filter6_d_7584_2145" x="65.9534" y="49.0567" width="52.415" height="52.4153" filterUnits="userSpaceOnUse" color-interpolation-filters="sRGB">
<feFlood flood-opacity="0" result="BackgroundImageFix"/>
<feColorMatrix in="SourceAlpha" type="matrix" values="0 0 0 0 0 0 0 0 0 0 0 0 0 0 0 0 0 0 127 0" result="hardAlpha"/>
<feOffset/>
<feGaussianBlur stdDeviation="11.7391"/>
<feComposite in2="hardAlpha" operator="out"/>
<feColorMatrix type="matrix" values="0 0 0 0 1 0 0 0 0 1 0 0 0 0 1 0 0 0 0.25 0"/>
<feBlend mode="normal" in2="BackgroundImageFix" result="effect1_dropShadow_7584_2145"/>
<feBlend mode="normal" in="SourceGraphic" in2="effect1_dropShadow_7584_2145" result="shape"/>
</filter>
<filter id="filter7_d_7584_2145" x="100.53" y="63.6113" width="48.7759" height="48.7761" filterUnits="userSpaceOnUse" color-interpolation-filters="sRGB">
<feFlood flood-opacity="0" result="BackgroundImageFix"/>
<feColorMatrix in="SourceAlpha" type="matrix" values="0 0 0 0 0 0 0 0 0 0 0 0 0 0 0 0 0 0 127 0" result="hardAlpha"/>
<feOffset/>
<feGaussianBlur stdDeviation="11.7391"/>
<feComposite in2="hardAlpha" operator="out"/>
<feColorMatrix type="matrix" values="0 0 0 0 1 0 0 0 0 1 0 0 0 0 1 0 0 0 0.25 0"/>
<feBlend mode="normal" in2="BackgroundImageFix" result="effect1_dropShadow_7584_2145"/>
<feBlend mode="normal" in="SourceGraphic" in2="effect1_dropShadow_7584_2145" result="shape"/>
</filter>
<filter id="filter8_d_7584_2145" x="53.221" y="54.5176" width="48.7759" height="48.7761" filterUnits="userSpaceOnUse" color-interpolation-filters="sRGB">
<feFlood flood-opacity="0" result="BackgroundImageFix"/>
<feColorMatrix in="SourceAlpha" type="matrix" values="0 0 0 0 0 0 0 0 0 0 0 0 0 0 0 0 0 0 127 0" result="hardAlpha"/>
<feOffset/>
<feGaussianBlur stdDeviation="11.7391"/>
<feComposite in2="hardAlpha" operator="out"/>
<feColorMatrix type="matrix" values="0 0 0 0 1 0 0 0 0 1 0 0 0 0 1 0 0 0 0.25 0"/>
<feBlend mode="normal" in2="BackgroundImageFix" result="effect1_dropShadow_7584_2145"/>
<feBlend mode="normal" in="SourceGraphic" in2="effect1_dropShadow_7584_2145" result="shape"/>
</filter>
<filter id="filter9_d_7584_2145" x="56.8557" y="90.9082" width="50.5957" height="50.5957" filterUnits="userSpaceOnUse" color-interpolation-filters="sRGB">
<feFlood flood-opacity="0" result="BackgroundImageFix"/>
<feColorMatrix in="SourceAlpha" type="matrix" values="0 0 0 0 0 0 0 0 0 0 0 0 0 0 0 0 0 0 127 0" result="hardAlpha"/>
<feOffset/>
<feGaussianBlur stdDeviation="11.7391"/>
<feComposite in2="hardAlpha" operator="out"/>
<feColorMatrix type="matrix" values="0 0 0 0 1 0 0 0 0 1 0 0 0 0 1 0 0 0 0.25 0"/>
<feBlend mode="normal" in2="BackgroundImageFix" result="effect1_dropShadow_7584_2145"/>
<feBlend mode="normal" in="SourceGraphic" in2="effect1_dropShadow_7584_2145" result="shape"/>
</filter>
<filter id="filter10_d_7584_2145" x="47.7737" y="76.3535" width="48.7485" height="48.7212" filterUnits="userSpaceOnUse" color-interpolation-filters="sRGB">
<feFlood flood-opacity="0" result="BackgroundImageFix"/>
<feColorMatrix in="SourceAlpha" type="matrix" values="0 0 0 0 0 0 0 0 0 0 0 0 0 0 0 0 0 0 127 0" result="hardAlpha"/>
<feOffset/>
<feGaussianBlur stdDeviation="11.7391"/>
<feComposite in2="hardAlpha" operator="out"/>
<feColorMatrix type="matrix" values="0 0 0 0 1 0 0 0 0 1 0 0 0 0 1 0 0 0 0.25 0"/>
<feBlend mode="normal" in2="BackgroundImageFix" result="effect1_dropShadow_7584_2145"/>
<feBlend mode="normal" in="SourceGraphic" in2="effect1_dropShadow_7584_2145" result="shape"/>
</filter>
<filter id="filter11_d_7584_2145" x="71.4441" y="100.006" width="50.54" height="50.4858" filterUnits="userSpaceOnUse" color-interpolation-filters="sRGB">
<feFlood flood-opacity="0" result="BackgroundImageFix"/>
<feColorMatrix in="SourceAlpha" type="matrix" values="0 0 0 0 0 0 0 0 0 0 0 0 0 0 0 0 0 0 127 0" result="hardAlpha"/>
<feOffset/>
<feGaussianBlur stdDeviation="11.7391"/>
<feComposite in2="hardAlpha" operator="out"/>
<feColorMatrix type="matrix" values="0 0 0 0 1 0 0 0 0 1 0 0 0 0 1 0 0 0 0.25 0"/>
<feBlend mode="normal" in2="BackgroundImageFix" result="effect1_dropShadow_7584_2145"/>
<feBlend mode="normal" in="SourceGraphic" in2="effect1_dropShadow_7584_2145" result="shape"/>
</filter>
<filter id="filter12_d_7584_2145" x="87.803" y="45.416" width="48.7485" height="48.7212" filterUnits="userSpaceOnUse" color-interpolation-filters="sRGB">
<feFlood flood-opacity="0" result="BackgroundImageFix"/>
<feColorMatrix in="SourceAlpha" type="matrix" values="0 0 0 0 0 0 0 0 0 0 0 0 0 0 0 0 0 0 127 0" result="hardAlpha"/>
<feOffset/>
<feGaussianBlur stdDeviation="11.7391"/>
<feComposite in2="hardAlpha" operator="out"/>
<feColorMatrix type="matrix" values="0 0 0 0 1 0 0 0 0 1 0 0 0 0 1 0 0 0 0.25 0"/>
<feBlend mode="normal" in2="BackgroundImageFix" result="effect1_dropShadow_7584_2145"/>
<feBlend mode="normal" in="SourceGraphic" in2="effect1_dropShadow_7584_2145" result="shape"/>
</filter>
<filter id="filter13_d_7584_2145" x="95.0803" y="101.83" width="48.7485" height="48.7212" filterUnits="userSpaceOnUse" color-interpolation-filters="sRGB">
<feFlood flood-opacity="0" result="BackgroundImageFix"/>
<feColorMatrix in="SourceAlpha" type="matrix" values="0 0 0 0 0 0 0 0 0 0 0 0 0 0 0 0 0 0 127 0" result="hardAlpha"/>
<feOffset/>
<feGaussianBlur stdDeviation="11.7391"/>
<feComposite in2="hardAlpha" operator="out"/>
<feColorMatrix type="matrix" values="0 0 0 0 1 0 0 0 0 1 0 0 0 0 1 0 0 0 0.25 0"/>
<feBlend mode="normal" in2="BackgroundImageFix" result="effect1_dropShadow_7584_2145"/>
<feBlend mode="normal" in="SourceGraphic" in2="effect1_dropShadow_7584_2145" result="shape"/>
</filter>
<filter id="filter14_d_7584_2145" x="96.9046" y="83.6348" width="48.7485" height="48.7212" filterUnits="userSpaceOnUse" color-interpolation-filters="sRGB">
<feFlood flood-opacity="0" result="BackgroundImageFix"/>
<feColorMatrix in="SourceAlpha" type="matrix" values="0 0 0 0 0 0 0 0 0 0 0 0 0 0 0 0 0 0 127 0" result="hardAlpha"/>
<feOffset/>
<feGaussianBlur stdDeviation="11.7391"/>
<feComposite in2="hardAlpha" operator="out"/>
<feColorMatrix type="matrix" values="0 0 0 0 1 0 0 0 0 1 0 0 0 0 1 0 0 0 0.25 0"/>
<feBlend mode="normal" in2="BackgroundImageFix" result="effect1_dropShadow_7584_2145"/>
<feBlend mode="normal" in="SourceGraphic" in2="effect1_dropShadow_7584_2145" result="shape"/>
</filter>
<filter id="filter15_d_7584_2145" x="109.641" y="72.709" width="48.7485" height="48.7212" filterUnits="userSpaceOnUse" color-interpolation-filters="sRGB">
<feFlood flood-opacity="0" result="BackgroundImageFix"/>
<feColorMatrix in="SourceAlpha" type="matrix" values="0 0 0 0 0 0 0 0 0 0 0 0 0 0 0 0 0 0 127 0" result="hardAlpha"/>
<feOffset/>
<feGaussianBlur stdDeviation="11.7391"/>
<feComposite in2="hardAlpha" operator="out"/>
<feColorMatrix type="matrix" values="0 0 0 0 1 0 0 0 0 1 0 0 0 0 1 0 0 0 0.25 0"/>
<feBlend mode="normal" in2="BackgroundImageFix" result="effect1_dropShadow_7584_2145"/>
<feBlend mode="normal" in="SourceGraphic" in2="effect1_dropShadow_7584_2145" result="shape"/>
</filter>
<linearGradient id="paint0_linear_7584_2145" x1="101.667" y1="72.8281" x2="101.667" y2="101.002" gradientUnits="userSpaceOnUse">
<stop stop-color="#AD7D00"/>
<stop offset="0.421875" stop-color="#BA6400"/>
<stop offset="0.5" stop-color="#BA6400"/>
<stop offset="0.630208" stop-color="#BA6400" stop-opacity="0.84"/>
<stop offset="1" stop-color="#D7A700" stop-opacity="0.46"/>
</linearGradient>
<radialGradient id="paint1_radial_7584_2145" cx="0" cy="0" r="1" gradientUnits="userSpaceOnUse" gradientTransform="translate(83.5518 83.9014) rotate(90) scale(3.01863)">
<stop stop-color="white"/>
<stop offset="1" stop-color="#CECECE" stop-opacity="0.65"/>
</radialGradient>
<radialGradient id="paint2_radial_7584_2145" cx="0" cy="0" r="1" gradientUnits="userSpaceOnUse" gradientTransform="translate(89.5921 85.9125) rotate(90) scale(1.00621)">
<stop stop-color="white"/>
<stop offset="1" stop-color="#CECECE" stop-opacity="0.65"/>
</radialGradient>
<radialGradient id="paint3_radial_7584_2145" cx="0" cy="0" r="1" gradientUnits="userSpaceOnUse" gradientTransform="translate(84.5593 90.9343) rotate(90) scale(2.01242)">
<stop stop-color="white"/>
<stop offset="1" stop-color="#CECECE" stop-opacity="0.65"/>
</radialGradient>
<linearGradient id="paint4_linear_7584_2145" x1="102.171" y1="63.4412" x2="102.171" y2="136.224" gradientUnits="userSpaceOnUse">
<stop stop-color="#171717"/>
<stop offset="0.307292" stop-opacity="0.78"/>
<stop offset="0.53125" stop-opacity="0.76"/>
<stop offset="0.770833"/>
<stop offset="1" stop-color="#303030"/>
</linearGradient>
<radialGradient id="paint5_radial_7584_2145" cx="0" cy="0" r="1" gradientUnits="userSpaceOnUse" gradientTransform="translate(92.161 75.2643) rotate(90) scale(2.72935)">
<stop stop-color="white"/>
<stop offset="1" stop-color="#CECECE" stop-opacity="0.65"/>
</radialGradient>
<radialGradient id="paint6_radial_7584_2145" cx="0" cy="0" r="1" gradientUnits="userSpaceOnUse" gradientTransform="translate(124.918 87.9994) rotate(90) scale(0.909783)">
<stop stop-color="white"/>
<stop offset="1" stop-color="#CECECE" stop-opacity="0.65"/>
</radialGradient>
<radialGradient id="paint7_radial_7584_2145" cx="0" cy="0" r="1" gradientUnits="userSpaceOnUse" gradientTransform="translate(77.609 78.9056) rotate(90) scale(0.909783)">
<stop stop-color="white"/>
<stop offset="1" stop-color="#CECECE" stop-opacity="0.65"/>
</radialGradient>
<radialGradient id="paint8_radial_7584_2145" cx="0" cy="0" r="1" gradientUnits="userSpaceOnUse" gradientTransform="translate(82.1535 116.206) rotate(90) scale(1.81957)">
<stop stop-color="white"/>
<stop offset="1" stop-color="#CECECE" stop-opacity="0.65"/>
</radialGradient>
<radialGradient id="paint9_radial_7584_2145" cx="0" cy="0" r="1" gradientUnits="userSpaceOnUse" gradientTransform="translate(72.1481 100.742) rotate(90) scale(0.909783)">
<stop stop-color="white"/>
<stop offset="1" stop-color="#CECECE" stop-opacity="0.65"/>
</radialGradient>
<radialGradient id="paint10_radial_7584_2145" cx="0" cy="0" r="1" gradientUnits="userSpaceOnUse" gradientTransform="translate(96.7141 125.304) rotate(90) scale(1.81957)">
<stop stop-color="white"/>
<stop offset="1" stop-color="#CECECE" stop-opacity="0.65"/>
</radialGradient>
<radialGradient id="paint11_radial_7584_2145" cx="0" cy="0" r="1" gradientUnits="userSpaceOnUse" gradientTransform="translate(112.177 69.8041) rotate(90) scale(0.909783)">
<stop stop-color="white"/>
<stop offset="1" stop-color="#CECECE" stop-opacity="0.65"/>
</radialGradient>
<radialGradient id="paint12_radial_7584_2145" cx="0" cy="0" r="1" gradientUnits="userSpaceOnUse" gradientTransform="translate(119.455 126.218) rotate(90) scale(0.909783)">
<stop stop-color="white"/>
<stop offset="1" stop-color="#CECECE" stop-opacity="0.65"/>
</radialGradient>
<radialGradient id="paint13_radial_7584_2145" cx="0" cy="0" r="1" gradientUnits="userSpaceOnUse" gradientTransform="translate(121.279 108.023) rotate(90) scale(0.909783)">
<stop stop-color="white"/>
<stop offset="1" stop-color="#CECECE" stop-opacity="0.65"/>
</radialGradient>
<radialGradient id="paint14_radial_7584_2145" cx="0" cy="0" r="1" gradientUnits="userSpaceOnUse" gradientTransform="translate(134.015 97.097) rotate(90) scale(0.909783)">
<stop stop-color="white"/>
<stop offset="1" stop-color="#CECECE" stop-opacity="0.65"/>
</radialGradient>
</defs>
</svg>
