<svg width="202" height="202" viewBox="0 0 202 202" fill="none" xmlns="http://www.w3.org/2000/svg">
<g filter="url(#filter0_d_7887_9323)">
<circle cx="101" cy="101" r="54" fill="white"/>
</g>
<path d="M100.922 137.937L87.694 95.6144H114.15L100.922 137.937Z" fill="url(#paint0_linear_7887_9323)"/>
<g filter="url(#filter1_d_7887_9323)">
<path d="M95.5479 69.2024L95.7008 69.6155L96.1139 69.7684L95.7008 69.9213L95.5479 70.3344L95.3951 69.9213L94.9819 69.7684L95.3951 69.6155L95.5479 69.2024Z" fill="url(#paint1_radial_7887_9323)" shape-rendering="crispEdges"/>
</g>
<g filter="url(#filter2_d_7887_9323)">
<path d="M94.1333 67.5051L94.2479 67.8148L94.5576 67.9294L94.2479 68.044L94.1333 68.3537L94.0187 68.044L93.709 67.9294L94.0187 67.8148L94.1333 67.5051Z" fill="url(#paint2_radial_7887_9323)" shape-rendering="crispEdges"/>
</g>
<g filter="url(#filter3_d_7887_9323)">
<path d="M96.9626 66.2319L97.2683 67.0582L98.0945 67.3639L97.2683 67.6697L96.9626 68.4959L96.6568 67.6697L95.8306 67.3639L96.6568 67.0582L96.9626 66.2319Z" fill="url(#paint3_radial_7887_9323)" shape-rendering="crispEdges"/>
</g>
<path fill-rule="evenodd" clip-rule="evenodd" d="M105.125 99.1566L105.083 99.1651C105.097 99.3047 105.104 99.4463 105.104 99.5895C105.104 101.977 103.168 103.913 100.78 103.913C98.3924 103.913 96.4566 101.977 96.4566 99.5895C96.4566 101.977 94.5208 103.913 92.1329 103.913C89.745 103.913 87.8092 101.977 87.8092 99.5895C87.8092 99.3849 87.8234 99.1836 87.8509 98.9866C87.2056 99.3696 86.4522 99.5895 85.6474 99.5895C83.2595 99.5895 81.3237 97.6537 81.3237 95.2658C81.3237 94.461 81.5436 93.7076 81.9266 93.0623C81.7295 93.0897 81.5283 93.104 81.3237 93.104C78.9358 93.104 77 91.1682 77 88.7803C77 86.3924 78.9358 84.4566 81.3237 84.4566C81.3742 84.4566 81.4245 84.4575 81.4746 84.4592C81.375 83.7501 81.3237 83.0278 81.3237 82.2947C81.3237 72.7431 90.0347 65 100.78 65C111.526 65 120.237 72.7431 120.237 82.2947C120.237 83.0278 120.186 83.7501 120.086 84.4592C120.136 84.4575 120.186 84.4566 120.237 84.4566C122.625 84.4566 124.561 86.3924 124.561 88.7803C124.561 91.1682 122.625 93.104 120.237 93.104C120.032 93.104 119.831 93.0897 119.634 93.0623C120.017 93.7076 120.237 94.461 120.237 95.2658C120.237 97.6537 118.301 99.5895 115.913 99.5895C115.108 99.5895 114.355 99.3696 113.71 98.9866C113.737 99.1836 113.751 99.3849 113.751 99.5895C113.751 101.977 111.816 103.913 109.428 103.913C107.04 103.913 105.104 101.977 105.104 99.5895C105.104 99.4434 105.111 99.299 105.125 99.1566ZM96.4772 99.1651C96.4636 99.3043 96.4566 99.4456 96.4566 99.5884C96.4566 99.4427 96.4493 99.2986 96.4352 99.1566L96.4772 99.1651Z" fill="url(#paint4_linear_7887_9323)"/>
<g filter="url(#filter4_d_7887_9323)">
<path d="M88.9411 71.4856L89.2468 72.3118L90.0731 72.6176L89.2468 72.9233L88.9411 73.7496L88.6353 72.9233L87.8091 72.6176L88.6353 72.3118L88.9411 71.4856Z" fill="url(#paint5_radial_7887_9323)" shape-rendering="crispEdges"/>
</g>
<g filter="url(#filter5_d_7887_9323)">
<path d="M90.5372 75.8093L90.6901 76.2225L91.1032 76.3753L90.6901 76.5282L90.5372 76.9413L90.3843 76.5282L89.9712 76.3753L90.3843 76.2225L90.5372 75.8093Z" fill="url(#paint6_radial_7887_9323)" shape-rendering="crispEdges"/>
</g>
<g filter="url(#filter6_d_7887_9323)">
<path d="M92.5571 73.6475L92.6717 73.9572L92.9814 74.0717L92.6717 74.1863L92.5571 74.496L92.4425 74.1863L92.1328 74.0717L92.4425 73.9572L92.5571 73.6475Z" fill="url(#paint7_radial_7887_9323)" shape-rendering="crispEdges"/>
</g>
<defs>
<filter id="filter0_d_7887_9323" x="0.0434799" y="0.0434799" width="201.913" height="201.913" filterUnits="userSpaceOnUse" color-interpolation-filters="sRGB">
<feFlood flood-opacity="0" result="BackgroundImageFix"/>
<feColorMatrix in="SourceAlpha" type="matrix" values="0 0 0 0 0 0 0 0 0 0 0 0 0 0 0 0 0 0 127 0" result="hardAlpha"/>
<feOffset/>
<feGaussianBlur stdDeviation="23.4783"/>
<feComposite in2="hardAlpha" operator="out"/>
<feColorMatrix type="matrix" values="0 0 0 0 1 0 0 0 0 1 0 0 0 0 1 0 0 0 0.25 0"/>
<feBlend mode="normal" in2="BackgroundImageFix" result="effect1_dropShadow_7887_9323"/>
<feBlend mode="normal" in="SourceGraphic" in2="effect1_dropShadow_7887_9323" result="shape"/>
</filter>
<filter id="filter1_d_7887_9323" x="71.5037" y="45.7241" width="48.0884" height="48.0886" filterUnits="userSpaceOnUse" color-interpolation-filters="sRGB">
<feFlood flood-opacity="0" result="BackgroundImageFix"/>
<feColorMatrix in="SourceAlpha" type="matrix" values="0 0 0 0 0 0 0 0 0 0 0 0 0 0 0 0 0 0 127 0" result="hardAlpha"/>
<feOffset/>
<feGaussianBlur stdDeviation="11.7391"/>
<feComposite in2="hardAlpha" operator="out"/>
<feColorMatrix type="matrix" values="0 0 0 0 1 0 0 0 0 1 0 0 0 0 1 0 0 0 0.25 0"/>
<feBlend mode="normal" in2="BackgroundImageFix" result="effect1_dropShadow_7887_9323"/>
<feBlend mode="normal" in="SourceGraphic" in2="effect1_dropShadow_7887_9323" result="shape"/>
</filter>
<filter id="filter2_d_7887_9323" x="70.2307" y="44.0269" width="47.8052" height="47.8052" filterUnits="userSpaceOnUse" color-interpolation-filters="sRGB">
<feFlood flood-opacity="0" result="BackgroundImageFix"/>
<feColorMatrix in="SourceAlpha" type="matrix" values="0 0 0 0 0 0 0 0 0 0 0 0 0 0 0 0 0 0 127 0" result="hardAlpha"/>
<feOffset/>
<feGaussianBlur stdDeviation="11.7391"/>
<feComposite in2="hardAlpha" operator="out"/>
<feColorMatrix type="matrix" values="0 0 0 0 1 0 0 0 0 1 0 0 0 0 1 0 0 0 0.25 0"/>
<feBlend mode="normal" in2="BackgroundImageFix" result="effect1_dropShadow_7887_9323"/>
<feBlend mode="normal" in="SourceGraphic" in2="effect1_dropShadow_7887_9323" result="shape"/>
</filter>
<filter id="filter3_d_7887_9323" x="72.3523" y="42.7537" width="49.2207" height="49.2204" filterUnits="userSpaceOnUse" color-interpolation-filters="sRGB">
<feFlood flood-opacity="0" result="BackgroundImageFix"/>
<feColorMatrix in="SourceAlpha" type="matrix" values="0 0 0 0 0 0 0 0 0 0 0 0 0 0 0 0 0 0 127 0" result="hardAlpha"/>
<feOffset/>
<feGaussianBlur stdDeviation="11.7391"/>
<feComposite in2="hardAlpha" operator="out"/>
<feColorMatrix type="matrix" values="0 0 0 0 1 0 0 0 0 1 0 0 0 0 1 0 0 0 0.25 0"/>
<feBlend mode="normal" in2="BackgroundImageFix" result="effect1_dropShadow_7887_9323"/>
<feBlend mode="normal" in="SourceGraphic" in2="effect1_dropShadow_7887_9323" result="shape"/>
</filter>
<filter id="filter4_d_7887_9323" x="64.3308" y="48.0073" width="49.2207" height="49.2204" filterUnits="userSpaceOnUse" color-interpolation-filters="sRGB">
<feFlood flood-opacity="0" result="BackgroundImageFix"/>
<feColorMatrix in="SourceAlpha" type="matrix" values="0 0 0 0 0 0 0 0 0 0 0 0 0 0 0 0 0 0 127 0" result="hardAlpha"/>
<feOffset/>
<feGaussianBlur stdDeviation="11.7391"/>
<feComposite in2="hardAlpha" operator="out"/>
<feColorMatrix type="matrix" values="0 0 0 0 1 0 0 0 0 1 0 0 0 0 1 0 0 0 0.25 0"/>
<feBlend mode="normal" in2="BackgroundImageFix" result="effect1_dropShadow_7887_9323"/>
<feBlend mode="normal" in="SourceGraphic" in2="effect1_dropShadow_7887_9323" result="shape"/>
</filter>
<filter id="filter5_d_7887_9323" x="66.4929" y="52.3311" width="48.0884" height="48.0886" filterUnits="userSpaceOnUse" color-interpolation-filters="sRGB">
<feFlood flood-opacity="0" result="BackgroundImageFix"/>
<feColorMatrix in="SourceAlpha" type="matrix" values="0 0 0 0 0 0 0 0 0 0 0 0 0 0 0 0 0 0 127 0" result="hardAlpha"/>
<feOffset/>
<feGaussianBlur stdDeviation="11.7391"/>
<feComposite in2="hardAlpha" operator="out"/>
<feColorMatrix type="matrix" values="0 0 0 0 1 0 0 0 0 1 0 0 0 0 1 0 0 0 0.25 0"/>
<feBlend mode="normal" in2="BackgroundImageFix" result="effect1_dropShadow_7887_9323"/>
<feBlend mode="normal" in="SourceGraphic" in2="effect1_dropShadow_7887_9323" result="shape"/>
</filter>
<filter id="filter6_d_7887_9323" x="68.6546" y="50.1692" width="47.8052" height="47.8052" filterUnits="userSpaceOnUse" color-interpolation-filters="sRGB">
<feFlood flood-opacity="0" result="BackgroundImageFix"/>
<feColorMatrix in="SourceAlpha" type="matrix" values="0 0 0 0 0 0 0 0 0 0 0 0 0 0 0 0 0 0 127 0" result="hardAlpha"/>
<feOffset/>
<feGaussianBlur stdDeviation="11.7391"/>
<feComposite in2="hardAlpha" operator="out"/>
<feColorMatrix type="matrix" values="0 0 0 0 1 0 0 0 0 1 0 0 0 0 1 0 0 0 0.25 0"/>
<feBlend mode="normal" in2="BackgroundImageFix" result="effect1_dropShadow_7887_9323"/>
<feBlend mode="normal" in="SourceGraphic" in2="effect1_dropShadow_7887_9323" result="shape"/>
</filter>
<linearGradient id="paint0_linear_7887_9323" x1="100.922" y1="97.2055" x2="100.922" y2="137.937" gradientUnits="userSpaceOnUse">
<stop stop-color="#F0AB42"/>
<stop offset="0.848865" stop-color="#C17A0E"/>
</linearGradient>
<radialGradient id="paint1_radial_7887_9323" cx="0" cy="0" r="1" gradientUnits="userSpaceOnUse" gradientTransform="translate(95.5479 69.7684) rotate(90) scale(0.565996)">
<stop stop-color="white" stop-opacity="0.52"/>
<stop offset="0.260417" stop-color="white" stop-opacity="0.97"/>
<stop offset="0.682292" stop-color="white" stop-opacity="0.65"/>
<stop offset="1" stop-color="white" stop-opacity="0.81"/>
</radialGradient>
<radialGradient id="paint2_radial_7887_9323" cx="0" cy="0" r="1" gradientUnits="userSpaceOnUse" gradientTransform="translate(94.1333 67.9294) rotate(90) scale(0.424287)">
<stop stop-color="white" stop-opacity="0.52"/>
<stop offset="0.260417" stop-color="white" stop-opacity="0.97"/>
<stop offset="0.682292" stop-color="white" stop-opacity="0.65"/>
<stop offset="1" stop-color="white" stop-opacity="0.81"/>
</radialGradient>
<radialGradient id="paint3_radial_7887_9323" cx="0" cy="0" r="1" gradientUnits="userSpaceOnUse" gradientTransform="translate(96.9626 67.3639) rotate(90) scale(1.13199)">
<stop stop-color="white" stop-opacity="0.52"/>
<stop offset="0.260417" stop-color="white" stop-opacity="0.97"/>
<stop offset="0.682292" stop-color="white" stop-opacity="0.65"/>
<stop offset="1" stop-color="white" stop-opacity="0.81"/>
</radialGradient>
<linearGradient id="paint4_linear_7887_9323" x1="118.395" y1="65" x2="118.395" y2="81.9495" gradientUnits="userSpaceOnUse">
<stop stop-color="#FF9B52"/>
<stop offset="0.6" stop-color="#FF603E"/>
<stop offset="1" stop-color="#FF3333"/>
</linearGradient>
<radialGradient id="paint5_radial_7887_9323" cx="0" cy="0" r="1" gradientUnits="userSpaceOnUse" gradientTransform="translate(88.9411 72.6176) rotate(90) scale(1.13199)">
<stop stop-color="white" stop-opacity="0.52"/>
<stop offset="0.260417" stop-color="white" stop-opacity="0.97"/>
<stop offset="0.682292" stop-color="white" stop-opacity="0.65"/>
<stop offset="1" stop-color="white" stop-opacity="0.81"/>
</radialGradient>
<radialGradient id="paint6_radial_7887_9323" cx="0" cy="0" r="1" gradientUnits="userSpaceOnUse" gradientTransform="translate(90.5372 76.3753) rotate(90) scale(0.565996)">
<stop stop-color="white" stop-opacity="0.52"/>
<stop offset="0.260417" stop-color="white" stop-opacity="0.97"/>
<stop offset="0.682292" stop-color="white" stop-opacity="0.65"/>
<stop offset="1" stop-color="white" stop-opacity="0.81"/>
</radialGradient>
<radialGradient id="paint7_radial_7887_9323" cx="0" cy="0" r="1" gradientUnits="userSpaceOnUse" gradientTransform="translate(92.5571 74.0717) rotate(90) scale(0.424287)">
<stop stop-color="white" stop-opacity="0.52"/>
<stop offset="0.260417" stop-color="white" stop-opacity="0.97"/>
<stop offset="0.682292" stop-color="white" stop-opacity="0.65"/>
<stop offset="1" stop-color="white" stop-opacity="0.81"/>
</radialGradient>
</defs>
</svg>
