<svg width="202" height="202" viewBox="0 0 202 202" fill="none" xmlns="http://www.w3.org/2000/svg">
<g filter="url(#filter0_d_7887_9367)">
<circle cx="101" cy="101" r="54" fill="white"/>
</g>
<circle cx="101" cy="101" r="34" fill="url(#paint0_radial_7887_9367)"/>
<circle cx="103.667" cy="101.001" r="27.3333" fill="url(#paint1_radial_7887_9367)"/>
<path d="M103.479 98.6623C100.039 101.234 112.08 104.661 114.66 101.233C117.171 97.8959 110.933 92.3755 108.639 90.9469C104.339 87.5181 95.9105 88.8898 93.1582 94.3756C90.4059 99.8614 94.5913 104.947 95.7381 106.376C100.899 111.519 112.867 114.15 118.101 109.804C123.261 105.519 124.982 99.5178 124.122 96.9464C122.402 90.9463 114.661 84.0894 107.78 82.3747C100.27 80.5034 94.0179 82.3755 87.9972 87.5183C85.4174 89.722 83.6965 96.947 84.5568 101.233C85.3112 104.992 87.997 111.519 94.0177 114.947C99.4543 118.043 111.22 120.09 114.66 118.376" stroke="white" stroke-width="2" stroke-linecap="round"/>
<g filter="url(#filter1_d_7887_9367)">
<path d="M119.333 89.6667L119.693 90.64L120.667 91.0001L119.693 91.3602L119.333 92.3334L118.973 91.3602L118 91.0001L118.973 90.64L119.333 89.6667Z" fill="url(#paint2_linear_7887_9367)"/>
</g>
<g filter="url(#filter2_d_7887_9367)">
<path d="M93.8333 115.167L94.1935 116.14L95.1667 116.5L94.1935 116.86L93.8333 117.833L93.4732 116.86L92.5 116.5L93.4732 116.14L93.8333 115.167Z" fill="url(#paint3_linear_7887_9367)"/>
</g>
<g filter="url(#filter3_d_7887_9367)">
<path d="M119.333 106.667L119.633 107.588H120.601L119.818 108.157L120.117 109.079L119.333 108.509L118.55 109.079L118.849 108.157L118.065 107.588H119.034L119.333 106.667Z" fill="url(#paint4_linear_7887_9367)"/>
</g>
<g filter="url(#filter4_d_7887_9367)">
<path d="M110.833 92.5L111.133 93.4213H112.101L111.318 93.9907L111.617 94.912L110.833 94.3426L110.05 94.912L110.349 93.9907L109.565 93.4213H110.534L110.833 92.5Z" fill="url(#paint5_linear_7887_9367)"/>
</g>
<g filter="url(#filter5_d_7887_9367)">
<path d="M102.333 81.1667L102.633 82.0881H103.601L102.818 82.6575L103.117 83.5788L102.333 83.0094L101.55 83.5788L101.849 82.6575L101.065 82.0881H102.034L102.333 81.1667Z" fill="url(#paint6_linear_7887_9367)"/>
</g>
<g filter="url(#filter6_d_7887_9367)">
<path d="M103 98.1667L103.382 99.5052L104.732 99.1667L103.764 100.167L104.732 101.167L103.382 100.828L103 102.167L102.618 100.828L101.268 101.167L102.236 100.167L101.268 99.1667L102.618 99.5052L103 98.1667Z" fill="url(#paint7_linear_7887_9367)"/>
</g>
<g filter="url(#filter7_d_7887_9367)">
<path d="M102.333 109.5L102.554 110.374L103.376 110.002L102.83 110.72L103.633 111.13L102.732 111.151L102.912 112.035L102.333 111.343L101.755 112.035L101.935 111.151L101.033 111.13L101.837 110.72L101.291 110.002L102.112 110.374L102.333 109.5Z" fill="url(#paint8_linear_7887_9367)"/>
</g>
<g filter="url(#filter8_d_7887_9367)">
<path d="M96.6678 89.6667L96.8627 90.5296L97.6106 90.0573L97.1383 90.8052L98.0011 91.0001L97.1383 91.195L97.6106 91.9429L96.8627 91.4706L96.6678 92.3334L96.4729 91.4706L95.725 91.9429L96.1973 91.195L95.3345 91.0001L96.1973 90.8052L95.725 90.0573L96.4729 90.5296L96.6678 89.6667Z" fill="url(#paint9_linear_7887_9367)"/>
</g>
<g filter="url(#filter9_d_7887_9367)">
<path d="M107.332 118L107.43 118.431L107.804 118.195L107.567 118.569L107.999 118.667L107.567 118.764L107.804 119.138L107.43 118.902L107.332 119.333L107.235 118.902L106.861 119.138L107.097 118.764L106.666 118.667L107.097 118.569L106.861 118.195L107.235 118.431L107.332 118Z" fill="url(#paint10_linear_7887_9367)"/>
</g>
<g filter="url(#filter10_d_7887_9367)">
<path d="M84.6667 103.833L84.7641 104.265L85.1381 104.029L84.9019 104.402L85.3333 104.5L84.9019 104.597L85.1381 104.971L84.7641 104.735L84.6667 105.167L84.5692 104.735L84.1953 104.971L84.4314 104.597L84 104.5L84.4314 104.402L84.1953 104.029L84.5692 104.265L84.6667 103.833Z" fill="url(#paint11_linear_7887_9367)"/>
</g>
<g filter="url(#filter11_d_7887_9367)">
<path d="M85.3333 92.5L85.5543 93.3745L86.3758 93.002L85.8299 93.72L86.6332 94.13L85.7315 94.1509L85.9118 95.0346L85.3333 94.3426L84.7548 95.0346L84.9352 94.1509L84.0334 94.13L84.8368 93.72L84.2909 93.002L85.1124 93.3745L85.3333 92.5Z" fill="url(#paint12_linear_7887_9367)"/>
</g>
<defs>
<filter id="filter0_d_7887_9367" x="0.0434799" y="0.0434799" width="201.913" height="201.913" filterUnits="userSpaceOnUse" color-interpolation-filters="sRGB">
<feFlood flood-opacity="0" result="BackgroundImageFix"/>
<feColorMatrix in="SourceAlpha" type="matrix" values="0 0 0 0 0 0 0 0 0 0 0 0 0 0 0 0 0 0 127 0" result="hardAlpha"/>
<feOffset/>
<feGaussianBlur stdDeviation="23.4783"/>
<feComposite in2="hardAlpha" operator="out"/>
<feColorMatrix type="matrix" values="0 0 0 0 1 0 0 0 0 1 0 0 0 0 1 0 0 0 0.25 0"/>
<feBlend mode="normal" in2="BackgroundImageFix" result="effect1_dropShadow_7887_9367"/>
<feBlend mode="normal" in="SourceGraphic" in2="effect1_dropShadow_7887_9367" result="shape"/>
</filter>
<filter id="filter1_d_7887_9367" x="94.5217" y="66.1885" width="49.623" height="49.6233" filterUnits="userSpaceOnUse" color-interpolation-filters="sRGB">
<feFlood flood-opacity="0" result="BackgroundImageFix"/>
<feColorMatrix in="SourceAlpha" type="matrix" values="0 0 0 0 0 0 0 0 0 0 0 0 0 0 0 0 0 0 127 0" result="hardAlpha"/>
<feOffset/>
<feGaussianBlur stdDeviation="11.7391"/>
<feComposite in2="hardAlpha" operator="out"/>
<feColorMatrix type="matrix" values="0 0 0 0 1 0 0 0 0 1 0 0 0 0 1 0 0 0 0.25 0"/>
<feBlend mode="normal" in2="BackgroundImageFix" result="effect1_dropShadow_7887_9367"/>
<feBlend mode="normal" in="SourceGraphic" in2="effect1_dropShadow_7887_9367" result="shape"/>
</filter>
<filter id="filter2_d_7887_9367" x="69.0217" y="91.6885" width="49.623" height="49.6233" filterUnits="userSpaceOnUse" color-interpolation-filters="sRGB">
<feFlood flood-opacity="0" result="BackgroundImageFix"/>
<feColorMatrix in="SourceAlpha" type="matrix" values="0 0 0 0 0 0 0 0 0 0 0 0 0 0 0 0 0 0 127 0" result="hardAlpha"/>
<feOffset/>
<feGaussianBlur stdDeviation="11.7391"/>
<feComposite in2="hardAlpha" operator="out"/>
<feColorMatrix type="matrix" values="0 0 0 0 1 0 0 0 0 1 0 0 0 0 1 0 0 0 0.25 0"/>
<feBlend mode="normal" in2="BackgroundImageFix" result="effect1_dropShadow_7887_9367"/>
<feBlend mode="normal" in="SourceGraphic" in2="effect1_dropShadow_7887_9367" result="shape"/>
</filter>
<filter id="filter3_d_7887_9367" x="94.5872" y="83.1885" width="49.4927" height="49.3686" filterUnits="userSpaceOnUse" color-interpolation-filters="sRGB">
<feFlood flood-opacity="0" result="BackgroundImageFix"/>
<feColorMatrix in="SourceAlpha" type="matrix" values="0 0 0 0 0 0 0 0 0 0 0 0 0 0 0 0 0 0 127 0" result="hardAlpha"/>
<feOffset/>
<feGaussianBlur stdDeviation="11.7391"/>
<feComposite in2="hardAlpha" operator="out"/>
<feColorMatrix type="matrix" values="0 0 0 0 1 0 0 0 0 1 0 0 0 0 1 0 0 0 0.25 0"/>
<feBlend mode="normal" in2="BackgroundImageFix" result="effect1_dropShadow_7887_9367"/>
<feBlend mode="normal" in="SourceGraphic" in2="effect1_dropShadow_7887_9367" result="shape"/>
</filter>
<filter id="filter4_d_7887_9367" x="86.0872" y="69.0217" width="49.4927" height="49.3686" filterUnits="userSpaceOnUse" color-interpolation-filters="sRGB">
<feFlood flood-opacity="0" result="BackgroundImageFix"/>
<feColorMatrix in="SourceAlpha" type="matrix" values="0 0 0 0 0 0 0 0 0 0 0 0 0 0 0 0 0 0 127 0" result="hardAlpha"/>
<feOffset/>
<feGaussianBlur stdDeviation="11.7391"/>
<feComposite in2="hardAlpha" operator="out"/>
<feColorMatrix type="matrix" values="0 0 0 0 1 0 0 0 0 1 0 0 0 0 1 0 0 0 0.25 0"/>
<feBlend mode="normal" in2="BackgroundImageFix" result="effect1_dropShadow_7887_9367"/>
<feBlend mode="normal" in="SourceGraphic" in2="effect1_dropShadow_7887_9367" result="shape"/>
</filter>
<filter id="filter5_d_7887_9367" x="77.5872" y="57.6885" width="49.4927" height="49.3686" filterUnits="userSpaceOnUse" color-interpolation-filters="sRGB">
<feFlood flood-opacity="0" result="BackgroundImageFix"/>
<feColorMatrix in="SourceAlpha" type="matrix" values="0 0 0 0 0 0 0 0 0 0 0 0 0 0 0 0 0 0 127 0" result="hardAlpha"/>
<feOffset/>
<feGaussianBlur stdDeviation="11.7391"/>
<feComposite in2="hardAlpha" operator="out"/>
<feColorMatrix type="matrix" values="0 0 0 0 1 0 0 0 0 1 0 0 0 0 1 0 0 0 0.25 0"/>
<feBlend mode="normal" in2="BackgroundImageFix" result="effect1_dropShadow_7887_9367"/>
<feBlend mode="normal" in="SourceGraphic" in2="effect1_dropShadow_7887_9367" result="shape"/>
</filter>
<filter id="filter6_d_7887_9367" x="77.7898" y="74.6885" width="50.4204" height="50.9565" filterUnits="userSpaceOnUse" color-interpolation-filters="sRGB">
<feFlood flood-opacity="0" result="BackgroundImageFix"/>
<feColorMatrix in="SourceAlpha" type="matrix" values="0 0 0 0 0 0 0 0 0 0 0 0 0 0 0 0 0 0 127 0" result="hardAlpha"/>
<feOffset/>
<feGaussianBlur stdDeviation="11.7391"/>
<feComposite in2="hardAlpha" operator="out"/>
<feColorMatrix type="matrix" values="0 0 0 0 1 0 0 0 0 1 0 0 0 0 1 0 0 0 0.25 0"/>
<feBlend mode="normal" in2="BackgroundImageFix" result="effect1_dropShadow_7887_9367"/>
<feBlend mode="normal" in="SourceGraphic" in2="effect1_dropShadow_7887_9367" result="shape"/>
</filter>
<filter id="filter7_d_7887_9367" x="77.5549" y="86.0217" width="49.5566" height="49.4912" filterUnits="userSpaceOnUse" color-interpolation-filters="sRGB">
<feFlood flood-opacity="0" result="BackgroundImageFix"/>
<feColorMatrix in="SourceAlpha" type="matrix" values="0 0 0 0 0 0 0 0 0 0 0 0 0 0 0 0 0 0 127 0" result="hardAlpha"/>
<feOffset/>
<feGaussianBlur stdDeviation="11.7391"/>
<feComposite in2="hardAlpha" operator="out"/>
<feColorMatrix type="matrix" values="0 0 0 0 1 0 0 0 0 1 0 0 0 0 1 0 0 0 0.25 0"/>
<feBlend mode="normal" in2="BackgroundImageFix" result="effect1_dropShadow_7887_9367"/>
<feBlend mode="normal" in="SourceGraphic" in2="effect1_dropShadow_7887_9367" result="shape"/>
</filter>
<filter id="filter8_d_7887_9367" x="71.8562" y="66.1885" width="49.623" height="49.6233" filterUnits="userSpaceOnUse" color-interpolation-filters="sRGB">
<feFlood flood-opacity="0" result="BackgroundImageFix"/>
<feColorMatrix in="SourceAlpha" type="matrix" values="0 0 0 0 0 0 0 0 0 0 0 0 0 0 0 0 0 0 127 0" result="hardAlpha"/>
<feOffset/>
<feGaussianBlur stdDeviation="11.7391"/>
<feComposite in2="hardAlpha" operator="out"/>
<feColorMatrix type="matrix" values="0 0 0 0 1 0 0 0 0 1 0 0 0 0 1 0 0 0 0.25 0"/>
<feBlend mode="normal" in2="BackgroundImageFix" result="effect1_dropShadow_7887_9367"/>
<feBlend mode="normal" in="SourceGraphic" in2="effect1_dropShadow_7887_9367" result="shape"/>
</filter>
<filter id="filter9_d_7887_9367" x="83.1873" y="94.5217" width="48.29" height="48.2898" filterUnits="userSpaceOnUse" color-interpolation-filters="sRGB">
<feFlood flood-opacity="0" result="BackgroundImageFix"/>
<feColorMatrix in="SourceAlpha" type="matrix" values="0 0 0 0 0 0 0 0 0 0 0 0 0 0 0 0 0 0 127 0" result="hardAlpha"/>
<feOffset/>
<feGaussianBlur stdDeviation="11.7391"/>
<feComposite in2="hardAlpha" operator="out"/>
<feColorMatrix type="matrix" values="0 0 0 0 1 0 0 0 0 1 0 0 0 0 1 0 0 0 0.25 0"/>
<feBlend mode="normal" in2="BackgroundImageFix" result="effect1_dropShadow_7887_9367"/>
<feBlend mode="normal" in="SourceGraphic" in2="effect1_dropShadow_7887_9367" result="shape"/>
</filter>
<filter id="filter10_d_7887_9367" x="60.5217" y="80.355" width="48.29" height="48.2898" filterUnits="userSpaceOnUse" color-interpolation-filters="sRGB">
<feFlood flood-opacity="0" result="BackgroundImageFix"/>
<feColorMatrix in="SourceAlpha" type="matrix" values="0 0 0 0 0 0 0 0 0 0 0 0 0 0 0 0 0 0 127 0" result="hardAlpha"/>
<feOffset/>
<feGaussianBlur stdDeviation="11.7391"/>
<feComposite in2="hardAlpha" operator="out"/>
<feColorMatrix type="matrix" values="0 0 0 0 1 0 0 0 0 1 0 0 0 0 1 0 0 0 0.25 0"/>
<feBlend mode="normal" in2="BackgroundImageFix" result="effect1_dropShadow_7887_9367"/>
<feBlend mode="normal" in="SourceGraphic" in2="effect1_dropShadow_7887_9367" result="shape"/>
</filter>
<filter id="filter11_d_7887_9367" x="60.5549" y="69.0217" width="49.5566" height="49.4912" filterUnits="userSpaceOnUse" color-interpolation-filters="sRGB">
<feFlood flood-opacity="0" result="BackgroundImageFix"/>
<feColorMatrix in="SourceAlpha" type="matrix" values="0 0 0 0 0 0 0 0 0 0 0 0 0 0 0 0 0 0 127 0" result="hardAlpha"/>
<feOffset/>
<feGaussianBlur stdDeviation="11.7391"/>
<feComposite in2="hardAlpha" operator="out"/>
<feColorMatrix type="matrix" values="0 0 0 0 1 0 0 0 0 1 0 0 0 0 1 0 0 0 0.25 0"/>
<feBlend mode="normal" in2="BackgroundImageFix" result="effect1_dropShadow_7887_9367"/>
<feBlend mode="normal" in="SourceGraphic" in2="effect1_dropShadow_7887_9367" result="shape"/>
</filter>
<radialGradient id="paint0_radial_7887_9367" cx="0" cy="0" r="1" gradientUnits="userSpaceOnUse" gradientTransform="translate(101 101) rotate(90) scale(34)">
<stop stop-color="#A86C11"/>
<stop offset="0.727241" stop-color="#CE7B00" stop-opacity="0.8583"/>
<stop offset="1" stop-color="#985B00"/>
</radialGradient>
<radialGradient id="paint1_radial_7887_9367" cx="0" cy="0" r="1" gradientUnits="userSpaceOnUse" gradientTransform="translate(103.667 101.001) rotate(90) scale(27.3333)">
<stop stop-color="#FFD074"/>
<stop offset="1" stop-color="#FFE6B6"/>
</radialGradient>
<linearGradient id="paint2_linear_7887_9367" x1="119.333" y1="89.6667" x2="119.333" y2="92.801" gradientUnits="userSpaceOnUse">
<stop stop-color="#FF2D2D"/>
<stop offset="0.225869" stop-color="#FF005C"/>
<stop offset="0.6" stop-color="#FF3F6D"/>
<stop offset="1" stop-color="#FF5555"/>
</linearGradient>
<linearGradient id="paint3_linear_7887_9367" x1="93.8333" y1="115.167" x2="93.8333" y2="118.301" gradientUnits="userSpaceOnUse">
<stop stop-color="#FF2D2D"/>
<stop offset="0.225869" stop-color="#FF005C"/>
<stop offset="0.6" stop-color="#FF3F6D"/>
<stop offset="1" stop-color="#FF5555"/>
</linearGradient>
<linearGradient id="paint4_linear_7887_9367" x1="119.333" y1="106.667" x2="119.333" y2="109.801" gradientUnits="userSpaceOnUse">
<stop stop-color="#FF8A00"/>
<stop offset="0.225869" stop-color="#FF5C00"/>
<stop offset="0.6" stop-color="#FF7D33"/>
<stop offset="1" stop-color="#FF6C1A"/>
</linearGradient>
<linearGradient id="paint5_linear_7887_9367" x1="110.833" y1="92.5" x2="110.833" y2="95.6343" gradientUnits="userSpaceOnUse">
<stop stop-color="#FF8A00"/>
<stop offset="0.225869" stop-color="#FF5C00"/>
<stop offset="0.6" stop-color="#FF7D33"/>
<stop offset="1" stop-color="#FF6C1A"/>
</linearGradient>
<linearGradient id="paint6_linear_7887_9367" x1="102.333" y1="81.1667" x2="102.333" y2="84.301" gradientUnits="userSpaceOnUse">
<stop stop-color="#FF8A00"/>
<stop offset="0.225869" stop-color="#FF5C00"/>
<stop offset="0.6" stop-color="#FF7D33"/>
<stop offset="1" stop-color="#FF6C1A"/>
</linearGradient>
<linearGradient id="paint7_linear_7887_9367" x1="103" y1="98.1667" x2="103" y2="102.868" gradientUnits="userSpaceOnUse">
<stop stop-color="#FFD84F"/>
<stop offset="0.225869" stop-color="#FFC554"/>
<stop offset="0.6" stop-color="#FFCE50"/>
<stop offset="1" stop-color="#FFF6A8"/>
</linearGradient>
<linearGradient id="paint8_linear_7887_9367" x1="102.333" y1="109.5" x2="102.333" y2="112.634" gradientUnits="userSpaceOnUse">
<stop stop-color="#DEFF97"/>
<stop offset="0.225869" stop-color="#ADFF5C"/>
<stop offset="0.6" stop-color="#97E57C"/>
<stop offset="1" stop-color="#4DE954"/>
</linearGradient>
<linearGradient id="paint9_linear_7887_9367" x1="96.6678" y1="89.6667" x2="96.6678" y2="92.801" gradientUnits="userSpaceOnUse">
<stop stop-color="#86FFC5"/>
<stop offset="0.225869" stop-color="#62FFC6"/>
<stop offset="0.6" stop-color="#71EFEF"/>
<stop offset="1" stop-color="#49E9FF"/>
</linearGradient>
<linearGradient id="paint10_linear_7887_9367" x1="107.332" y1="118" x2="107.332" y2="119.567" gradientUnits="userSpaceOnUse">
<stop stop-color="#86FFC5"/>
<stop offset="0.225869" stop-color="#62FFC6"/>
<stop offset="0.6" stop-color="#71EFEF"/>
<stop offset="1" stop-color="#49E9FF"/>
</linearGradient>
<linearGradient id="paint11_linear_7887_9367" x1="84.6667" y1="103.833" x2="84.6667" y2="105.4" gradientUnits="userSpaceOnUse">
<stop stop-color="#86FFC5"/>
<stop offset="0.225869" stop-color="#62FFC6"/>
<stop offset="0.6" stop-color="#71EFEF"/>
<stop offset="1" stop-color="#49E9FF"/>
</linearGradient>
<linearGradient id="paint12_linear_7887_9367" x1="85.3333" y1="92.5" x2="85.3333" y2="95.6343" gradientUnits="userSpaceOnUse">
<stop stop-color="#DEFF97"/>
<stop offset="0.225869" stop-color="#ADFF5C"/>
<stop offset="0.6" stop-color="#97E57C"/>
<stop offset="1" stop-color="#4DE954"/>
</linearGradient>
</defs>
</svg>
