<svg width="16" height="16" viewBox="0 0 16 16" fill="none" xmlns="http://www.w3.org/2000/svg">
<g id="Vector">
<path d="M1.00024 15L5.06503 10.9351L1.00024 15ZM5.06503 10.9351L8.2811 14.1512C8.37509 14.2451 8.49065 14.3145 8.61767 14.3534C8.7447 14.3923 8.87932 14.3995 9.00975 14.3743C9.14018 14.3491 9.26245 14.2923 9.36587 14.2089C9.46928 14.1255 9.55069 14.0181 9.60297 13.896L11.4362 9.61882C11.4782 9.52061 11.5392 9.43164 11.6157 9.35701C11.6921 9.28238 11.7825 9.22354 11.8817 9.18387L14.4888 8.14081C14.6137 8.09084 14.7242 8.01068 14.8104 7.90752C14.8967 7.80436 14.956 7.68141 14.9831 7.54969C15.0101 7.41797 15.0041 7.28159 14.9655 7.15278C14.9269 7.02396 14.857 6.90672 14.762 6.81157L9.18836 1.23771C9.09321 1.1427 8.97598 1.07276 8.84717 1.03418C8.71835 0.9956 8.58198 0.989573 8.45027 1.01664C8.31855 1.04371 8.19561 1.10303 8.09245 1.18928C7.98929 1.27554 7.90914 1.38604 7.85917 1.51088L6.81615 4.11814C6.77648 4.21733 6.71765 4.30774 6.64302 4.38418C6.56839 4.46063 6.47943 4.52161 6.38121 4.56365L2.10424 6.39695C1.98212 6.44922 1.87467 6.53063 1.79129 6.63405C1.70791 6.73747 1.65114 6.85975 1.62595 6.99019C1.60076 7.12062 1.60792 7.25525 1.6468 7.38228C1.68568 7.50931 1.7551 7.62487 1.84897 7.71887L5.06503 10.9351Z" fill="#000C76"/>
<path d="M1.00024 15L5.06503 10.9351M5.06503 10.9351L8.2811 14.1512C8.37509 14.2451 8.49065 14.3145 8.61767 14.3534C8.7447 14.3923 8.87932 14.3995 9.00975 14.3743C9.14018 14.3491 9.26245 14.2923 9.36587 14.2089C9.46928 14.1255 9.55069 14.0181 9.60297 13.896L11.4362 9.61882C11.4782 9.52061 11.5392 9.43164 11.6157 9.35701C11.6921 9.28238 11.7825 9.22354 11.8817 9.18387L14.4888 8.14081C14.6137 8.09084 14.7242 8.01068 14.8104 7.90752C14.8967 7.80436 14.956 7.68141 14.9831 7.54969C15.0101 7.41797 15.0041 7.28159 14.9655 7.15278C14.9269 7.02396 14.857 6.90672 14.762 6.81157L9.18836 1.23771C9.09321 1.1427 8.97598 1.07276 8.84717 1.03418C8.71835 0.9956 8.58198 0.989573 8.45027 1.01664C8.31855 1.04371 8.19561 1.10303 8.09245 1.18928C7.98929 1.27554 7.90914 1.38604 7.85917 1.51088L6.81615 4.11814C6.77648 4.21733 6.71765 4.30774 6.64302 4.38418C6.56839 4.46063 6.47943 4.52161 6.38121 4.56365L2.10424 6.39695C1.98212 6.44922 1.87467 6.53063 1.79129 6.63405C1.70791 6.73747 1.65114 6.85975 1.62595 6.99019C1.60076 7.12062 1.60792 7.25525 1.6468 7.38228C1.68568 7.50931 1.75509 7.62487 1.84897 7.71887L5.06503 10.9351Z" stroke="#000C76" stroke-linecap="round" stroke-linejoin="round"/>
</g>
</svg>
