<svg width="24" height="24" viewBox="0 0 24 24" fill="none" xmlns="http://www.w3.org/2000/svg">
<path id="Vector" d="M1 23L7.38777 16.6122M7.38777 16.6122L12.4418 21.6662C12.5895 21.8138 12.7711 21.9228 12.9707 21.9839C13.1703 22.045 13.3819 22.0563 13.5868 22.0167C13.7918 21.9771 13.984 21.8879 14.1465 21.7569C14.309 21.6259 14.4369 21.457 14.5191 21.2651L17.4 14.5439C17.466 14.3895 17.5619 14.2497 17.682 14.1324C17.8021 14.0152 17.9442 13.9227 18.1001 13.8604L22.1972 12.2213C22.3934 12.1427 22.567 12.0168 22.7026 11.8547C22.8381 11.6926 22.9313 11.4994 22.9738 11.2924C23.0164 11.0854 23.0069 10.8711 22.9463 10.6686C22.8857 10.4662 22.7758 10.282 22.6264 10.1325L13.8675 1.37355C13.718 1.22424 13.5338 1.11434 13.3314 1.05371C13.1289 0.993085 12.9146 0.983615 12.7076 1.02615C12.5006 1.06869 12.3074 1.1619 12.1453 1.29745C11.9832 1.43299 11.8573 1.60663 11.7787 1.80281L10.1396 5.89993C10.0773 6.05581 9.98484 6.19787 9.86756 6.318C9.75028 6.43813 9.61048 6.53397 9.45614 6.60003L2.73492 9.48091C2.543 9.56307 2.37414 9.691 2.24311 9.85351C2.11208 10.016 2.02287 10.2082 1.98329 10.4132C1.94371 10.6181 1.95496 10.8297 2.01606 11.0293C2.07716 11.2289 2.18624 11.4105 2.33377 11.5582L7.38777 16.6122Z" stroke="#000C76" stroke-width="2" stroke-linecap="round" stroke-linejoin="round"/>
</svg>
