<svg width="24" height="24" viewBox="0 0 24 24" fill="none" xmlns="http://www.w3.org/2000/svg">
<g id="Group 211">
<path id="Vector" d="M12.4423 21.6657L7.38846 16.6118L2.33458 11.558C2.18706 11.4103 2.07797 11.2287 2.01688 11.029C1.95578 10.8294 1.94453 10.6179 1.98411 10.4129C2.02369 10.208 2.1129 10.0158 2.24393 9.85329C2.37496 9.69078 2.54381 9.56285 2.73572 9.4807L9.45677 6.59989C9.61111 6.53383 9.75091 6.438 9.86818 6.31787C9.98546 6.19775 10.0779 6.05568 10.1402 5.89981L11.7793 1.80279C11.8578 1.60661 11.9838 1.43298 12.1459 1.29744C12.308 1.1619 12.5012 1.06869 12.7082 1.02615C12.9152 0.983615 13.1295 0.993085 13.3319 1.05371C13.5343 1.11434 13.7185 1.22423 13.8681 1.37354L22.6268 10.1322C22.7761 10.2818 22.886 10.466 22.9466 10.6684C23.0072 10.8708 23.0167 11.0851 22.9741 11.2921C22.9316 11.4991 22.8384 11.6923 22.7029 11.8544C22.5673 12.0165 22.3937 12.1425 22.1975 12.221L18.1005 13.8601C17.9446 13.9224 17.8026 14.0148 17.6824 14.1321C17.5623 14.2494 17.4665 14.3892 17.4004 14.5435L14.5196 21.2646C14.4374 21.4565 14.3095 21.6253 14.147 21.7564C13.9845 21.8874 13.7923 21.9766 13.5874 22.0162C13.3824 22.0558 13.1709 22.0445 12.9713 21.9834C12.7716 21.9223 12.59 21.8132 12.4423 21.6657Z" fill="#000C76"/>
<g id="Vector_2">
<path d="M1 22.9995L7.38762 16.6118L1 22.9995ZM7.38762 16.6118L12.4415 21.6657C12.5892 21.8132 12.7708 21.9223 12.9704 21.9834C13.17 22.0445 13.3816 22.0558 13.5865 22.0162C13.7915 21.9766 13.9836 21.8874 14.1462 21.7564C14.3087 21.6253 14.4366 21.4565 14.5188 21.2646L17.3996 14.5435C17.4656 14.3892 17.5615 14.2494 17.6816 14.1321C17.8017 14.0148 17.9438 13.9224 18.0996 13.8601L22.1967 12.221C22.3928 12.1425 22.5665 12.0165 22.702 11.8544C22.8376 11.6923 22.9308 11.4991 22.9733 11.2921C23.0158 11.0851 23.0064 10.8708 22.9457 10.6684C22.8851 10.466 22.7752 10.2818 22.6259 10.1322L13.8672 1.37354C13.7177 1.22423 13.5335 1.11434 13.331 1.05371C13.1286 0.993085 12.9143 0.983615 12.7073 1.02615C12.5004 1.06869 12.3072 1.1619 12.1451 1.29744C11.9829 1.43298 11.857 1.60661 11.7785 1.80279L10.1394 5.89981C10.0771 6.05568 9.98461 6.19775 9.86734 6.31787C9.75006 6.438 9.61026 6.53383 9.45593 6.59989L2.73488 9.4807C2.54297 9.56285 2.37411 9.69078 2.24308 9.85329C2.11206 10.0158 2.02285 10.208 1.98327 10.4129C1.94369 10.6179 1.95494 10.8294 2.01603 11.029C2.07713 11.2287 2.18621 11.4103 2.33373 11.558L7.38762 16.6118Z" fill="#000C76"/>
<path d="M1 22.9995L7.38762 16.6118M7.38762 16.6118L12.4415 21.6657C12.5892 21.8132 12.7708 21.9223 12.9704 21.9834C13.17 22.0445 13.3816 22.0558 13.5865 22.0162C13.7915 21.9766 13.9836 21.8874 14.1462 21.7564C14.3087 21.6253 14.4366 21.4565 14.5187 21.2646L17.3996 14.5435C17.4656 14.3892 17.5615 14.2494 17.6816 14.1321C17.8017 14.0148 17.9438 13.9224 18.0996 13.8601L22.1967 12.221C22.3928 12.1425 22.5665 12.0165 22.702 11.8544C22.8376 11.6923 22.9308 11.4991 22.9733 11.2921C23.0158 11.0851 23.0064 10.8708 22.9457 10.6684C22.8851 10.466 22.7752 10.2818 22.6259 10.1322L13.8672 1.37354C13.7177 1.22423 13.5335 1.11434 13.331 1.05371C13.1286 0.993085 12.9143 0.983615 12.7073 1.02615C12.5004 1.06869 12.3072 1.1619 12.1451 1.29744C11.9829 1.43298 11.857 1.60661 11.7785 1.80279L10.1394 5.89981C10.0771 6.05568 9.98461 6.19775 9.86734 6.31787C9.75006 6.438 9.61026 6.53383 9.45593 6.59989L2.73488 9.4807C2.54297 9.56285 2.37411 9.69078 2.24308 9.85329C2.11206 10.0158 2.02285 10.208 1.98327 10.4129C1.94369 10.6179 1.95494 10.8294 2.01603 11.029C2.07713 11.2287 2.18621 11.4103 2.33373 11.558L7.38762 16.6118Z" stroke="#000C76" stroke-linecap="round" stroke-linejoin="round"/>
</g>
</g>
</svg>
