<svg width="94" height="32" viewBox="0 0 94 32" fill="none" xmlns="http://www.w3.org/2000/svg">
<rect width="94" height="32" rx="16" fill="#8784FF"/>
<circle cx="16" cy="16" r="12" fill="#F6F6F6"/>
<path d="M18.8977 16.764C18.5846 16.764 18.3299 16.5106 18.3299 16.1994C18.3299 15.8882 18.5846 15.6351 18.8977 15.6351C19.2108 15.6351 19.4655 15.8882 19.4655 16.1994C19.4655 16.5107 19.2108 16.764 18.8977 16.764ZM12.6215 16.764C12.3084 16.764 12.0537 16.5106 12.0537 16.1994C12.0537 15.8882 12.3084 15.6351 12.6215 15.6351C12.9346 15.6351 13.1893 15.8882 13.1893 16.1994C13.1893 16.5107 12.9347 16.764 12.6215 16.764ZM19.1013 13.3643L20.2362 11.4107C20.2674 11.3568 20.2759 11.2928 20.2597 11.2327C20.2435 11.1726 20.2039 11.1213 20.1498 11.0902C20.0955 11.0591 20.0311 11.0507 19.9706 11.0668C19.9102 11.0829 19.8586 11.1222 19.8272 11.1761L18.6782 13.1543C17.7995 12.7558 16.8126 12.5337 15.7596 12.5337C14.7065 12.5337 13.7197 12.7558 12.841 13.1543L11.6919 11.1761C11.6606 11.1222 11.609 11.0829 11.5485 11.0668C11.4881 11.0507 11.4237 11.0591 11.3694 11.0902C11.3152 11.1213 11.2757 11.1726 11.2595 11.2327C11.2433 11.2928 11.2517 11.3568 11.283 11.4107L12.4178 13.3643C10.4692 14.4177 9.13638 16.3786 8.94141 18.6952H22.5778C22.3826 16.3786 21.0499 14.4177 19.1013 13.3642" fill="#3DDB85"/>
<path d="M34.5103 20.5L37.9966 10.6016H40.1841L43.6841 20.5H41.7838L40.9566 18.0527H37.231L36.4107 20.5H34.5103ZM40.4781 16.6172L39.1314 12.625H39.0494L37.7095 16.6172H40.4781ZM45.5479 20.5H43.7979V13.0762H45.4659V14.334H45.5616C45.7347 13.9056 46.0082 13.5729 46.3819 13.3359C46.7601 13.099 47.2204 12.9805 47.7627 12.9805C48.2777 12.9805 48.7266 13.0898 49.1094 13.3086C49.4968 13.5273 49.793 13.8464 49.9981 14.2656C50.2077 14.6849 50.3103 15.1862 50.3057 15.7695V20.5H48.5694V16.043C48.5694 15.5417 48.4418 15.152 48.1866 14.874C47.9314 14.596 47.5759 14.457 47.1202 14.457C46.8103 14.457 46.5368 14.5254 46.2998 14.6621C46.0629 14.7943 45.8783 14.988 45.7461 15.2432C45.614 15.4938 45.5479 15.7969 45.5479 16.1523V20.5ZM53.7554 20.6367C53.1675 20.6367 52.6411 20.4863 52.1763 20.1855C51.716 19.8802 51.3537 19.4382 51.0894 18.8594C50.8251 18.2806 50.6929 17.5924 50.6929 16.7949C50.6929 15.9928 50.8273 15.3047 51.0962 14.7305C51.3651 14.1562 51.732 13.721 52.1968 13.4248C52.6616 13.1286 53.1857 12.9805 53.7691 12.9805C54.7534 12.9805 55.4598 13.418 55.8882 14.293H55.9566V10.6016H57.6929V20.5H55.9839V19.3242H55.8882C55.4507 20.1992 54.7398 20.6367 53.7554 20.6367ZM54.2339 19.2012C54.603 19.2012 54.9198 19.1009 55.1841 18.9004C55.4484 18.6999 55.6489 18.4173 55.7857 18.0527C55.9269 17.6882 55.9976 17.2643 55.9976 16.7812C55.9976 16.3027 55.9292 15.8857 55.7925 15.5303C55.6558 15.1702 55.4553 14.8923 55.1909 14.6963C54.9266 14.5003 54.6076 14.4023 54.2339 14.4023C53.8557 14.4023 53.5344 14.5026 53.27 14.7031C53.0057 14.9036 52.8052 15.1839 52.6685 15.5439C52.5363 15.904 52.4702 16.3164 52.4702 16.7812C52.4702 17.2552 52.5386 17.6745 52.6753 18.0391C52.812 18.4036 53.0126 18.6885 53.2769 18.8936C53.5412 19.0986 53.8602 19.2012 54.2339 19.2012ZM58.4766 13.0762H60.1719V14.3066H60.2539C60.3815 13.8874 60.6117 13.5592 60.9443 13.3223C61.277 13.0853 61.6576 12.9668 62.0859 12.9668C62.3411 12.9668 62.5508 12.9805 62.7148 13.0078V14.6211C62.6374 14.5938 62.5189 14.5687 62.3594 14.5459C62.1999 14.5231 62.0495 14.5117 61.9082 14.5117C61.5892 14.5117 61.3021 14.5801 61.0469 14.7168C60.7917 14.8535 60.5911 15.0449 60.4453 15.291C60.2995 15.5371 60.2266 15.8151 60.2266 16.125V20.5H58.4766V13.0762ZM65.768 20.6504C65.0571 20.6504 64.4328 20.4909 63.895 20.1719C63.3572 19.8529 62.9425 19.4062 62.6509 18.832C62.3592 18.2533 62.2134 17.5833 62.2134 16.8223C62.2134 16.0566 62.3592 15.3844 62.6509 14.8057C62.9425 14.2269 63.3572 13.778 63.895 13.459C64.4328 13.14 65.0571 12.9805 65.768 12.9805C66.4835 12.9805 67.1102 13.14 67.6479 13.459C68.1857 13.778 68.5981 14.2269 68.8852 14.8057C69.1769 15.3844 69.3227 16.0566 69.3227 16.8223C69.3227 17.5833 69.1769 18.2533 68.8852 18.832C68.5936 19.4108 68.1789 19.8597 67.6411 20.1787C67.1079 20.4932 66.4835 20.6504 65.768 20.6504ZM65.7817 19.2559C66.1645 19.2559 66.4881 19.1488 66.7524 18.9346C67.0213 18.7204 67.2218 18.4287 67.354 18.0596C67.4907 17.6904 67.5591 17.2734 67.5591 16.8086C67.5591 16.3483 67.4907 15.9336 67.354 15.5645C67.2218 15.1908 67.0213 14.8968 66.7524 14.6826C66.4881 14.4684 66.1645 14.3613 65.7817 14.3613C65.3898 14.3613 65.0571 14.4684 64.7837 14.6826C64.5148 14.8968 64.312 15.1885 64.1753 15.5576C64.0431 15.9268 63.977 16.3438 63.977 16.8086C63.977 17.2734 64.0431 17.6904 64.1753 18.0596C64.312 18.4287 64.5148 18.7204 64.7837 18.9346C65.0571 19.1488 65.3898 19.2559 65.7817 19.2559ZM69.6963 13.0762H71.4463V20.5H69.6963V13.0762ZM70.5849 12.0234C70.4072 12.0234 70.2386 11.9824 70.0791 11.9004C69.9241 11.8138 69.8011 11.6976 69.7099 11.5518C69.6188 11.4014 69.5732 11.2396 69.5732 11.0664C69.5732 10.8978 69.6188 10.7406 69.7099 10.5947C69.8011 10.4489 69.9241 10.335 70.0791 10.2529C70.2386 10.1663 70.4072 10.123 70.5849 10.123C70.7672 10.123 70.9358 10.1663 71.0908 10.2529C71.2457 10.335 71.3688 10.4489 71.4599 10.5947C71.5511 10.7406 71.5966 10.8978 71.5966 11.0664C71.5966 11.2396 71.5511 11.4014 71.4599 11.5518C71.3688 11.6976 71.2457 11.8138 71.0908 11.9004C70.9358 11.9824 70.7672 12.0234 70.5849 12.0234ZM74.8959 20.6367C74.308 20.6367 73.7817 20.4863 73.3168 20.1855C72.8565 19.8802 72.4942 19.4382 72.2299 18.8594C71.9656 18.2806 71.8334 17.5924 71.8334 16.7949C71.8334 15.9928 71.9679 15.3047 72.2368 14.7305C72.5056 14.1562 72.8725 13.721 73.3373 13.4248C73.8022 13.1286 74.3263 12.9805 74.9096 12.9805C75.894 12.9805 76.6004 13.418 77.0287 14.293H77.0971V10.6016H78.8334V20.5H77.1245V19.3242H77.0287C76.5912 20.1992 75.8803 20.6367 74.8959 20.6367ZM75.3745 19.2012C75.7436 19.2012 76.0603 19.1009 76.3246 18.9004C76.589 18.6999 76.7895 18.4173 76.9262 18.0527C77.0675 17.6882 77.1381 17.2643 77.1381 16.7812C77.1381 16.3027 77.0698 15.8857 76.933 15.5303C76.7963 15.1702 76.5958 14.8923 76.3315 14.6963C76.0672 14.5003 75.7481 14.4023 75.3745 14.4023C74.9962 14.4023 74.6749 14.5026 74.4106 14.7031C74.1463 14.9036 73.9457 15.1839 73.809 15.5439C73.6769 15.904 73.6108 16.3164 73.6108 16.7812C73.6108 17.2552 73.6791 17.6745 73.8159 18.0391C73.9526 18.4036 74.1531 18.6885 74.4174 18.8936C74.6817 19.0986 75.0008 19.2012 75.3745 19.2012Z" fill="white"/>
</svg>
