<svg width="92" height="32" viewBox="0 0 92 32" fill="none" xmlns="http://www.w3.org/2000/svg">
<rect x="0.5" y="0.5" width="91" height="31" rx="15.5" stroke="#D1D1D1"/>
<circle cx="16" cy="16" r="12" fill="#F6F6F6"/>
<path d="M18.8977 16.764C18.5846 16.764 18.3299 16.5106 18.3299 16.1994C18.3299 15.8882 18.5846 15.6351 18.8977 15.6351C19.2108 15.6351 19.4655 15.8882 19.4655 16.1994C19.4655 16.5107 19.2108 16.764 18.8977 16.764ZM12.6215 16.764C12.3084 16.764 12.0537 16.5106 12.0537 16.1994C12.0537 15.8882 12.3084 15.6351 12.6215 15.6351C12.9346 15.6351 13.1893 15.8882 13.1893 16.1994C13.1893 16.5107 12.9347 16.764 12.6215 16.764ZM19.1013 13.3643L20.2362 11.4107C20.2674 11.3568 20.2759 11.2928 20.2597 11.2327C20.2435 11.1726 20.2039 11.1213 20.1498 11.0902C20.0955 11.0591 20.0311 11.0507 19.9706 11.0668C19.9102 11.0829 19.8586 11.1222 19.8272 11.1761L18.6782 13.1543C17.7995 12.7558 16.8126 12.5337 15.7596 12.5337C14.7065 12.5337 13.7197 12.7558 12.841 13.1543L11.6919 11.1761C11.6606 11.1222 11.609 11.0829 11.5485 11.0668C11.4881 11.0507 11.4237 11.0591 11.3694 11.0902C11.3152 11.1213 11.2757 11.1726 11.2595 11.2327C11.2433 11.2928 11.2517 11.3568 11.283 11.4107L12.4178 13.3643C10.4692 14.4177 9.13638 16.3786 8.94141 18.6952H22.5778C22.3826 16.3786 21.0499 14.4177 19.1013 13.3642" fill="#3DDB85"/>
<path d="M34.6793 20.5L38.3023 10.6016H39.6011L43.2242 20.5H41.9254L40.9341 17.7109H36.9556L35.9644 20.5H34.6793ZM40.5582 16.6309L38.9859 12.2012H38.9039L37.3316 16.6309H40.5582ZM44.6094 20.5H43.4336V13.0762H44.5684V14.2383H44.6641C44.851 13.8418 45.1221 13.5342 45.4776 13.3154C45.8376 13.0921 46.2911 12.9805 46.8379 12.9805C47.3483 12.9805 47.7904 13.0853 48.1641 13.2949C48.5378 13.5 48.8272 13.8122 49.0323 14.2314C49.2373 14.6507 49.3399 15.168 49.3399 15.7832V20.5H48.1641V15.8652C48.1641 15.291 48.016 14.8421 47.7198 14.5186C47.4235 14.195 47.0111 14.0332 46.4825 14.0332C46.1179 14.0332 45.7943 14.113 45.5118 14.2725C45.2292 14.4274 45.0082 14.6576 44.8487 14.9629C44.6892 15.2637 44.6094 15.6237 44.6094 16.043V20.5ZM53.0493 20.6504C52.4341 20.6504 51.8872 20.4932 51.4087 20.1787C50.9348 19.8643 50.5633 19.4176 50.2945 18.8389C50.0256 18.2555 49.8911 17.5788 49.8911 16.8086C49.8911 16.0384 50.0256 15.3639 50.2945 14.7852C50.5633 14.2064 50.937 13.762 51.4155 13.4521C51.8941 13.1377 52.4432 12.9805 53.063 12.9805C53.5005 12.9805 53.8628 13.0534 54.1499 13.1992C54.437 13.3405 54.6489 13.4932 54.7857 13.6572C54.9224 13.8167 55.0637 14.015 55.2095 14.252H55.2915V10.6016H56.481V20.5H55.3325V19.3652H55.2095C55.0545 19.6068 54.9064 19.8096 54.7652 19.9736C54.6284 20.1377 54.4165 20.2926 54.1294 20.4385C53.8423 20.5798 53.4823 20.6504 53.0493 20.6504ZM53.2134 19.5977C53.6555 19.5977 54.036 19.4814 54.355 19.249C54.674 19.012 54.9155 18.6816 55.0796 18.2578C55.2482 17.8294 55.3325 17.3372 55.3325 16.7812C55.3325 16.2298 55.2505 15.749 55.0864 15.3389C54.9269 14.9242 54.6877 14.6029 54.3687 14.375C54.0497 14.1471 53.6646 14.0332 53.2134 14.0332C52.7531 14.0332 52.3635 14.154 52.0445 14.3955C51.7254 14.6325 51.4839 14.9583 51.3198 15.373C51.1603 15.7878 51.0806 16.2572 51.0806 16.7812C51.0806 17.319 51.1603 17.8021 51.3198 18.2305C51.4839 18.6543 51.7254 18.9893 52.0445 19.2354C52.368 19.4769 52.7577 19.5977 53.2134 19.5977ZM57.5381 13.0762H58.6729V14.2109H58.7549C58.8916 13.8327 59.1354 13.5296 59.4863 13.3018C59.8372 13.0693 60.2314 12.9531 60.6689 12.9531C60.8968 12.9531 61.1019 12.9622 61.2842 12.9805V14.1699C61.234 14.1517 61.1361 14.1335 60.9902 14.1152C60.849 14.097 60.71 14.0879 60.5732 14.0879C60.2223 14.0879 59.9056 14.1631 59.623 14.3135C59.3405 14.4639 59.1172 14.6712 58.9531 14.9355C58.7936 15.1999 58.7139 15.4961 58.7139 15.8242V20.5H57.5381V13.0762ZM64.2417 20.6504C63.5718 20.6504 62.9793 20.4932 62.4643 20.1787C61.9539 19.8597 61.5574 19.4108 61.2749 18.832C60.9923 18.2533 60.8511 17.5833 60.8511 16.8223C60.8511 16.0612 60.9923 15.3913 61.2749 14.8125C61.5574 14.2292 61.9539 13.778 62.4643 13.459C62.9793 13.14 63.5718 12.9805 64.2417 12.9805C64.907 12.9805 65.4927 13.14 65.9985 13.459C66.5089 13.778 66.9031 14.2292 67.1811 14.8125C67.4637 15.3913 67.605 16.0612 67.605 16.8223C67.605 17.5833 67.4637 18.2533 67.1811 18.832C66.9031 19.4108 66.5089 19.8597 65.9985 20.1787C65.4927 20.4932 64.907 20.6504 64.2417 20.6504ZM64.2417 19.6113C64.7202 19.6113 65.1235 19.486 65.4516 19.2354C65.7798 18.9801 66.0236 18.6429 66.1831 18.2236C66.3471 17.7998 66.4292 17.3327 66.4292 16.8223C66.4292 16.3118 66.3471 15.8447 66.1831 15.4209C66.0236 14.9971 65.7798 14.6576 65.4516 14.4023C65.1235 14.1471 64.7202 14.0195 64.2417 14.0195C63.754 14.0195 63.3439 14.1471 63.0112 14.4023C62.6831 14.6576 62.437 14.9971 62.2729 15.4209C62.1089 15.8447 62.0268 16.3118 62.0268 16.8223C62.0268 17.3327 62.1089 17.7998 62.2729 18.2236C62.437 18.6429 62.6831 18.9801 63.0112 19.2354C63.3439 19.486 63.754 19.6113 64.2417 19.6113ZM68.1699 13.0762H69.3457V20.5H68.1699V13.0762ZM68.7578 11.8457C68.5299 11.8457 68.3362 11.7705 68.1767 11.6201C68.0172 11.4697 67.9375 11.2852 67.9375 11.0664C67.9375 10.8477 68.0172 10.6631 68.1767 10.5127C68.3362 10.3623 68.5299 10.2871 68.7578 10.2871C68.9856 10.2871 69.1816 10.3623 69.3457 10.5127C69.5097 10.6631 69.5918 10.8477 69.5918 11.0664C69.5918 11.2852 69.5097 11.4697 69.3457 11.6201C69.1816 11.7705 68.9856 11.8457 68.7578 11.8457ZM73.0414 20.6504C72.4262 20.6504 71.8793 20.4932 71.4008 20.1787C70.9269 19.8643 70.5554 19.4176 70.2866 18.8389C70.0177 18.2555 69.8832 17.5788 69.8832 16.8086C69.8832 16.0384 70.0177 15.3639 70.2866 14.7852C70.5554 14.2064 70.9291 13.762 71.4077 13.4521C71.8862 13.1377 72.4353 12.9805 73.0551 12.9805C73.4926 12.9805 73.8549 13.0534 74.142 13.1992C74.4291 13.3405 74.6411 13.4932 74.7778 13.6572C74.9145 13.8167 75.0558 14.015 75.2016 14.252H75.2836V10.6016H76.4731V20.5H75.3246V19.3652H75.2016C75.0467 19.6068 74.8985 19.8096 74.7573 19.9736C74.6205 20.1377 74.4086 20.2926 74.1215 20.4385C73.8344 20.5798 73.4744 20.6504 73.0414 20.6504ZM73.2055 19.5977C73.6476 19.5977 74.0281 19.4814 74.3471 19.249C74.6661 19.012 74.9077 18.6816 75.0717 18.2578C75.2403 17.8294 75.3246 17.3372 75.3246 16.7812C75.3246 16.2298 75.2426 15.749 75.0786 15.3389C74.919 14.9242 74.6798 14.6029 74.3608 14.375C74.0418 14.1471 73.6567 14.0332 73.2055 14.0332C72.7452 14.0332 72.3556 14.154 72.0366 14.3955C71.7175 14.6325 71.476 14.9583 71.312 15.373C71.1524 15.7878 71.0727 16.2572 71.0727 16.7812C71.0727 17.319 71.1524 17.8021 71.312 18.2305C71.476 18.6543 71.7175 18.9893 72.0366 19.2354C72.3601 19.4769 72.7498 19.5977 73.2055 19.5977Z" fill="#868686"/>
</svg>
