<svg width="22" height="22" viewBox="0 0 22 22" fill="none" xmlns="http://www.w3.org/2000/svg">
<g clip-path="url(#clip0_2750_854)">
<path d="M22 4.8714C22 4.20456 21.6689 3.56503 21.0795 3.0935C20.4901 2.62198 19.6907 2.35708 18.8571 2.35708H18.0714V1.74618C18.0714 1.40792 17.7463 1.1176 17.3235 1.1007C17.2173 1.09661 17.1111 1.10981 17.0115 1.13951C16.9118 1.16921 16.8207 1.21479 16.7437 1.27349C16.6667 1.33219 16.6054 1.40278 16.5635 1.481C16.5216 1.55921 16.5 1.64341 16.5 1.7285V2.35708H5.5V1.74618C5.5 1.40792 5.17491 1.1176 4.7521 1.1007C4.64586 1.09661 4.53969 1.10981 4.44002 1.13951C4.34035 1.16921 4.24926 1.21479 4.17226 1.27349C4.09526 1.33219 4.03396 1.40278 3.99207 1.481C3.95018 1.55921 3.92858 1.64341 3.92857 1.7285V2.35708H3.14286C2.30932 2.35708 1.50992 2.62198 0.920522 3.0935C0.331122 3.56503 0 4.20456 0 4.8714V5.34283C0 5.38451 0.0206951 5.42448 0.0575326 5.45395C0.0943701 5.48342 0.144332 5.49998 0.196429 5.49998H21.8036C21.8557 5.49998 21.9056 5.48342 21.9425 5.45395C21.9793 5.42448 22 5.38451 22 5.34283V4.8714Z" fill="#373C6B"/>
<path d="M0 17.8894C0 18.6879 0.331122 19.4536 0.920522 20.0182C1.50992 20.5828 2.30932 20.9 3.14286 20.9H18.8571C19.6907 20.9 20.4901 20.5828 21.0795 20.0182C21.6689 19.4536 22 18.6879 22 17.8894V6.78813C22 6.73823 21.9793 6.69037 21.9425 6.65509C21.9056 6.6198 21.8557 6.59998 21.8036 6.59998H0.196429C0.144332 6.59998 0.0943701 6.6198 0.0575326 6.65509C0.0206951 6.69037 0 6.73823 0 6.78813V17.8894Z" fill="#373C6B"/>
</g>
<defs>
<clipPath id="clip0_2750_854">
<rect width="22" height="22" fill="white"/>
</clipPath>
</defs>
</svg>
