<svg width="22" height="21" viewBox="0 0 22 21" fill="none" xmlns="http://www.w3.org/2000/svg">
<path d="M22 4.3714C22 3.70456 21.6689 3.06503 21.0795 2.5935C20.4901 2.12198 19.6907 1.85708 18.8571 1.85708H18.0714V1.24618C18.0714 0.907922 17.7463 0.617597 17.3235 0.600704C17.2173 0.596609 17.1111 0.609812 17.0115 0.639513C16.9118 0.669214 16.8207 0.714795 16.7437 0.773493C16.6667 0.832191 16.6054 0.902785 16.5635 0.980997C16.5216 1.05921 16.5 1.14341 16.5 1.2285V1.85708H5.5V1.24618C5.5 0.907922 5.17491 0.617597 4.7521 0.600704C4.64586 0.596609 4.53969 0.609812 4.44002 0.639513C4.34035 0.669214 4.24926 0.714795 4.17226 0.773493C4.09526 0.832191 4.03396 0.902785 3.99207 0.980997C3.95018 1.05921 3.92858 1.14341 3.92857 1.2285V1.85708H3.14286C2.30932 1.85708 1.50992 2.12198 0.920522 2.5935C0.331122 3.06503 0 3.70456 0 4.3714V4.84283C0 4.88451 0.0206951 4.92448 0.0575326 4.95395C0.0943701 4.98342 0.144332 4.99998 0.196429 4.99998H21.8036C21.8557 4.99998 21.9056 4.98342 21.9425 4.95395C21.9793 4.92448 22 4.88451 22 4.84283V4.3714Z" fill="#373C6B"/>
<path d="M0 17.3895C0 18.1879 0.331122 18.9536 0.920522 19.5182C1.50992 20.0828 2.30932 20.4 3.14286 20.4H18.8571C19.6907 20.4 20.4901 20.0828 21.0795 19.5182C21.6689 18.9536 22 18.1879 22 17.3895V6.28813C22 6.23823 21.9793 6.19037 21.9425 6.15509C21.9056 6.1198 21.8557 6.09998 21.8036 6.09998H0.196429C0.144332 6.09998 0.0943701 6.1198 0.0575326 6.15509C0.0206951 6.19037 0 6.23823 0 6.28813V17.3895Z" fill="#373C6B"/>
</svg>
