<svg width="36" height="32" viewBox="0 0 36 32" fill="none" xmlns="http://www.w3.org/2000/svg">
<path d="M12 13C13.1046 13 14 12.1046 14 11C14 9.89543 13.1046 9 12 9C10.8954 9 10 9.89543 10 11C10 12.1046 10.8954 13 12 13Z" fill="#4B4B4B"/>
<path d="M18 13C19.1046 13 20 12.1046 20 11C20 9.89543 19.1046 9 18 9C16.8954 9 16 9.89543 16 11C16 12.1046 16.8954 13 18 13Z" fill="#4B4B4B"/>
<path d="M24 13C25.1046 13 26 12.1046 26 11C26 9.89543 25.1046 9 24 9C22.8954 9 22 9.89543 22 11C22 12.1046 22.8954 13 24 13Z" fill="#4B4B4B"/>
</svg>
