<svg width="24" height="32" viewBox="0 0 24 32" fill="none" xmlns="http://www.w3.org/2000/svg">
<rect x="0.569336" width="22.8607" height="10.6683" rx="5.33416" fill="#FF665A"/>
<path d="M0.569336 5.33416C0.569336 2.38818 2.95752 0 5.90349 0H11.9997V10.6683H5.90349C2.95752 10.6683 0.569336 8.28013 0.569336 5.33416Z" fill="#FF3A00"/>
<path d="M0.569336 16.0026C0.569336 13.0566 2.95752 10.6685 5.90349 10.6685H11.9997V21.3368H5.90349C2.95752 21.3368 0.569336 18.9486 0.569336 16.0026Z" fill="#AD54FF"/>
<path d="M0.569336 26.6657C0.569336 23.7197 2.95752 21.3315 5.90349 21.3315H11.9997V26.2847C11.9997 29.4411 9.4409 31.9999 6.2845 31.9999H5.90349C2.95752 31.9999 0.569336 29.6117 0.569336 26.6657Z" fill="#00D37C"/>
<circle cx="17.3342" cy="16.0026" r="5.33416" fill="#00BFFF"/>
</svg>
