<svg width="84" height="32" viewBox="0 0 84 32" fill="none" xmlns="http://www.w3.org/2000/svg">
<rect width="84" height="32" rx="16" fill="#8784FF"/>
<circle cx="16" cy="16" r="12" fill="white"/>
<path d="M13.5 24C14.88 24 16 22.88 16 21.5V19H13.5C12.12 19 11 20.12 11 21.5C11 22.88 12.12 24 13.5 24Z" fill="#0ACF83"/>
<path d="M11 16.5C11 15.12 12.12 14 13.5 14H16V19H13.5C12.12 19 11 17.88 11 16.5Z" fill="#A259FF"/>
<path d="M11 11.5C11 10.12 12.12 9 13.5 9H16V14H13.5C12.12 14 11 12.88 11 11.5Z" fill="#F24E1E"/>
<path d="M16 9H18.5C19.88 9 21 10.12 21 11.5C21 12.88 19.88 14 18.5 14H16V9Z" fill="#FF7262"/>
<path d="M21 16.5C21 17.88 19.88 19 18.5 19C17.12 19 16 17.88 16 16.5C16 15.12 17.12 14 18.5 14C19.88 14 21 15.12 21 16.5Z" fill="#1ABCFE"/>
<path d="M35.1543 10.6016H41.4981V12.0918H36.9317V14.7988H41.0606V16.2891H36.9317V20.5H35.1543V10.6016ZM41.94 13.0762H43.69V20.5H41.94V13.0762ZM42.8286 12.0234C42.6509 12.0234 42.4823 11.9824 42.3228 11.9004C42.1678 11.8138 42.0448 11.6976 41.9536 11.5518C41.8625 11.4014 41.8169 11.2396 41.8169 11.0664C41.8169 10.8978 41.8625 10.7406 41.9536 10.5947C42.0448 10.4489 42.1678 10.335 42.3228 10.2529C42.4823 10.1663 42.6509 10.123 42.8286 10.123C43.0109 10.123 43.1795 10.1663 43.3345 10.2529C43.4894 10.335 43.6125 10.4489 43.7036 10.5947C43.7948 10.7406 43.8404 10.8978 43.8404 11.0664C43.8404 11.2396 43.7948 11.4014 43.7036 11.5518C43.6125 11.6976 43.4894 11.8138 43.3345 11.9004C43.1795 11.9824 43.0109 12.0234 42.8286 12.0234ZM47.6182 23.4395C46.9665 23.4395 46.3968 23.346 45.9092 23.1592C45.4261 22.9769 45.0433 22.7148 44.7607 22.373C44.4827 22.0358 44.3232 21.6348 44.2822 21.1699H46.0186C46.0778 21.4844 46.2487 21.7214 46.5312 21.8809C46.8184 22.0449 47.1898 22.127 47.6455 22.127C48.1878 22.127 48.6094 22.0016 48.9102 21.751C49.2155 21.5003 49.3682 21.1107 49.3682 20.582V19.1602H49.2861C49.113 19.502 48.8555 19.7936 48.5137 20.0352C48.1764 20.2721 47.7184 20.3906 47.1396 20.3906C46.5609 20.3906 46.0391 20.2516 45.5742 19.9736C45.1094 19.6911 44.7425 19.2764 44.4736 18.7295C44.2093 18.1781 44.0771 17.5104 44.0771 16.7266C44.0771 15.9336 44.2116 15.2568 44.4805 14.6963C44.7493 14.1312 45.1162 13.7051 45.5811 13.418C46.0459 13.1263 46.57 12.9805 47.1533 12.9805C47.7321 12.9805 48.1855 13.1081 48.5137 13.3633C48.8418 13.6185 49.0993 13.9284 49.2861 14.293H49.3682V13.0762H51.0908V20.623C51.0908 21.2383 50.9427 21.7555 50.6465 22.1748C50.3548 22.5986 49.9469 22.9154 49.4229 23.125C48.9033 23.3346 48.3018 23.4395 47.6182 23.4395ZM47.6182 19.0234C48.1787 19.0234 48.6117 18.8252 48.917 18.4287C49.2269 18.0277 49.3818 17.4694 49.3818 16.7539C49.3818 16.2845 49.3135 15.8721 49.1768 15.5166C49.04 15.1611 48.8395 14.8877 48.5752 14.6963C48.3109 14.5003 47.9919 14.4023 47.6182 14.4023C47.2399 14.4023 46.9186 14.5026 46.6543 14.7031C46.39 14.9036 46.1895 15.1816 46.0527 15.5371C45.9206 15.8926 45.8545 16.2982 45.8545 16.7539C45.8545 17.4512 46.0072 18.0049 46.3125 18.415C46.6178 18.8206 47.0531 19.0234 47.6182 19.0234ZM51.7788 13.0762H53.4468V14.334H53.5425C53.6929 13.9102 53.9458 13.5798 54.3012 13.3428C54.6613 13.1012 55.0874 12.9805 55.5796 12.9805C56.0809 12.9805 56.5047 13.099 56.8511 13.3359C57.1974 13.5729 57.4435 13.9056 57.5893 14.334H57.6714C57.8354 13.9193 58.1134 13.5911 58.5054 13.3496C58.9018 13.1035 59.3667 12.9805 59.8999 12.9805C60.3556 12.9805 60.7567 13.0785 61.103 13.2744C61.4539 13.4658 61.7251 13.7529 61.9165 14.1357C62.1124 14.514 62.2104 14.972 62.2104 15.5098V20.5H60.4741V15.7832C60.4741 15.3411 60.3556 15.0085 60.1186 14.7852C59.8862 14.5573 59.5809 14.4434 59.2026 14.4434C58.7788 14.4434 58.4461 14.5755 58.2046 14.8398C57.9676 15.0996 57.8491 15.4414 57.8491 15.8652V20.5H56.1538V15.7148C56.1538 15.4642 56.0991 15.2432 55.9897 15.0518C55.8849 14.8558 55.7368 14.7054 55.5454 14.6006C55.3585 14.4958 55.1421 14.4434 54.896 14.4434C54.6453 14.4434 54.4152 14.5094 54.2055 14.6416C54.0005 14.7692 53.8364 14.9515 53.7134 15.1885C53.5903 15.4209 53.5288 15.6875 53.5288 15.9883V20.5H51.7788V13.0762ZM62.5566 18.4082C62.5566 17.6426 62.8141 17.0911 63.3291 16.7539C63.8486 16.4121 64.5117 16.2161 65.3183 16.166C66.1067 16.1113 66.7402 16.0749 67.2187 16.0566V15.4688C67.2187 15.0996 67.1025 14.8148 66.8701 14.6143C66.6377 14.4092 66.3073 14.3066 65.8789 14.3066C65.5006 14.3066 65.1907 14.3864 64.9492 14.5459C64.7076 14.7054 64.5527 14.9219 64.4843 15.1953H62.8027C62.8437 14.7715 62.9941 14.3932 63.2539 14.0605C63.5136 13.7233 63.8714 13.459 64.3271 13.2676C64.7828 13.0762 65.3138 12.9805 65.9199 12.9805C66.4394 12.9805 66.927 13.0625 67.3828 13.2266C67.8431 13.3861 68.219 13.6572 68.5107 14.04C68.8069 14.4183 68.955 14.9173 68.955 15.5371V20.5H67.2871V19.4746H67.2324C67.0501 19.821 66.7767 20.1035 66.4121 20.3223C66.0475 20.541 65.5918 20.6504 65.0449 20.6504C64.5664 20.6504 64.138 20.5638 63.7597 20.3906C63.386 20.2174 63.0921 19.9622 62.8779 19.625C62.6637 19.2878 62.5566 18.8822 62.5566 18.4082ZM64.2382 18.3945C64.2382 18.709 64.3522 18.9505 64.58 19.1191C64.8079 19.2832 65.1132 19.3652 65.4961 19.3652C65.8379 19.3652 66.1409 19.2969 66.4052 19.1602C66.6696 19.0234 66.8724 18.8389 67.0136 18.6064C67.1595 18.3695 67.2324 18.112 67.2324 17.834L67.2255 17.2256L65.5918 17.3281C65.1634 17.3646 64.8307 17.4717 64.5937 17.6494C64.3567 17.8271 64.2382 18.0755 64.2382 18.3945Z" fill="white"/>
</svg>
