<svg width="83" height="32" viewBox="0 0 83 32" fill="none" xmlns="http://www.w3.org/2000/svg">
<rect x="0.5" y="0.5" width="82" height="31" rx="15.5" stroke="#D1D1D1"/>
<circle cx="16" cy="16" r="12" fill="white"/>
<path d="M13.5 24C14.88 24 16 22.88 16 21.5V19H13.5C12.12 19 11 20.12 11 21.5C11 22.88 12.12 24 13.5 24Z" fill="#0ACF83"/>
<path d="M11 16.5C11 15.12 12.12 14 13.5 14H16V19H13.5C12.12 19 11 17.88 11 16.5Z" fill="#A259FF"/>
<path d="M11 11.5C11 10.12 12.12 9 13.5 9H16V14H13.5C12.12 14 11 12.88 11 11.5Z" fill="#F24E1E"/>
<path d="M16 9H18.5C19.88 9 21 10.12 21 11.5C21 12.88 19.88 14 18.5 14H16V9Z" fill="#FF7262"/>
<path d="M21 16.5C21 17.88 19.88 19 18.5 19C17.12 19 16 17.88 16 16.5C16 15.12 17.12 14 18.5 14C19.88 14 21 15.12 21 16.5Z" fill="#1ABCFE"/>
<path d="M35.4952 10.6016H41.4561V11.6953H36.7256V15.0039H41.0049V16.084H36.7256V20.5H35.4952V10.6016ZM42.1577 13.0762H43.3335V20.5H42.1577V13.0762ZM42.7456 11.8457C42.5178 11.8457 42.3241 11.7705 42.1646 11.6201C42.0051 11.4697 41.9253 11.2852 41.9253 11.0664C41.9253 10.8477 42.0051 10.6631 42.1646 10.5127C42.3241 10.3623 42.5178 10.2871 42.7456 10.2871C42.9735 10.2871 43.1695 10.3623 43.3335 10.5127C43.4976 10.6631 43.5796 10.8477 43.5796 11.0664C43.5796 11.2852 43.4976 11.4697 43.3335 11.6201C43.1695 11.7705 42.9735 11.8457 42.7456 11.8457ZM47.2344 23.4395C46.6374 23.4395 46.1087 23.3551 45.6484 23.1865C45.1927 23.0179 44.8304 22.7718 44.5615 22.4482C44.2926 22.1247 44.1354 21.735 44.0898 21.2793H45.3203C45.4023 21.653 45.6074 21.9355 45.9355 22.127C46.2682 22.3184 46.7012 22.4141 47.2344 22.4141C47.8906 22.4141 48.3965 22.2682 48.752 21.9766C49.1074 21.6849 49.2852 21.2383 49.2852 20.6367V19.1328H49.1895C49.0573 19.3561 48.9183 19.5521 48.7725 19.7207C48.6266 19.8893 48.4079 20.0443 48.1162 20.1855C47.8291 20.3223 47.4668 20.3906 47.0293 20.3906C46.4232 20.3906 45.8809 20.2425 45.4023 19.9463C44.9238 19.6501 44.5479 19.224 44.2744 18.668C44.0055 18.1074 43.8711 17.4466 43.8711 16.6855C43.8711 15.9382 44.0055 15.2842 44.2744 14.7236C44.5433 14.1631 44.917 13.7324 45.3955 13.4316C45.874 13.1309 46.4232 12.9805 47.043 12.9805C47.4759 12.9805 47.8359 13.0511 48.123 13.1924C48.4147 13.3337 48.6221 13.4795 48.7451 13.6299C48.8727 13.7757 49.0299 13.9831 49.2168 14.252H49.3125V13.0762H50.4609V20.7051C50.4609 21.3203 50.3197 21.8307 50.0371 22.2363C49.7591 22.6465 49.3786 22.9495 48.8955 23.1455C48.4124 23.3415 47.8587 23.4395 47.2344 23.4395ZM47.1934 19.3379C47.8678 19.3379 48.3896 19.11 48.7588 18.6543C49.1279 18.194 49.3125 17.5514 49.3125 16.7266C49.3125 16.1934 49.2305 15.724 49.0664 15.3184C48.9023 14.9128 48.6608 14.5983 48.3418 14.375C48.0273 14.1471 47.6445 14.0332 47.1934 14.0332C46.7331 14.0332 46.3434 14.1517 46.0244 14.3887C45.7054 14.6257 45.4639 14.9492 45.2998 15.3594C45.1403 15.765 45.0605 16.2207 45.0605 16.7266C45.0605 17.2461 45.1403 17.7018 45.2998 18.0938C45.4639 18.4857 45.7054 18.791 46.0244 19.0098C46.3434 19.2285 46.7331 19.3379 47.1934 19.3379ZM51.354 13.0762H52.4887V14.2383H52.5845C52.744 13.8372 52.9946 13.5273 53.3364 13.3086C53.6828 13.0898 54.0975 12.9805 54.5805 12.9805C55.0545 12.9805 55.4578 13.0898 55.7905 13.3086C56.1232 13.5228 56.3807 13.8327 56.563 14.2383H56.645C56.841 13.8464 57.1304 13.5387 57.5132 13.3154C57.896 13.0921 58.3494 12.9805 58.8735 12.9805C59.3247 12.9805 59.7189 13.0739 60.0561 13.2607C60.3979 13.4476 60.6645 13.7324 60.8559 14.1152C61.0473 14.4935 61.143 14.9674 61.143 15.5371V20.5H59.9673V15.5508C59.9673 15.0358 59.826 14.6553 59.5434 14.4092C59.2609 14.1585 58.9009 14.0332 58.4634 14.0332C58.1261 14.0332 57.8345 14.1038 57.5884 14.2451C57.3423 14.3864 57.1554 14.5801 57.0278 14.8262C56.9002 15.0723 56.8364 15.3548 56.8364 15.6738V20.5H55.647V15.4277C55.647 15.1543 55.5854 14.9128 55.4624 14.7031C55.3393 14.4889 55.1662 14.3249 54.9429 14.2109C54.7241 14.0924 54.4757 14.0332 54.1977 14.0332C53.9015 14.0332 53.6258 14.113 53.3706 14.2725C53.1154 14.4274 52.9103 14.6439 52.7554 14.9219C52.605 15.1999 52.5298 15.5143 52.5298 15.8652V20.5H51.354V13.0762ZM61.6943 18.3945C61.6943 17.6243 61.9563 17.082 62.4804 16.7676C63.0091 16.4531 63.6767 16.2663 64.4834 16.207C64.7933 16.1842 65.1396 16.1637 65.5224 16.1455C65.9098 16.1227 66.2334 16.1068 66.4931 16.0977V15.4961C66.4931 15.0176 66.3496 14.6507 66.0625 14.3955C65.7799 14.1357 65.3629 14.0059 64.8115 14.0059C64.3603 14.0059 63.9912 14.0993 63.7041 14.2861C63.417 14.4684 63.2301 14.7077 63.1435 15.0039H61.913C61.9632 14.6074 62.1181 14.2565 62.3779 13.9512C62.6377 13.6458 62.9817 13.4089 63.4101 13.2402C63.8431 13.0671 64.3284 12.9805 64.8662 12.9805C65.5771 12.9805 66.2197 13.1628 66.7939 13.5273C67.3681 13.8874 67.6552 14.5801 67.6552 15.6055V20.5H66.4931V19.4883H66.4384C66.3473 19.6797 66.206 19.8665 66.0146 20.0488C65.8278 20.2266 65.5817 20.377 65.2763 20.5C64.9755 20.6185 64.6246 20.6777 64.2236 20.6777C63.7496 20.6777 63.3212 20.5866 62.9384 20.4043C62.5556 20.222 62.2526 19.96 62.0293 19.6182C61.8059 19.2718 61.6943 18.8639 61.6943 18.3945ZM62.8701 18.4492C62.8701 18.8275 63.0114 19.1191 63.2939 19.3242C63.581 19.5247 63.9593 19.625 64.4287 19.625C64.8525 19.625 65.2194 19.5407 65.5293 19.3721C65.8437 19.2035 66.083 18.9801 66.247 18.7021C66.4111 18.4242 66.4931 18.1257 66.4931 17.8066V17.0615L64.6201 17.1914C64.0641 17.2279 63.6334 17.3486 63.3281 17.5537C63.0227 17.7588 62.8701 18.0573 62.8701 18.4492Z" fill="#868686"/>
</svg>
