<svg width="36" height="36" viewBox="0 0 36 36" fill="none" xmlns="http://www.w3.org/2000/svg">
<circle cx="18" cy="18" r="18" fill="white"/>
<path fill-rule="evenodd" clip-rule="evenodd" d="M24.6281 10.7598C24.1415 10.2733 23.4815 10 22.7933 10C22.1052 10 21.4452 10.2733 20.9585 10.7598L20.3469 11.3723L24.629 15.6542L25.2397 15.0426C25.4808 14.8017 25.672 14.5156 25.8024 14.2007C25.9329 13.8858 26 13.5483 26 13.2075C26 12.8666 25.9329 12.5291 25.8024 12.2142C25.672 11.8994 25.4808 11.6133 25.2397 11.3723L24.6281 10.7598ZM23.4049 16.8774L19.1228 12.5954L11.2594 20.4595C11.0873 20.6316 10.9671 20.8487 10.9125 21.0858L10.0223 24.9396C9.98918 25.0827 9.99299 25.2318 10.0334 25.373C10.0738 25.5142 10.1495 25.6428 10.2534 25.7466C10.3572 25.8505 10.4858 25.9262 10.627 25.9666C10.7682 26.007 10.9174 26.0108 11.0604 25.9777L14.9152 25.0884C15.152 25.0336 15.3687 24.9134 15.5406 24.7415L23.4049 16.8774Z" fill="#373C6B"/>
</svg>
