<svg width="69" height="32" viewBox="0 0 69 32" fill="none" xmlns="http://www.w3.org/2000/svg">
<rect width="69" height="32" rx="16" fill="#8784FF"/>
<circle cx="16" cy="16" r="12" fill="#F6F6F6"/>
<path d="M12.1109 9H19.8626C20.2398 9 20.6061 9.06016 20.9614 9.18594C21.4753 9.37188 21.9399 9.7 22.2898 10.1266C22.6451 10.5531 22.8802 11.0781 22.9622 11.625C22.995 11.8273 23.0004 12.0297 23.0004 12.232V19.7953C23.0004 20.0359 22.9895 20.282 22.9403 20.5172C22.831 21.0586 22.574 21.5672 22.2023 21.9773C21.836 22.3875 21.355 22.6937 20.8357 22.8578C20.5186 22.9562 20.1906 23 19.8571 23C19.7095 23 12.0891 23 11.9743 22.9945C11.4167 22.9672 10.8646 22.7867 10.3999 22.475C9.94616 22.1687 9.57443 21.7422 9.3339 21.25C9.12617 20.8289 9.02231 20.3586 9.02231 19.8883V12.1117C9.01137 11.6469 9.10977 11.1875 9.31204 10.7719C9.5471 10.2797 9.91336 9.84766 10.3671 9.54141C10.8318 9.22422 11.3784 9.03828 11.936 9.01094C11.9907 9 12.0508 9 12.1109 9Z" fill="url(#paint0_linear_6867_6617)"/>
<path d="M20.8079 20.4516C20.7587 20.375 20.704 20.2984 20.6439 20.2273C20.5072 20.0633 20.3487 19.9211 20.1737 19.8008C19.9551 19.6531 19.6982 19.5602 19.4358 19.5492C19.2499 19.5383 19.064 19.5711 18.8891 19.6367C18.7142 19.6969 18.5447 19.7844 18.3807 19.8719C18.1894 19.9703 17.998 20.0688 17.7958 20.1508C17.5552 20.2492 17.3038 20.3258 17.0468 20.3805C16.7243 20.4406 16.3963 20.4625 16.0738 20.457C15.4889 20.4461 14.9039 20.3586 14.3463 20.1945C13.8543 20.0469 13.3842 19.8445 12.9414 19.5875C12.5533 19.3633 12.1925 19.1063 11.8536 18.8164C11.5748 18.5758 11.3178 18.3188 11.0773 18.0453C10.9133 17.8539 10.7548 17.6516 10.6072 17.4438C10.547 17.3617 10.4924 17.2742 10.4432 17.1867L9 15.6281V12.1008C9 10.3891 10.3831 9 12.0941 9H14.8547L16.8992 11.0781C21.5131 14.2172 20.0207 17.6789 20.0207 17.6789C20.0207 17.6789 21.3327 19.1555 20.8079 20.4516Z" fill="url(#paint1_linear_6867_6617)"/>
<path d="M16.9103 11.0781C21.5242 14.2172 20.0318 17.6789 20.0318 17.6789C20.0318 17.6789 21.3438 19.1609 20.8135 20.457C20.8135 20.457 20.2723 19.5492 19.3648 19.5492C18.4902 19.5492 17.9763 20.457 16.2161 20.457C12.2965 20.457 10.4434 17.1813 10.4434 17.1813C13.9748 19.5055 16.3856 17.8594 16.3856 17.8594C14.7948 16.9352 11.4109 12.5164 11.4109 12.5164C14.3574 15.0266 15.6312 15.6883 15.6312 15.6883C14.8713 15.0594 12.7393 11.9859 12.7393 11.9859C14.4449 13.7141 17.8342 16.1258 17.8342 16.1258C18.7963 13.457 16.9103 11.0781 16.9103 11.0781Z" fill="#F6F6F6"/>
<path d="M35.0415 13.0762H36.7915V20.5H35.0415V13.0762ZM35.9302 12.0234C35.7525 12.0234 35.5838 11.9824 35.4243 11.9004C35.2694 11.8138 35.1463 11.6976 35.0552 11.5518C34.964 11.4014 34.9185 11.2396 34.9185 11.0664C34.9185 10.8978 34.964 10.7406 35.0552 10.5947C35.1463 10.4489 35.2694 10.335 35.4243 10.2529C35.5838 10.1663 35.7525 10.123 35.9302 10.123C36.1125 10.123 36.2811 10.1663 36.4361 10.2529C36.591 10.335 36.714 10.4489 36.8052 10.5947C36.8963 10.7406 36.9419 10.8978 36.9419 11.0664C36.9419 11.2396 36.8963 11.4014 36.8052 11.5518C36.714 11.6976 36.591 11.8138 36.4361 11.9004C36.2811 11.9824 36.1125 12.0234 35.9302 12.0234ZM46.3936 15.5508C46.3936 16.5944 46.1976 17.499 45.8057 18.2646C45.4137 19.0303 44.8737 19.6182 44.1855 20.0283C43.502 20.4339 42.7249 20.6367 41.8545 20.6367C40.984 20.6367 40.2048 20.4339 39.5166 20.0283C38.833 19.6182 38.2952 19.0303 37.9033 18.2646C37.5114 17.4945 37.3154 16.5898 37.3154 15.5508C37.3154 14.5072 37.5114 13.6025 37.9033 12.8369C38.2952 12.0713 38.833 11.4857 39.5166 11.0801C40.2048 10.6699 40.984 10.4648 41.8545 10.4648C42.7249 10.4648 43.502 10.6699 44.1855 11.0801C44.8737 11.4857 45.4137 12.0713 45.8057 12.8369C46.1976 13.6025 46.3936 14.5072 46.3936 15.5508ZM44.6025 15.5508C44.6025 14.8125 44.4863 14.1836 44.2539 13.6641C44.026 13.14 43.7048 12.7435 43.29 12.4746C42.8753 12.2012 42.3968 12.0645 41.8545 12.0645C41.3122 12.0645 40.8337 12.2012 40.4189 12.4746C40.0042 12.7435 39.6807 13.14 39.4482 13.6641C39.2204 14.1836 39.1064 14.8125 39.1064 15.5508C39.1064 16.2891 39.2204 16.9202 39.4482 17.4443C39.6807 17.9639 40.0042 18.3604 40.4189 18.6338C40.8337 18.9027 41.3122 19.0371 41.8545 19.0371C42.3968 19.0371 42.8753 18.9027 43.29 18.6338C43.7048 18.3604 44.026 17.9639 44.2539 17.4443C44.4863 16.9202 44.6025 16.2891 44.6025 15.5508ZM52.3862 13.3223C52.3452 12.903 52.1561 12.5749 51.8188 12.3379C51.4861 12.1009 51.0509 11.9824 50.5132 11.9824C50.1486 11.9824 49.8296 12.0371 49.5561 12.1465C49.2827 12.2559 49.0731 12.4085 48.9272 12.6045C48.7814 12.8005 48.7085 13.0215 48.7085 13.2676C48.7085 13.6458 48.8657 13.9398 49.1802 14.1494C49.4946 14.3545 49.9025 14.5163 50.4038 14.6348L51.3335 14.8809C52.1857 15.0768 52.8807 15.4027 53.4184 15.8584C53.9608 16.3096 54.2319 16.9316 54.2319 17.7246C54.2319 18.3034 54.0838 18.8138 53.7876 19.2559C53.4914 19.6979 53.0607 20.042 52.4956 20.2881C51.935 20.5296 51.2651 20.6504 50.4858 20.6504C49.7156 20.6504 49.048 20.5319 48.4829 20.2949C47.9178 20.0534 47.4757 19.7048 47.1567 19.249C46.8423 18.7887 46.6714 18.235 46.644 17.5879H48.394C48.435 18.0892 48.6447 18.472 49.0229 18.7363C49.4057 19.0007 49.8888 19.1328 50.4721 19.1328C50.8595 19.1328 51.2036 19.0736 51.5044 18.9551C51.8052 18.8366 52.0376 18.6702 52.2016 18.4561C52.3703 18.2373 52.4546 17.9889 52.4546 17.7109C52.4546 17.3509 52.3042 17.0706 52.0034 16.8701C51.7072 16.665 51.2606 16.485 50.6636 16.3301L49.5425 16.043C47.7833 15.5827 46.9038 14.694 46.9038 13.377C46.9038 12.8027 47.061 12.2969 47.3755 11.8594C47.6899 11.4173 48.1229 11.0755 48.6743 10.834C49.2303 10.5879 49.8524 10.4648 50.5405 10.4648C51.2332 10.4648 51.8462 10.5879 52.3794 10.834C52.9171 11.0755 53.3341 11.4128 53.6304 11.8457C53.9311 12.2786 54.0861 12.7708 54.0952 13.3223H52.3862Z" fill="white"/>
<defs>
<linearGradient id="paint0_linear_6867_6617" x1="17.3256" y1="8.50043" x2="14.6796" y2="23.5009" gradientUnits="userSpaceOnUse">
<stop stop-color="#FAAE42"/>
<stop offset="1" stop-color="#EF3E31"/>
</linearGradient>
<linearGradient id="paint1_linear_6867_6617" x1="16.14" y1="9.22619" x2="14.2035" y2="20.2048" gradientUnits="userSpaceOnUse">
<stop stop-color="#E39F3A"/>
<stop offset="1" stop-color="#D33929"/>
</linearGradient>
</defs>
</svg>
