<svg width="68" height="32" viewBox="0 0 68 32" fill="none" xmlns="http://www.w3.org/2000/svg">
<rect x="0.5" y="0.5" width="67" height="31" rx="15.5" stroke="#D1D1D1"/>
<circle cx="16" cy="16" r="12" fill="#F6F6F6"/>
<path d="M12.1109 9H19.8626C20.2398 9 20.6061 9.06016 20.9614 9.18594C21.4753 9.37188 21.9399 9.7 22.2898 10.1266C22.6451 10.5531 22.8802 11.0781 22.9622 11.625C22.995 11.8273 23.0004 12.0297 23.0004 12.232V19.7953C23.0004 20.0359 22.9895 20.282 22.9403 20.5172C22.831 21.0586 22.574 21.5672 22.2023 21.9773C21.836 22.3875 21.355 22.6937 20.8357 22.8578C20.5186 22.9562 20.1906 23 19.8571 23C19.7095 23 12.0891 23 11.9743 22.9945C11.4167 22.9672 10.8646 22.7867 10.3999 22.475C9.94616 22.1687 9.57443 21.7422 9.3339 21.25C9.12617 20.8289 9.02231 20.3586 9.02231 19.8883V12.1117C9.01137 11.6469 9.10977 11.1875 9.31204 10.7719C9.5471 10.2797 9.91336 9.84766 10.3671 9.54141C10.8318 9.22422 11.3784 9.03828 11.936 9.01094C11.9907 9 12.0508 9 12.1109 9Z" fill="url(#paint0_linear_6867_6520)"/>
<path d="M20.8079 20.4516C20.7587 20.375 20.704 20.2984 20.6439 20.2273C20.5072 20.0633 20.3487 19.9211 20.1737 19.8008C19.9551 19.6531 19.6982 19.5602 19.4358 19.5492C19.2499 19.5383 19.064 19.5711 18.8891 19.6367C18.7142 19.6969 18.5447 19.7844 18.3807 19.8719C18.1894 19.9703 17.998 20.0688 17.7958 20.1508C17.5552 20.2492 17.3038 20.3258 17.0468 20.3805C16.7243 20.4406 16.3963 20.4625 16.0738 20.457C15.4889 20.4461 14.9039 20.3586 14.3463 20.1945C13.8543 20.0469 13.3842 19.8445 12.9414 19.5875C12.5533 19.3633 12.1925 19.1063 11.8536 18.8164C11.5748 18.5758 11.3178 18.3188 11.0773 18.0453C10.9133 17.8539 10.7548 17.6516 10.6072 17.4438C10.547 17.3617 10.4924 17.2742 10.4432 17.1867L9 15.6281V12.1008C9 10.3891 10.3831 9 12.0941 9H14.8547L16.8992 11.0781C21.5131 14.2172 20.0207 17.6789 20.0207 17.6789C20.0207 17.6789 21.3327 19.1555 20.8079 20.4516Z" fill="url(#paint1_linear_6867_6520)"/>
<path d="M16.9103 11.0781C21.5242 14.2172 20.0318 17.6789 20.0318 17.6789C20.0318 17.6789 21.3438 19.1609 20.8135 20.457C20.8135 20.457 20.2723 19.5492 19.3648 19.5492C18.4902 19.5492 17.9763 20.457 16.2161 20.457C12.2965 20.457 10.4434 17.1813 10.4434 17.1813C13.9748 19.5055 16.3856 17.8594 16.3856 17.8594C14.7948 16.9352 11.4109 12.5164 11.4109 12.5164C14.3574 15.0266 15.6312 15.6883 15.6312 15.6883C14.8713 15.0594 12.7393 11.9859 12.7393 11.9859C14.4449 13.7141 17.8342 16.1258 17.8342 16.1258C18.7963 13.457 16.9103 11.0781 16.9103 11.0781Z" fill="#F6F6F6"/>
<path d="M35.0611 13.0762H36.2368V20.5H35.0611V13.0762ZM35.6489 11.8457C35.4211 11.8457 35.2274 11.7705 35.0679 11.6201C34.9084 11.4697 34.8286 11.2852 34.8286 11.0664C34.8286 10.8477 34.9084 10.6631 35.0679 10.5127C35.2274 10.3623 35.4211 10.2871 35.6489 10.2871C35.8768 10.2871 36.0728 10.3623 36.2368 10.5127C36.4009 10.6631 36.4829 10.8477 36.4829 11.0664C36.4829 11.2852 36.4009 11.4697 36.2368 11.6201C36.0728 11.7705 35.8768 11.8457 35.6489 11.8457ZM45.6475 15.5508C45.6475 16.5762 45.4606 17.474 45.0869 18.2441C44.7132 19.0098 44.1937 19.5999 43.5283 20.0146C42.8675 20.4294 42.1156 20.6367 41.2725 20.6367C40.4248 20.6367 39.6706 20.4294 39.0098 20.0146C38.349 19.5999 37.8317 19.0098 37.458 18.2441C37.0843 17.474 36.8975 16.5762 36.8975 15.5508C36.8975 14.5254 37.0843 13.6299 37.458 12.8643C37.8317 12.0941 38.349 11.5016 39.0098 11.0869C39.6706 10.6722 40.4248 10.4648 41.2725 10.4648C42.1156 10.4648 42.8675 10.6722 43.5283 11.0869C44.1937 11.5016 44.7132 12.0941 45.0869 12.8643C45.4606 13.6299 45.6475 14.5254 45.6475 15.5508ZM44.458 15.5508C44.458 14.7214 44.319 14.0104 44.041 13.418C43.763 12.8255 43.3825 12.3766 42.8994 12.0713C42.4209 11.766 41.8786 11.6133 41.2725 11.6133C40.6663 11.6133 40.1217 11.766 39.6387 12.0713C39.1602 12.3766 38.7819 12.8255 38.5039 13.418C38.2259 14.0104 38.0869 14.7214 38.0869 15.5508C38.0869 16.3802 38.2259 17.0911 38.5039 17.6836C38.7819 18.276 39.1602 18.7249 39.6387 19.0303C40.1217 19.3356 40.6663 19.4883 41.2725 19.4883C41.8786 19.4883 42.4209 19.3356 42.8994 19.0303C43.3825 18.7249 43.763 18.276 44.041 17.6836C44.319 17.0911 44.458 16.3802 44.458 15.5508ZM51.8725 13.0898C51.8361 12.7708 51.7199 12.4974 51.5239 12.2695C51.3325 12.0371 51.0773 11.8617 50.7583 11.7432C50.4393 11.6201 50.0815 11.5586 49.685 11.5586C49.2567 11.5586 48.8761 11.6292 48.5434 11.7705C48.2153 11.9072 47.9601 12.0986 47.7778 12.3447C47.6001 12.5908 47.5112 12.8711 47.5112 13.1855C47.5112 13.6413 47.6958 13.9899 48.0649 14.2314C48.4386 14.473 48.8921 14.6621 49.4253 14.7988L50.4096 15.0723C51.1753 15.2682 51.8338 15.5713 52.3852 15.9814C52.9367 16.387 53.2124 16.9954 53.2124 17.8066C53.2124 18.349 53.0688 18.8389 52.7817 19.2764C52.4992 19.7093 52.0867 20.0511 51.5444 20.3018C51.0067 20.5524 50.3641 20.6777 49.6167 20.6777C48.9149 20.6777 48.3019 20.5638 47.7778 20.3359C47.2537 20.1081 46.8436 19.7868 46.5473 19.3721C46.2511 18.9574 46.0848 18.4766 46.0483 17.9297H47.3061C47.3426 18.2852 47.4679 18.5859 47.6821 18.832C47.8963 19.0736 48.1697 19.2559 48.5024 19.3789C48.8397 19.4974 49.2111 19.5566 49.6167 19.5566C50.0724 19.5566 50.4803 19.4837 50.8403 19.3379C51.2049 19.1921 51.4897 18.9847 51.6948 18.7158C51.9044 18.4424 52.0093 18.1302 52.0093 17.7793C52.0093 17.4785 51.9227 17.2256 51.7495 17.0205C51.5809 16.8154 51.3576 16.6491 51.0796 16.5215C50.8061 16.3939 50.4643 16.2708 50.0542 16.1523L48.8374 15.8242C48.0262 15.5872 47.4041 15.2591 46.9712 14.8398C46.5382 14.4206 46.3218 13.8874 46.3218 13.2402C46.3218 12.6979 46.4699 12.2171 46.7661 11.7979C47.0669 11.374 47.4748 11.0459 47.9897 10.8135C48.5093 10.5811 49.088 10.4648 49.7261 10.4648C50.355 10.4648 50.9201 10.5788 51.4214 10.8066C51.9227 11.0345 52.3192 11.349 52.6108 11.75C52.9025 12.1465 53.0574 12.5931 53.0757 13.0898H51.8725Z" fill="#868686"/>
<defs>
<linearGradient id="paint0_linear_6867_6520" x1="17.3256" y1="8.50043" x2="14.6796" y2="23.5009" gradientUnits="userSpaceOnUse">
<stop stop-color="#FAAE42"/>
<stop offset="1" stop-color="#EF3E31"/>
</linearGradient>
<linearGradient id="paint1_linear_6867_6520" x1="16.14" y1="9.22619" x2="14.2035" y2="20.2048" gradientUnits="userSpaceOnUse">
<stop stop-color="#E39F3A"/>
<stop offset="1" stop-color="#D33929"/>
</linearGradient>
</defs>
</svg>
