<svg width="56" height="56" viewBox="0 0 56 56" fill="none" xmlns="http://www.w3.org/2000/svg">
<path d="M28 0C12.561 0 0 12.561 0 28C0 43.439 12.561 56 28 56C43.439 56 56 43.439 56 28C56 12.561 43.439 0 28 0ZM28 43.0648C27.4675 43.0648 26.947 42.9069 26.5042 42.6111C26.0615 42.3152 25.7164 41.8948 25.5126 41.4028C25.3089 40.9108 25.2555 40.3695 25.3594 39.8473C25.4633 39.325 25.7197 38.8453 26.0963 38.4687C26.4728 38.0922 26.9525 37.8358 27.4748 37.7319C27.997 37.628 28.5383 37.6814 29.0303 37.8851C29.5223 38.0889 29.9427 38.434 30.2386 38.8767C30.5344 39.3195 30.6923 39.84 30.6923 40.3725C30.6923 41.0865 30.4087 41.7713 29.9038 42.2762C29.3988 42.7812 28.714 43.0648 28 43.0648ZM30.9238 15.9869L30.1512 32.41C30.1512 32.9812 29.9242 33.5291 29.5203 33.933C29.1164 34.3369 28.5685 34.5638 27.9973 34.5638C27.4261 34.5638 26.8782 34.3369 26.4743 33.933C26.0704 33.5291 25.8435 32.9812 25.8435 32.41L25.0708 15.995V15.9883C25.0538 15.5937 25.1169 15.1999 25.2562 14.8304C25.3955 14.4609 25.6082 14.1234 25.8813 13.8382C26.1545 13.5531 26.4826 13.3262 26.8457 13.1712C27.2089 13.0161 27.5997 12.9362 27.9946 12.9362C28.3895 12.9362 28.7803 13.0161 29.1435 13.1712C29.5067 13.3262 29.8347 13.5531 30.1079 13.8382C30.3811 14.1234 30.5937 14.4609 30.733 14.8304C30.8723 15.1999 30.9354 15.5937 30.9185 15.9883L30.9238 15.9869Z" fill="#E1E1EA"/>
</svg>
