<svg width="90" height="32" viewBox="0 0 90 32" fill="none" xmlns="http://www.w3.org/2000/svg">
<rect x="0.5" y="0.5" width="89" height="31" rx="15.5" stroke="#D1D1D1"/>
<circle cx="16" cy="16" r="12" fill="#F6F6F6"/>
<path d="M17.0615 12.4904C17.9541 12.4358 18.9097 12.458 19.713 12.8757C20.3349 13.1957 20.6797 13.8674 20.6906 14.5236C20.6733 14.6122 20.5758 14.661 20.4869 14.6549C20.2279 14.6546 19.9688 14.6583 19.7099 14.6532C19.6 14.6573 19.5361 14.561 19.5223 14.4688C19.4479 14.1548 19.2676 13.8439 18.9565 13.6924C18.4788 13.4653 17.925 13.4767 17.4042 13.4814C17.0239 13.5006 16.6151 13.5319 16.2929 13.7443C16.0456 13.9051 15.9705 14.2298 16.0588 14.4914C16.142 14.6792 16.3702 14.7397 16.557 14.7956C17.6327 15.0628 18.7726 15.0362 19.8278 15.3879C20.2647 15.5312 20.692 15.8099 20.8416 16.2443C21.0372 16.8266 20.9514 17.5225 20.5153 17.99C20.1616 18.3746 19.6464 18.584 19.1326 18.6977C18.4491 18.8424 17.7397 18.8461 17.0456 18.7818C16.3929 18.7112 15.7136 18.5483 15.2097 18.1259C14.7789 17.7706 14.5684 17.2169 14.5893 16.6826C14.5943 16.5923 14.6889 16.5294 14.7799 16.5368C15.0407 16.5348 15.3015 16.5341 15.5623 16.5371C15.6665 16.5301 15.7437 16.6156 15.7491 16.7088C15.7972 17.008 15.9156 17.3219 16.1902 17.4993C16.7203 17.8241 17.3854 17.8018 17.9923 17.8109C18.4952 17.7898 19.0596 17.7833 19.4699 17.4677C19.6864 17.2877 19.7506 16.9864 19.6921 16.7273C19.6287 16.5085 19.3877 16.4066 19.1808 16.3399C18.1189 16.0209 16.9662 16.1367 15.9145 15.7759C15.4876 15.6326 15.0747 15.3616 14.9107 14.945C14.6818 14.3554 14.7867 13.6261 15.2685 13.1745C15.7384 12.7252 16.4166 12.5522 17.0615 12.4903V12.4904Z" fill="#8CC84B"/>
<path d="M15.3633 8.40005C15.749 8.17965 16.2515 8.17865 16.6369 8.40005C18.5759 9.49372 20.5155 10.5857 22.4542 11.68C22.8188 11.885 23.0627 12.2901 23.059 12.7095V19.2895C23.0617 19.7262 22.7937 20.141 22.409 20.3414C20.4764 21.429 18.5447 22.518 16.6124 23.6056C16.2187 23.8304 15.7062 23.813 15.3248 23.5699C14.7453 23.2346 14.1649 22.901 13.5855 22.5661C13.4671 22.4956 13.3336 22.4395 13.25 22.3249C13.3239 22.2255 13.4561 22.2131 13.5634 22.1697C13.8053 22.0929 14.0274 21.9697 14.2496 21.8501C14.3058 21.8117 14.3744 21.8264 14.4282 21.8608C14.9237 22.1443 15.4148 22.4361 15.9119 22.717C16.018 22.7781 16.1253 22.697 16.216 22.6465C18.1125 21.5766 20.0113 20.5107 21.9075 19.4404C21.9778 19.4067 22.0166 19.3322 22.0109 19.2554C22.0122 17.0848 22.0112 14.9138 22.0116 12.7433C22.0196 12.6561 21.9691 12.576 21.8901 12.5403C19.9642 11.4576 18.0393 10.3733 16.1137 9.29035C16.0803 9.26746 16.0408 9.25517 16.0003 9.25512C15.9598 9.25506 15.9202 9.26722 15.8868 9.29002C13.9612 10.3733 12.0366 11.4586 10.111 12.5412C10.0323 12.577 9.97953 12.6558 9.98889 12.7433C9.98922 14.9138 9.98889 17.0848 9.98889 19.2557C9.98555 19.2932 9.9938 19.3308 10.0125 19.3635C10.0312 19.3961 10.0595 19.4223 10.0936 19.4384C10.6075 19.7293 11.122 20.0181 11.6362 20.308C11.9258 20.4636 12.2815 20.5561 12.6007 20.4369C12.8823 20.336 13.0797 20.0491 13.0743 19.7506C13.077 17.5927 13.073 15.4345 13.0763 13.2769C13.0693 13.1811 13.1603 13.1019 13.2536 13.111C13.5005 13.1093 13.7478 13.1076 13.9947 13.1116C14.0977 13.1093 14.1687 13.2124 14.1559 13.309C14.1549 15.4805 14.1586 17.6522 14.1543 19.8238C14.1549 20.4025 13.9167 21.0322 13.3804 21.3154C12.7197 21.6571 11.9031 21.5846 11.2504 21.257C10.6854 20.9755 10.1461 20.6433 9.59111 20.3417C9.20542 20.1424 8.93874 19.726 8.94145 19.2895V12.7095C8.93741 12.2814 9.19101 11.869 9.56701 11.667C11.4993 10.5784 13.4313 9.48908 15.3633 8.40005Z" fill="#8CC84B"/>
<path d="M43.1197 20.5H41.9439L36.5845 12.7891H36.4888V20.5H35.2584V10.6016H36.4478L41.8072 18.3262H41.9029V10.6016H43.1197V20.5ZM47.212 20.6504C46.542 20.6504 45.9496 20.4932 45.4346 20.1787C44.9242 19.8597 44.5277 19.4108 44.2452 18.832C43.9626 18.2533 43.8213 17.5833 43.8213 16.8223C43.8213 16.0612 43.9626 15.3913 44.2452 14.8125C44.5277 14.2292 44.9242 13.778 45.4346 13.459C45.9496 13.14 46.542 12.9805 47.212 12.9805C47.8773 12.9805 48.4629 13.14 48.9688 13.459C49.4792 13.778 49.8734 14.2292 50.1514 14.8125C50.434 15.3913 50.5752 16.0612 50.5752 16.8223C50.5752 17.5833 50.434 18.2533 50.1514 18.832C49.8734 19.4108 49.4792 19.8597 48.9688 20.1787C48.4629 20.4932 47.8773 20.6504 47.212 20.6504ZM47.212 19.6113C47.6905 19.6113 48.0938 19.486 48.4219 19.2354C48.75 18.9801 48.9939 18.6429 49.1534 18.2236C49.3174 17.7998 49.3995 17.3327 49.3995 16.8223C49.3995 16.3118 49.3174 15.8447 49.1534 15.4209C48.9939 14.9971 48.75 14.6576 48.4219 14.4023C48.0938 14.1471 47.6905 14.0195 47.212 14.0195C46.7243 14.0195 46.3142 14.1471 45.9815 14.4023C45.6534 14.6576 45.4073 14.9971 45.2432 15.4209C45.0791 15.8447 44.9971 16.3118 44.9971 16.8223C44.9971 17.3327 45.0791 17.7998 45.2432 18.2236C45.4073 18.6429 45.6534 18.9801 45.9815 19.2354C46.3142 19.486 46.7243 19.6113 47.212 19.6113ZM53.9429 20.6504C53.3277 20.6504 52.7808 20.4932 52.3023 20.1787C51.8283 19.8643 51.4569 19.4176 51.188 18.8389C50.9191 18.2555 50.7847 17.5788 50.7847 16.8086C50.7847 16.0384 50.9191 15.3639 51.188 14.7852C51.4569 14.2064 51.8306 13.762 52.3091 13.4521C52.7876 13.1377 53.3368 12.9805 53.9566 12.9805C54.3941 12.9805 54.7564 13.0534 55.0435 13.1992C55.3306 13.3405 55.5425 13.4932 55.6792 13.6572C55.8159 13.8167 55.9572 14.015 56.103 14.252H56.1851V10.6016H57.3745V20.5H56.2261V19.3652H56.103C55.9481 19.6068 55.8 19.8096 55.6587 19.9736C55.522 20.1377 55.3101 20.2926 55.023 20.4385C54.7359 20.5798 54.3758 20.6504 53.9429 20.6504ZM54.107 19.5977C54.549 19.5977 54.9295 19.4814 55.2486 19.249C55.5676 19.012 55.8091 18.6816 55.9732 18.2578C56.1418 17.8294 56.2261 17.3372 56.2261 16.7812C56.2261 16.2298 56.1441 15.749 55.98 15.3389C55.8205 14.9242 55.5812 14.6029 55.2622 14.375C54.9432 14.1471 54.5581 14.0332 54.107 14.0332C53.6467 14.0332 53.257 14.154 52.938 14.3955C52.619 14.6325 52.3775 14.9583 52.2134 15.373C52.0539 15.7878 51.9741 16.2572 51.9741 16.7812C51.9741 17.319 52.0539 17.8021 52.2134 18.2305C52.3775 18.6543 52.619 18.9893 52.938 19.2354C53.2616 19.4769 53.6512 19.5977 54.107 19.5977ZM61.5488 20.6504C60.8424 20.6504 60.2272 20.4932 59.7031 20.1787C59.179 19.8643 58.7757 19.4199 58.4932 18.8457C58.2152 18.2715 58.0762 17.6061 58.0762 16.8496C58.0762 16.0931 58.2152 15.4232 58.4932 14.8398C58.7757 14.252 59.1699 13.7962 59.6758 13.4727C60.1862 13.1445 60.7741 12.9805 61.4395 12.9805C62 12.9805 62.5218 13.1058 63.0049 13.3564C63.488 13.6025 63.8799 14.0036 64.1807 14.5596C64.486 15.111 64.6387 15.8197 64.6387 16.6855V17.1777H59.252C59.2702 17.6927 59.3773 18.1325 59.5732 18.4971C59.7692 18.8617 60.0358 19.1396 60.373 19.3311C60.7148 19.5179 61.1068 19.6113 61.5488 19.6113C61.9681 19.6113 62.3213 19.5339 62.6084 19.3789C62.9001 19.2194 63.1211 19.0143 63.2715 18.7637H64.5293C64.4108 19.1374 64.2126 19.4678 63.9346 19.7549C63.6611 20.0374 63.3193 20.2585 62.9092 20.418C62.5036 20.5729 62.0501 20.6504 61.5488 20.6504ZM63.4492 16.1797C63.4492 15.765 63.3649 15.3958 63.1963 15.0723C63.0322 14.7441 62.7975 14.4867 62.4922 14.2998C62.1868 14.113 61.8359 14.0195 61.4395 14.0195C61.0247 14.0195 60.6556 14.1175 60.332 14.3135C60.013 14.5094 59.7601 14.7738 59.5732 15.1064C59.391 15.4346 59.2861 15.7923 59.2588 16.1797H63.4492ZM66.0239 20.582C65.8644 20.582 65.7163 20.5433 65.5796 20.4658C65.4474 20.3838 65.3403 20.2744 65.2583 20.1377C65.1808 20.001 65.1443 19.8529 65.1489 19.6934C65.1443 19.5384 65.1808 19.3949 65.2583 19.2627C65.3403 19.126 65.4474 19.0189 65.5796 18.9414C65.7163 18.8594 65.8644 18.8184 66.0239 18.8184C66.1789 18.8184 66.3224 18.8594 66.4546 18.9414C66.5913 19.0189 66.6984 19.126 66.7759 19.2627C66.8579 19.3949 66.8989 19.5384 66.8989 19.6934C66.8989 19.8529 66.8579 20.001 66.7759 20.1377C66.6984 20.2744 66.5913 20.3838 66.4546 20.4658C66.3224 20.5433 66.1789 20.582 66.0239 20.582ZM68.9404 13.0762V21.0332C68.9404 21.7441 68.7581 22.2979 68.3935 22.6943C68.0289 23.0908 67.4912 23.2891 66.7802 23.2891H66.5341V22.1953H66.7666C67.1038 22.1953 67.3545 22.0951 67.5185 21.8945C67.6826 21.6986 67.7646 21.4115 67.7646 21.0332V13.0762H68.9404ZM68.3388 11.8457C68.111 11.8457 67.9173 11.7705 67.7578 11.6201C67.5983 11.4697 67.5185 11.2852 67.5185 11.0664C67.5185 10.8477 67.5983 10.6631 67.7578 10.5127C67.9173 10.3623 68.111 10.2871 68.3388 10.2871C68.5667 10.2871 68.7627 10.3623 68.9267 10.5127C69.0908 10.6631 69.1728 10.8477 69.1728 11.0664C69.1728 11.2852 69.0908 11.4697 68.9267 11.6201C68.7627 11.7705 68.5667 11.8457 68.3388 11.8457ZM73.9623 15.0039C73.8758 14.6803 73.7071 14.4297 73.4565 14.252C73.2104 14.0697 72.8777 13.9785 72.4584 13.9785C72.1577 13.9785 71.8865 14.0286 71.645 14.1289C71.408 14.2246 71.2211 14.359 71.0844 14.5322C70.9523 14.7008 70.8862 14.89 70.8862 15.0996C70.8862 15.3457 70.9887 15.5553 71.1938 15.7285C71.4034 15.9017 71.7247 16.0384 72.1577 16.1387L73.2651 16.4121C73.9304 16.5716 74.4272 16.8177 74.7553 17.1504C75.0834 17.4785 75.2475 17.9023 75.2475 18.4219C75.2475 18.8548 75.1313 19.2399 74.8989 19.5771C74.671 19.9098 74.3383 20.1719 73.9008 20.3633C73.4633 20.5547 72.9415 20.6504 72.3354 20.6504C71.5014 20.6504 70.8406 20.4727 70.353 20.1172C69.8653 19.7572 69.5737 19.2376 69.478 18.5586H70.7084C70.7768 18.9186 70.9431 19.1875 71.2075 19.3652C71.4718 19.5384 71.8386 19.625 72.308 19.625C72.8367 19.625 73.256 19.5225 73.5659 19.3174C73.8758 19.1123 74.0307 18.8366 74.0307 18.4902C74.0307 18.2259 73.9327 18.0072 73.7368 17.834C73.5408 17.6562 73.2332 17.5195 72.8139 17.4238L71.6928 17.1641C71.0457 17.0137 70.5535 16.7676 70.2162 16.4258C69.879 16.084 69.7104 15.6647 69.7104 15.168C69.7104 14.7487 69.8243 14.3727 70.0522 14.04C70.2846 13.7074 70.6082 13.4476 71.0229 13.2607C71.4422 13.0739 71.9207 12.9805 72.4584 12.9805C72.9597 12.9805 73.4018 13.0648 73.7846 13.2334C74.1674 13.402 74.4705 13.639 74.6938 13.9443C74.9217 14.2497 75.0606 14.6029 75.1108 15.0039H73.9623Z" fill="#868686"/>
</svg>
