<svg width="92" height="32" viewBox="0 0 92 32" fill="none" xmlns="http://www.w3.org/2000/svg">
<rect width="92" height="32" rx="16" fill="#8784FF"/>
<circle cx="16" cy="16" r="12" fill="#F6F6F6"/>
<path d="M17.0615 12.4904C17.9541 12.4358 18.9097 12.458 19.713 12.8757C20.3349 13.1957 20.6797 13.8674 20.6906 14.5236C20.6733 14.6122 20.5758 14.661 20.4869 14.6549C20.2279 14.6546 19.9688 14.6583 19.7099 14.6532C19.6 14.6573 19.5361 14.561 19.5223 14.4688C19.4479 14.1548 19.2676 13.8439 18.9565 13.6924C18.4788 13.4653 17.925 13.4767 17.4042 13.4814C17.0239 13.5006 16.6151 13.5319 16.2929 13.7443C16.0456 13.9051 15.9705 14.2298 16.0588 14.4914C16.142 14.6792 16.3702 14.7397 16.557 14.7956C17.6327 15.0628 18.7726 15.0362 19.8278 15.3879C20.2647 15.5312 20.692 15.8099 20.8416 16.2443C21.0372 16.8266 20.9514 17.5225 20.5153 17.99C20.1616 18.3746 19.6464 18.584 19.1326 18.6977C18.4491 18.8424 17.7397 18.8461 17.0456 18.7818C16.3929 18.7112 15.7136 18.5483 15.2097 18.1259C14.7789 17.7706 14.5684 17.2169 14.5893 16.6826C14.5943 16.5923 14.6889 16.5294 14.7799 16.5368C15.0407 16.5348 15.3015 16.5341 15.5623 16.5371C15.6665 16.5301 15.7437 16.6156 15.7491 16.7088C15.7972 17.008 15.9156 17.3219 16.1902 17.4993C16.7203 17.8241 17.3854 17.8018 17.9923 17.8109C18.4952 17.7898 19.0596 17.7833 19.4699 17.4677C19.6864 17.2877 19.7506 16.9864 19.6921 16.7273C19.6287 16.5085 19.3877 16.4066 19.1808 16.3399C18.1189 16.0209 16.9662 16.1367 15.9145 15.7759C15.4876 15.6326 15.0747 15.3616 14.9107 14.945C14.6818 14.3554 14.7867 13.6261 15.2685 13.1745C15.7384 12.7252 16.4166 12.5522 17.0615 12.4903V12.4904Z" fill="#8CC84B"/>
<path d="M15.3633 8.40005C15.749 8.17965 16.2515 8.17865 16.6369 8.40005C18.5759 9.49372 20.5155 10.5857 22.4542 11.68C22.8188 11.885 23.0627 12.2901 23.059 12.7095V19.2895C23.0617 19.7262 22.7937 20.141 22.409 20.3414C20.4764 21.429 18.5447 22.518 16.6124 23.6056C16.2187 23.8304 15.7062 23.813 15.3248 23.5699C14.7453 23.2346 14.1649 22.901 13.5855 22.5661C13.4671 22.4956 13.3336 22.4395 13.25 22.3249C13.3239 22.2255 13.4561 22.2131 13.5634 22.1697C13.8053 22.0929 14.0274 21.9697 14.2496 21.8501C14.3058 21.8117 14.3744 21.8264 14.4282 21.8608C14.9237 22.1443 15.4148 22.4361 15.9119 22.717C16.018 22.7781 16.1253 22.697 16.216 22.6465C18.1125 21.5766 20.0113 20.5107 21.9075 19.4404C21.9778 19.4067 22.0166 19.3322 22.0109 19.2554C22.0122 17.0848 22.0112 14.9138 22.0116 12.7433C22.0196 12.6561 21.9691 12.576 21.8901 12.5403C19.9642 11.4576 18.0393 10.3733 16.1137 9.29035C16.0803 9.26746 16.0408 9.25517 16.0003 9.25512C15.9598 9.25506 15.9202 9.26722 15.8868 9.29002C13.9612 10.3733 12.0366 11.4586 10.111 12.5412C10.0323 12.577 9.97953 12.6558 9.98889 12.7433C9.98922 14.9138 9.98889 17.0848 9.98889 19.2557C9.98555 19.2932 9.9938 19.3308 10.0125 19.3635C10.0312 19.3961 10.0595 19.4223 10.0936 19.4384C10.6075 19.7293 11.122 20.0181 11.6362 20.308C11.9258 20.4636 12.2815 20.5561 12.6007 20.4369C12.8823 20.336 13.0797 20.0491 13.0743 19.7506C13.077 17.5927 13.073 15.4345 13.0763 13.2769C13.0693 13.1811 13.1603 13.1019 13.2536 13.111C13.5005 13.1093 13.7478 13.1076 13.9947 13.1116C14.0977 13.1093 14.1687 13.2124 14.1559 13.309C14.1549 15.4805 14.1586 17.6522 14.1543 19.8238C14.1549 20.4025 13.9167 21.0322 13.3804 21.3154C12.7197 21.6571 11.9031 21.5846 11.2504 21.257C10.6854 20.9755 10.1461 20.6433 9.59111 20.3417C9.20542 20.1424 8.93874 19.726 8.94145 19.2895V12.7095C8.93741 12.2814 9.19101 11.869 9.56701 11.667C11.4993 10.5784 13.4313 9.48908 15.3633 8.40005Z" fill="#8CC84B"/>
<path d="M43.4429 20.5H41.857L37.1675 13.7324H37.0855V20.5H35.3082V10.6016H36.9214L41.5836 17.3691H41.6793V10.6016H43.4429V20.5ZM47.4532 20.6504C46.7422 20.6504 46.1179 20.4909 45.5801 20.1719C45.0424 19.8529 44.6276 19.4062 44.336 18.832C44.0443 18.2533 43.8985 17.5833 43.8985 16.8223C43.8985 16.0566 44.0443 15.3844 44.336 14.8057C44.6276 14.2269 45.0424 13.778 45.5801 13.459C46.1179 13.14 46.7422 12.9805 47.4532 12.9805C48.1687 12.9805 48.7953 13.14 49.333 13.459C49.8708 13.778 50.2832 14.2269 50.5704 14.8057C50.862 15.3844 51.0079 16.0566 51.0079 16.8223C51.0079 17.5833 50.862 18.2533 50.5704 18.832C50.2787 19.4108 49.864 19.8597 49.3262 20.1787C48.793 20.4932 48.1687 20.6504 47.4532 20.6504ZM47.4668 19.2559C47.8496 19.2559 48.1732 19.1488 48.4375 18.9346C48.7064 18.7204 48.9069 18.4287 49.0391 18.0596C49.1758 17.6904 49.2442 17.2734 49.2442 16.8086C49.2442 16.3483 49.1758 15.9336 49.0391 15.5645C48.9069 15.1908 48.7064 14.8968 48.4375 14.6826C48.1732 14.4684 47.8496 14.3613 47.4668 14.3613C47.0749 14.3613 46.7422 14.4684 46.4688 14.6826C46.1999 14.8968 45.9971 15.1885 45.8604 15.5576C45.7282 15.9268 45.6621 16.3438 45.6621 16.8086C45.6621 17.2734 45.7282 17.6904 45.8604 18.0596C45.9971 18.4287 46.1999 18.7204 46.4688 18.9346C46.7422 19.1488 47.0749 19.2559 47.4668 19.2559ZM54.1431 20.6367C53.5552 20.6367 53.0288 20.4863 52.564 20.1855C52.1037 19.8802 51.7414 19.4382 51.4771 18.8594C51.2127 18.2806 51.0806 17.5924 51.0806 16.7949C51.0806 15.9928 51.215 15.3047 51.4839 14.7305C51.7528 14.1562 52.1196 13.721 52.5845 13.4248C53.0493 13.1286 53.5734 12.9805 54.1568 12.9805C55.1411 12.9805 55.8475 13.418 56.2759 14.293H56.3443V10.6016H58.0806V20.5H56.3716V19.3242H56.2759C55.8384 20.1992 55.1275 20.6367 54.1431 20.6367ZM54.6216 19.2012C54.9907 19.2012 55.3075 19.1009 55.5718 18.9004C55.8361 18.6999 56.0366 18.4173 56.1734 18.0527C56.3146 17.6882 56.3853 17.2643 56.3853 16.7812C56.3853 16.3027 56.3169 15.8857 56.1802 15.5303C56.0435 15.1702 55.843 14.8923 55.5786 14.6963C55.3143 14.5003 54.9953 14.4023 54.6216 14.4023C54.2433 14.4023 53.9221 14.5026 53.6577 14.7031C53.3934 14.9036 53.1929 15.1839 53.0562 15.5439C52.924 15.904 52.8579 16.3164 52.8579 16.7812C52.8579 17.2552 52.9263 17.6745 53.063 18.0391C53.1997 18.4036 53.4002 18.6885 53.6646 18.8936C53.9289 19.0986 54.2479 19.2012 54.6216 19.2012ZM62.1592 20.6504C61.4209 20.6504 60.7783 20.4954 60.2314 20.1855C59.6891 19.8711 59.2721 19.4268 58.9805 18.8525C58.6934 18.2783 58.5498 17.6061 58.5498 16.8359C58.5498 16.0749 58.6956 15.4049 58.9873 14.8262C59.279 14.2428 59.6891 13.7894 60.2178 13.4658C60.751 13.1423 61.3662 12.9805 62.0635 12.9805C62.6924 12.9805 63.262 13.1149 63.7725 13.3838C64.2874 13.6527 64.6953 14.0697 64.9961 14.6348C65.3014 15.1953 65.4541 15.8926 65.4541 16.7266V17.2734H60.2725C60.277 17.6882 60.359 18.0482 60.5186 18.3535C60.6781 18.6543 60.8991 18.8844 61.1816 19.0439C61.4642 19.2035 61.7946 19.2832 62.1729 19.2832C62.542 19.2832 62.8564 19.2126 63.1162 19.0713C63.376 18.93 63.5628 18.7454 63.6768 18.5176H65.3857C65.2809 18.946 65.0827 19.3219 64.791 19.6455C64.4993 19.9645 64.1279 20.2129 63.6768 20.3906C63.2301 20.5638 62.7243 20.6504 62.1592 20.6504ZM63.7861 16.084C63.7816 15.7467 63.7087 15.446 63.5674 15.1816C63.4261 14.9173 63.2279 14.71 62.9727 14.5596C62.7174 14.4092 62.4235 14.334 62.0908 14.334C61.749 14.334 61.4437 14.4137 61.1748 14.5732C60.9105 14.7282 60.7008 14.9401 60.5459 15.209C60.391 15.4733 60.3021 15.765 60.2793 16.084H63.7861ZM66.9077 20.6094C66.7163 20.6094 66.5386 20.5615 66.3745 20.4658C66.2104 20.3701 66.0805 20.2402 65.9848 20.0762C65.8891 19.9121 65.8413 19.7344 65.8413 19.543C65.8413 19.3561 65.8891 19.1829 65.9848 19.0234C66.0805 18.8594 66.2104 18.7295 66.3745 18.6338C66.5386 18.5381 66.7163 18.4902 66.9077 18.4902C67.09 18.4902 67.2609 18.5381 67.4204 18.6338C67.5845 18.7295 67.7143 18.8594 67.81 19.0234C67.9103 19.1829 67.9604 19.3561 67.9604 19.543C67.9604 19.7344 67.9103 19.9121 67.81 20.0762C67.7143 20.2402 67.5845 20.3701 67.4204 20.4658C67.2609 20.5615 67.09 20.6094 66.9077 20.6094ZM70.4121 13.0762V20.9238C70.4121 21.7122 70.1888 22.3024 69.7421 22.6943C69.3001 23.0908 68.6621 23.2891 67.8281 23.2891C67.6823 23.2891 67.5638 23.2845 67.4726 23.2754V21.8535C67.5364 21.8626 67.623 21.8672 67.7324 21.8672C68.0605 21.8672 68.2975 21.7874 68.4433 21.6279C68.5892 21.4684 68.6621 21.2292 68.6621 20.9102V13.0762H70.4121ZM69.5371 12.0234C69.3593 12.0234 69.1907 11.9824 69.0312 11.9004C68.8763 11.8138 68.7532 11.6976 68.6621 11.5518C68.5709 11.4014 68.5254 11.2396 68.5254 11.0664C68.5254 10.8978 68.5709 10.7406 68.6621 10.5947C68.7532 10.4489 68.8763 10.335 69.0312 10.2529C69.1907 10.1663 69.3593 10.123 69.5371 10.123C69.7194 10.123 69.888 10.1663 70.0429 10.2529C70.1979 10.335 70.3209 10.4489 70.4121 10.5947C70.5032 10.7406 70.5488 10.8978 70.5488 11.0664C70.5488 11.2396 70.5032 11.4014 70.4121 11.5518C70.3209 11.6976 70.1979 11.8138 70.0429 11.9004C69.888 11.9824 69.7194 12.0234 69.5371 12.0234ZM75.311 15.1953C75.2563 14.9128 75.115 14.6895 74.8871 14.5254C74.6593 14.3613 74.3631 14.2793 73.9985 14.2793C73.7524 14.2793 73.5291 14.318 73.3286 14.3955C73.1326 14.4684 72.9799 14.5732 72.8705 14.71C72.7612 14.8421 72.7088 14.9902 72.7133 15.1543C72.6996 15.5508 73.0506 15.8333 73.7661 16.002L75.0239 16.2617C75.7302 16.4212 76.2543 16.665 76.5961 16.9932C76.9379 17.3213 77.1111 17.752 77.1157 18.2852C77.1111 18.75 76.9789 19.1624 76.7192 19.5225C76.4594 19.8779 76.0903 20.1559 75.6118 20.3564C75.1378 20.5524 74.5818 20.6504 73.9438 20.6504C73.0095 20.6504 72.2667 20.4521 71.7153 20.0557C71.1684 19.6546 70.8494 19.0964 70.7582 18.3809H72.5356C72.5903 18.6953 72.7361 18.9323 72.9731 19.0918C73.2146 19.2467 73.5382 19.3242 73.9438 19.3242C74.3631 19.3242 74.7003 19.2445 74.9555 19.085C75.2107 18.9255 75.3383 18.709 75.3383 18.4355C75.3383 18.2214 75.2495 18.0459 75.0717 17.9092C74.8985 17.7679 74.6274 17.6562 74.2582 17.5742L73.0688 17.3145C72.3806 17.1777 71.8588 16.9339 71.5034 16.583C71.1524 16.2321 70.977 15.7878 70.977 15.25C70.977 14.7988 71.1 14.4023 71.3461 14.0605C71.5922 13.7142 71.9409 13.4476 72.392 13.2607C72.8432 13.0739 73.3696 12.9805 73.9711 12.9805C74.5545 12.9805 75.0626 13.0716 75.4955 13.2539C75.933 13.4316 76.2771 13.6868 76.5278 14.0195C76.7784 14.3522 76.9243 14.7441 76.9653 15.1953H75.311Z" fill="white"/>
</svg>
