<svg width="24" height="25" viewBox="0 0 24 25" fill="none" xmlns="http://www.w3.org/2000/svg">
<path d="M9.40594 17H6.75C5.55653 17 4.41193 16.5259 3.56802 15.682C2.72411 14.8381 2.25 13.6935 2.25 12.5C2.25 11.3065 2.72411 10.1619 3.56802 9.31802C4.41193 8.47411 5.55653 8 6.75 8H9.34734" stroke="black" stroke-width="2.19375" stroke-linecap="round" stroke-linejoin="round"/>
<path d="M14.6523 8H17.2497C18.4432 8 19.5878 8.47411 20.4317 9.31802C21.2756 10.1619 21.7497 11.3065 21.7497 12.5C21.7497 13.6935 21.2756 14.8381 20.4317 15.682C19.5878 16.5259 18.4432 17 17.2497 17H14.5938" stroke="black" stroke-width="2.19375" stroke-linecap="round" stroke-linejoin="round"/>
<path d="M7.92578 12.5H16.1692" stroke="black" stroke-width="2.19375" stroke-linecap="round" stroke-linejoin="round"/>
</svg>
