<svg width="36" height="36" viewBox="0 0 36 36" fill="none" xmlns="http://www.w3.org/2000/svg">
<circle cx="18" cy="18" r="18" fill="white"/>
<path d="M24.875 11.75H21.125V10.8125C21.125 10.3981 20.9604 10.0007 20.6674 9.70765C20.3743 9.41462 19.9769 9.25 19.5625 9.25H16.4375C16.0231 9.25 15.6257 9.41462 15.3326 9.70765C15.0396 10.0007 14.875 10.3981 14.875 10.8125V11.75H11.125C10.9592 11.75 10.8003 11.8158 10.6831 11.9331C10.5658 12.0503 10.5 12.2092 10.5 12.375C10.5 12.5408 10.5658 12.6997 10.6831 12.8169C10.8003 12.9342 10.9592 13 11.125 13H11.7891L12.5312 24.9109C12.5867 25.9598 13.3906 26.75 14.4062 26.75H21.5938C22.6145 26.75 23.4023 25.9773 23.4688 24.9141L24.2109 13H24.875C25.0408 13 25.1997 12.9342 25.3169 12.8169C25.4342 12.6997 25.5 12.5408 25.5 12.375C25.5 12.2092 25.4342 12.0503 25.3169 11.9331C25.1997 11.8158 25.0408 11.75 24.875 11.75ZM15.5223 24.25H15.5C15.338 24.2501 15.1823 24.1873 15.0657 24.0749C14.9492 23.9624 14.8808 23.8091 14.875 23.6473L14.5625 14.8973C14.5566 14.7315 14.6168 14.5702 14.7298 14.4488C14.8428 14.3274 14.9995 14.2559 15.1652 14.25C15.331 14.2441 15.4923 14.3043 15.6137 14.4173C15.7351 14.5303 15.8066 14.687 15.8125 14.8527L16.125 23.6027C16.128 23.6848 16.1147 23.7667 16.0861 23.8437C16.0574 23.9206 16.0138 23.9912 15.9578 24.0513C15.9018 24.1114 15.8345 24.1599 15.7598 24.194C15.6851 24.2281 15.6044 24.2471 15.5223 24.25ZM18.625 23.625C18.625 23.7908 18.5592 23.9497 18.4419 24.0669C18.3247 24.1842 18.1658 24.25 18 24.25C17.8342 24.25 17.6753 24.1842 17.5581 24.0669C17.4408 23.9497 17.375 23.7908 17.375 23.625V14.875C17.375 14.7092 17.4408 14.5503 17.5581 14.4331C17.6753 14.3158 17.8342 14.25 18 14.25C18.1658 14.25 18.3247 14.3158 18.4419 14.4331C18.5592 14.5503 18.625 14.7092 18.625 14.875V23.625ZM19.875 11.75H16.125V10.8125C16.1245 10.7713 16.1323 10.7305 16.1478 10.6924C16.1634 10.6542 16.1864 10.6196 16.2155 10.5905C16.2446 10.5614 16.2792 10.5384 16.3174 10.5228C16.3555 10.5073 16.3963 10.4995 16.4375 10.5H19.5625C19.6037 10.4995 19.6445 10.5073 19.6826 10.5228C19.7208 10.5384 19.7554 10.5614 19.7845 10.5905C19.8136 10.6196 19.8366 10.6542 19.8522 10.6924C19.8677 10.7305 19.8755 10.7713 19.875 10.8125V11.75ZM21.125 23.6473C21.1192 23.8091 21.0508 23.9624 20.9343 24.0749C20.8177 24.1873 20.662 24.2501 20.5 24.25H20.4773C20.3953 24.2471 20.3146 24.228 20.2399 24.1939C20.1652 24.1598 20.098 24.1113 20.0421 24.0512C19.9861 23.9911 19.9426 23.9205 19.9139 23.8436C19.8852 23.7666 19.872 23.6848 19.875 23.6027L20.1875 14.8527C20.1904 14.7707 20.2095 14.69 20.2436 14.6153C20.2777 14.5405 20.3262 14.4733 20.3863 14.4173C20.4464 14.3613 20.5169 14.3178 20.5939 14.2891C20.6708 14.2603 20.7527 14.2471 20.8348 14.25C20.9168 14.2529 20.9975 14.272 21.0722 14.3061C21.147 14.3402 21.2142 14.3887 21.2702 14.4488C21.3262 14.5089 21.3697 14.5794 21.3984 14.6564C21.4272 14.7333 21.4404 14.8152 21.4375 14.8973L21.125 23.6473Z" fill="#373C6B"/>
</svg>
