<svg width="112" height="32" viewBox="0 0 112 32" fill="none" xmlns="http://www.w3.org/2000/svg">
<rect x="0.5" y="0.5" width="111" height="31" rx="15.5" stroke="#D1D1D1"/>
<circle cx="16" cy="16" r="12" fill="#F6F6F6"/>
<path d="M21.7607 9.80536C21.5594 10.2948 21.299 10.7287 21.0109 11.1175C19.7404 9.82271 17.9631 9 16.0017 9C12.1485 9 9 12.1312 9 15.9983C9 18.0186 9.86437 19.8376 11.2356 21.122L11.4959 21.3546C12.7074 22.3786 14.2834 23 15.9983 23C19.6779 23 22.7084 20.1292 22.9688 16.5051C23.177 14.7451 22.6424 12.4922 21.7607 9.80536ZM12.2492 21.181C12.0479 21.4414 11.6729 21.4691 11.4126 21.2678C11.1522 21.0665 11.1245 20.6915 11.3258 20.4312C11.5272 20.1708 11.9021 20.1431 12.1624 20.3444C12.4089 20.5457 12.4505 20.9207 12.2492 21.181ZM21.7191 19.0878C20.0007 21.3823 16.3072 20.6048 13.9536 20.7193C13.9536 20.7193 13.5336 20.7471 13.117 20.8061C13.117 20.8061 13.2767 20.7332 13.4781 20.6603C15.1374 20.0841 15.9184 19.966 16.9286 19.4488C18.8205 18.4803 20.7089 16.3593 21.0873 14.1654C20.3652 16.2725 18.1713 18.0915 16.1788 18.8274C14.8076 19.3342 12.3394 19.8237 12.3394 19.8237L12.2388 19.7647C10.5656 18.942 10.5066 15.304 13.5683 14.1341C14.9117 13.6134 16.1822 13.9016 17.6402 13.5579C19.185 13.1969 20.9762 12.0409 21.6948 10.5274C22.4967 12.9678 23.479 16.7481 21.7191 19.0878Z" fill="#6CB52D"/>
<path d="M12.2452 21.1838C12.0439 21.4442 11.669 21.472 11.4086 21.2706C11.1483 21.0693 11.1205 20.6944 11.3219 20.434C11.5232 20.1737 11.8981 20.1459 12.1585 20.3473C12.4049 20.5486 12.4466 20.9235 12.2452 21.1838Z" fill="#6CB52D"/>
<path d="M40.7535 13.0898C40.7171 12.7708 40.6008 12.4974 40.4049 12.2695C40.2135 12.0371 39.9583 11.8617 39.6393 11.7432C39.3202 11.6201 38.9625 11.5586 38.566 11.5586C38.1376 11.5586 37.7571 11.6292 37.4244 11.7705C37.0963 11.9072 36.8411 12.0986 36.6588 12.3447C36.4811 12.5908 36.3922 12.8711 36.3922 13.1855C36.3922 13.6413 36.5768 13.9899 36.9459 14.2314C37.3196 14.473 37.773 14.6621 38.3062 14.7988L39.2906 15.0723C40.0562 15.2682 40.7148 15.5713 41.2662 15.9814C41.8176 16.387 42.0934 16.9954 42.0934 17.8066C42.0934 18.349 41.9498 18.8389 41.6627 19.2764C41.3801 19.7093 40.9677 20.0511 40.4254 20.3018C39.8876 20.5524 39.2451 20.6777 38.4977 20.6777C37.7958 20.6777 37.1829 20.5638 36.6588 20.3359C36.1347 20.1081 35.7245 19.7868 35.4283 19.3721C35.1321 18.9574 34.9658 18.4766 34.9293 17.9297H36.1871C36.2236 18.2852 36.3489 18.5859 36.5631 18.832C36.7773 19.0736 37.0507 19.2559 37.3834 19.3789C37.7206 19.4974 38.0921 19.5566 38.4977 19.5566C38.9534 19.5566 39.3613 19.4837 39.7213 19.3379C40.0859 19.1921 40.3707 18.9847 40.5758 18.7158C40.7854 18.4424 40.8902 18.1302 40.8902 17.7793C40.8902 17.4785 40.8036 17.2256 40.6305 17.0205C40.4618 16.8154 40.2385 16.6491 39.9605 16.5215C39.6871 16.3939 39.3453 16.2708 38.9352 16.1523L37.7184 15.8242C36.9072 15.5872 36.2851 15.2591 35.8521 14.8398C35.4192 14.4206 35.2027 13.8874 35.2027 13.2402C35.2027 12.6979 35.3508 12.2171 35.6471 11.7979C35.9479 11.374 36.3557 11.0459 36.8707 10.8135C37.3902 10.5811 37.969 10.4648 38.607 10.4648C39.2359 10.4648 39.801 10.5788 40.3023 10.8066C40.8036 11.0345 41.2001 11.349 41.4918 11.75C41.7835 12.1465 41.9384 12.5931 41.9566 13.0898H40.7535ZM42.7266 13.0762H43.8614V14.252H43.9981C44.144 14.015 44.2852 13.8167 44.422 13.6572C44.5587 13.4932 44.7706 13.3405 45.0577 13.1992C45.3448 13.0534 45.7071 12.9805 46.1446 12.9805C46.7644 12.9805 47.3113 13.1377 47.7852 13.4521C48.2637 13.762 48.6352 14.2064 48.8995 14.7852C49.1684 15.3639 49.3028 16.0384 49.3028 16.8086C49.3028 17.5788 49.1684 18.2555 48.8995 18.8389C48.6352 19.4176 48.2637 19.8643 47.7852 20.1787C47.3113 20.4932 46.769 20.6504 46.1583 20.6504C45.7253 20.6504 45.363 20.5798 45.0714 20.4385C44.7843 20.2926 44.5678 20.1354 44.422 19.9668C44.2761 19.7936 44.1348 19.5931 43.9981 19.3652H43.9024V23.2891H42.7266V13.0762ZM43.8751 16.7812C43.8751 17.3418 43.9571 17.834 44.1212 18.2578C44.2852 18.6816 44.5268 19.012 44.8458 19.249C45.1648 19.4814 45.5476 19.5977 45.9942 19.5977C46.4499 19.5977 46.8373 19.4769 47.1563 19.2354C47.4799 18.9893 47.7214 18.6543 47.8809 18.2305C48.045 17.8021 48.127 17.319 48.127 16.7812C48.127 16.2572 48.045 15.7878 47.8809 15.373C47.7214 14.9583 47.4822 14.6325 47.1632 14.3955C46.8442 14.154 46.4545 14.0332 45.9942 14.0332C45.5385 14.0332 45.1511 14.1471 44.8321 14.375C44.5177 14.6029 44.2784 14.9242 44.1143 15.3389C43.9548 15.749 43.8751 16.2298 43.8751 16.7812ZM49.8541 13.0762H50.9888V14.2109H51.0709C51.2076 13.8327 51.4514 13.5296 51.8023 13.3018C52.1532 13.0693 52.5474 12.9531 52.9849 12.9531C53.2128 12.9531 53.4179 12.9622 53.6002 12.9805V14.1699C53.55 14.1517 53.452 14.1335 53.3062 14.1152C53.1649 14.097 53.0259 14.0879 52.8892 14.0879C52.5383 14.0879 52.2216 14.1631 51.939 14.3135C51.6565 14.4639 51.4332 14.6712 51.2691 14.9355C51.1096 15.1999 51.0298 15.4961 51.0298 15.8242V20.5H49.8541V13.0762ZM53.7686 13.0762H54.9444V20.5H53.7686V13.0762ZM54.3565 11.8457C54.1286 11.8457 53.9349 11.7705 53.7754 11.6201C53.6159 11.4697 53.5362 11.2852 53.5362 11.0664C53.5362 10.8477 53.6159 10.6631 53.7754 10.5127C53.9349 10.3623 54.1286 10.2871 54.3565 10.2871C54.5843 10.2871 54.7803 10.3623 54.9444 10.5127C55.1084 10.6631 55.1905 10.8477 55.1905 11.0664C55.1905 11.2852 55.1084 11.4697 54.9444 11.6201C54.7803 11.7705 54.5843 11.8457 54.3565 11.8457ZM57.0132 20.5H55.8374V13.0762H56.9722V14.2383H57.0679C57.2547 13.8418 57.5259 13.5342 57.8814 13.3154C58.2414 13.0921 58.6948 12.9805 59.2417 12.9805C59.7521 12.9805 60.1942 13.0853 60.5679 13.2949C60.9416 13.5 61.231 13.8122 61.4361 14.2314C61.6411 14.6507 61.7437 15.168 61.7437 15.7832V20.5H60.5679V15.8652C60.5679 15.291 60.4198 14.8421 60.1236 14.5186C59.8273 14.195 59.4149 14.0332 58.8862 14.0332C58.5217 14.0332 58.1981 14.113 57.9155 14.2725C57.633 14.4274 57.412 14.6576 57.2525 14.9629C57.093 15.2637 57.0132 15.6237 57.0132 16.043V20.5ZM65.6582 23.4395C65.0612 23.4395 64.5326 23.3551 64.0723 23.1865C63.6165 23.0179 63.2542 22.7718 62.9854 22.4482C62.7165 22.1247 62.5592 21.735 62.5137 21.2793H63.7441C63.8262 21.653 64.0312 21.9355 64.3594 22.127C64.6921 22.3184 65.125 22.4141 65.6582 22.4141C66.3145 22.4141 66.8203 22.2682 67.1758 21.9766C67.5312 21.6849 67.709 21.2383 67.709 20.6367V19.1328H67.6133C67.4811 19.3561 67.3421 19.5521 67.1963 19.7207C67.0505 19.8893 66.8317 20.0443 66.54 20.1855C66.2529 20.3223 65.8906 20.3906 65.4531 20.3906C64.847 20.3906 64.3047 20.2425 63.8262 19.9463C63.3477 19.6501 62.9717 19.224 62.6982 18.668C62.4294 18.1074 62.2949 17.4466 62.2949 16.6855C62.2949 15.9382 62.4294 15.2842 62.6982 14.7236C62.9671 14.1631 63.3408 13.7324 63.8193 13.4316C64.2979 13.1309 64.847 12.9805 65.4668 12.9805C65.8997 12.9805 66.2598 13.0511 66.5469 13.1924C66.8385 13.3337 67.0459 13.4795 67.1689 13.6299C67.2965 13.7757 67.4538 13.9831 67.6406 14.252H67.7363V13.0762H68.8848V20.7051C68.8848 21.3203 68.7435 21.8307 68.4609 22.2363C68.1829 22.6465 67.8024 22.9495 67.3193 23.1455C66.8363 23.3415 66.2826 23.4395 65.6582 23.4395ZM65.6172 19.3379C66.2917 19.3379 66.8135 19.11 67.1826 18.6543C67.5518 18.194 67.7363 17.5514 67.7363 16.7266C67.7363 16.1934 67.6543 15.724 67.4902 15.3184C67.3262 14.9128 67.0846 14.5983 66.7656 14.375C66.4512 14.1471 66.0684 14.0332 65.6172 14.0332C65.1569 14.0332 64.7673 14.1517 64.4482 14.3887C64.1292 14.6257 63.8877 14.9492 63.7236 15.3594C63.5641 15.765 63.4844 16.2207 63.4844 16.7266C63.4844 17.2461 63.5641 17.7018 63.7236 18.0938C63.8877 18.4857 64.1292 18.791 64.4482 19.0098C64.7673 19.2285 65.1569 19.3379 65.6172 19.3379ZM72.4619 10.6016H75.9345C76.6045 10.6016 77.1673 10.7155 77.623 10.9434C78.0787 11.1712 78.4183 11.4834 78.6416 11.8799C78.8694 12.2764 78.9834 12.7253 78.9834 13.2266C78.9834 13.819 78.8352 14.2816 78.539 14.6143C78.2428 14.9424 77.8532 15.1725 77.3701 15.3047V15.4004C77.6891 15.4186 78.0035 15.528 78.3134 15.7285C78.6233 15.929 78.8785 16.2139 79.0791 16.583C79.2796 16.9476 79.3798 17.3783 79.3798 17.875C79.3798 18.39 79.2614 18.8434 79.0244 19.2354C78.792 19.6273 78.4274 19.9372 77.9306 20.165C77.4339 20.3883 76.8095 20.5 76.0576 20.5H72.4619V10.6016ZM76.0439 19.4062C76.7776 19.4062 77.3177 19.265 77.664 18.9824C78.0149 18.6999 78.1904 18.3262 78.1904 17.8613C78.1904 17.5241 78.1038 17.2142 77.9306 16.9316C77.762 16.6445 77.5182 16.4189 77.1992 16.2549C76.8847 16.0863 76.5224 16.002 76.1123 16.002H73.6923V19.4062H76.0439ZM75.8935 14.9355C76.249 14.9355 76.5726 14.8672 76.8642 14.7305C77.1559 14.5892 77.386 14.391 77.5546 14.1357C77.7233 13.876 77.8076 13.5775 77.8076 13.2402C77.8076 12.7845 77.6504 12.4131 77.3359 12.126C77.0214 11.8389 76.5543 11.6953 75.9345 11.6953H73.6923V14.9355H75.8935ZM83.0346 20.6504C82.3647 20.6504 81.7722 20.4932 81.2573 20.1787C80.7468 19.8597 80.3504 19.4108 80.0678 18.832C79.7853 18.2533 79.644 17.5833 79.644 16.8223C79.644 16.0612 79.7853 15.3913 80.0678 14.8125C80.3504 14.2292 80.7468 13.778 81.2573 13.459C81.7722 13.14 82.3647 12.9805 83.0346 12.9805C83.7 12.9805 84.2856 13.14 84.7914 13.459C85.3019 13.778 85.6961 14.2292 85.9741 14.8125C86.2566 15.3913 86.3979 16.0612 86.3979 16.8223C86.3979 17.5833 86.2566 18.2533 85.9741 18.832C85.6961 19.4108 85.3019 19.8597 84.7914 20.1787C84.2856 20.4932 83.7 20.6504 83.0346 20.6504ZM83.0346 19.6113C83.5131 19.6113 83.9164 19.486 84.2446 19.2354C84.5727 18.9801 84.8165 18.6429 84.976 18.2236C85.1401 17.7998 85.2221 17.3327 85.2221 16.8223C85.2221 16.3118 85.1401 15.8447 84.976 15.4209C84.8165 14.9971 84.5727 14.6576 84.2446 14.4023C83.9164 14.1471 83.5131 14.0195 83.0346 14.0195C82.547 14.0195 82.1368 14.1471 81.8041 14.4023C81.476 14.6576 81.2299 14.9971 81.0659 15.4209C80.9018 15.8447 80.8198 16.3118 80.8198 16.8223C80.8198 17.3327 80.9018 17.7998 81.0659 18.2236C81.2299 18.6429 81.476 18.9801 81.8041 19.2354C82.1368 19.486 82.547 19.6113 83.0346 19.6113ZM89.998 20.6504C89.328 20.6504 88.7356 20.4932 88.2206 20.1787C87.7102 19.8597 87.3137 19.4108 87.0312 18.832C86.7486 18.2533 86.6073 17.5833 86.6073 16.8223C86.6073 16.0612 86.7486 15.3913 87.0312 14.8125C87.3137 14.2292 87.7102 13.778 88.2206 13.459C88.7356 13.14 89.328 12.9805 89.998 12.9805C90.6633 12.9805 91.2489 13.14 91.7548 13.459C92.2652 13.778 92.6594 14.2292 92.9374 14.8125C93.22 15.3913 93.3613 16.0612 93.3613 16.8223C93.3613 17.5833 93.22 18.2533 92.9374 18.832C92.6594 19.4108 92.2652 19.8597 91.7548 20.1787C91.2489 20.4932 90.6633 20.6504 89.998 20.6504ZM89.998 19.6113C90.4765 19.6113 90.8798 19.486 91.2079 19.2354C91.5361 18.9801 91.7799 18.6429 91.9394 18.2236C92.1034 17.7998 92.1855 17.3327 92.1855 16.8223C92.1855 16.3118 92.1034 15.8447 91.9394 15.4209C91.7799 14.9971 91.5361 14.6576 91.2079 14.4023C90.8798 14.1471 90.4765 14.0195 89.998 14.0195C89.5103 14.0195 89.1002 14.1471 88.7675 14.4023C88.4394 14.6576 88.1933 14.9971 88.0292 15.4209C87.8652 15.8447 87.7831 16.3118 87.7831 16.8223C87.7831 17.3327 87.8652 17.7998 88.0292 18.2236C88.1933 18.6429 88.4394 18.9801 88.7675 19.2354C89.1002 19.486 89.5103 19.6113 89.998 19.6113ZM97.1664 14.0605H95.6078V18.3672C95.6078 18.8047 95.6944 19.0986 95.8676 19.249C96.0408 19.3994 96.2777 19.4746 96.5785 19.4746C96.8064 19.4746 97.0388 19.4655 97.2758 19.4473V20.541C97.0388 20.5775 96.7654 20.5957 96.4555 20.5957C96.1091 20.5957 95.781 20.5251 95.4711 20.3838C95.1612 20.238 94.9083 20.0192 94.7123 19.7275C94.5163 19.4359 94.4184 19.0827 94.4184 18.668V14.0605H93.2973V13.0762H94.4184V11.2988H95.6078V13.0762H97.1664V14.0605Z" fill="#868686"/>
</svg>
