<svg width="115" height="32" viewBox="0 0 115 32" fill="none" xmlns="http://www.w3.org/2000/svg">
<rect width="115" height="32" rx="16" fill="#8784FF"/>
<circle cx="16" cy="16" r="12" fill="#F6F6F6"/>
<path d="M21.7607 9.80536C21.5594 10.2948 21.299 10.7287 21.0109 11.1175C19.7404 9.82271 17.9631 9 16.0017 9C12.1485 9 9 12.1312 9 15.9983C9 18.0186 9.86437 19.8376 11.2356 21.122L11.4959 21.3546C12.7074 22.3786 14.2834 23 15.9983 23C19.6779 23 22.7084 20.1292 22.9688 16.5051C23.177 14.7451 22.6424 12.4922 21.7607 9.80536ZM12.2492 21.181C12.0479 21.4414 11.6729 21.4691 11.4126 21.2678C11.1522 21.0665 11.1245 20.6915 11.3258 20.4312C11.5272 20.1708 11.9021 20.1431 12.1624 20.3444C12.4089 20.5457 12.4505 20.9207 12.2492 21.181ZM21.7191 19.0878C20.0007 21.3823 16.3072 20.6048 13.9536 20.7193C13.9536 20.7193 13.5336 20.7471 13.117 20.8061C13.117 20.8061 13.2767 20.7332 13.4781 20.6603C15.1374 20.0841 15.9184 19.966 16.9286 19.4488C18.8205 18.4803 20.7089 16.3593 21.0873 14.1654C20.3652 16.2725 18.1713 18.0915 16.1788 18.8274C14.8076 19.3342 12.3394 19.8237 12.3394 19.8237L12.2388 19.7647C10.5656 18.942 10.5066 15.304 13.5683 14.1341C14.9117 13.6134 16.1822 13.9016 17.6402 13.5579C19.185 13.1969 20.9762 12.0409 21.6948 10.5274C22.4967 12.9678 23.479 16.7481 21.7191 19.0878Z" fill="#6CB52D"/>
<path d="M12.2452 21.1838C12.0439 21.4442 11.669 21.472 11.4086 21.2706C11.1483 21.0693 11.1205 20.6944 11.3219 20.434C11.5232 20.1737 11.8981 20.1459 12.1585 20.3473C12.4049 20.5486 12.4466 20.9235 12.2452 21.1838Z" fill="#6CB52D"/>
<path d="M40.7838 13.3223C40.7428 12.903 40.5536 12.5749 40.2164 12.3379C39.8837 12.1009 39.4485 11.9824 38.9107 11.9824C38.5462 11.9824 38.2271 12.0371 37.9537 12.1465C37.6803 12.2559 37.4706 12.4085 37.3248 12.6045C37.179 12.8005 37.1061 13.0215 37.1061 13.2676C37.1061 13.6458 37.2633 13.9398 37.5777 14.1494C37.8922 14.3545 38.3001 14.5163 38.8014 14.6348L39.7311 14.8809C40.5833 15.0768 41.2783 15.4027 41.816 15.8584C42.3583 16.3096 42.6295 16.9316 42.6295 17.7246C42.6295 18.3034 42.4814 18.8138 42.1852 19.2559C41.8889 19.6979 41.4583 20.042 40.8932 20.2881C40.3326 20.5296 39.6627 20.6504 38.8834 20.6504C38.1132 20.6504 37.4456 20.5319 36.8805 20.2949C36.3154 20.0534 35.8733 19.7048 35.5543 19.249C35.2398 18.7887 35.0689 18.235 35.0416 17.5879H36.7916C36.8326 18.0892 37.0423 18.472 37.4205 18.7363C37.8033 19.0007 38.2864 19.1328 38.8697 19.1328C39.2571 19.1328 39.6012 19.0736 39.902 18.9551C40.2027 18.8366 40.4352 18.6702 40.5992 18.4561C40.7678 18.2373 40.8521 17.9889 40.8521 17.7109C40.8521 17.3509 40.7018 17.0706 40.401 16.8701C40.1048 16.665 39.6581 16.485 39.0611 16.3301L37.94 16.043C36.1809 15.5827 35.3014 14.694 35.3014 13.377C35.3014 12.8027 35.4586 12.2969 35.773 11.8594C36.0875 11.4173 36.5204 11.0755 37.0719 10.834C37.6279 10.5879 38.2499 10.4648 38.9381 10.4648C39.6308 10.4648 40.2438 10.5879 40.777 10.834C41.3147 11.0755 41.7317 11.4128 42.0279 11.8457C42.3287 12.2786 42.4837 12.7708 42.4928 13.3223H40.7838ZM43.044 13.0762H44.753V14.293H44.8624C45.0492 13.9284 45.3067 13.6185 45.6348 13.3633C45.963 13.1081 46.4164 12.9805 46.9952 12.9805C47.574 12.9805 48.0935 13.1286 48.5538 13.4248C49.0186 13.721 49.3855 14.1562 49.6544 14.7305C49.9233 15.3047 50.0577 15.9928 50.0577 16.7949C50.0577 17.5924 49.9255 18.2806 49.6612 18.8594C49.3969 19.4382 49.0323 19.8802 48.5675 20.1855C48.1072 20.4863 47.5831 20.6367 46.9952 20.6367C46.0108 20.6367 45.2999 20.1992 44.8624 19.3242H44.794V23.2891H43.044V13.0762ZM44.753 16.7812C44.753 17.2643 44.8214 17.6882 44.9581 18.0527C45.0948 18.4173 45.2953 18.6999 45.5597 18.9004C45.824 19.1009 46.143 19.2012 46.5167 19.2012C46.8904 19.2012 47.2094 19.0986 47.4737 18.8936C47.738 18.6885 47.9386 18.4036 48.0753 18.0391C48.212 17.6745 48.2804 17.2552 48.2804 16.7812C48.2804 16.3164 48.212 15.904 48.0753 15.5439C47.9431 15.1839 47.7449 14.9036 47.4805 14.7031C47.2162 14.5026 46.8949 14.4023 46.5167 14.4023C46.143 14.4023 45.824 14.5003 45.5597 14.6963C45.2953 14.8923 45.0948 15.1702 44.9581 15.5303C44.8214 15.8857 44.753 16.3027 44.753 16.7812ZM50.4449 13.0762H52.1402V14.3066H52.2222C52.3498 13.8874 52.58 13.5592 52.9127 13.3223C53.2453 13.0853 53.6259 12.9668 54.0543 12.9668C54.3095 12.9668 54.5191 12.9805 54.6832 13.0078V14.6211C54.6057 14.5938 54.4872 14.5687 54.3277 14.5459C54.1682 14.5231 54.0178 14.5117 53.8765 14.5117C53.5575 14.5117 53.2704 14.5801 53.0152 14.7168C52.76 14.8535 52.5595 15.0449 52.4136 15.291C52.2678 15.5371 52.1949 15.8151 52.1949 16.125V20.5H50.4449V13.0762ZM54.7422 13.0762H56.4922V20.5H54.7422V13.0762ZM55.6309 12.0234C55.4532 12.0234 55.2845 11.9824 55.125 11.9004C54.9701 11.8138 54.847 11.6976 54.7559 11.5518C54.6648 11.4014 54.6192 11.2396 54.6192 11.0664C54.6192 10.8978 54.6648 10.7406 54.7559 10.5947C54.847 10.4489 54.9701 10.335 55.125 10.2529C55.2845 10.1663 55.4532 10.123 55.6309 10.123C55.8132 10.123 55.9818 10.1663 56.1368 10.2529C56.2917 10.335 56.4148 10.4489 56.5059 10.5947C56.597 10.7406 56.6426 10.8978 56.6426 11.0664C56.6426 11.2396 56.597 11.4014 56.5059 11.5518C56.4148 11.6976 56.2917 11.8138 56.1368 11.9004C55.9818 11.9824 55.8132 12.0234 55.6309 12.0234ZM58.9302 20.5H57.1802V13.0762H58.8482V14.334H58.9439C59.117 13.9056 59.3905 13.5729 59.7642 13.3359C60.1424 13.099 60.6027 12.9805 61.145 12.9805C61.66 12.9805 62.1089 13.0898 62.4917 13.3086C62.8791 13.5273 63.1753 13.8464 63.3804 14.2656C63.59 14.6849 63.6926 15.1862 63.688 15.7695V20.5H61.9517V16.043C61.9517 15.5417 61.8241 15.152 61.5689 14.874C61.3137 14.596 60.9582 14.457 60.5025 14.457C60.1926 14.457 59.9191 14.5254 59.6821 14.6621C59.4452 14.7943 59.2606 14.988 59.1284 15.2432C58.9963 15.4938 58.9302 15.7969 58.9302 16.1523V20.5ZM67.6162 23.4395C66.9645 23.4395 66.3949 23.346 65.9072 23.1592C65.4242 22.9769 65.0413 22.7148 64.7588 22.373C64.4808 22.0358 64.3213 21.6348 64.2803 21.1699H66.0166C66.0758 21.4844 66.2467 21.7214 66.5293 21.8809C66.8164 22.0449 67.1878 22.127 67.6436 22.127C68.1859 22.127 68.6074 22.0016 68.9082 21.751C69.2135 21.5003 69.3662 21.1107 69.3662 20.582V19.1602H69.2842C69.111 19.502 68.8535 19.7936 68.5117 20.0352C68.1745 20.2721 67.7165 20.3906 67.1377 20.3906C66.5589 20.3906 66.0371 20.2516 65.5723 19.9736C65.1074 19.6911 64.7406 19.2764 64.4717 18.7295C64.2074 18.1781 64.0752 17.5104 64.0752 16.7266C64.0752 15.9336 64.2096 15.2568 64.4785 14.6963C64.7474 14.1312 65.1143 13.7051 65.5791 13.418C66.0439 13.1263 66.568 12.9805 67.1514 12.9805C67.7301 12.9805 68.1836 13.1081 68.5117 13.3633C68.8398 13.6185 69.0973 13.9284 69.2842 14.293H69.3662V13.0762H71.0889V20.623C71.0889 21.2383 70.9408 21.7555 70.6445 22.1748C70.3529 22.5986 69.945 22.9154 69.4209 23.125C68.9014 23.3346 68.2998 23.4395 67.6162 23.4395ZM67.6162 19.0234C68.1768 19.0234 68.6097 18.8252 68.915 18.4287C69.2249 18.0277 69.3799 17.4694 69.3799 16.7539C69.3799 16.2845 69.3115 15.8721 69.1748 15.5166C69.0381 15.1611 68.8376 14.8877 68.5732 14.6963C68.3089 14.5003 67.9899 14.4023 67.6162 14.4023C67.238 14.4023 66.9167 14.5026 66.6523 14.7031C66.388 14.9036 66.1875 15.1816 66.0508 15.5371C65.9186 15.8926 65.8525 16.2982 65.8525 16.7539C65.8525 17.4512 66.0052 18.0049 66.3105 18.415C66.6159 18.8206 67.0511 19.0234 67.6162 19.0234ZM74.2011 10.6016H77.9882C78.6855 10.6016 79.2734 10.7109 79.7519 10.9297C80.235 11.1484 80.5973 11.4515 80.8388 11.8389C81.0804 12.2262 81.2011 12.6706 81.2011 13.1719C81.2011 13.7415 81.0416 14.2041 80.7226 14.5596C80.4036 14.915 79.9843 15.1543 79.4648 15.2773V15.373C79.8248 15.3913 80.1666 15.5007 80.4902 15.7012C80.8183 15.9017 81.0826 16.1842 81.2832 16.5488C81.4837 16.9089 81.5839 17.3281 81.5839 17.8066C81.5839 18.3307 81.4563 18.7956 81.2011 19.2012C80.9505 19.6068 80.5722 19.9258 80.0664 20.1582C79.5605 20.3861 78.9407 20.5 78.207 20.5H74.2011V10.6016ZM77.9336 19.0098C78.5579 19.0098 79.0205 18.889 79.3213 18.6475C79.6266 18.4059 79.7793 18.0801 79.7793 17.6699C79.7793 17.3737 79.7041 17.1071 79.5537 16.8701C79.4078 16.6286 79.1982 16.4395 78.9248 16.3027C78.6513 16.166 78.3346 16.0977 77.9746 16.0977H75.9785V19.0098H77.9336ZM77.7695 14.8125C78.0839 14.8125 78.3665 14.7555 78.6171 14.6416C78.8678 14.5231 79.0638 14.3568 79.205 14.1426C79.3509 13.9284 79.4238 13.6777 79.4238 13.3906C79.4238 12.9941 79.2848 12.6774 79.0068 12.4404C78.7288 12.1989 78.33 12.0781 77.8105 12.0781H75.9785V14.8125H77.7695ZM85.2114 20.6504C84.5004 20.6504 83.8761 20.4909 83.3383 20.1719C82.8006 19.8529 82.3858 19.4062 82.0942 18.832C81.8025 18.2533 81.6567 17.5833 81.6567 16.8223C81.6567 16.0566 81.8025 15.3844 82.0942 14.8057C82.3858 14.2269 82.8006 13.778 83.3383 13.459C83.8761 13.14 84.5004 12.9805 85.2114 12.9805C85.9269 12.9805 86.5535 13.14 87.0913 13.459C87.629 13.778 88.0414 14.2269 88.3286 14.8057C88.6202 15.3844 88.7661 16.0566 88.7661 16.8223C88.7661 17.5833 88.6202 18.2533 88.3286 18.832C88.0369 19.4108 87.6222 19.8597 87.0844 20.1787C86.5512 20.4932 85.9269 20.6504 85.2114 20.6504ZM85.225 19.2559C85.6079 19.2559 85.9314 19.1488 86.1957 18.9346C86.4646 18.7204 86.6651 18.4287 86.7973 18.0596C86.934 17.6904 87.0024 17.2734 87.0024 16.8086C87.0024 16.3483 86.934 15.9336 86.7973 15.5645C86.6651 15.1908 86.4646 14.8968 86.1957 14.6826C85.9314 14.4684 85.6079 14.3613 85.225 14.3613C84.8331 14.3613 84.5004 14.4684 84.227 14.6826C83.9581 14.8968 83.7553 15.1885 83.6186 15.5576C83.4864 15.9268 83.4204 16.3438 83.4204 16.8086C83.4204 17.2734 83.4864 17.6904 83.6186 18.0596C83.7553 18.4287 83.9581 18.7204 84.227 18.9346C84.5004 19.1488 84.8331 19.2559 85.225 19.2559ZM92.3798 20.6504C91.6689 20.6504 91.0445 20.4909 90.5068 20.1719C89.969 19.8529 89.5543 19.4062 89.2626 18.832C88.971 18.2533 88.8251 17.5833 88.8251 16.8223C88.8251 16.0566 88.971 15.3844 89.2626 14.8057C89.5543 14.2269 89.969 13.778 90.5068 13.459C91.0445 13.14 91.6689 12.9805 92.3798 12.9805C93.0953 12.9805 93.7219 13.14 94.2597 13.459C94.7974 13.778 95.2099 14.2269 95.497 14.8057C95.7887 15.3844 95.9345 16.0566 95.9345 16.8223C95.9345 17.5833 95.7887 18.2533 95.497 18.832C95.2053 19.4108 94.7906 19.8597 94.2529 20.1787C93.7197 20.4932 93.0953 20.6504 92.3798 20.6504ZM92.3935 19.2559C92.7763 19.2559 93.0999 19.1488 93.3642 18.9346C93.6331 18.7204 93.8336 18.4287 93.9657 18.0596C94.1025 17.6904 94.1708 17.2734 94.1708 16.8086C94.1708 16.3483 94.1025 15.9336 93.9657 15.5645C93.8336 15.1908 93.6331 14.8968 93.3642 14.6826C93.0999 14.4684 92.7763 14.3613 92.3935 14.3613C92.0016 14.3613 91.6689 14.4684 91.3954 14.6826C91.1266 14.8968 90.9238 15.1885 90.787 15.5576C90.6549 15.9268 90.5888 16.3438 90.5888 16.8086C90.5888 17.2734 90.6549 17.6904 90.787 18.0596C90.9238 18.4287 91.1266 18.7204 91.3954 18.9346C91.6689 19.1488 92.0016 19.2559 92.3935 19.2559ZM100.013 14.416H98.5502V18.2715C98.5502 18.5996 98.6186 18.8252 98.7553 18.9482C98.8966 19.0713 99.0925 19.1328 99.3432 19.1328C99.5619 19.1328 99.8171 19.1237 100.109 19.1055V20.5273C99.8809 20.5729 99.5528 20.5957 99.1244 20.5957C98.6732 20.5957 98.2722 20.5228 97.9213 20.377C97.5749 20.2266 97.3015 19.9987 97.101 19.6934C96.905 19.388 96.8093 19.0098 96.8139 18.5586V14.416H95.7475V13.0762H96.8139V11.2988H98.5502V13.0762H100.013V14.416Z" fill="white"/>
</svg>
