<svg width="76" height="32" viewBox="0 0 76 32" fill="none" xmlns="http://www.w3.org/2000/svg">
<rect width="76" height="32" rx="16" fill="#8784FF"/>
<circle cx="16" cy="16" r="12" fill="#F6F6F6"/>
<path d="M16 18.5287C19.5899 18.5287 22.5 17.3965 22.5 15.9999C22.5 14.6034 19.5899 13.4712 16 13.4712C12.4101 13.4712 9.5 14.6034 9.5 15.9999C9.5 17.3965 12.4101 18.5287 16 18.5287Z" stroke="#61DAFB"/>
<path d="M13.8508 17.2644C15.6457 20.4321 18.0631 22.4339 19.2501 21.7356C20.4371 21.0373 19.9443 17.9033 18.1494 14.7356C16.3545 11.5679 13.9371 9.56608 12.7501 10.2644C11.5631 10.9627 12.0559 14.0967 13.8508 17.2644Z" stroke="#61DAFB"/>
<path d="M13.8508 14.7357C12.0559 17.9034 11.5631 21.0374 12.7501 21.7357C13.9371 22.434 16.3545 20.4321 18.1494 17.2644C19.9443 14.0967 20.4371 10.9627 19.2501 10.2644C18.0631 9.56614 15.6457 11.568 13.8508 14.7357Z" stroke="#61DAFB"/>
<path d="M16.0004 17.2344C16.6694 17.2344 17.2118 16.6818 17.2118 16.0001C17.2118 15.3185 16.6694 14.7659 16.0004 14.7659C15.3314 14.7659 14.7891 15.3185 14.7891 16.0001C14.7891 16.6818 15.3314 17.2344 16.0004 17.2344Z" fill="#61DAFB"/>
<path d="M34.5835 10.6016H36.4976L38.2886 17.8887H38.3843L40.2847 10.6016H42.0347L43.9487 17.9023H44.0308L45.8218 10.6016H47.7359L44.9468 20.5H43.1831L41.2007 13.541H41.1323L39.1362 20.5H37.3726L34.5835 10.6016ZM50.3379 20.6504C49.5996 20.6504 48.957 20.4954 48.4102 20.1855C47.8678 19.8711 47.4508 19.4268 47.1592 18.8525C46.8721 18.2783 46.7285 17.6061 46.7285 16.8359C46.7285 16.0749 46.8743 15.4049 47.166 14.8262C47.4577 14.2428 47.8678 13.7894 48.3965 13.4658C48.9297 13.1423 49.5449 12.9805 50.2422 12.9805C50.8711 12.9805 51.4408 13.1149 51.9512 13.3838C52.4661 13.6527 52.874 14.0697 53.1748 14.6348C53.4801 15.1953 53.6328 15.8926 53.6328 16.7266V17.2734H48.4512C48.4557 17.6882 48.5378 18.0482 48.6973 18.3535C48.8568 18.6543 49.0778 18.8844 49.3604 19.0439C49.6429 19.2035 49.9733 19.2832 50.3516 19.2832C50.7207 19.2832 51.0352 19.2126 51.2949 19.0713C51.5547 18.93 51.7415 18.7454 51.8555 18.5176H53.5645C53.4596 18.946 53.2614 19.3219 52.9697 19.6455C52.6781 19.9645 52.3066 20.2129 51.8555 20.3906C51.4089 20.5638 50.903 20.6504 50.3379 20.6504ZM51.9648 16.084C51.9603 15.7467 51.8874 15.446 51.7461 15.1816C51.6048 14.9173 51.4066 14.71 51.1514 14.5596C50.8962 14.4092 50.6022 14.334 50.2695 14.334C49.9277 14.334 49.6224 14.4137 49.3535 14.5732C49.0892 14.7282 48.8796 14.9401 48.7246 15.209C48.5697 15.4733 48.4808 15.765 48.458 16.084H51.9648ZM54.0884 10.6016H55.8384V14.293H55.9067C56.0936 13.9238 56.3488 13.6139 56.6723 13.3633C56.9959 13.1081 57.4471 12.9805 58.0259 12.9805C58.6092 12.9805 59.1333 13.1286 59.5981 13.4248C60.063 13.721 60.4298 14.1562 60.6987 14.7305C60.9676 15.3047 61.102 15.9928 61.102 16.7949C61.102 17.5924 60.9699 18.2806 60.7055 18.8594C60.4412 19.4382 60.0766 19.8802 59.6118 20.1855C59.147 20.4863 58.6229 20.6367 58.0395 20.6367C57.0552 20.6367 56.3442 20.1992 55.9067 19.3242H55.7973V20.5H54.0884V10.6016ZM55.7973 16.7812C55.7973 17.2643 55.8657 17.6882 56.0024 18.0527C56.1391 18.4173 56.3374 18.6999 56.5971 18.9004C56.8615 19.1009 57.1782 19.2012 57.5473 19.2012C57.9256 19.2012 58.2469 19.0986 58.5112 18.8936C58.7801 18.6885 58.9829 18.4036 59.1196 18.0391C59.2563 17.6745 59.3247 17.2552 59.3247 16.7812C59.3247 16.3164 59.2563 15.904 59.1196 15.5439C58.9874 15.1839 58.7869 14.9036 58.518 14.7031C58.2537 14.5026 57.9302 14.4023 57.5473 14.4023C57.1782 14.4023 56.8615 14.5003 56.5971 14.6963C56.3374 14.8923 56.1391 15.1702 56.0024 15.5303C55.8657 15.8857 55.7973 16.3027 55.7973 16.7812Z" fill="white"/>
</svg>
