<svg width="75" height="32" viewBox="0 0 75 32" fill="none" xmlns="http://www.w3.org/2000/svg">
<rect x="0.5" y="0.5" width="74" height="31" rx="15.5" stroke="#D1D1D1"/>
<circle cx="16" cy="16" r="12" fill="#F6F6F6"/>
<path d="M16 18.5287C19.5899 18.5287 22.5 17.3965 22.5 15.9999C22.5 14.6034 19.5899 13.4712 16 13.4712C12.4101 13.4712 9.5 14.6034 9.5 15.9999C9.5 17.3965 12.4101 18.5287 16 18.5287Z" stroke="#61DAFB"/>
<path d="M13.8508 17.2644C15.6457 20.4321 18.0631 22.4339 19.2501 21.7356C20.4371 21.0373 19.9443 17.9033 18.1494 14.7356C16.3545 11.5679 13.9371 9.56608 12.7501 10.2644C11.5631 10.9627 12.0559 14.0967 13.8508 17.2644Z" stroke="#61DAFB"/>
<path d="M13.8508 14.7357C12.0559 17.9034 11.5631 21.0374 12.7501 21.7357C13.9371 22.434 16.3545 20.4321 18.1494 17.2644C19.9443 14.0967 20.4371 10.9627 19.2501 10.2644C18.0631 9.56614 15.6457 11.568 13.8508 14.7357Z" stroke="#61DAFB"/>
<path d="M16.0004 17.2344C16.6694 17.2344 17.2118 16.6818 17.2118 16.0001C17.2118 15.3185 16.6694 14.7659 16.0004 14.7659C15.3314 14.7659 14.7891 15.3185 14.7891 16.0001C14.7891 16.6818 15.3314 17.2344 16.0004 17.2344Z" fill="#61DAFB"/>
<path d="M34.6441 10.6016H35.8882L37.9527 18.6133H38.0484L40.1402 10.6016H41.521L43.6265 18.6133H43.7085L45.773 10.6016H47.0171L44.3101 20.5H43.0386L40.8784 12.666H40.7964L38.6226 20.5H37.3511L34.6441 10.6016ZM49.6055 20.6504C48.8991 20.6504 48.2839 20.4932 47.7598 20.1787C47.2357 19.8643 46.8324 19.4199 46.5498 18.8457C46.2718 18.2715 46.1328 17.6061 46.1328 16.8496C46.1328 16.0931 46.2718 15.4232 46.5498 14.8398C46.8324 14.252 47.2266 13.7962 47.7324 13.4727C48.2428 13.1445 48.8307 12.9805 49.4961 12.9805C50.0566 12.9805 50.5785 13.1058 51.0615 13.3564C51.5446 13.6025 51.9365 14.0036 52.2373 14.5596C52.5426 15.111 52.6953 15.8197 52.6953 16.6855V17.1777H47.3086C47.3268 17.6927 47.4339 18.1325 47.6299 18.4971C47.8258 18.8617 48.0924 19.1396 48.4297 19.3311C48.7715 19.5179 49.1634 19.6113 49.6055 19.6113C50.0247 19.6113 50.3779 19.5339 50.665 19.3789C50.9567 19.2194 51.1777 19.0143 51.3281 18.7637H52.5859C52.4674 19.1374 52.2692 19.4678 51.9912 19.7549C51.7178 20.0374 51.376 20.2585 50.9658 20.418C50.5602 20.5729 50.1068 20.6504 49.6055 20.6504ZM51.5059 16.1797C51.5059 15.765 51.4215 15.3958 51.2529 15.0723C51.0889 14.7441 50.8542 14.4867 50.5488 14.2998C50.2435 14.113 49.8926 14.0195 49.4961 14.0195C49.0814 14.0195 48.7122 14.1175 48.3887 14.3135C48.0697 14.5094 47.8167 14.7738 47.6299 15.1064C47.4476 15.4346 47.3428 15.7923 47.3154 16.1797H51.5059ZM53.397 10.6016H54.5727V14.252H54.6684C54.8462 13.9831 54.9943 13.7757 55.1128 13.6299C55.2358 13.4795 55.4409 13.3337 55.728 13.1924C56.0151 13.0511 56.3774 12.9805 56.8149 12.9805C57.4347 12.9805 57.9839 13.1377 58.4624 13.4521C58.9409 13.762 59.3146 14.2064 59.5835 14.7852C59.8524 15.3639 59.9868 16.0384 59.9868 16.8086C59.9868 17.5788 59.8524 18.2555 59.5835 18.8389C59.3146 19.4176 58.9409 19.8643 58.4624 20.1787C57.9884 20.4932 57.4438 20.6504 56.8286 20.6504C56.3957 20.6504 56.0356 20.5798 55.7485 20.4385C55.4614 20.2926 55.2472 20.1377 55.1059 19.9736C54.9692 19.8096 54.8234 19.6068 54.6684 19.3652H54.5317V20.5H53.397V10.6016ZM54.5454 16.7812C54.5454 17.3418 54.6274 17.834 54.7915 18.2578C54.9555 18.6816 55.1948 19.012 55.5093 19.249C55.8283 19.4814 56.2088 19.5977 56.6509 19.5977C57.1066 19.5977 57.4962 19.4769 57.8198 19.2354C58.1434 18.9893 58.3872 18.6543 58.5513 18.2305C58.7153 17.8021 58.7973 17.319 58.7973 16.7812C58.7973 16.2572 58.7153 15.7878 58.5513 15.373C58.3917 14.9583 58.1502 14.6325 57.8266 14.3955C57.5076 14.154 57.1157 14.0332 56.6509 14.0332C56.2042 14.0332 55.8214 14.1471 55.5024 14.375C55.188 14.6029 54.9487 14.9242 54.7846 15.3389C54.6251 15.749 54.5454 16.2298 54.5454 16.7812Z" fill="#868686"/>
</svg>
