<svg width="40" height="26" viewBox="0 0 40 26" fill="none" xmlns="http://www.w3.org/2000/svg">
<rect y="0.5" width="40" height="25" rx="8" fill="#F2F2F2"/>
<path d="M14.4197 7.15039C15.2901 7.15495 16.0671 7.29395 16.7507 7.56738C17.4389 7.83626 17.9767 8.2168 18.364 8.70898C18.7514 9.19661 18.9451 9.76172 18.9451 10.4043C18.9451 11.0059 18.781 11.5413 18.4529 12.0107C18.1293 12.4756 17.6736 12.8493 17.0857 13.1318C16.5024 13.4098 15.8279 13.5807 15.0623 13.6445V16.0508H20.0525V17.1309H8.84156V16.0508H13.7771V13.6445C13.016 13.5807 12.3438 13.4098 11.7605 13.1318C11.1772 12.8493 10.7214 12.4756 10.3933 12.0107C10.0698 11.5413 9.90797 11.0059 9.90797 10.4043C9.90797 9.76172 10.1017 9.19661 10.489 8.70898C10.8764 8.2168 11.4119 7.83626 12.0955 7.56738C12.7791 7.29395 13.5538 7.15495 14.4197 7.15039ZM14.4197 8.2168C13.7953 8.21224 13.2348 8.30111 12.738 8.4834C12.2459 8.66113 11.8608 8.91862 11.5828 9.25586C11.3048 9.58854 11.1658 9.97135 11.1658 10.4043C11.1658 10.8555 11.3048 11.2497 11.5828 11.5869C11.8608 11.9242 12.2459 12.1839 12.738 12.3662C13.2302 12.5485 13.7908 12.6419 14.4197 12.6465C15.0532 12.6419 15.616 12.5485 16.1082 12.3662C16.6049 12.1839 16.9923 11.9242 17.2703 11.5869C17.5483 11.2497 17.6873 10.8555 17.6873 10.4043C17.6873 9.97135 17.5483 9.58854 17.2703 9.25586C16.9923 8.91862 16.6049 8.66113 16.1082 8.4834C15.6114 8.30111 15.0486 8.21224 14.4197 8.2168ZM30.5022 8.83203H20.5354V7.76562H24.8967V6.35742H26.1819V7.76562H30.5022V8.83203ZM31.1721 15.4082H26.1819V18.6758H24.8967V15.4082H19.9612V14.3418H31.1721V15.4082ZM25.5393 9.46094C26.387 9.46094 27.1161 9.54069 27.7268 9.7002C28.3375 9.8597 28.8046 10.0944 29.1282 10.4043C29.4517 10.7096 29.6135 11.0833 29.6135 11.5254C29.6135 11.9583 29.4517 12.3275 29.1282 12.6328C28.8046 12.9382 28.3375 13.1706 27.7268 13.3301C27.1161 13.4896 26.387 13.5716 25.5393 13.5762C24.6871 13.5716 23.9556 13.4896 23.345 13.3301C22.7343 13.1706 22.2672 12.9382 21.9436 12.6328C21.62 12.3275 21.4605 11.9583 21.4651 11.5254C21.4605 11.0833 21.62 10.7096 21.9436 10.4043C22.2672 10.0944 22.7343 9.8597 23.345 9.7002C23.9556 9.54069 24.6871 9.46094 25.5393 9.46094ZM25.5393 10.4316C24.6552 10.4316 23.9784 10.5251 23.509 10.7119C23.0396 10.8988 22.8049 11.1699 22.8049 11.5254C22.8049 11.8672 23.0396 12.1315 23.509 12.3184C23.983 12.5007 24.6597 12.5918 25.5393 12.5918C26.4143 12.5918 27.0865 12.5007 27.5559 12.3184C28.0253 12.1315 28.2646 11.8672 28.2737 11.5254C28.2691 11.1699 28.0299 10.8988 27.5559 10.7119C27.0865 10.5251 26.4143 10.4316 25.5393 10.4316Z" fill="#9F9F9F"/>
</svg>
