<svg width="14" height="15" viewBox="0 0 14 15" fill="none" xmlns="http://www.w3.org/2000/svg">
<path fill-rule="evenodd" clip-rule="evenodd" d="M7 13.625C8.62445 13.625 10.1824 12.9797 11.331 11.831C12.4797 10.6824 13.125 9.12445 13.125 7.5C13.125 5.87555 12.4797 4.31763 11.331 3.16897C10.1824 2.02031 8.62445 1.375 7 1.375C5.37555 1.375 3.81763 2.02031 2.66897 3.16897C1.52031 4.31763 0.875 5.87555 0.875 7.5C0.875 9.12445 1.52031 10.6824 2.66897 11.831C3.81763 12.9797 5.37555 13.625 7 13.625ZM7.65625 4.4375C7.65625 4.26345 7.58711 4.09653 7.46404 3.97346C7.34097 3.85039 7.17405 3.78125 7 3.78125C6.82595 3.78125 6.65903 3.85039 6.53596 3.97346C6.41289 4.09653 6.34375 4.26345 6.34375 4.4375V7.5C6.34375 7.60188 6.36747 7.70236 6.41303 7.79348C6.45859 7.88461 6.52475 7.96387 6.60625 8.025L8.35625 9.3375C8.42519 9.38921 8.50365 9.42683 8.58713 9.44822C8.67062 9.46961 8.75749 9.47434 8.84281 9.46215C8.92812 9.44997 9.0102 9.42109 9.08436 9.37719C9.15851 9.33328 9.22329 9.27519 9.275 9.20625C9.32671 9.13731 9.36433 9.05885 9.38572 8.97537C9.40711 8.89188 9.41184 8.80501 9.39965 8.71969C9.38747 8.63438 9.35859 8.5523 9.31469 8.47814C9.27078 8.40399 9.21269 8.33921 9.14375 8.2875L7.65625 7.17188V4.4375Z" fill="#4B4B4B"/>
</svg>
