<svg width="64" height="26" viewBox="0 0 64 26" fill="none" xmlns="http://www.w3.org/2000/svg">
<rect width="64" height="26" rx="8" fill="#F2F2F2"/>
<path d="M24.5603 6.95898C25.1528 6.95898 25.6791 7.06152 26.1394 7.2666C26.6043 7.47168 26.9666 7.75879 27.2263 8.12793C27.4861 8.49707 27.6183 8.92318 27.6228 9.40625C27.6183 9.81641 27.5157 10.1878 27.3152 10.5205C27.1192 10.8532 26.8412 11.1289 26.4812 11.3477C26.1257 11.5664 25.7133 11.7122 25.2439 11.7852V12.8721C26.447 12.8037 27.5089 12.7012 28.4295 12.5645L28.5252 13.5215C27.3813 13.7266 26.185 13.8633 24.9363 13.9316C23.6921 13.9954 22.3683 14.0273 20.9646 14.0273L20.8279 12.9746H21.4431C22.2224 12.9746 23.0564 12.9609 23.9451 12.9336V11.7988C23.4574 11.7305 23.0291 11.5869 22.6599 11.3682C22.2908 11.1494 22.006 10.8714 21.8054 10.5342C21.6049 10.1969 21.5069 9.82096 21.5115 9.40625C21.5069 8.92773 21.6323 8.50391 21.8875 8.13477C22.1472 7.76107 22.5095 7.47168 22.9744 7.2666C23.4392 7.06152 23.9679 6.95898 24.5603 6.95898ZM24.5603 7.95703C24.2003 7.95703 23.8813 8.01628 23.6033 8.13477C23.3253 8.25326 23.1088 8.42188 22.9539 8.64062C22.7989 8.85938 22.7237 9.11458 22.7283 9.40625C22.7237 9.6888 22.7989 9.93945 22.9539 10.1582C23.1088 10.3724 23.3253 10.541 23.6033 10.6641C23.8858 10.7826 24.2048 10.8418 24.5603 10.8418C24.9203 10.8418 25.2393 10.7826 25.5173 10.6641C25.7953 10.5456 26.0095 10.377 26.1599 10.1582C26.3149 9.93945 26.3923 9.6888 26.3923 9.40625C26.3923 9.11458 26.3149 8.85938 26.1599 8.64062C26.0095 8.42188 25.7953 8.25326 25.5173 8.13477C25.2439 8.01628 24.9249 7.95703 24.5603 7.95703ZM30.4802 10.4727H32.2302V11.5664H30.4802V15.791H29.1814V6.42578H30.4802V10.4727ZM30.9177 18.4023H22.5642V14.9707H23.863V17.3359H30.9177V18.4023ZM43.1721 17.1992H31.9612V16.1055H35.0237V13.9453H33.3284V10.0488H40.5198V8.33984H33.301V7.27344H41.8049V11.1016H34.6135V12.8789H42.092V13.9453H40.2327V16.1055H43.1721V17.1992ZM38.9612 16.1055V13.9453H36.2815V16.1055H38.9612Z" fill="#9F9F9F"/>
</svg>
