<svg width="40" height="26" viewBox="0 0 40 26" fill="none" xmlns="http://www.w3.org/2000/svg">
<rect y="0.5" width="40" height="25" rx="8" fill="#F2F2F2"/>
<path d="M14.4197 7.15039C15.2901 7.15495 16.0671 7.29395 16.7507 7.56738C17.4389 7.83626 17.9767 8.2168 18.364 8.70898C18.7514 9.19661 18.9451 9.76172 18.9451 10.4043C18.9451 11.0059 18.781 11.5413 18.4529 12.0107C18.1293 12.4756 17.6736 12.8493 17.0857 13.1318C16.5024 13.4098 15.8279 13.5807 15.0623 13.6445V16.0508H20.0525V17.1309H8.84156V16.0508H13.7771V13.6445C13.016 13.5807 12.3438 13.4098 11.7605 13.1318C11.1772 12.8493 10.7214 12.4756 10.3933 12.0107C10.0698 11.5413 9.90797 11.0059 9.90797 10.4043C9.90797 9.76172 10.1017 9.19661 10.489 8.70898C10.8764 8.2168 11.4119 7.83626 12.0955 7.56738C12.7791 7.29395 13.5538 7.15495 14.4197 7.15039ZM14.4197 8.2168C13.7953 8.21224 13.2348 8.30111 12.738 8.4834C12.2459 8.66113 11.8608 8.91862 11.5828 9.25586C11.3048 9.58854 11.1658 9.97135 11.1658 10.4043C11.1658 10.8555 11.3048 11.2497 11.5828 11.5869C11.8608 11.9242 12.2459 12.1839 12.738 12.3662C13.2302 12.5485 13.7908 12.6419 14.4197 12.6465C15.0532 12.6419 15.616 12.5485 16.1082 12.3662C16.6049 12.1839 16.9923 11.9242 17.2703 11.5869C17.5483 11.2497 17.6873 10.8555 17.6873 10.4043C17.6873 9.97135 17.5483 9.58854 17.2703 9.25586C16.9923 8.91862 16.6049 8.66113 16.1082 8.4834C15.6114 8.30111 15.0486 8.21224 14.4197 8.2168ZM30.1741 15.3945H28.8752V10.7871H26.5373V9.73438H28.8752V6.42578H30.1741V15.3945ZM30.5022 18.4023H22.217V14.5879H23.5159V17.3496H30.5022V18.4023ZM24.3498 8.90039C24.3498 9.41081 24.4683 9.90983 24.7053 10.3975C24.9423 10.8851 25.2841 11.3203 25.7307 11.7031C26.1773 12.0859 26.7014 12.3776 27.303 12.5781L26.633 13.6172C25.9586 13.3802 25.3707 13.0293 24.8694 12.5645C24.3681 12.0951 23.9807 11.5527 23.7073 10.9375C23.4384 11.6211 23.0396 12.2204 22.511 12.7354C21.9823 13.2503 21.3603 13.6354 20.6448 13.8906L19.9748 12.8379C20.5901 12.6283 21.1278 12.3229 21.5881 11.9219C22.0484 11.5163 22.4016 11.0514 22.6477 10.5273C22.8983 10.0033 23.0237 9.46094 23.0237 8.90039V8.42188H20.3713V7.35547H26.9748V8.42188H24.3498V8.90039Z" fill="#9F9F9F"/>
</svg>
