<svg width="40" height="25" viewBox="0 0 40 25" fill="none" xmlns="http://www.w3.org/2000/svg">
<rect width="40" height="25" rx="8" fill="#9F9F9F"/>
<path d="M14.4197 6.65039C15.2901 6.65495 16.0671 6.79395 16.7507 7.06738C17.4389 7.33626 17.9767 7.7168 18.364 8.20898C18.7514 8.69661 18.9451 9.26172 18.9451 9.9043C18.9451 10.5059 18.781 11.0413 18.4529 11.5107C18.1293 11.9756 17.6736 12.3493 17.0857 12.6318C16.5024 12.9098 15.8279 13.0807 15.0623 13.1445V15.5508H20.0525V16.6309H8.84156V15.5508H13.7771V13.1445C13.016 13.0807 12.3438 12.9098 11.7605 12.6318C11.1772 12.3493 10.7214 11.9756 10.3933 11.5107C10.0698 11.0413 9.90797 10.5059 9.90797 9.9043C9.90797 9.26172 10.1017 8.69661 10.489 8.20898C10.8764 7.7168 11.4119 7.33626 12.0955 7.06738C12.7791 6.79395 13.5538 6.65495 14.4197 6.65039ZM14.4197 7.7168C13.7953 7.71224 13.2348 7.80111 12.738 7.9834C12.2459 8.16113 11.8608 8.41862 11.5828 8.75586C11.3048 9.08854 11.1658 9.47135 11.1658 9.9043C11.1658 10.3555 11.3048 10.7497 11.5828 11.0869C11.8608 11.4242 12.2459 11.6839 12.738 11.8662C13.2302 12.0485 13.7908 12.1419 14.4197 12.1465C15.0532 12.1419 15.616 12.0485 16.1082 11.8662C16.6049 11.6839 16.9923 11.4242 17.2703 11.0869C17.5483 10.7497 17.6873 10.3555 17.6873 9.9043C17.6873 9.47135 17.5483 9.08854 17.2703 8.75586C16.9923 8.41862 16.6049 8.16113 16.1082 7.9834C15.6114 7.80111 15.0486 7.71224 14.4197 7.7168ZM30.1741 14.8945H28.8752V10.2871H26.5373V9.23438H28.8752V5.92578H30.1741V14.8945ZM30.5022 17.9023H22.217V14.0879H23.5159V16.8496H30.5022V17.9023ZM24.3498 8.40039C24.3498 8.91081 24.4683 9.40983 24.7053 9.89746C24.9423 10.3851 25.2841 10.8203 25.7307 11.2031C26.1773 11.5859 26.7014 11.8776 27.303 12.0781L26.633 13.1172C25.9586 12.8802 25.3707 12.5293 24.8694 12.0645C24.3681 11.5951 23.9807 11.0527 23.7073 10.4375C23.4384 11.1211 23.0396 11.7204 22.511 12.2354C21.9823 12.7503 21.3603 13.1354 20.6448 13.3906L19.9748 12.3379C20.5901 12.1283 21.1278 11.8229 21.5881 11.4219C22.0484 11.0163 22.4016 10.5514 22.6477 10.0273C22.8983 9.50326 23.0237 8.96094 23.0237 8.40039V7.92188H20.3713V6.85547H26.9748V7.92188H24.3498V8.40039Z" fill="#F2F2F2"/>
</svg>
