<svg width="114" height="114" viewBox="0 0 114 114" fill="none" xmlns="http://www.w3.org/2000/svg">
<rect width="114" height="114" rx="12" fill="#E8E8E8"/>
<circle cx="57" cy="50" r="22" fill="#9F9F9F"/>
<path d="M57 41.75V58.25" stroke="white" stroke-width="2.44444" stroke-linecap="round" stroke-linejoin="round"/>
<path d="M65.25 50H48.75" stroke="white" stroke-width="2.44444" stroke-linecap="round" stroke-linejoin="round"/>
<path d="M32.5279 103.189H31.2291V90.9121H32.5279V103.189ZM25.9791 91.8281C26.5852 91.8281 27.1275 92.0059 27.606 92.3613C28.0845 92.7122 28.4582 93.2135 28.7271 93.8652C29.0005 94.5124 29.1373 95.2643 29.1373 96.1211C29.1373 96.9824 29.0005 97.7389 28.7271 98.3906C28.4582 99.0423 28.0845 99.5459 27.606 99.9014C27.1275 100.252 26.5852 100.428 25.9791 100.428C25.3638 100.428 24.817 100.252 24.3384 99.9014C23.8599 99.5459 23.4839 99.0446 23.2105 98.3975C22.9416 97.7458 22.8072 96.987 22.8072 96.1211C22.8072 95.2598 22.9416 94.5055 23.2105 93.8584C23.4839 93.2067 23.8599 92.7054 24.3384 92.3545C24.817 92.0036 25.3638 91.8281 25.9791 91.8281ZM25.9791 92.9902C25.6008 92.9902 25.2658 93.1178 24.9742 93.373C24.6871 93.6283 24.4638 93.9928 24.3043 94.4668C24.1448 94.9362 24.065 95.4876 24.065 96.1211C24.065 96.7591 24.1448 97.3151 24.3043 97.7891C24.4638 98.263 24.6871 98.6276 24.9742 98.8828C25.2658 99.138 25.6008 99.2656 25.9791 99.2656C26.3528 99.2656 26.6832 99.138 26.9703 98.8828C27.2574 98.6276 27.4807 98.263 27.6402 97.7891C27.7997 97.3151 27.8795 96.7591 27.8795 96.1211C27.8795 95.4876 27.7997 94.9362 27.6402 94.4668C27.4807 93.9928 27.2574 93.6283 26.9703 93.373C26.6832 93.1178 26.3528 92.9902 25.9791 92.9902ZM44.7139 101.631H33.503V100.551H38.4385V97.7207H34.7881V91.8965H43.3741V97.7207H39.7237V100.551H44.7139V101.631ZM36.0459 96.6953H42.1026V92.9355H36.0459V96.6953ZM51.4312 93.0586H46.6597V95.4238H50.9663V96.4629H46.6597V99.2109C47.7717 99.2064 48.7469 99.1768 49.5855 99.1221C50.424 99.0674 51.2853 98.9694 52.1695 98.8281L52.3062 99.8809C51.3856 100.031 50.4764 100.134 49.5786 100.188C48.6854 100.239 47.6167 100.264 46.3726 100.264H45.3745V91.9922H51.4312V93.0586ZM54.8081 103.162H53.4956V90.9121H54.8081V103.162ZM65.5586 92.5391C65.5586 93.3229 65.5381 94.0111 65.4971 94.6035C65.4606 95.196 65.3672 95.8613 65.2168 96.5996L63.9316 96.4902C64.0684 95.8385 64.1595 95.2393 64.2051 94.6924L56.918 95.0273L56.7402 93.9336L64.2598 93.7285C64.2689 93.4505 64.2734 93.054 64.2734 92.5391V92.5117H57.0547V91.459H65.5586V92.5391ZM66.8984 98.3906H55.7559V97.3516H60.1719V95.6289H61.4844V97.3516H66.8984V98.3906ZM65.8184 102.971H57.1367V99.334H58.4355V101.918H65.8184V102.971ZM73.6201 93.1543C73.6201 93.7057 73.7386 94.2412 73.9755 94.7607C74.2125 95.2803 74.5543 95.7428 75.0009 96.1484C75.4475 96.5495 75.9716 96.8548 76.5732 97.0645L75.8623 98.0762C75.2015 97.821 74.625 97.4518 74.1328 96.9688C73.6406 96.4857 73.2623 95.9229 72.998 95.2803C72.7291 96.0003 72.3372 96.627 71.8222 97.1602C71.3072 97.6934 70.6943 98.0944 69.9834 98.3633L69.2861 97.3379C69.9104 97.1146 70.4505 96.7887 70.9062 96.3604C71.3619 95.932 71.7128 95.4375 71.9589 94.877C72.205 94.3164 72.3304 93.7285 72.3349 93.1133V91.6641H73.6201V93.1543ZM79.5127 100.059H78.2138V94.7812H75.6298V93.7148H78.2138V90.9258H79.5127V100.059ZM79.7861 102.902H71.5146V99.0332H72.8271V101.85H79.7861V102.902ZM85.7104 92.8398H82.1694V94.207H85.5737V95.2051H82.1694V96.6953C83.0353 96.6862 83.7644 96.6611 84.3569 96.6201C84.9493 96.5745 85.5463 96.4948 86.1479 96.3809L86.2709 97.4473C85.6375 97.5658 85.02 97.6478 84.4184 97.6934C83.8214 97.7389 83.0945 97.7617 82.2377 97.7617H81.7182H80.9252V91.7871H85.7104V92.8398ZM90.8647 98.3633H89.6342V95.0957H88.1303V98.2676H86.9135V91.1445H88.1303V94.043H89.6342V90.9258H90.8647V98.3633ZM90.8647 103.162H89.5795V100.004H82.5385V98.9512H90.8647V103.162Z" fill="#9F9F9F"/>
</svg>
