<svg width="64" height="26" viewBox="0 0 64 26" fill="none" xmlns="http://www.w3.org/2000/svg">
<rect width="64" height="26" rx="8" fill="#9F9F9F"/>
<path d="M21.7075 15.6406H15.9654V7.58789H21.7075V15.6406ZM17.2505 14.5879H20.4497V8.61328H17.2505V14.5879ZM25.4263 18.6895H24.1275V6.41211H25.4263V18.6895ZM30.1201 6.95898C30.7126 6.95898 31.2389 7.06152 31.6992 7.2666C32.1641 7.47168 32.5264 7.75879 32.7861 8.12793C33.0459 8.49707 33.1781 8.92318 33.1826 9.40625C33.1781 9.81641 33.0755 10.1878 32.875 10.5205C32.679 10.8532 32.401 11.1289 32.041 11.3477C31.6855 11.5664 31.2731 11.7122 30.8037 11.7852V12.8721C32.0068 12.8037 33.0687 12.7012 33.9893 12.5645L34.085 13.5215C32.9411 13.7266 31.7448 13.8633 30.4961 13.9316C29.252 13.9954 27.9281 14.0273 26.5244 14.0273L26.3877 12.9746H27.0029C27.7822 12.9746 28.6162 12.9609 29.5049 12.9336V11.7988C29.0173 11.7305 28.5889 11.5869 28.2197 11.3682C27.8506 11.1494 27.5658 10.8714 27.3652 10.5342C27.1647 10.1969 27.0667 9.82096 27.0713 9.40625C27.0667 8.92773 27.1921 8.50391 27.4473 8.13477C27.707 7.76107 28.0693 7.47168 28.5342 7.2666C28.999 7.06152 29.5277 6.95898 30.1201 6.95898ZM30.1201 7.95703C29.7601 7.95703 29.4411 8.01628 29.1631 8.13477C28.8851 8.25326 28.6686 8.42188 28.5137 8.64062C28.3587 8.85938 28.2835 9.11458 28.2881 9.40625C28.2835 9.6888 28.3587 9.93945 28.5137 10.1582C28.6686 10.3724 28.8851 10.541 29.1631 10.6641C29.4456 10.7826 29.7646 10.8418 30.1201 10.8418C30.4801 10.8418 30.7992 10.7826 31.0771 10.6641C31.3551 10.5456 31.5693 10.377 31.7197 10.1582C31.8747 9.93945 31.9521 9.6888 31.9521 9.40625C31.9521 9.11458 31.8747 8.85938 31.7197 8.64062C31.5693 8.42188 31.3551 8.25326 31.0771 8.13477C30.8037 8.01628 30.4847 7.95703 30.1201 7.95703ZM36.04 10.4727H37.79V11.5664H36.04V15.791H34.7412V6.42578H36.04V10.4727ZM36.4775 18.4023H28.124V14.9707H29.4229V17.3359H36.4775V18.4023ZM48.7319 17.1992H37.521V16.1055H40.5835V13.9453H38.8882V10.0488H46.0796V8.33984H38.8608V7.27344H47.3647V11.1016H40.1733V12.8789H47.6518V13.9453H45.7925V16.1055H48.7319V17.1992ZM44.521 16.1055V13.9453H41.8413V16.1055H44.521Z" fill="#F2F2F2"/>
</svg>
