<svg width="17" height="16" viewBox="0 0 17 16" fill="none" xmlns="http://www.w3.org/2000/svg">
<path id="Vector" d="M17 1.91781V11.5193C16.9994 11.6104 16.9773 11.7004 16.9352 11.7832C16.893 11.866 16.8318 11.9397 16.7556 11.9994C15.4027 13.0579 14.1091 13.4396 12.8757 13.4396C11.2014 13.4396 9.63776 12.7403 8.18302 12.0914C5.83224 11.0392 3.7887 10.1279 1.41667 11.821V15.3599C1.41667 15.5297 1.34204 15.6925 1.2092 15.8125C1.07636 15.9326 0.896195 16 0.708333 16C0.520472 16 0.340304 15.9326 0.207466 15.8125C0.0746279 15.6925 0 15.5297 0 15.3599V1.91781C0.000679165 1.82662 0.0229126 1.73662 0.0652109 1.65382C0.107509 1.57103 0.168896 1.49736 0.24526 1.43774C3.43276 -1.05705 6.29354 0.220751 8.81521 1.34813C11.2448 2.4347 13.3512 3.37404 15.8277 1.43774C15.9301 1.35756 16.0557 1.30558 16.1898 1.28797C16.3238 1.27036 16.4607 1.28785 16.5841 1.33838C16.7074 1.38891 16.8122 1.47035 16.8859 1.57305C16.9597 1.67575 16.9992 1.7954 17 1.91781Z" fill="#000C76"/>
</svg>
