<svg width="21" height="19" viewBox="0 0 21 19" fill="none" xmlns="http://www.w3.org/2000/svg">
<path id="Vector" d="M10.5 0H14.5833C14.9042 0 15.1667 0.267188 15.1667 0.59375V2.96875C15.1667 3.29531 14.9042 3.5625 14.5833 3.5625H11.6922L14.9589 5.9375H18.6667C19.9536 5.9375 21 7.00254 21 8.3125V16.625C21 17.935 19.9536 19 18.6667 19H12.25V14.8437C12.25 13.8604 11.4661 13.0625 10.5 13.0625C9.53385 13.0625 8.75 13.8604 8.75 14.8437V19H2.33333C1.04635 19 0 17.935 0 16.625V8.3125C0 7.00254 1.04635 5.9375 2.33333 5.9375H6.04115L9.33333 3.54395V1.1875C9.33333 0.530664 9.85469 0 10.5 0ZM12.25 8.90625C12.25 8.43383 12.0656 7.98076 11.7374 7.64672C11.4092 7.31267 10.9641 7.125 10.5 7.125C10.0359 7.125 9.59075 7.31267 9.26256 7.64672C8.93437 7.98076 8.75 8.43383 8.75 8.90625C8.75 9.37867 8.93437 9.83173 9.26256 10.1658C9.59075 10.4998 10.0359 10.6875 10.5 10.6875C10.9641 10.6875 11.4092 10.4998 11.7374 10.1658C12.0656 9.83173 12.25 9.37867 12.25 8.90625ZM2.91667 8.3125C2.59583 8.3125 2.33333 8.57969 2.33333 8.90625V11.2812C2.33333 11.6078 2.59583 11.875 2.91667 11.875H4.08333C4.40417 11.875 4.66667 11.6078 4.66667 11.2812V8.90625C4.66667 8.57969 4.40417 8.3125 4.08333 8.3125H2.91667ZM16.3333 8.90625V11.2812C16.3333 11.6078 16.5958 11.875 16.9167 11.875H18.0833C18.4042 11.875 18.6667 11.6078 18.6667 11.2812V8.90625C18.6667 8.57969 18.4042 8.3125 18.0833 8.3125H16.9167C16.5958 8.3125 16.3333 8.57969 16.3333 8.90625ZM2.91667 13.0625C2.59583 13.0625 2.33333 13.3297 2.33333 13.6562V16.0312C2.33333 16.3578 2.59583 16.625 2.91667 16.625H4.08333C4.40417 16.625 4.66667 16.3578 4.66667 16.0312V13.6562C4.66667 13.3297 4.40417 13.0625 4.08333 13.0625H2.91667ZM16.9167 13.0625C16.5958 13.0625 16.3333 13.3297 16.3333 13.6562V16.0312C16.3333 16.3578 16.5958 16.625 16.9167 16.625H18.0833C18.4042 16.625 18.6667 16.3578 18.6667 16.0312V13.6562C18.6667 13.3297 18.4042 13.0625 18.0833 13.0625H16.9167Z" fill="#000C76"/>
</svg>
