<svg width="18" height="14" viewBox="0 0 18 14" fill="none" xmlns="http://www.w3.org/2000/svg">
<path id="Vector" d="M15.75 0H2.25C1.65346 0.000631681 1.08153 0.235493 0.659715 0.653051C0.237896 1.07061 0.000638126 1.63676 0 2.22727V11.7727C0.000638126 12.3632 0.237896 12.9294 0.659715 13.3469C1.08153 13.7645 1.65346 13.9994 2.25 14H15.75C16.3465 13.9994 16.9185 13.7645 17.3403 13.3469C17.7621 12.9294 17.9994 12.3632 18 11.7727V2.22727C17.9994 1.63676 17.7621 1.07061 17.3403 0.653051C16.9185 0.235493 16.3465 0.000631681 15.75 0ZM15.1803 3.68415L9.39455 8.13869C9.28173 8.22551 9.1429 8.27265 9 8.27265C8.8571 8.27265 8.71827 8.22551 8.60545 8.13869L2.81973 3.68415C2.75176 3.63333 2.69466 3.56965 2.65176 3.4968C2.60886 3.42395 2.58102 3.34339 2.56984 3.2598C2.55867 3.1762 2.56439 3.09125 2.58667 3.00986C2.60895 2.92847 2.64735 2.85228 2.69964 2.78571C2.75192 2.71915 2.81705 2.66353 2.89124 2.62209C2.96543 2.58066 3.0472 2.55423 3.13179 2.54434C3.21639 2.53446 3.30212 2.54132 3.38402 2.56452C3.46591 2.58772 3.54233 2.6268 3.60884 2.67949L9 6.83017L14.3912 2.67949C14.526 2.57871 14.6954 2.53451 14.8629 2.55645C15.0304 2.57839 15.1824 2.66469 15.2861 2.79671C15.3898 2.92872 15.4368 3.09583 15.417 3.2619C15.3972 3.42798 15.3122 3.57966 15.1803 3.68415Z" fill="#000C76"/>
</svg>
