<svg width="17" height="17" viewBox="0 0 17 17" fill="none" xmlns="http://www.w3.org/2000/svg">
<path id="Vector" d="M3.64732 10.926C3.64732 11.1686 3.65945 11.409 3.68296 11.6456C2.77076 11.2559 1.96806 10.6483 1.34517 9.8763C0.722276 9.10426 0.298198 8.19126 0.110084 7.21728C-0.0780305 6.24329 -0.0244428 5.23804 0.266153 4.28957C0.556749 3.34111 1.07549 2.47837 1.77693 1.77693C2.47837 1.07549 3.34111 0.556749 4.28957 0.266153C5.23804 -0.0244427 6.24329 -0.0780305 7.21728 0.110084C8.19126 0.298198 9.10426 0.722276 9.8763 1.34517C10.6483 1.96806 11.2559 2.77076 11.6456 3.68296C11.409 3.65945 11.1686 3.64732 10.926 3.64732C8.99635 3.64992 7.14651 4.41762 5.78206 5.78206C4.41762 7.14651 3.64992 8.99635 3.64732 10.926ZM12.1408 6.07252C12.1407 5.70028 12.1059 5.32886 12.0369 4.96305C11.6711 4.89412 11.2997 4.85934 10.9275 4.85916C9.31902 4.86097 7.77695 5.50073 6.6396 6.63808C5.50224 7.77543 4.86248 9.3175 4.86068 10.926C4.86086 11.2982 4.89564 11.6696 4.96457 12.0354C5.33038 12.1044 5.7018 12.1391 6.07404 12.1393C7.6825 12.1375 9.22457 11.4978 10.3619 10.3604C11.4993 9.22305 12.139 7.68098 12.1408 6.07252ZM13.3186 5.35285C13.3421 5.58945 13.3542 5.82985 13.3542 6.07252C13.352 8.00266 12.5843 9.85312 11.2195 11.2179C9.85464 12.5828 8.00418 13.3505 6.07404 13.3527C5.83137 13.3527 5.59097 13.3406 5.35436 13.317C5.74415 14.2292 6.35166 15.0319 7.1237 15.6548C7.89574 16.2777 8.80874 16.7018 9.78272 16.8899C10.7567 17.078 11.762 17.0244 12.7104 16.7338C13.6589 16.4433 14.5216 15.9245 15.2231 15.2231C15.9245 14.5216 16.4433 13.6589 16.7338 12.7104C17.0244 11.762 17.078 10.7567 16.8899 9.78272C16.7018 8.80874 16.2777 7.89574 15.6548 7.1237C15.0319 6.35166 14.2292 5.74415 13.317 5.35436L13.3186 5.35285Z" fill="#000C76"/>
</svg>
