<svg width="13" height="13" viewBox="0 0 13 13" fill="none" xmlns="http://www.w3.org/2000/svg">
<g id="paper-plane 1" clip-path="url(#clip0_7370_25632)">
<path id="Vector" d="M12.0096 0.99191C11.9265 0.908853 11.8212 0.851579 11.7064 0.826983C11.5915 0.802387 11.472 0.811518 11.3622 0.853277L1.20515 4.69767H1.20312C1.08601 4.74271 0.985659 4.82281 0.915772 4.92702C0.845885 5.03123 0.809872 5.15448 0.812649 5.27992C0.815427 5.40536 0.856861 5.52689 0.931292 5.62791C1.00572 5.72892 1.10952 5.8045 1.22851 5.84431L1.23892 5.84761L4.72506 7.33627C4.79305 7.35691 4.86527 7.35935 4.93451 7.34336C5.00374 7.32736 5.06757 7.29349 5.11963 7.24511L10.7147 2.03166C10.7314 2.01498 10.7512 2.00176 10.773 1.99274C10.7947 1.98371 10.8181 1.97907 10.8417 1.97907C10.8652 1.97907 10.8886 1.98371 10.9104 1.99274C10.9321 2.00176 10.9519 2.01498 10.9686 2.03166C10.9853 2.04833 10.9985 2.06812 11.0075 2.0899C11.0166 2.11169 11.0212 2.13503 11.0212 2.15861C11.0212 2.18219 11.0166 2.20553 11.0075 2.22732C10.9985 2.2491 10.9853 2.26889 10.9686 2.28556L5.7549 7.8781C5.70652 7.93015 5.67265 7.99398 5.65665 8.06322C5.64066 8.13246 5.64311 8.20468 5.66375 8.27267L7.15291 11.7608C7.15443 11.7659 7.15595 11.7705 7.15773 11.7753C7.23898 12.0107 7.44465 12.1767 7.69322 12.1879C7.70414 12.1879 7.70795 12.1879 7.71861 12.1879C7.8441 12.1886 7.9669 12.1516 8.07105 12.0816C8.1752 12.0116 8.25588 11.9118 8.30259 11.7954L12.1465 1.64115C12.1888 1.53128 12.1985 1.41149 12.1742 1.29627C12.1499 1.18105 12.0927 1.07534 12.0096 0.99191Z" fill="black"/>
</g>
<defs>
<clipPath id="clip0_7370_25632">
<rect width="13" height="13" fill="white"/>
</clipPath>
</defs>
</svg>
