<svg width="22" height="21" viewBox="0 0 22 21" fill="none" xmlns="http://www.w3.org/2000/svg">
<g clip-path="url(#clip0_7635_19494)">
<path d="M21.0786 4.51677C21.0786 3.71814 20.7613 2.95223 20.1966 2.38751C19.6319 1.8228 18.866 1.50554 18.0674 1.50554H17.3145V0.77391C17.3145 0.368806 17.0031 0.021104 16.598 0.000872305C16.4962 -0.00403185 16.3945 0.0117805 16.299 0.0473514C16.2035 0.0829223 16.1162 0.137511 16.0424 0.20781C15.9686 0.278109 15.9099 0.362654 15.8698 0.456322C15.8296 0.549991 15.8089 0.650833 15.8089 0.752738V1.50554H5.26964V0.77391C5.26964 0.368806 4.95817 0.021104 4.55307 0.000872305C4.45128 -0.00403185 4.34956 0.0117805 4.25406 0.0473514C4.15857 0.0829223 4.07129 0.137511 3.99751 0.20781C3.92374 0.278109 3.86501 0.362654 3.82487 0.456322C3.78474 0.549991 3.76404 0.650833 3.76403 0.752738V1.50554H3.01123C2.2126 1.50554 1.44668 1.8228 0.881967 2.38751C0.317253 2.95223 0 3.71814 0 4.51677V5.08137C0 5.13129 0.0198284 5.17916 0.055123 5.21445C0.0904176 5.24975 0.138287 5.26958 0.188202 5.26958H20.8904C20.9403 5.26958 20.9882 5.24975 21.0235 5.21445C21.0587 5.17916 21.0786 5.13129 21.0786 5.08137V4.51677Z" fill="url(#paint0_linear_7635_19494)"/>
<path d="M0 17.5655C0 18.3642 0.317253 19.1301 0.881967 19.6948C1.44668 20.2595 2.2126 20.5768 3.01123 20.5768H18.0674C18.866 20.5768 19.6319 20.2595 20.1966 19.6948C20.7613 19.1301 21.0786 18.3642 21.0786 17.5655V6.46164C21.0786 6.41172 21.0588 6.36385 21.0235 6.32856C20.9882 6.29327 20.9403 6.27344 20.8904 6.27344H0.188202C0.138287 6.27344 0.0904176 6.29327 0.055123 6.32856C0.0198284 6.36385 0 6.41172 0 6.46164V17.5655Z" fill="url(#paint1_linear_7635_19494)"/>
</g>
<defs>
<linearGradient id="paint0_linear_7635_19494" x1="10.5393" y1="-2.36449e-09" x2="10.5393" y2="6.19362" gradientUnits="userSpaceOnUse">
<stop/>
<stop/>
<stop offset="0.447917" stop-color="#000414"/>
<stop offset="0.598958" stop-color="#000A40"/>
</linearGradient>
<linearGradient id="paint1_linear_7635_19494" x1="10.5393" y1="6.27344" x2="10.5393" y2="23.0849" gradientUnits="userSpaceOnUse">
<stop/>
<stop/>
<stop offset="0.447917" stop-color="#000414"/>
<stop offset="0.598958" stop-color="#000A40"/>
</linearGradient>
<clipPath id="clip0_7635_19494">
<rect width="21.0786" height="20.5766" fill="white"/>
</clipPath>
</defs>
</svg>
