<svg width="13" height="12" viewBox="0 0 13 12" fill="none" xmlns="http://www.w3.org/2000/svg">
<path d="M6.5 0C3.18644 0 0.5 2.68644 0.5 6C0.5 9.31356 3.18644 12 6.5 12C9.81356 12 12.5 9.31356 12.5 6C12.5 2.68644 9.81356 0 6.5 0ZM9.26923 6.92308H6.5C6.37759 6.92308 6.2602 6.87445 6.17364 6.7879C6.08709 6.70134 6.03846 6.58395 6.03846 6.46154V2.30769C6.03846 2.18528 6.08709 2.06789 6.17364 1.98134C6.2602 1.89478 6.37759 1.84615 6.5 1.84615C6.62241 1.84615 6.7398 1.89478 6.82636 1.98134C6.91291 2.06789 6.96154 2.18528 6.96154 2.30769V6H9.26923C9.39164 6 9.50903 6.04863 9.59559 6.13518C9.68214 6.22174 9.73077 6.33913 9.73077 6.46154C9.73077 6.58395 9.68214 6.70134 9.59559 6.7879C9.50903 6.87445 9.39164 6.92308 9.26923 6.92308Z" fill="#4B4B4B"/>
</svg>
