<svg width="483" height="565" viewBox="0 0 483 565" fill="none" xmlns="http://www.w3.org/2000/svg">
<rect y="12" width="483" height="553" fill="url(#paint0_linear_7635_33405)"/>
<path fill-rule="evenodd" clip-rule="evenodd" d="M0 12V114.588C17.0145 90.8224 48.8315 81.2491 76.7677 93.2939C108.98 107.183 123.835 144.555 109.946 176.768C96.0576 208.98 58.6852 223.835 26.4726 209.946C15.4735 205.204 6.49828 197.724 0 188.646V310.571C81.1673 337.036 170.609 297.727 205.077 217.784C237.689 142.145 210.066 55.6928 143.501 12H0Z" fill="url(#paint1_linear_7635_33405)" fill-opacity="0.1"/>
<g filter="url(#filter0_d_7635_33405)">
<path d="M441 266L442.35 269.65L446 271L442.35 272.35L441 276L439.65 272.35L436 271L439.65 269.65L441 266Z" fill="url(#paint2_radial_7635_33405)" fill-opacity="0.5" shape-rendering="crispEdges"/>
</g>
<g filter="url(#filter1_d_7635_33405)">
<path d="M285.5 33L286.985 37.0145L291 38.5L286.985 39.9855L285.5 44L284.015 39.9855L280 38.5L284.015 37.0145L285.5 33Z" fill="url(#paint3_radial_7635_33405)" fill-opacity="0.4" shape-rendering="crispEdges"/>
</g>
<g filter="url(#filter2_d_7635_33405)">
<path d="M47.5 103L48.2458 105.951L51.0182 104.694L49.1758 107.118L51.8872 108.501L48.8438 108.572L49.4525 111.554L47.5 109.219L45.5475 111.554L46.1562 108.572L43.1128 108.501L45.8242 107.118L43.9818 104.694L46.7542 105.951L47.5 103Z" fill="url(#paint4_radial_7635_33405)" fill-opacity="0.5" shape-rendering="crispEdges"/>
</g>
<g filter="url(#filter3_d_7635_33405)">
<path d="M138.5 326L139.715 329.285L143 330.5L139.715 331.715L138.5 335L137.285 331.715L134 330.5L137.285 329.285L138.5 326Z" fill="url(#paint5_radial_7635_33405)" fill-opacity="0.5" shape-rendering="crispEdges"/>
</g>
<g filter="url(#filter4_d_7635_33405)">
<path d="M409.5 476L410.012 478.265L411.975 477.025L410.735 478.988L413 479.5L410.735 480.012L411.975 481.975L410.012 480.735L409.5 483L408.988 480.735L407.025 481.975L408.265 480.012L406 479.5L408.265 478.988L407.025 477.025L408.988 478.265L409.5 476Z" fill="url(#paint6_radial_7635_33405)" fill-opacity="0.5" shape-rendering="crispEdges"/>
</g>
<rect width="1.33495" height="37.374" transform="matrix(0.621343 0.783539 -0.783203 0.621766 360.271 194.892)" fill="url(#paint7_linear_7635_33405)" fill-opacity="0.4"/>
<rect width="1.33495" height="37.374" transform="matrix(0.621343 0.783539 -0.783203 0.621766 379.993 217.716)" fill="url(#paint8_linear_7635_33405)" fill-opacity="0.4"/>
<rect width="1.33495" height="86.0482" transform="matrix(0.621343 0.783539 -0.783203 0.621766 399.431 183)" fill="url(#paint9_linear_7635_33405)" fill-opacity="0.4"/>
<defs>
<filter id="filter0_d_7635_33405" x="403.216" y="233.216" width="75.5687" height="75.5687" filterUnits="userSpaceOnUse" color-interpolation-filters="sRGB">
<feFlood flood-opacity="0" result="BackgroundImageFix"/>
<feColorMatrix in="SourceAlpha" type="matrix" values="0 0 0 0 0 0 0 0 0 0 0 0 0 0 0 0 0 0 127 0" result="hardAlpha"/>
<feOffset/>
<feGaussianBlur stdDeviation="16.3922"/>
<feComposite in2="hardAlpha" operator="out"/>
<feColorMatrix type="matrix" values="0 0 0 0 1 0 0 0 0 1 0 0 0 0 1 0 0 0 0.25 0"/>
<feBlend mode="normal" in2="BackgroundImageFix" result="effect1_dropShadow_7635_33405"/>
<feBlend mode="normal" in="SourceGraphic" in2="effect1_dropShadow_7635_33405" result="shape"/>
</filter>
<filter id="filter1_d_7635_33405" x="247.216" y="0.215637" width="76.5687" height="76.5687" filterUnits="userSpaceOnUse" color-interpolation-filters="sRGB">
<feFlood flood-opacity="0" result="BackgroundImageFix"/>
<feColorMatrix in="SourceAlpha" type="matrix" values="0 0 0 0 0 0 0 0 0 0 0 0 0 0 0 0 0 0 127 0" result="hardAlpha"/>
<feOffset/>
<feGaussianBlur stdDeviation="16.3922"/>
<feComposite in2="hardAlpha" operator="out"/>
<feColorMatrix type="matrix" values="0 0 0 0 1 0 0 0 0 1 0 0 0 0 1 0 0 0 0.25 0"/>
<feBlend mode="normal" in2="BackgroundImageFix" result="effect1_dropShadow_7635_33405"/>
<feBlend mode="normal" in="SourceGraphic" in2="effect1_dropShadow_7635_33405" result="shape"/>
</filter>
<filter id="filter2_d_7635_33405" x="10.3284" y="70.2156" width="74.3431" height="74.123" filterUnits="userSpaceOnUse" color-interpolation-filters="sRGB">
<feFlood flood-opacity="0" result="BackgroundImageFix"/>
<feColorMatrix in="SourceAlpha" type="matrix" values="0 0 0 0 0 0 0 0 0 0 0 0 0 0 0 0 0 0 127 0" result="hardAlpha"/>
<feOffset/>
<feGaussianBlur stdDeviation="16.3922"/>
<feComposite in2="hardAlpha" operator="out"/>
<feColorMatrix type="matrix" values="0 0 0 0 1 0 0 0 0 1 0 0 0 0 1 0 0 0 0.25 0"/>
<feBlend mode="normal" in2="BackgroundImageFix" result="effect1_dropShadow_7635_33405"/>
<feBlend mode="normal" in="SourceGraphic" in2="effect1_dropShadow_7635_33405" result="shape"/>
</filter>
<filter id="filter3_d_7635_33405" x="101.216" y="293.216" width="74.5687" height="74.5687" filterUnits="userSpaceOnUse" color-interpolation-filters="sRGB">
<feFlood flood-opacity="0" result="BackgroundImageFix"/>
<feColorMatrix in="SourceAlpha" type="matrix" values="0 0 0 0 0 0 0 0 0 0 0 0 0 0 0 0 0 0 127 0" result="hardAlpha"/>
<feOffset/>
<feGaussianBlur stdDeviation="16.3922"/>
<feComposite in2="hardAlpha" operator="out"/>
<feColorMatrix type="matrix" values="0 0 0 0 1 0 0 0 0 1 0 0 0 0 1 0 0 0 0.25 0"/>
<feBlend mode="normal" in2="BackgroundImageFix" result="effect1_dropShadow_7635_33405"/>
<feBlend mode="normal" in="SourceGraphic" in2="effect1_dropShadow_7635_33405" result="shape"/>
</filter>
<filter id="filter4_d_7635_33405" x="373.216" y="443.216" width="72.5687" height="72.5687" filterUnits="userSpaceOnUse" color-interpolation-filters="sRGB">
<feFlood flood-opacity="0" result="BackgroundImageFix"/>
<feColorMatrix in="SourceAlpha" type="matrix" values="0 0 0 0 0 0 0 0 0 0 0 0 0 0 0 0 0 0 127 0" result="hardAlpha"/>
<feOffset/>
<feGaussianBlur stdDeviation="16.3922"/>
<feComposite in2="hardAlpha" operator="out"/>
<feColorMatrix type="matrix" values="0 0 0 0 1 0 0 0 0 1 0 0 0 0 1 0 0 0 0.25 0"/>
<feBlend mode="normal" in2="BackgroundImageFix" result="effect1_dropShadow_7635_33405"/>
<feBlend mode="normal" in="SourceGraphic" in2="effect1_dropShadow_7635_33405" result="shape"/>
</filter>
<linearGradient id="paint0_linear_7635_33405" x1="241.5" y1="12" x2="241.5" y2="661.972" gradientUnits="userSpaceOnUse">
<stop/>
<stop/>
<stop offset="0.225869" stop-color="#000414"/>
<stop offset="0.558892" stop-color="#000A40"/>
</linearGradient>
<linearGradient id="paint1_linear_7635_33405" x1="-14.5434" y1="305.076" x2="117.784" y2="-1.83648" gradientUnits="userSpaceOnUse">
<stop stop-color="#F5F5F5"/>
<stop offset="1" stop-color="#F5F5F5" stop-opacity="0.15"/>
</linearGradient>
<radialGradient id="paint2_radial_7635_33405" cx="0" cy="0" r="1" gradientUnits="userSpaceOnUse" gradientTransform="translate(441 271) rotate(90) scale(5)">
<stop stop-color="white"/>
<stop offset="1" stop-color="#CECECE" stop-opacity="0.65"/>
</radialGradient>
<radialGradient id="paint3_radial_7635_33405" cx="0" cy="0" r="1" gradientUnits="userSpaceOnUse" gradientTransform="translate(285.5 38.5) rotate(90) scale(5.5)">
<stop stop-color="white"/>
<stop offset="1" stop-color="#CECECE" stop-opacity="0.65"/>
</radialGradient>
<radialGradient id="paint4_radial_7635_33405" cx="0" cy="0" r="1" gradientUnits="userSpaceOnUse" gradientTransform="translate(47.5 107.5) rotate(90) scale(4.5)">
<stop stop-color="white"/>
<stop offset="1" stop-color="#CECECE" stop-opacity="0.65"/>
</radialGradient>
<radialGradient id="paint5_radial_7635_33405" cx="0" cy="0" r="1" gradientUnits="userSpaceOnUse" gradientTransform="translate(138.5 330.5) rotate(90) scale(4.5)">
<stop stop-color="white"/>
<stop offset="1" stop-color="#CECECE" stop-opacity="0.65"/>
</radialGradient>
<radialGradient id="paint6_radial_7635_33405" cx="0" cy="0" r="1" gradientUnits="userSpaceOnUse" gradientTransform="translate(409.5 479.5) rotate(90) scale(3.5)">
<stop stop-color="white"/>
<stop offset="1" stop-color="#CECECE" stop-opacity="0.65"/>
</radialGradient>
<linearGradient id="paint7_linear_7635_33405" x1="0.667476" y1="0" x2="0.667476" y2="37.374" gradientUnits="userSpaceOnUse">
<stop stop-color="white" stop-opacity="0.26"/>
<stop offset="1" stop-color="white"/>
</linearGradient>
<linearGradient id="paint8_linear_7635_33405" x1="0.667476" y1="0" x2="0.667476" y2="37.374" gradientUnits="userSpaceOnUse">
<stop stop-color="white" stop-opacity="0.26"/>
<stop offset="1" stop-color="white"/>
</linearGradient>
<linearGradient id="paint9_linear_7635_33405" x1="0.667476" y1="0" x2="0.667476" y2="86.0482" gradientUnits="userSpaceOnUse">
<stop stop-color="white" stop-opacity="0.26"/>
<stop offset="1" stop-color="white"/>
</linearGradient>
</defs>
</svg>
