<svg width="52" height="52" viewBox="0 0 52 52" fill="none" xmlns="http://www.w3.org/2000/svg">
<path d="M26 6C14.9721 6 6 14.9721 6 26C6 37.0279 14.9721 46 26 46C37.0279 46 46 37.0279 46 26C46 14.9721 37.0279 6 26 6ZM33.6923 27.5385H27.5385V33.6923C27.5385 34.1003 27.3764 34.4916 27.0879 34.7802C26.7993 35.0687 26.408 35.2308 26 35.2308C25.592 35.2308 25.2007 35.0687 24.9121 34.7802C24.6236 34.4916 24.4615 34.1003 24.4615 33.6923V27.5385H18.3077C17.8997 27.5385 17.5084 27.3764 17.2198 27.0879C16.9313 26.7993 16.7692 26.408 16.7692 26C16.7692 25.592 16.9313 25.2007 17.2198 24.9121C17.5084 24.6236 17.8997 24.4615 18.3077 24.4615H24.4615V18.3077C24.4615 17.8997 24.6236 17.5084 24.9121 17.2198C25.2007 16.9313 25.592 16.7692 26 16.7692C26.408 16.7692 26.7993 16.9313 27.0879 17.2198C27.3764 17.5084 27.5385 17.8997 27.5385 18.3077V24.4615H33.6923C34.1003 24.4615 34.4916 24.6236 34.7802 24.9121C35.0687 25.2007 35.2308 25.592 35.2308 26C35.2308 26.408 35.0687 26.7993 34.7802 27.0879C34.4916 27.3764 34.1003 27.5385 33.6923 27.5385Z" fill="#4B4B4B"/>
</svg>
