<svg width="68" height="68" viewBox="0 0 68 68" fill="none" xmlns="http://www.w3.org/2000/svg">
<g clip-path="url(#clip0_7193_310)">
<g clip-path="url(#clip1_7193_310)">
<path d="M34 15C23.5235 15 15 23.5235 15 34C15 44.4765 23.5235 53 34 53C44.4765 53 53 44.4765 53 34C53 23.5235 44.4765 15 34 15ZM29.4126 25.6711C30.57 24.4443 32.1987 23.7692 34 23.7692C35.8013 23.7692 37.4154 24.4488 38.5774 25.682C39.7548 26.9316 40.3275 28.6106 40.1924 30.4156C39.922 34 37.145 36.9231 34 36.9231C30.855 36.9231 28.0725 34 27.8076 30.4147C27.6734 28.595 28.2452 26.9106 29.4126 25.6711ZM34 50.0769C31.8538 50.0783 29.7291 49.6488 27.7521 48.8137C25.775 47.9786 23.9857 46.755 22.4904 45.2155C23.3468 43.9941 24.438 42.9557 25.7003 42.1609C28.0287 40.6683 30.9755 39.8462 34 39.8462C37.0245 39.8462 39.9713 40.6683 42.297 42.1609C43.5603 42.9554 44.6525 43.9938 45.5096 45.2155C44.0144 46.7552 42.2252 47.9789 40.2481 48.814C38.2709 49.6491 36.1462 50.0785 34 50.0769Z" fill="#000C76"/>
</g>
</g>
<defs>
<clipPath id="clip0_7193_310">
<rect width="38" height="38" fill="white" transform="translate(15 15)"/>
</clipPath>
<clipPath id="clip1_7193_310">
<rect width="38" height="38" fill="white" transform="translate(15 15)"/>
</clipPath>
</defs>
</svg>
