<svg width="48" height="48" viewBox="0 0 48 48" fill="none" xmlns="http://www.w3.org/2000/svg">
<circle cx="24" cy="24" r="24" fill="white"/>
<path d="M24 28.6875C26.0711 28.6875 27.75 27.0086 27.75 24.9375C27.75 22.8664 26.0711 21.1875 24 21.1875C21.9289 21.1875 20.25 22.8664 20.25 24.9375C20.25 27.0086 21.9289 28.6875 24 28.6875Z" fill="#373C6B"/>
<path d="M34.3125 17.4375H30.8555C30.6797 17.4375 30.4617 17.3238 30.2918 17.1445L28.7719 14.7457C28.7478 14.7076 28.721 14.6714 28.6916 14.6373C28.1666 14.025 27.457 13.6875 26.6953 13.6875H21.3047C20.543 13.6875 19.8334 14.025 19.3084 14.6373C19.279 14.6714 19.2522 14.7076 19.2281 14.7457L17.7082 17.148C17.5781 17.2898 17.3953 17.441 17.2031 17.441V16.9723C17.2031 16.7236 17.1044 16.4852 16.9285 16.3094C16.7527 16.1335 16.5143 16.0348 16.2656 16.0348H14.8594C14.6107 16.0348 14.3723 16.1335 14.1965 16.3094C14.0206 16.4852 13.9219 16.7236 13.9219 16.9723V17.441H13.6875C12.9418 17.4418 12.2269 17.7384 11.6996 18.2656C11.1723 18.7929 10.8758 19.5078 10.875 20.2535V31.5C10.8758 32.2457 11.1723 32.9606 11.6996 33.4879C12.2269 34.0152 12.9418 34.3117 13.6875 34.3125H34.3125C35.0582 34.3117 35.7731 34.0152 36.3004 33.4879C36.8277 32.9606 37.1242 32.2457 37.125 31.5V20.25C37.1242 19.5043 36.8277 18.7894 36.3004 18.2621C35.7731 17.7348 35.0582 17.4383 34.3125 17.4375ZM24 30.5625C22.8875 30.5625 21.7999 30.2326 20.8749 29.6145C19.9499 28.9964 19.2289 28.1179 18.8032 27.0901C18.3774 26.0623 18.266 24.9313 18.4831 23.8401C18.7001 22.749 19.2359 21.7467 20.0225 20.96C20.8092 20.1734 21.8115 19.6376 22.9026 19.4206C23.9938 19.2035 25.1248 19.3149 26.1526 19.7407C27.1804 20.1664 28.0589 20.8874 28.677 21.8124C29.2951 22.7374 29.625 23.825 29.625 24.9375C29.6233 26.4288 29.0301 27.8586 27.9756 28.9131C26.9211 29.9676 25.4913 30.5608 24 30.5625Z" fill="#373C6B"/>
</svg>
