<svg width="68" height="68" viewBox="0 0 68 68" fill="none" xmlns="http://www.w3.org/2000/svg">
<g id="Group 208">
<circle id="Ellipse 256" cx="34" cy="34" r="34" fill="white"/>
<path id="Vector" d="M50.0005 23.8358V43.0387C49.9994 43.221 49.9552 43.4009 49.8709 43.5665C49.7866 43.7321 49.6641 43.8795 49.5117 43.9989C46.8059 46.116 44.2187 46.8793 41.7519 46.8793C38.4033 46.8793 35.276 45.4807 32.3665 44.1829C27.665 42.0786 23.5779 40.2559 18.8338 43.642V50.7199C18.8338 51.0595 18.6846 51.3851 18.4189 51.6252C18.1532 51.8652 17.7929 52.0001 17.4172 52.0001C17.0414 52.0001 16.6811 51.8652 16.4154 51.6252C16.1497 51.3851 16.0005 51.0595 16.0005 50.7199V23.8358C16.0018 23.6534 16.0463 23.4734 16.1309 23.3078C16.2155 23.1422 16.3383 22.9948 16.491 22.8756C22.866 17.886 28.5876 20.4416 33.6309 22.6964C38.4901 24.8695 42.7029 26.7482 47.6559 22.8756C47.8606 22.7152 48.1119 22.6113 48.38 22.5761C48.6482 22.5408 48.9218 22.5758 49.1686 22.6769C49.4154 22.7779 49.6249 22.9408 49.7723 23.1462C49.9198 23.3516 49.999 23.5909 50.0005 23.8358Z" fill="#000C76"/>
</g>
</svg>
