<svg width="68" height="68" viewBox="0 0 68 68" fill="none" xmlns="http://www.w3.org/2000/svg">
<g id="Group 207">
<circle id="Ellipse 256" cx="34" cy="34" r="34" fill="white"/>
<path id="Vector" d="M33 13.9994H41.1667C41.8084 13.9994 42.3334 14.5338 42.3334 15.1869V19.9369C42.3334 20.59 41.8084 21.1244 41.1667 21.1244H35.3844L41.9177 25.8744H49.3334C51.9073 25.8744 54 28.0045 54 30.6244V47.2494C54 49.8693 51.9073 51.9994 49.3334 51.9994H36.5V43.6869C36.5 41.7201 34.9323 40.1244 33 40.1244C31.0678 40.1244 29.5 41.7201 29.5 43.6869V51.9994H16.6667C14.0928 51.9994 12.0001 49.8693 12.0001 47.2494V30.6244C12.0001 28.0045 14.0928 25.8744 16.6667 25.8744H24.0823L30.6667 21.0873V16.3744C30.6667 15.0607 31.7094 13.9994 33 13.9994ZM36.5 31.8119C36.5 30.867 36.1313 29.9609 35.4749 29.2928C34.8185 28.6247 33.9283 28.2494 33 28.2494C32.0718 28.2494 31.1815 28.6247 30.5252 29.2928C29.8688 29.9609 29.5 30.867 29.5 31.8119C29.5 32.7567 29.8688 33.6628 30.5252 34.3309C31.1815 34.999 32.0718 35.3744 33 35.3744C33.9283 35.3744 34.8185 34.999 35.4749 34.3309C36.1313 33.6628 36.5 32.7567 36.5 31.8119ZM17.8334 30.6244C17.1917 30.6244 16.6667 31.1588 16.6667 31.8119V36.5619C16.6667 37.215 17.1917 37.7494 17.8334 37.7494H20.1667C20.8084 37.7494 21.3334 37.215 21.3334 36.5619V31.8119C21.3334 31.1588 20.8084 30.6244 20.1667 30.6244H17.8334ZM44.6667 31.8119V36.5619C44.6667 37.215 45.1917 37.7494 45.8334 37.7494H48.1667C48.8084 37.7494 49.3334 37.215 49.3334 36.5619V31.8119C49.3334 31.1588 48.8084 30.6244 48.1667 30.6244H45.8334C45.1917 30.6244 44.6667 31.1588 44.6667 31.8119ZM17.8334 40.1244C17.1917 40.1244 16.6667 40.6587 16.6667 41.3119V46.0619C16.6667 46.715 17.1917 47.2494 17.8334 47.2494H20.1667C20.8084 47.2494 21.3334 46.715 21.3334 46.0619V41.3119C21.3334 40.6587 20.8084 40.1244 20.1667 40.1244H17.8334ZM45.8334 40.1244C45.1917 40.1244 44.6667 40.6587 44.6667 41.3119V46.0619C44.6667 46.715 45.1917 47.2494 45.8334 47.2494H48.1667C48.8084 47.2494 49.3334 46.715 49.3334 46.0619V41.3119C49.3334 40.6587 48.8084 40.1244 48.1667 40.1244H45.8334Z" fill="#000C76"/>
</g>
</svg>
