<svg width="68" height="68" viewBox="0 0 68 68" fill="none" xmlns="http://www.w3.org/2000/svg">
<g id="Group 208">
<circle id="Ellipse 256" cx="34" cy="34" r="34" fill="white"/>
<path id="Vector" d="M23.2946 39.8519C23.2946 40.3373 23.3189 40.8181 23.3659 41.2913C21.5415 40.5117 19.9361 39.2967 18.6903 37.7526C17.4446 36.2085 16.5964 34.3825 16.2202 32.4346C15.8439 30.4866 15.9511 28.4761 16.5323 26.5791C17.1135 24.6822 18.151 22.9567 19.5539 21.5539C20.9567 20.151 22.6822 19.1135 24.5791 18.5323C26.4761 17.9511 28.4866 17.8439 30.4346 18.2202C32.3825 18.5964 34.2085 19.4446 35.7526 20.6903C37.2967 21.9361 38.5117 23.5415 39.2913 25.3659C38.8181 25.3189 38.3373 25.2946 37.8519 25.2946C33.9927 25.2998 30.293 26.8352 27.5641 29.5641C24.8352 32.293 23.2998 35.9927 23.2946 39.8519ZM40.2817 30.145C40.2813 29.4006 40.2118 28.6577 40.0739 27.9261C39.3423 27.7882 38.5994 27.7187 37.855 27.7183C34.638 27.7219 31.5539 29.0015 29.2792 31.2762C27.0045 33.5509 25.725 36.635 25.7214 39.8519C25.7217 40.5964 25.7913 41.3393 25.9291 42.0709C26.6608 42.2087 27.4036 42.2783 28.1481 42.2786C31.365 42.275 34.4491 40.9955 36.7238 38.7208C38.9986 36.4461 40.2781 33.362 40.2817 30.145ZM42.6371 28.7057C42.6841 29.1789 42.7084 29.6597 42.7084 30.145C42.704 34.0053 41.1685 37.7062 38.4389 40.4359C35.7093 43.1655 32.0084 44.701 28.1481 44.7054C27.6627 44.7054 27.1819 44.6811 26.7087 44.6341C27.4883 46.4585 28.7033 48.0639 30.2474 49.3097C31.7915 50.5555 33.6175 51.4036 35.5654 51.7798C37.5134 52.1561 39.5239 52.0489 41.4209 51.4677C43.3178 50.8865 45.0433 49.849 46.4461 48.4461C47.849 47.0433 48.8865 45.3178 49.4677 43.4209C50.0489 41.5239 50.1561 39.5134 49.7798 37.5654C49.4036 35.6175 48.5555 33.7915 47.3097 32.2474C46.0639 30.7033 44.4585 29.4883 42.6341 28.7087L42.6371 28.7057Z" fill="#000C76"/>
</g>
</svg>
