<svg width="138" height="138" viewBox="0 0 138 138" fill="none" xmlns="http://www.w3.org/2000/svg">
<path d="M138 69C138 30.8923 107.108 0 69 0C30.8924 0 0 30.8923 0 69C0 107.108 30.8924 138 69 138C107.108 138 138 107.108 138 69ZM8.28 69C8.28 35.4653 35.4653 8.28 69 8.28C102.535 8.28 129.72 35.4653 129.72 69C129.72 102.535 102.535 129.72 69 129.72C35.4653 129.72 8.28 102.535 8.28 69Z" fill="#1D2240"/>
<mask id="path-2-inside-1_7574_14176" fill="white">
<path d="M69 0C53.5013 0 38.4539 5.21797 26.2825 14.8131C14.1111 24.4083 5.52458 37.8218 1.90648 52.8923C-1.71163 67.9627 -0.150563 83.8125 6.33812 97.8875C12.8268 111.963 23.8652 123.443 37.6747 130.479C51.4841 137.516 67.2603 139.698 82.4612 136.674C97.6621 133.651 111.402 125.597 121.468 113.812C131.534 102.027 137.338 87.1957 137.947 71.7089C138.555 56.2222 133.932 40.9815 124.822 28.4428L118.124 33.3097C126.14 44.3438 130.209 57.7555 129.673 71.3839C129.138 85.0122 124.03 98.0634 115.172 108.434C106.314 118.806 94.2227 125.892 80.8459 128.553C67.4691 131.214 53.586 129.294 41.4337 123.102C29.2814 116.91 19.5676 106.807 13.8575 94.421C8.1475 82.035 6.77377 68.0872 9.9577 54.8252C13.1416 41.5632 20.6978 29.7593 31.4086 21.3156C42.1194 12.8718 55.3611 8.28 69 8.28V0Z"/>
</mask>
<path d="M69 0C53.5013 0 38.4539 5.21797 26.2825 14.8131C14.1111 24.4083 5.52458 37.8218 1.90648 52.8923C-1.71163 67.9627 -0.150563 83.8125 6.33812 97.8875C12.8268 111.963 23.8652 123.443 37.6747 130.479C51.4841 137.516 67.2603 139.698 82.4612 136.674C97.6621 133.651 111.402 125.597 121.468 113.812C131.534 102.027 137.338 87.1957 137.947 71.7089C138.555 56.2222 133.932 40.9815 124.822 28.4428L118.124 33.3097C126.14 44.3438 130.209 57.7555 129.673 71.3839C129.138 85.0122 124.03 98.0634 115.172 108.434C106.314 118.806 94.2227 125.892 80.8459 128.553C67.4691 131.214 53.586 129.294 41.4337 123.102C29.2814 116.91 19.5676 106.807 13.8575 94.421C8.1475 82.035 6.77377 68.0872 9.9577 54.8252C13.1416 41.5632 20.6978 29.7593 31.4086 21.3156C42.1194 12.8718 55.3611 8.28 69 8.28V0Z" fill="white" stroke="white" stroke-width="8" mask="url(#path-2-inside-1_7574_14176)"/>
</svg>
