<svg width="120" height="120" viewBox="0 0 120 120" fill="none" xmlns="http://www.w3.org/2000/svg">
<path d="M0 60C0 26.8629 26.8629 0 60 0C93.1371 0 120 26.8629 120 60C120 93.1371 93.1371 120 60 120C26.8629 120 0 93.1371 0 60ZM112.8 60C112.8 30.8394 89.1606 7.2 60 7.2C30.8394 7.2 7.2 30.8394 7.2 60C7.2 89.1606 30.8394 112.8 60 112.8C89.1606 112.8 112.8 89.1606 112.8 60Z" fill="#1D2240"/>
<mask id="path-2-inside-1_7574_14176" fill="white">
<path d="M60 0C47.3292 0 34.9837 4.0113 24.7329 11.459C14.482 18.9067 6.85208 29.4084 2.93661 41.459C-0.978871 53.5096 -0.978869 66.4904 2.93661 78.541C6.85209 90.5916 14.482 101.093 24.7329 108.541C34.9838 115.989 47.3293 120 60 120C72.6708 120 85.0163 115.989 95.2671 108.541C105.518 101.093 113.148 90.5916 117.063 78.541C120.979 66.4904 120.979 53.5096 117.063 41.459L110.216 43.6839C113.661 54.2884 113.661 65.7116 110.216 76.3161C106.77 86.9206 100.056 96.1621 91.0351 102.716C82.0143 109.27 71.1503 112.8 60 112.8C48.8497 112.8 37.9857 109.27 28.9649 102.716C19.9442 96.1621 13.2298 86.9206 9.78422 76.3161C6.3386 65.7116 6.33859 54.2884 9.78421 43.6839C13.2298 33.0794 19.9442 23.8379 28.9649 17.2839C37.9857 10.7299 48.8497 7.2 60 7.2V0Z"/>
</mask>
<path d="M60 0C47.3292 0 34.9837 4.0113 24.7329 11.459C14.482 18.9067 6.85208 29.4084 2.93661 41.459C-0.978871 53.5096 -0.978869 66.4904 2.93661 78.541C6.85209 90.5916 14.482 101.093 24.7329 108.541C34.9838 115.989 47.3293 120 60 120C72.6708 120 85.0163 115.989 95.2671 108.541C105.518 101.093 113.148 90.5916 117.063 78.541C120.979 66.4904 120.979 53.5096 117.063 41.459L110.216 43.6839C113.661 54.2884 113.661 65.7116 110.216 76.3161C106.77 86.9206 100.056 96.1621 91.0351 102.716C82.0143 109.27 71.1503 112.8 60 112.8C48.8497 112.8 37.9857 109.27 28.9649 102.716C19.9442 96.1621 13.2298 86.9206 9.78422 76.3161C6.3386 65.7116 6.33859 54.2884 9.78421 43.6839C13.2298 33.0794 19.9442 23.8379 28.9649 17.2839C37.9857 10.7299 48.8497 7.2 60 7.2V0Z" fill="white" stroke="white" stroke-width="6" mask="url(#path-2-inside-1_7574_14176)"/>
</svg>
