<svg width="92" height="92" viewBox="0 0 92 92" fill="none" xmlns="http://www.w3.org/2000/svg">
<path d="M-4.57764e-05 46C-4.57764e-05 20.5949 20.5804 0 45.9678 0C71.3551 0 91.9355 20.5949 91.9355 46C91.9355 71.4051 71.3551 92 45.9678 92C20.5804 92 -4.57764e-05 71.4051 -4.57764e-05 46ZM86.4194 46C86.4194 23.6435 68.3086 5.52 45.9678 5.52C23.6269 5.52 5.51609 23.6435 5.51609 46C5.51609 68.3565 23.6269 86.48 45.9678 86.48C68.3086 86.48 86.4194 68.3565 86.4194 46Z" fill="#1D2240"/>
<mask id="path-2-inside-1_7584_2979" fill="white">
<path d="M46.0322 0C37.3093 0 28.7665 2.48367 21.4015 7.16092C14.0365 11.8382 8.15338 18.5159 4.43934 26.4142C0.725307 34.3124 -0.666348 43.1051 0.426923 51.7653C1.5202 60.4255 5.05326 68.5957 10.6135 75.3215C16.1737 82.0473 23.5314 87.0512 31.8274 89.7486C40.1234 92.446 49.0151 92.7256 57.464 90.5548C65.9128 88.384 73.5701 83.8524 79.5413 77.4892C85.5126 71.126 89.5513 63.1939 91.1858 54.6195L85.7674 53.5852C84.329 61.1307 80.7749 68.1109 75.5202 73.7105C70.2655 79.3101 63.5272 83.2979 56.0922 85.2082C48.6572 87.1186 40.8325 86.8725 33.532 84.4988C26.2315 82.125 19.7567 77.7217 14.8637 71.8029C9.97074 65.8842 6.86164 58.6945 5.89956 51.0735C4.93748 43.4525 6.16214 35.7149 9.43049 28.7645C12.6988 21.814 17.876 15.9376 24.3572 11.8216C30.8384 7.70563 38.3561 5.52 46.0322 5.52L46.0322 0Z"/>
</mask>
<path d="M46.0322 0C37.3093 0 28.7665 2.48367 21.4015 7.16092C14.0365 11.8382 8.15338 18.5159 4.43934 26.4142C0.725307 34.3124 -0.666348 43.1051 0.426923 51.7653C1.5202 60.4255 5.05326 68.5957 10.6135 75.3215C16.1737 82.0473 23.5314 87.0512 31.8274 89.7486C40.1234 92.446 49.0151 92.7256 57.464 90.5548C65.9128 88.384 73.5701 83.8524 79.5413 77.4892C85.5126 71.126 89.5513 63.1939 91.1858 54.6195L85.7674 53.5852C84.329 61.1307 80.7749 68.1109 75.5202 73.7105C70.2655 79.3101 63.5272 83.2979 56.0922 85.2082C48.6572 87.1186 40.8325 86.8725 33.532 84.4988C26.2315 82.125 19.7567 77.7217 14.8637 71.8029C9.97074 65.8842 6.86164 58.6945 5.89956 51.0735C4.93748 43.4525 6.16214 35.7149 9.43049 28.7645C12.6988 21.814 17.876 15.9376 24.3572 11.8216C30.8384 7.70563 38.3561 5.52 46.0322 5.52L46.0322 0Z" fill="white" stroke="white" stroke-width="6" mask="url(#path-2-inside-1_7584_2979)"/>
</svg>
