<svg width="30" height="24" viewBox="0 0 30 24" fill="none" xmlns="http://www.w3.org/2000/svg">
<path d="M17.6668 2.66666C17.6668 3.37332 17.3921 4.01599 16.9428 4.49332L20.4415 8.86666C20.489 8.92634 20.5556 8.9679 20.6301 8.9844C20.7046 9.00091 20.7825 8.99135 20.8508 8.95732L24.3841 7.18932C24.3078 6.80249 24.318 6.40356 24.414 6.02114C24.5101 5.63872 24.6896 5.2823 24.9396 4.97744C25.1897 4.67257 25.5041 4.42684 25.8604 4.25784C26.2166 4.08885 26.6058 4.00079 27.0001 3.99999C27.6557 4.00012 28.2882 4.24174 28.777 4.6787C29.2657 5.11565 29.5763 5.71732 29.6495 6.36879C29.7228 7.02026 29.5535 7.67587 29.1739 8.21042C28.7944 8.74497 28.2313 9.12099 27.5921 9.26666L25.1868 22.0973C25.0864 22.6321 24.8022 23.115 24.3834 23.4624C23.9646 23.8099 23.4376 24 22.8935 24H7.10678C6.56265 24 6.03561 23.8099 5.61684 23.4624C5.19806 23.115 4.91388 22.6321 4.81345 22.0973L2.40812 9.26666C1.89693 9.15011 1.43144 8.88546 1.06986 8.50579C0.708269 8.12612 0.466626 7.64828 0.37514 7.13202C0.283654 6.61576 0.346384 6.08399 0.555489 5.60318C0.764593 5.12238 1.11079 4.71389 1.5508 4.42878C1.99081 4.14367 2.5051 3.9946 3.02937 4.0002C3.55365 4.0058 4.06464 4.16582 4.49846 4.46026C4.93228 4.7547 5.26967 5.17049 5.46846 5.65565C5.66725 6.14081 5.71861 6.6738 5.61612 7.18799L9.14945 8.95599C9.21775 8.99001 9.29566 8.99957 9.37016 8.98307C9.44466 8.96657 9.51124 8.92501 9.55878 8.86532L13.0575 4.49199C12.7594 4.175 12.5434 3.78988 12.4283 3.37023C12.3133 2.95058 12.3027 2.50916 12.3975 2.08447C12.4922 1.65978 12.6895 1.26473 12.972 0.933793C13.2545 0.602854 13.6137 0.346077 14.0183 0.185866C14.4228 0.0256558 14.8605 -0.0331207 15.293 0.0146647C15.7255 0.06245 16.1397 0.215345 16.4995 0.460011C16.8594 0.704677 17.1539 1.03368 17.3573 1.41831C17.5608 1.80295 17.667 2.23153 17.6668 2.66666ZM15.0001 18.6667C15.7074 18.6667 16.3856 18.3857 16.8857 17.8856C17.3858 17.3855 17.6668 16.7072 17.6668 16C17.6668 15.2927 17.3858 14.6145 16.8857 14.1144C16.3856 13.6143 15.7074 13.3333 15.0001 13.3333C14.2929 13.3333 13.6146 13.6143 13.1145 14.1144C12.6144 14.6145 12.3335 15.2927 12.3335 16C12.3335 16.7072 12.6144 17.3855 13.1145 17.8856C13.6146 18.3857 14.2929 18.6667 15.0001 18.6667Z" fill="#C1AA57"/>
</svg>
