<svg width="38" height="30" viewBox="0 0 38 30" fill="none" xmlns="http://www.w3.org/2000/svg">
<path d="M22.3334 3.33344C22.3334 4.21678 21.9901 5.02011 21.4284 5.61678L25.8018 11.0834C25.8612 11.158 25.9444 11.21 26.0375 11.2306C26.1307 11.2513 26.228 11.2393 26.3134 11.1968L30.7301 8.98678C30.6347 8.50324 30.6474 8.00457 30.7675 7.52654C30.8875 7.04852 31.1119 6.60299 31.4245 6.22192C31.737 5.84084 32.1301 5.53367 32.5754 5.32242C33.0207 5.11118 33.5072 5.00111 34.0001 5.00011C34.8195 5.00028 35.6102 5.3023 36.2211 5.84849C36.832 6.39468 37.2203 7.14677 37.3119 7.96111C37.4034 8.77544 37.1918 9.59496 36.7174 10.2631C36.243 10.9313 35.5391 11.4014 34.7401 11.5834L31.7334 27.6218C31.6079 28.2903 31.2527 28.8939 30.7292 29.3281C30.2057 29.7624 29.5469 30.0001 28.8668 30.0001H9.13342C8.45325 30.0001 7.79445 29.7624 7.27099 29.3281C6.74752 28.8939 6.39229 28.2903 6.26675 27.6218L3.26009 11.5834C2.6211 11.4378 2.03925 11.1069 1.58726 10.6324C1.13528 10.1578 0.833222 9.56047 0.718864 8.91515C0.604506 8.26982 0.682919 7.6051 0.9443 7.0041C1.20568 6.4031 1.63843 5.89248 2.18844 5.5361C2.73845 5.17971 3.38131 4.99337 4.03666 5.00037C4.692 5.00737 5.33074 5.2074 5.87301 5.57545C6.41528 5.9435 6.83703 6.46324 7.08551 7.06969C7.334 7.67613 7.3982 8.34237 7.27008 8.98511L11.6868 11.1951C11.7721 11.2376 11.8695 11.2496 11.9626 11.229C12.0558 11.2083 12.139 11.1564 12.1984 11.0818L16.5718 5.61511C16.1991 5.21887 15.9292 4.73747 15.7854 4.21291C15.6416 3.68835 15.6283 3.13657 15.7468 2.60571C15.8652 2.07485 16.1118 1.58104 16.4649 1.16736C16.8181 0.753689 17.2671 0.432718 17.7728 0.232455C18.2785 0.0321919 18.8255 -0.0412788 19.3661 0.0184529C19.9068 0.0781846 20.4246 0.269304 20.8744 0.575136C21.3241 0.880968 21.6923 1.29222 21.9466 1.77301C22.2009 2.25381 22.3337 2.78953 22.3334 3.33344ZM19.0001 23.3334C19.8841 23.3334 20.732 22.9823 21.3571 22.3571C21.9822 21.732 22.3334 20.8842 22.3334 20.0001C22.3334 19.1161 21.9822 18.2682 21.3571 17.6431C20.732 17.018 19.8841 16.6668 19.0001 16.6668C18.116 16.6668 17.2682 17.018 16.6431 17.6431C16.0179 18.2682 15.6668 19.1161 15.6668 20.0001C15.6668 20.8842 16.0179 21.732 16.6431 22.3571C17.2682 22.9823 18.116 23.3334 19.0001 23.3334Z" fill="#FFC700"/>
</svg>
