<svg width="34" height="28" viewBox="0 0 34 28" fill="none" xmlns="http://www.w3.org/2000/svg">
<path d="M20.0001 3.49993C20.0001 4.29493 19.6911 5.01793 19.1856 5.55493L23.1216 10.4749C23.1751 10.5421 23.25 10.5888 23.3338 10.6074C23.4176 10.626 23.5053 10.6152 23.5821 10.5769L27.5571 8.58793C27.4712 8.15274 27.4827 7.70394 27.5908 7.27372C27.6988 6.8435 27.9007 6.44252 28.182 6.09955C28.4634 5.75659 28.8171 5.48013 29.2179 5.29001C29.6186 5.09989 30.0565 5.00083 30.5001 4.99993C31.2376 5.00008 31.9492 5.2719 32.4991 5.76347C33.0489 6.25504 33.3983 6.93192 33.4807 7.66482C33.5631 8.39773 33.3726 9.1353 32.9457 9.73666C32.5187 10.338 31.8852 10.761 31.1661 10.9249L28.4601 25.3594C28.3471 25.9611 28.0274 26.5043 27.5563 26.8952C27.0852 27.286 26.4923 27.5 25.8801 27.4999H8.1201C7.50795 27.5 6.91503 27.286 6.44391 26.8952C5.97279 26.5043 5.65309 25.9611 5.5401 25.3594L2.8341 10.9249C2.25902 10.7938 1.73535 10.4961 1.32856 10.0689C0.921773 9.64182 0.649924 9.10425 0.547002 8.52346C0.44408 7.94267 0.514652 7.34442 0.749894 6.80352C0.985137 6.26262 1.37461 5.80306 1.86962 5.48232C2.36463 5.16157 2.94321 4.99386 3.53302 5.00016C4.12282 5.00646 4.69769 5.18649 5.18573 5.51773C5.67378 5.84898 6.05335 6.31675 6.27699 6.86255C6.50062 7.40835 6.5584 8.00797 6.4431 8.58643L10.4181 10.5754C10.4949 10.6137 10.5826 10.6245 10.6664 10.6059C10.7502 10.5873 10.8251 10.5406 10.8786 10.4734L14.8146 5.55343C14.4793 5.19681 14.2363 4.76355 14.1069 4.29145C13.9774 3.81934 13.9655 3.32274 14.0721 2.84496C14.1787 2.36719 14.4006 1.92276 14.7185 1.55046C15.0363 1.17815 15.4404 0.889275 15.8955 0.709039C16.3507 0.528802 16.843 0.462678 17.3296 0.516437C17.8161 0.570195 18.2821 0.742202 18.6869 1.01745C19.0918 1.2927 19.4231 1.66283 19.652 2.09554C19.8808 2.52825 20.0004 3.01041 20.0001 3.49993ZM17.0001 21.4999C17.7958 21.4999 18.5588 21.1839 19.1214 20.6212C19.684 20.0586 20.0001 19.2956 20.0001 18.4999C20.0001 17.7043 19.684 16.9412 19.1214 16.3786C18.5588 15.816 17.7958 15.4999 17.0001 15.4999C16.2045 15.4999 15.4414 15.816 14.8788 16.3786C14.3162 16.9412 14.0001 17.7043 14.0001 18.4999C14.0001 19.2956 14.3162 20.0586 14.8788 20.6212C15.4414 21.1839 16.2045 21.4999 17.0001 21.4999Z" fill="#CECECE"/>
</svg>
