<svg width="20" height="20" viewBox="0 0 75 54" fill="none" xmlns="http://www.w3.org/2000/svg">
<path d="M49.9996 27C46.7871 27 43.6808 25.5917 41.2496 23.0359C38.8856 20.543 37.4418 17.2186 37.1871 13.6779C36.9153 9.90101 38.0887 6.42783 40.4902 3.89659C42.8918 1.36534 46.2496 0 49.9996 0C53.723 0 57.0902 1.38988 59.4839 3.91499C61.9011 6.46465 63.0776 9.93169 62.8057 13.6764C62.5448 17.2217 61.1026 20.5445 58.7433 23.0343C56.3183 25.5917 53.2136 27 49.9996 27ZM70.5979 53.9999H29.4028C28.7405 54.0034 28.0862 53.8577 27.4902 53.5739C26.8943 53.2901 26.3726 52.8759 25.9653 52.3631C25.5333 51.8071 25.2349 51.1625 25.0926 50.4773C24.9503 49.7922 24.9677 49.0843 25.1434 48.4067C26.4591 43.2199 29.7184 38.9183 34.5684 35.9683C38.8731 33.3511 44.3527 31.9091 49.9996 31.9091C55.7573 31.9091 61.0933 33.2897 65.4229 35.9054C70.2838 38.8401 73.5479 43.1662 74.8572 48.4159C75.0309 49.094 75.0463 49.8019 74.9024 50.4867C74.7585 51.1715 74.4589 51.8155 74.026 52.3707C73.6191 52.8812 73.0986 53.2934 72.5044 53.5758C71.9102 53.8582 71.258 54.0033 70.5979 53.9999ZM20.4685 27.6136C14.9701 27.6136 10.1357 22.5941 9.68727 16.4255C9.4654 13.2653 10.4685 10.3428 12.4998 8.19971C14.5091 6.07806 17.3435 4.90909 20.4685 4.90909C23.5934 4.90909 26.4059 6.0842 28.4262 8.21812C30.4731 10.3781 31.4731 13.2944 31.2387 16.4286C30.7903 22.5956 25.9575 27.6136 20.4685 27.6136ZM30.7278 32.4383C27.9794 31.119 24.4122 30.4593 20.47 30.4593C15.8669 30.4593 11.3966 31.6375 7.88103 33.776C3.89511 36.2045 1.21388 39.7406 0.131072 44.0099C-0.0273883 44.624 -0.0423758 45.2654 0.0872302 45.8859C0.216836 46.5065 0.487681 47.0903 0.879505 47.5936C1.2513 48.0622 1.7276 48.4408 2.27179 48.7004C2.81598 48.96 3.41355 49.0936 4.01855 49.0909H21.3622C21.6549 49.0908 21.9384 48.9899 22.1631 48.8057C22.3878 48.6215 22.5396 48.3657 22.5919 48.083C22.6091 47.9863 22.631 47.8897 22.656 47.7945C23.9809 42.5694 27.0856 38.1543 31.6731 34.9358C31.8418 34.8164 31.9775 34.6575 32.0679 34.4736C32.1583 34.2897 32.2006 34.0865 32.1908 33.8825C32.181 33.6786 32.1195 33.4802 32.0119 33.3054C31.9044 33.1306 31.7541 32.985 31.5747 32.8817C31.3293 32.7405 31.0481 32.5917 30.7278 32.4383Z" fill="white"/>
</svg>
