<svg width="121" height="39" viewBox="0 0 121 39" fill="none" xmlns="http://www.w3.org/2000/svg">
<g filter="url(#filter0_d_6162_6903)">
<path d="M83.6635 11.3662C92.6235 12.4101 103.124 13.9536 106.908 15.7681C110.692 17.5827 111.177 19.5717 108.292 21.4406C105.407 23.3095 99.3038 24.9588 90.8878 26.1443C82.4718 27.3297 72.1901 27.9883 61.5658 28.0224C50.9416 28.0564 40.5398 27.4642 31.9013 26.3334C23.2629 25.2027 16.8472 23.5935 13.6047 21.7442C10.3622 19.895 10.4654 17.9041 13.8989 16.0664C17.3324 14.2287 23.9136 12.642 32.6676 11.5414L36.0885 12.45C28.3498 13.0894 19.466 14.9224 16.4516 16.5358C13.4371 18.1492 12.4287 18.529 15.2755 20.1526C18.1223 21.7761 27.8315 24.444 35.4157 25.4368C42.9999 26.4296 52.1323 26.9495 61.4599 26.9196C70.7876 26.8897 79.8145 26.3115 87.2034 25.2707C94.5923 24.2299 104.375 22.0849 106.908 20.4441C109.441 18.8033 107.586 17.2374 103.923 15.7681C100.601 14.1751 89.4891 12.9064 81.6226 11.99L83.6635 11.3662Z" fill="url(#paint0_linear_6162_6903)" shape-rendering="crispEdges"/>
</g>
<defs>
<filter id="filter0_d_6162_6903" x="0.835135" y="0.955253" width="119.726" height="37.4794" filterUnits="userSpaceOnUse" color-interpolation-filters="sRGB">
<feFlood flood-opacity="0" result="BackgroundImageFix"/>
<feColorMatrix in="SourceAlpha" type="matrix" values="0 0 0 0 0 0 0 0 0 0 0 0 0 0 0 0 0 0 127 0" result="hardAlpha"/>
<feOffset/>
<feGaussianBlur stdDeviation="5.20548"/>
<feComposite in2="hardAlpha" operator="out"/>
<feColorMatrix type="matrix" values="0 0 0 0 1 0 0 0 0 1 0 0 0 0 1 0 0 0 0.25 0"/>
<feBlend mode="normal" in2="BackgroundImageFix" result="effect1_dropShadow_6162_6903"/>
<feBlend mode="normal" in="SourceGraphic" in2="effect1_dropShadow_6162_6903" result="shape"/>
</filter>
<linearGradient id="paint0_linear_6162_6903" x1="60.6981" y1="11.3662" x2="60.6981" y2="28.0237" gradientUnits="userSpaceOnUse">
<stop stop-color="white" stop-opacity="0.1"/>
<stop offset="0.260417" stop-color="white"/>
<stop offset="0.682292" stop-color="white" stop-opacity="0.93"/>
<stop offset="1" stop-color="white" stop-opacity="0.26"/>
</linearGradient>
</defs>
</svg>
