<svg width="132" height="40" viewBox="0 0 132 40" fill="none" xmlns="http://www.w3.org/2000/svg">
<g filter="url(#filter0_d_6393_8652)">
<path d="M91.5418 11C101.507 12.128 113.185 13.7959 117.394 15.7567C121.603 17.7175 122.143 19.8668 118.933 21.8863C115.724 23.9058 108.937 25.688 99.5766 26.9691C90.2164 28.2501 78.7812 28.9617 66.965 28.9985C55.1488 29.0353 43.5801 28.3954 33.9725 27.1735C24.3649 25.9516 17.2295 24.2127 13.6232 22.2144C10.017 20.2162 10.1317 18.0648 13.9504 16.079C17.7691 14.0932 25.0886 12.3786 34.8248 11.1893L38.6294 12.1711C30.0226 12.8621 20.1421 14.8428 16.7895 16.5862C13.4368 18.3296 12.3153 18.7401 15.4815 20.4945C18.6476 22.2489 29.4461 25.1318 37.8812 26.2046C46.3162 27.2774 56.4731 27.8392 66.8472 27.8069C77.2214 27.7746 87.261 27.1498 95.4788 26.0251C103.697 24.9004 114.576 22.5825 117.394 20.8095C120.212 19.0365 118.148 17.3443 114.074 15.7567C110.379 14.0352 98.0209 12.6644 89.2719 11.674L91.5418 11Z" fill="url(#paint0_linear_6393_8652)" shape-rendering="crispEdges"/>
</g>
<defs>
<filter id="filter0_d_6393_8652" x="0.589042" y="0.589042" width="130.822" height="38.8219" filterUnits="userSpaceOnUse" color-interpolation-filters="sRGB">
<feFlood flood-opacity="0" result="BackgroundImageFix"/>
<feColorMatrix in="SourceAlpha" type="matrix" values="0 0 0 0 0 0 0 0 0 0 0 0 0 0 0 0 0 0 127 0" result="hardAlpha"/>
<feOffset/>
<feGaussianBlur stdDeviation="5.20548"/>
<feComposite in2="hardAlpha" operator="out"/>
<feColorMatrix type="matrix" values="0 0 0 0 1 0 0 0 0 1 0 0 0 0 1 0 0 0 0.25 0"/>
<feBlend mode="normal" in2="BackgroundImageFix" result="effect1_dropShadow_6393_8652"/>
<feBlend mode="normal" in="SourceGraphic" in2="effect1_dropShadow_6393_8652" result="shape"/>
</filter>
<linearGradient id="paint0_linear_6393_8652" x1="66" y1="11" x2="66" y2="29" gradientUnits="userSpaceOnUse">
<stop stop-color="white" stop-opacity="0.1"/>
<stop offset="0.260417" stop-color="white"/>
<stop offset="0.682292" stop-color="white" stop-opacity="0.93"/>
<stop offset="1" stop-color="white" stop-opacity="0.26"/>
</linearGradient>
</defs>
</svg>
