<svg width="20" height="20" viewBox="0 0 21 19" fill="none" xmlns="http://www.w3.org/2000/svg">
<path d="M11.951 8.94L10.8631 7.8322C10.6139 7.57849 10.2762 7.43553 9.9237 7.43458C9.57125 7.43362 9.23277 7.57475 8.98226 7.82711L1.41852 14.9324C1.14311 15.1966 0.962275 15.5334 0.945609 15.9104C0.93759 16.0974 0.967528 16.2841 1.03355 16.4588C1.09958 16.6335 1.20028 16.7924 1.32936 16.9258L2.95435 18.5981C2.95522 18.5992 2.9562 18.6002 2.95727 18.601C3.20838 18.8558 3.54814 18.9994 3.90269 19.0006H3.95185C4.32227 18.9866 4.65393 18.8097 4.91727 18.5268L11.9464 10.863C12.0711 10.7372 12.1701 10.5876 12.2378 10.4228C12.3055 10.2579 12.3406 10.0811 12.341 9.90245C12.3414 9.72379 12.3072 9.54681 12.2403 9.38165C12.1734 9.21649 12.075 9.0664 11.951 8.94Z" fill="white"/>
<path d="M20.6943 6.70109L20.6813 6.68795L19.2534 5.24933C19.1698 5.16448 19.0705 5.09733 18.9612 5.05176C18.8519 5.00619 18.7349 4.9831 18.6168 4.98383C18.4254 4.98402 18.239 5.04544 18.0839 5.15942C18.0839 5.14118 18.0864 5.12337 18.0876 5.10768C18.1064 4.832 18.1355 4.41551 17.8709 4.03805C17.5564 3.60646 17.211 3.19905 16.8376 2.81913C16.8366 2.81789 16.8355 2.81675 16.8343 2.81573C16.2793 2.25929 15.0714 1.21129 13.2209 0.443207C12.5192 0.150039 11.7679 -0.000524753 11.0093 1.37411e-06C9.69429 1.37411e-06 8.69429 0.603948 8.31138 0.961905C8.09455 1.1727 7.89681 1.40294 7.72054 1.64983C7.63633 1.76814 7.59188 1.91097 7.59381 2.05706C7.59574 2.20315 7.64393 2.34471 7.73123 2.46068C7.81853 2.57665 7.94028 2.66085 8.07836 2.70075C8.21644 2.74065 8.36348 2.73412 8.49763 2.68214C8.61448 2.63767 8.73386 2.60042 8.85512 2.57059C9.10766 2.51623 9.36666 2.49979 9.62387 2.52182C10.1735 2.56805 10.8235 2.84585 11.111 3.07699C11.5985 3.47609 11.833 4.01387 11.8718 4.8197C11.8793 4.98171 11.5501 5.58905 11.0385 6.28206C10.941 6.41285 10.8934 6.57516 10.9045 6.73893C10.9156 6.90269 10.9847 7.05681 11.0989 7.17272L12.5326 8.63211C12.6531 8.75504 12.8153 8.82628 12.9858 8.83117C13.1563 8.83606 13.3222 8.77423 13.4493 8.65841C13.8547 8.28985 14.4722 7.73425 14.688 7.59811C15.0084 7.3975 15.2376 7.3589 15.3005 7.35212C15.4638 7.33582 15.628 7.37106 15.7709 7.45306C15.7717 7.46032 15.7709 7.46765 15.7686 7.47459C15.7664 7.48152 15.7628 7.48791 15.758 7.49335L15.6822 7.56672L15.6697 7.5786C15.5859 7.66357 15.5195 7.76458 15.4742 7.87581C15.4289 7.98703 15.4057 8.10628 15.4059 8.22667C15.4061 8.34707 15.4297 8.46623 15.4753 8.57731C15.5209 8.68838 15.5877 8.78917 15.6718 8.87386L17.0993 10.3121C17.1829 10.3968 17.2823 10.4639 17.3915 10.5094C17.5008 10.5549 17.6179 10.5779 17.7359 10.5771C17.973 10.5775 18.2008 10.4831 18.3701 10.3142L20.6826 7.98915C20.6905 7.98109 20.6984 7.97261 20.7059 7.96412C20.8611 7.79102 20.9461 7.56457 20.9439 7.33028C20.9418 7.09598 20.8526 6.87119 20.6943 6.70109Z" fill="white"/>
</svg>
