<svg width="53" height="54" viewBox="0 0 53 54" fill="none" xmlns="http://www.w3.org/2000/svg">
<path d="M51.863 32.1652L51.8074 32.1206L48.0738 29.2152C47.8373 29.0296 47.6486 28.791 47.5232 28.5189C47.3977 28.2469 47.3391 27.9492 47.3521 27.6503V26.2933C47.3403 25.9963 47.3996 25.7008 47.5253 25.431C47.6509 25.1612 47.8393 24.9249 48.075 24.7414L51.8074 21.8348L51.863 21.7902C52.4387 21.3143 52.8249 20.6509 52.9528 19.9183C53.0807 19.1858 52.9418 18.4321 52.561 17.7918L47.5083 9.11661C47.5025 9.10842 47.4973 9.09979 47.4929 9.09078C47.11 8.45941 46.5164 7.98103 45.8152 7.7387C45.1139 7.49638 44.3492 7.50542 43.654 7.76426L43.6126 7.77952L39.2235 9.53217C38.9465 9.64332 38.6468 9.68755 38.3492 9.66122C38.0516 9.63489 37.7645 9.53876 37.5117 9.38074C37.1236 9.13813 36.7293 8.90883 36.3286 8.69283C36.0689 8.55305 35.8458 8.35464 35.6775 8.11362C35.5092 7.8726 35.4004 7.5957 35.3597 7.30526L34.6984 2.65774L34.6842 2.57322C34.5402 1.85337 34.151 1.20464 33.5818 0.736036C33.0126 0.267435 32.2982 0.00753076 31.5586 0H21.4413C20.6914 0.00238131 19.9663 0.267319 19.3939 0.748139C18.8215 1.22896 18.4384 1.89481 18.3122 2.62839L18.3016 2.69413L17.6426 7.35104C17.6022 7.64065 17.4942 7.9169 17.3272 8.15779C17.1602 8.39868 16.9389 8.59756 16.6808 8.73861C16.2762 8.95461 15.8811 9.18352 15.4978 9.42183C15.2454 9.57888 14.9591 9.67428 14.6623 9.7002C14.3655 9.72611 14.0668 9.68181 13.7907 9.57091L9.39807 7.81004L9.35666 7.79361C8.6604 7.53449 7.89463 7.52579 7.19257 7.76901C6.49051 8.01224 5.8966 8.492 5.51417 9.12483L5.49879 9.15065L0.438963 17.8317C0.0575881 18.4726 -0.0816071 19.2272 0.046268 19.9606C0.174143 20.694 0.560749 21.3583 1.13695 21.8348L1.19255 21.8794L4.92621 24.7848C5.16265 24.9704 5.35134 25.209 5.47679 25.4811C5.60224 25.7531 5.66087 26.0508 5.64785 26.3497V27.7067C5.6597 28.0037 5.60036 28.2992 5.4747 28.569C5.34904 28.8388 5.16065 29.0751 4.92502 29.2586L1.19255 32.1652L1.13695 32.2098C0.561319 32.6857 0.175028 33.3491 0.0471529 34.0817C-0.0807216 34.8142 0.0581598 35.5679 0.438963 36.2082L5.49169 44.8834C5.49751 44.8916 5.50265 44.9002 5.50707 44.9092C5.88993 45.5406 6.48354 46.019 7.18482 46.2613C7.8861 46.5036 8.65075 46.4946 9.34601 46.2357L9.38742 46.2205L13.7729 44.4678C14.0499 44.3567 14.3496 44.3125 14.6472 44.3388C14.9449 44.3651 15.2319 44.4612 15.4848 44.6193C15.8728 44.8627 16.2671 45.092 16.6678 45.3072C16.9276 45.447 17.1506 45.6454 17.3189 45.8864C17.4872 46.1274 17.5961 46.4043 17.6367 46.6947L18.2945 51.3423L18.3087 51.4268C18.4529 52.1478 18.8432 52.7974 19.4139 53.2662C19.9845 53.7349 20.7006 53.9941 21.4413 54H31.5586C32.3086 53.9976 33.0337 53.7327 33.6061 53.2519C34.1785 52.771 34.5616 52.1052 34.6878 51.3716L34.6984 51.3059L35.3573 46.649C35.3984 46.3588 35.5073 46.0822 35.6753 45.8413C35.8434 45.6003 36.0659 45.4017 36.3251 45.2614C36.7297 45.0454 37.1248 44.8165 37.5081 44.5782C37.7605 44.4211 38.0468 44.3257 38.3436 44.2998C38.6403 44.2739 38.9391 44.3182 39.2152 44.4291L43.6078 46.1841L43.6492 46.2005C44.3454 46.4601 45.1114 46.4691 45.8136 46.2258C46.5157 45.9825 47.1096 45.5025 47.4917 44.8693C47.4964 44.8604 47.5015 44.8518 47.5071 44.8435L52.5598 36.1694C52.9419 35.5286 53.0816 34.7738 52.9539 34.0401C52.8263 33.3064 52.4395 32.6418 51.863 32.1652ZM35.9536 27.4414C35.8675 29.2593 35.2509 31.0132 34.1788 32.4898C33.1067 33.9664 31.6254 35.1021 29.9149 35.7588C28.2044 36.4155 26.3385 36.5649 24.5441 36.1889C22.7496 35.8128 21.1039 34.9275 19.8071 33.6405C18.5104 32.3536 17.6183 30.7205 17.2396 28.9398C16.8608 27.1591 17.0116 25.3076 17.6736 23.6104C18.3356 21.9132 19.4803 20.4434 20.9685 19.3798C22.4567 18.3162 24.2243 17.7045 26.0563 17.6193C27.3716 17.5618 28.6845 17.7765 29.9116 18.2498C31.1387 18.7231 32.2531 19.4446 33.1839 20.3684C34.1148 21.2922 34.8418 22.3981 35.3186 23.6158C35.7954 24.8335 36.0117 26.1363 35.9536 27.4414Z" fill="white"/>
</svg>
