<svg width="1920" height="114" viewBox="0 0 1920 114" fill="none" xmlns="http://www.w3.org/2000/svg">
<rect y="19" width="1920" height="84" fill="url(#paint0_linear_3418_3961)"/>
<g filter="url(#filter0_d_3418_3961)">
<path d="M1562 47L1563.08 49.9196L1566 51L1563.08 52.0804L1562 55L1560.92 52.0804L1558 51L1560.92 49.9196L1562 47Z" fill="url(#paint1_radial_3418_3961)" fill-opacity="0.85" shape-rendering="crispEdges"/>
</g>
<g filter="url(#filter1_d_3418_3961)">
<path d="M1372.5 33L1372.91 34.6397L1374.45 33.9413L1373.43 35.2875L1374.94 36.0563L1373.25 36.0954L1373.58 37.7524L1372.5 36.4549L1371.42 37.7524L1371.75 36.0954L1370.06 36.0563L1371.57 35.2875L1370.55 33.9413L1372.09 34.6397L1372.5 33Z" fill="url(#paint2_radial_3418_3961)" fill-opacity="0.85" shape-rendering="crispEdges"/>
</g>
<path fill-rule="evenodd" clip-rule="evenodd" d="M1460.53 19C1458.25 22.3359 1456.21 25.8526 1454.43 29.5404C1442.53 54.1722 1444.79 81.0728 1457.99 103H1624.69C1625.96 100.873 1627.15 98.6801 1628.24 96.423C1640.87 70.2856 1637.55 41.5936 1622.14 19H1460.53ZM1574.37 75.6921C1566.5 91.9735 1545.34 99.4814 1527.1 92.4617C1508.85 85.4419 1500.44 66.5526 1508.31 50.2712C1516.17 33.9899 1537.34 26.4819 1555.58 33.5017C1573.82 40.5215 1582.23 59.4108 1574.37 75.6921Z" fill="url(#paint3_linear_3418_3961)" fill-opacity="0.2"/>
<g filter="url(#filter2_d_3418_3961)">
<path d="M383.5 34L383.905 35.0949L385 35.5L383.905 35.9051L383.5 37L383.095 35.9051L382 35.5L383.095 35.0949L383.5 34Z" fill="url(#paint4_radial_3418_3961)" fill-opacity="0.85" shape-rendering="crispEdges"/>
</g>
<g filter="url(#filter3_d_3418_3961)">
<path d="M1123 40L1124.35 43.6495L1128 45L1124.35 46.3505L1123 50L1121.65 46.3505L1118 45L1121.65 43.6495L1123 40Z" fill="url(#paint5_radial_3418_3961)" fill-opacity="0.85" shape-rendering="crispEdges"/>
</g>
<g filter="url(#filter4_d_3418_3961)">
<path d="M1290.55 76.0879L1291.03 77.7609L1292.71 77.3379L1291.5 78.5879L1292.71 79.8379L1291.03 79.4149L1290.55 81.0879L1290.07 79.4149L1288.38 79.8379L1289.59 78.5879L1288.38 77.3379L1290.07 77.7609L1290.55 76.0879Z" fill="url(#paint6_radial_3418_3961)" fill-opacity="0.85" shape-rendering="crispEdges"/>
</g>
<g filter="url(#filter5_d_3418_3961)">
<path d="M719 67L719.573 69.0076L721.598 68.5L720.146 70L721.598 71.5L719.573 70.9924L719 73L718.427 70.9924L716.402 71.5L717.854 70L716.402 68.5L718.427 69.0076L719 67Z" fill="url(#paint7_radial_3418_3961)" fill-opacity="0.85" shape-rendering="crispEdges"/>
</g>
<defs>
<filter id="filter0_d_3418_3961" x="1525.22" y="14.2156" width="73.5687" height="73.5687" filterUnits="userSpaceOnUse" color-interpolation-filters="sRGB">
<feFlood flood-opacity="0" result="BackgroundImageFix"/>
<feColorMatrix in="SourceAlpha" type="matrix" values="0 0 0 0 0 0 0 0 0 0 0 0 0 0 0 0 0 0 127 0" result="hardAlpha"/>
<feOffset/>
<feGaussianBlur stdDeviation="16.3922"/>
<feComposite in2="hardAlpha" operator="out"/>
<feColorMatrix type="matrix" values="0 0 0 0 1 0 0 0 0 1 0 0 0 0 1 0 0 0 0.25 0"/>
<feBlend mode="normal" in2="BackgroundImageFix" result="effect1_dropShadow_3418_3961"/>
<feBlend mode="normal" in="SourceGraphic" in2="effect1_dropShadow_3418_3961" result="shape"/>
</filter>
<filter id="filter1_d_3418_3961" x="1337.28" y="0.215637" width="70.4434" height="70.3207" filterUnits="userSpaceOnUse" color-interpolation-filters="sRGB">
<feFlood flood-opacity="0" result="BackgroundImageFix"/>
<feColorMatrix in="SourceAlpha" type="matrix" values="0 0 0 0 0 0 0 0 0 0 0 0 0 0 0 0 0 0 127 0" result="hardAlpha"/>
<feOffset/>
<feGaussianBlur stdDeviation="16.3922"/>
<feComposite in2="hardAlpha" operator="out"/>
<feColorMatrix type="matrix" values="0 0 0 0 1 0 0 0 0 1 0 0 0 0 1 0 0 0 0.25 0"/>
<feBlend mode="normal" in2="BackgroundImageFix" result="effect1_dropShadow_3418_3961"/>
<feBlend mode="normal" in="SourceGraphic" in2="effect1_dropShadow_3418_3961" result="shape"/>
</filter>
<filter id="filter2_d_3418_3961" x="349.216" y="1.21564" width="68.5687" height="68.5687" filterUnits="userSpaceOnUse" color-interpolation-filters="sRGB">
<feFlood flood-opacity="0" result="BackgroundImageFix"/>
<feColorMatrix in="SourceAlpha" type="matrix" values="0 0 0 0 0 0 0 0 0 0 0 0 0 0 0 0 0 0 127 0" result="hardAlpha"/>
<feOffset/>
<feGaussianBlur stdDeviation="16.3922"/>
<feComposite in2="hardAlpha" operator="out"/>
<feColorMatrix type="matrix" values="0 0 0 0 1 0 0 0 0 1 0 0 0 0 1 0 0 0 0.25 0"/>
<feBlend mode="normal" in2="BackgroundImageFix" result="effect1_dropShadow_3418_3961"/>
<feBlend mode="normal" in="SourceGraphic" in2="effect1_dropShadow_3418_3961" result="shape"/>
</filter>
<filter id="filter3_d_3418_3961" x="1085.22" y="7.21564" width="75.5687" height="75.5687" filterUnits="userSpaceOnUse" color-interpolation-filters="sRGB">
<feFlood flood-opacity="0" result="BackgroundImageFix"/>
<feColorMatrix in="SourceAlpha" type="matrix" values="0 0 0 0 0 0 0 0 0 0 0 0 0 0 0 0 0 0 127 0" result="hardAlpha"/>
<feOffset/>
<feGaussianBlur stdDeviation="16.3922"/>
<feComposite in2="hardAlpha" operator="out"/>
<feColorMatrix type="matrix" values="0 0 0 0 1 0 0 0 0 1 0 0 0 0 1 0 0 0 0.25 0"/>
<feBlend mode="normal" in2="BackgroundImageFix" result="effect1_dropShadow_3418_3961"/>
<feBlend mode="normal" in="SourceGraphic" in2="effect1_dropShadow_3418_3961" result="shape"/>
</filter>
<filter id="filter4_d_3418_3961" x="1255.6" y="43.3035" width="69.8988" height="70.5687" filterUnits="userSpaceOnUse" color-interpolation-filters="sRGB">
<feFlood flood-opacity="0" result="BackgroundImageFix"/>
<feColorMatrix in="SourceAlpha" type="matrix" values="0 0 0 0 0 0 0 0 0 0 0 0 0 0 0 0 0 0 127 0" result="hardAlpha"/>
<feOffset/>
<feGaussianBlur stdDeviation="16.3922"/>
<feComposite in2="hardAlpha" operator="out"/>
<feColorMatrix type="matrix" values="0 0 0 0 1 0 0 0 0 1 0 0 0 0 1 0 0 0 0.25 0"/>
<feBlend mode="normal" in2="BackgroundImageFix" result="effect1_dropShadow_3418_3961"/>
<feBlend mode="normal" in="SourceGraphic" in2="effect1_dropShadow_3418_3961" result="shape"/>
</filter>
<filter id="filter5_d_3418_3961" x="683.618" y="34.2156" width="70.7649" height="71.5687" filterUnits="userSpaceOnUse" color-interpolation-filters="sRGB">
<feFlood flood-opacity="0" result="BackgroundImageFix"/>
<feColorMatrix in="SourceAlpha" type="matrix" values="0 0 0 0 0 0 0 0 0 0 0 0 0 0 0 0 0 0 127 0" result="hardAlpha"/>
<feOffset/>
<feGaussianBlur stdDeviation="16.3922"/>
<feComposite in2="hardAlpha" operator="out"/>
<feColorMatrix type="matrix" values="0 0 0 0 1 0 0 0 0 1 0 0 0 0 1 0 0 0 0.25 0"/>
<feBlend mode="normal" in2="BackgroundImageFix" result="effect1_dropShadow_3418_3961"/>
<feBlend mode="normal" in="SourceGraphic" in2="effect1_dropShadow_3418_3961" result="shape"/>
</filter>
<linearGradient id="paint0_linear_3418_3961" x1="960" y1="19" x2="960" y2="117.73" gradientUnits="userSpaceOnUse">
<stop stop-color="#4A4A4A"/>
<stop/>
<stop offset="0.225869" stop-color="#000414"/>
<stop offset="0.558892" stop-color="#000A40"/>
</linearGradient>
<radialGradient id="paint1_radial_3418_3961" cx="0" cy="0" r="1" gradientUnits="userSpaceOnUse" gradientTransform="translate(1562 51) rotate(90) scale(4)">
<stop stop-color="white"/>
<stop offset="1" stop-color="#CECECE" stop-opacity="0.65"/>
</radialGradient>
<radialGradient id="paint2_radial_3418_3961" cx="0" cy="0" r="1" gradientUnits="userSpaceOnUse" gradientTransform="translate(1372.5 35.5) rotate(90) scale(2.5)">
<stop stop-color="white"/>
<stop offset="1" stop-color="#CECECE" stop-opacity="0.65"/>
</radialGradient>
<linearGradient id="paint3_linear_3418_3961" x1="1578.64" y1="-28.5778" x2="1503.8" y2="145.014" gradientUnits="userSpaceOnUse">
<stop stop-color="#F5F5F5"/>
<stop offset="1" stop-color="#F5F5F5" stop-opacity="0.15"/>
</linearGradient>
<radialGradient id="paint4_radial_3418_3961" cx="0" cy="0" r="1" gradientUnits="userSpaceOnUse" gradientTransform="translate(383.5 35.5) rotate(90) scale(1.5)">
<stop stop-color="white"/>
<stop offset="1" stop-color="#CECECE" stop-opacity="0.65"/>
</radialGradient>
<radialGradient id="paint5_radial_3418_3961" cx="0" cy="0" r="1" gradientUnits="userSpaceOnUse" gradientTransform="translate(1123 45) rotate(90) scale(5)">
<stop stop-color="white"/>
<stop offset="1" stop-color="#CECECE" stop-opacity="0.65"/>
</radialGradient>
<radialGradient id="paint6_radial_3418_3961" cx="0" cy="0" r="1" gradientUnits="userSpaceOnUse" gradientTransform="translate(1290.55 78.5879) rotate(90) scale(2.5)">
<stop stop-color="white"/>
<stop offset="1" stop-color="#CECECE" stop-opacity="0.65"/>
</radialGradient>
<radialGradient id="paint7_radial_3418_3961" cx="0" cy="0" r="1" gradientUnits="userSpaceOnUse" gradientTransform="translate(719 70) rotate(90) scale(3)">
<stop stop-color="white"/>
<stop offset="1" stop-color="#CECECE" stop-opacity="0.65"/>
</radialGradient>
</defs>
</svg>
