<svg width="82" height="42" viewBox="0 0 82 42" fill="none" xmlns="http://www.w3.org/2000/svg">
<rect x="0.5" y="0.5" width="81" height="41" rx="20.5" stroke="#D1D1D1"/>
<circle cx="21" cy="21" r="17" fill="#E5E5F2"/>
<path d="M29 15.9178V25.5193C28.9994 25.6104 28.9773 25.7004 28.9352 25.7832C28.893 25.866 28.8318 25.9397 28.7556 25.9994C27.4027 27.0579 26.1091 27.4396 24.8757 27.4396C23.2014 27.4396 21.6378 26.7403 20.183 26.0914C17.8322 25.0392 15.7887 24.1279 13.4167 25.821V29.3599C13.4167 29.5297 13.342 29.6925 13.2092 29.8125C13.0764 29.9326 12.8962 30 12.7083 30C12.5205 30 12.3403 29.9326 12.2075 29.8125C12.0746 29.6925 12 29.5297 12 29.3599V15.9178C12.0007 15.8266 12.0229 15.7366 12.0652 15.6538C12.1075 15.571 12.1689 15.4974 12.2453 15.4377C15.4328 12.943 18.2935 14.2208 20.8152 15.3481C23.2448 16.4347 25.3512 17.374 27.8277 15.4377C27.9301 15.3576 28.0557 15.3056 28.1898 15.288C28.3238 15.2704 28.4607 15.2879 28.5841 15.3384C28.7074 15.3889 28.8122 15.4704 28.8859 15.5731C28.9597 15.6758 28.9992 15.7954 29 15.9178Z" fill="#000C76"/>
<path d="M49.3533 18.0215C49.3533 18.7005 49.49 19.3727 49.7634 20.0381C50.0414 20.7035 50.4242 21.2982 50.9119 21.8223C51.4041 22.3418 51.9601 22.7337 52.5798 22.998L51.8689 24.0098C51.1534 23.6953 50.5199 23.2214 49.9685 22.5879C49.4171 21.9499 48.9978 21.2184 48.7107 20.3936C48.4236 21.2731 48.002 22.0615 47.4461 22.7588C46.8946 23.4561 46.268 23.9779 45.5662 24.3242L44.8142 23.2988C45.4158 23.0163 45.9627 22.5947 46.4548 22.0342C46.947 21.4691 47.3321 20.8333 47.6101 20.127C47.8927 19.416 48.0362 18.7142 48.0408 18.0215V16.7227H45.238V15.6426H52.1423V16.7227H49.3533V18.0215ZM54.9861 26.6621H53.6873V14.4121H54.9861V26.6621ZM67.1584 22.6426H62.1545V26.6621H60.883V22.6426H55.9475V21.6172H67.1584V22.6426ZM58.6272 16.5039H64.4514V14.9043H65.7502V20.2227H57.342V14.9043H58.6272V16.5039ZM64.4514 19.1836V17.543H58.6272V19.1836H64.4514Z" fill="#868686"/>
</svg>
