<svg width="36" height="31" viewBox="0 0 36 31" fill="none" xmlns="http://www.w3.org/2000/svg">
<path d="M30.8571 0H5.14286C3.77934 0.00149579 2.4721 0.54632 1.50795 1.51493C0.543802 2.48355 0.0014889 3.79684 0 5.16667V25.8333C0.0014889 27.2032 0.543802 28.5165 1.50795 29.4851C2.4721 30.4537 3.77934 30.9985 5.14286 31H30.8571C32.2207 30.9985 33.5279 30.4537 34.492 29.4851C35.4562 28.5165 35.9985 27.2032 36 25.8333V5.16667C35.9985 3.79684 35.4562 2.48355 34.492 1.51493C33.5279 0.54632 32.2207 0.00149579 30.8571 0ZM24.4286 5.16667C25.1914 5.16667 25.9372 5.39393 26.5715 5.81972C27.2058 6.24551 27.7002 6.8507 27.9921 7.55877C28.284 8.26683 28.3604 9.04597 28.2116 9.79764C28.0628 10.5493 27.6954 11.2398 27.156 11.7817C26.6166 12.3236 25.9293 12.6927 25.1811 12.8422C24.4329 12.9917 23.6573 12.915 22.9525 12.6217C22.2477 12.3284 21.6453 11.8317 21.2215 11.1945C20.7976 10.5573 20.5714 9.80807 20.5714 9.04167C20.5725 8.01428 20.9792 7.02928 21.7023 6.30281C22.4255 5.57634 23.4059 5.16774 24.4286 5.16667ZM5.14286 28.4167C4.46087 28.4167 3.80682 28.1445 3.32458 27.66C2.84235 27.1756 2.57143 26.5185 2.57143 25.8333V20.3736L10.1925 13.5682C10.9278 12.913 11.8841 12.5641 12.8665 12.5926C13.8489 12.6211 14.7836 13.0248 15.48 13.7215L20.6992 18.9536L11.2797 28.4167H5.14286ZM33.4286 25.8333C33.4286 26.5185 33.1577 27.1756 32.6754 27.66C32.1932 28.1445 31.5391 28.4167 30.8571 28.4167H14.9167L24.6737 18.6145C25.3645 18.0243 26.2411 17.6992 27.1479 17.6968C28.0547 17.6945 28.933 18.015 29.6269 18.6016L33.4286 21.784V25.8333Z" fill="black"/>
</svg>
