<svg width="82" height="42" viewBox="0 0 82 42" fill="none" xmlns="http://www.w3.org/2000/svg">
<rect width="82" height="42" rx="21" fill="#000C76"/>
<circle cx="21" cy="21" r="17" fill="white"/>
<path d="M15.6473 23.926C15.6473 24.1686 15.6594 24.409 15.683 24.6456C14.7708 24.2559 13.9681 23.6483 13.3452 22.8763C12.7223 22.1043 12.2982 21.1913 12.1101 20.2173C11.922 19.2433 11.9756 18.238 12.2662 17.2896C12.5567 16.3411 13.0755 15.4784 13.7769 14.7769C14.4784 14.0755 15.3411 13.5567 16.2896 13.2662C17.238 12.9756 18.2433 12.922 19.2173 13.1101C20.1913 13.2982 21.1043 13.7223 21.8763 14.3452C22.6483 14.9681 23.2559 15.7708 23.6456 16.683C23.409 16.6594 23.1686 16.6473 22.926 16.6473C20.9963 16.6499 19.1465 17.4176 17.7821 18.7821C16.4176 20.1465 15.6499 21.9963 15.6473 23.926ZM24.1408 19.0725C24.1407 18.7003 24.1059 18.3289 24.0369 17.9631C23.6711 17.8941 23.2997 17.8593 22.9275 17.8592C21.319 17.861 19.777 18.5007 18.6396 19.6381C17.5022 20.7754 16.8625 22.3175 16.8607 23.926C16.8609 24.2982 16.8956 24.6696 16.9646 25.0354C17.3304 25.1044 17.7018 25.1391 18.074 25.1393C19.6825 25.1375 21.2246 24.4978 22.3619 23.3604C23.4993 22.223 24.139 20.681 24.1408 19.0725ZM25.3186 18.3528C25.3421 18.5895 25.3542 18.8298 25.3542 19.0725C25.352 21.0027 24.5843 22.8531 23.2195 24.2179C21.8546 25.5828 20.0042 26.3505 18.074 26.3527C17.8314 26.3527 17.591 26.3406 17.3544 26.317C17.7441 27.2292 18.3517 28.0319 19.1237 28.6548C19.8957 29.2777 20.8087 29.7018 21.7827 29.8899C22.7567 30.078 23.762 30.0244 24.7104 29.7338C25.6589 29.4433 26.5216 28.9245 27.2231 28.2231C27.9245 27.5216 28.4433 26.6589 28.7338 25.7104C29.0244 24.762 29.078 23.7567 28.8899 22.7827C28.7018 21.8087 28.2777 20.8957 27.6548 20.1237C27.0319 19.3517 26.2292 18.7441 25.317 18.3544L25.3186 18.3528Z" fill="#000C76"/>
<path d="M55.0545 23.4492H53.7556V20.2637H50.7136C50.422 20.6146 50.0619 20.888 49.6336 21.084C49.2052 21.2754 48.738 21.3711 48.2322 21.3711C47.6215 21.3711 47.0724 21.2389 46.5847 20.9746C46.0971 20.7103 45.7143 20.3434 45.4363 19.874C45.1583 19.4046 45.0193 18.8737 45.0193 18.2812C45.0193 17.6842 45.1583 17.151 45.4363 16.6816C45.7143 16.2077 46.0971 15.8385 46.5847 15.5742C47.0724 15.3053 47.6215 15.1686 48.2322 15.1641C48.7335 15.1686 49.1961 15.2689 49.6199 15.4648C50.0483 15.6562 50.4083 15.9251 50.7 16.2715H53.7556V14.4258H55.0545V23.4492ZM55.3826 26.4023H47.0974V22.5059H48.3962V25.3496H55.3826V26.4023ZM48.2322 16.3262C47.8539 16.3262 47.5144 16.4082 47.2136 16.5723C46.9174 16.7363 46.685 16.9665 46.5164 17.2627C46.3477 17.5589 46.2634 17.8984 46.2634 18.2812C46.2634 18.6641 46.3477 19.0036 46.5164 19.2998C46.685 19.5915 46.9174 19.8193 47.2136 19.9834C47.5144 20.1429 47.8539 20.2227 48.2322 20.2227C48.6013 20.2227 48.9317 20.1429 49.2234 19.9834C49.5196 19.8193 49.752 19.5892 49.9207 19.293C50.0893 18.9967 50.1736 18.6595 50.1736 18.2812C50.1736 17.903 50.0893 17.5658 49.9207 17.2695C49.752 16.9688 49.5196 16.7363 49.2234 16.5723C48.9272 16.4082 48.5968 16.3262 48.2322 16.3262ZM51.2742 17.3242C51.3699 17.6387 51.4177 17.9577 51.4177 18.2812C51.4177 18.6048 51.3722 18.9147 51.281 19.2109H53.7556V17.3242H51.2742ZM65.5862 17.4883H67.3635V18.582H65.5862V21.5488H64.2873V14.4121H65.5862V17.4883ZM59.0373 23.2441H64.2873V22.0547H65.5862V26.5117H57.7522V22.0547H59.0373V23.2441ZM64.2873 25.4727V24.2559H59.0373V25.4727H64.2873ZM63.2756 16.6543H55.9748V15.6152H58.9827V14.3027H60.2815V15.6152H63.2756V16.6543ZM59.6252 17.1602C60.2086 17.1602 60.7235 17.249 61.1702 17.4268C61.6213 17.5999 61.97 17.8483 62.2161 18.1719C62.4667 18.4954 62.592 18.8737 62.592 19.3066C62.592 19.735 62.4667 20.1133 62.2161 20.4414C61.97 20.765 61.6213 21.0156 61.1702 21.1934C60.7235 21.3711 60.2086 21.4577 59.6252 21.4531C59.0328 21.4577 58.511 21.3711 58.0598 21.1934C57.6132 21.0156 57.2646 20.765 57.0139 20.4414C56.7678 20.1133 56.6448 19.735 56.6448 19.3066C56.6448 18.8737 56.7678 18.4954 57.0139 18.1719C57.26 17.8483 57.6086 17.5999 58.0598 17.4268C58.511 17.249 59.0328 17.1602 59.6252 17.1602ZM59.6252 18.1309C59.2834 18.1263 58.9804 18.1742 58.7161 18.2744C58.4563 18.3701 58.2535 18.5091 58.1077 18.6914C57.9664 18.8691 57.898 19.0742 57.9026 19.3066C57.898 19.5436 57.9664 19.7533 58.1077 19.9355C58.2535 20.1133 58.4563 20.2523 58.7161 20.3525C58.9758 20.4482 59.2789 20.4961 59.6252 20.4961C59.967 20.4961 60.2701 20.4482 60.5344 20.3525C60.7987 20.2523 61.0038 20.1133 61.1496 19.9355C61.2955 19.7533 61.3707 19.5436 61.3752 19.3066C61.3707 19.0697 61.2955 18.8623 61.1496 18.6846C61.0038 18.5068 60.7987 18.3701 60.5344 18.2744C60.2701 18.1742 59.967 18.1263 59.6252 18.1309Z" fill="white"/>
</svg>
