<svg width="32" height="32" viewBox="0 0 32 32" fill="none" xmlns="http://www.w3.org/2000/svg">
<circle cx="16" cy="16" r="16" fill="white"/>
<g clip-path="url(#clip0_7635_19309)">
<path d="M16.6094 19.7317C16.4116 19.7464 16.2119 19.7537 16.0103 19.7537C15.7652 19.7537 15.5228 19.7425 15.2833 19.7214C14.0983 19.6164 12.95 19.2565 11.9171 18.6663C10.8842 18.0762 9.99101 17.2698 9.29875 16.3023C9.28052 16.2763 9.25598 16.2554 9.22743 16.2415C9.19888 16.2275 9.16726 16.2211 9.13554 16.2227C9.10382 16.2244 9.07303 16.234 9.04607 16.2508C9.01911 16.2676 8.99686 16.291 8.98141 16.3187L5.60641 22.3844C5.47797 22.6188 5.45781 22.9 5.59328 23.1287C5.6638 23.2422 5.76204 23.3358 5.87874 23.4007C5.99544 23.4657 6.12676 23.4998 6.26031 23.5H9.91656C10.0439 23.4953 10.1702 23.5247 10.2825 23.585C10.3947 23.6454 10.4888 23.7347 10.555 23.8436L12.3672 26.875C12.4335 26.9875 12.5276 27.081 12.6405 27.1467C12.7533 27.2124 12.8812 27.2479 13.0117 27.25C13.2902 27.2345 13.5784 27.0536 13.6942 26.8L16.7931 19.9961C16.8065 19.9665 16.812 19.934 16.809 19.9017C16.8061 19.8694 16.7948 19.8384 16.7763 19.8118C16.7578 19.7851 16.7326 19.7637 16.7034 19.7497C16.6741 19.7357 16.6417 19.7295 16.6094 19.7317Z" fill="url(#paint0_linear_7635_19309)"/>
<path d="M26.3894 22.3694L23.0364 16.3145C23.0209 16.2871 22.9988 16.2639 22.972 16.2473C22.9452 16.2307 22.9146 16.2211 22.8831 16.2194C22.8516 16.2177 22.8202 16.224 22.7918 16.2377C22.7633 16.2514 22.7388 16.272 22.7205 16.2977C21.7984 17.5896 20.5242 18.589 19.0497 19.1767C18.8687 19.2481 18.7222 19.3866 18.641 19.5634L16.9132 23.365C16.8909 23.4135 16.8794 23.4663 16.8794 23.5197C16.8794 23.5731 16.8909 23.6259 16.9132 23.6744L18.3321 26.7958C18.4469 27.0494 18.7347 27.2345 19.0127 27.25C19.1433 27.2468 19.271 27.2101 19.3834 27.1435C19.4959 27.0768 19.5893 26.9825 19.6549 26.8694L21.461 23.8422C21.5964 23.6149 21.8421 23.4986 22.1069 23.5H25.7992C26.1119 23.5 26.3486 23.3369 26.4555 23.0313C26.4931 22.9227 26.5066 22.8073 26.4952 22.6931C26.4838 22.5788 26.4477 22.4683 26.3894 22.3694Z" fill="url(#paint1_linear_7635_19309)"/>
<path d="M16.0122 13.75C17.2551 13.75 18.2627 12.7426 18.2627 11.5C18.2627 10.2574 17.2551 9.25 16.0122 9.25C14.7693 9.25 13.7617 10.2574 13.7617 11.5C13.7617 12.7426 14.7693 13.75 16.0122 13.75Z" fill="url(#paint2_linear_7635_19309)"/>
<path d="M16 4.75C12.2772 4.75 9.25 7.77766 9.25 11.5C9.25 15.2223 12.2786 18.25 16 18.25C19.7214 18.25 22.75 15.2219 22.75 11.5C22.75 7.77812 19.7223 4.75 16 4.75ZM16 15.25C15.2583 15.25 14.5333 15.0301 13.9166 14.618C13.2999 14.206 12.8193 13.6203 12.5355 12.9351C12.2516 12.2498 12.1774 11.4958 12.3221 10.7684C12.4667 10.041 12.8239 9.3728 13.3483 8.84835C13.8728 8.3239 14.541 7.96675 15.2684 7.82206C15.9958 7.67736 16.7498 7.75162 17.4351 8.03545C18.1203 8.31928 18.706 8.79993 19.118 9.41661C19.5301 10.0333 19.75 10.7583 19.75 11.5C19.7488 12.4942 19.3533 13.4473 18.6503 14.1503C17.9473 14.8533 16.9942 15.2488 16 15.25Z" fill="url(#paint3_linear_7635_19309)"/>
</g>
<defs>
<linearGradient id="paint0_linear_7635_19309" x1="11.1551" y1="16.2225" x2="11.1551" y2="29.1837" gradientUnits="userSpaceOnUse">
<stop stop-color="#4A4A4A"/>
<stop/>
<stop offset="0.225869" stop-color="#000414"/>
<stop offset="0.558892" stop-color="#000A40"/>
</linearGradient>
<linearGradient id="paint1_linear_7635_19309" x1="21.6893" y1="16.2191" x2="21.6893" y2="29.1843" gradientUnits="userSpaceOnUse">
<stop stop-color="#4A4A4A"/>
<stop/>
<stop offset="0.225869" stop-color="#000414"/>
<stop offset="0.558892" stop-color="#000A40"/>
</linearGradient>
<linearGradient id="paint2_linear_7635_19309" x1="16.0122" y1="9.25" x2="16.0122" y2="14.5391" gradientUnits="userSpaceOnUse">
<stop stop-color="#4A4A4A"/>
<stop/>
<stop offset="0.225869" stop-color="#000414"/>
<stop offset="0.558892" stop-color="#000A40"/>
</linearGradient>
<linearGradient id="paint3_linear_7635_19309" x1="16" y1="4.75" x2="16" y2="20.6173" gradientUnits="userSpaceOnUse">
<stop stop-color="#4A4A4A"/>
<stop/>
<stop offset="0.225869" stop-color="#000414"/>
<stop offset="0.558892" stop-color="#000A40"/>
</linearGradient>
<clipPath id="clip0_7635_19309">
<rect width="24" height="24" fill="white" transform="translate(4 4)"/>
</clipPath>
</defs>
</svg>
