<svg width="32" height="32" viewBox="0 0 32 32" fill="none" xmlns="http://www.w3.org/2000/svg">
<circle cx="16" cy="16" r="16" fill="white"/>
<path d="M16 21.25C15.8694 21.25 15.7412 21.2159 15.6278 21.1511L9.0625 17.3988C9.00545 17.3658 8.94074 17.3485 8.87486 17.3485C8.80899 17.3485 8.74428 17.3659 8.68726 17.3989C8.63024 17.4319 8.58291 17.4793 8.55003 17.5364C8.51716 17.5935 8.4999 17.6582 8.5 17.7241V21.25C8.49989 21.3839 8.53561 21.5153 8.60344 21.6307C8.67128 21.7461 8.76877 21.8412 8.88578 21.9063L15.6358 25.6563C15.7472 25.7181 15.8725 25.7506 16 25.7506C16.1275 25.7506 16.2528 25.7181 16.3642 25.6563L23.1142 21.9063C23.2312 21.8412 23.3287 21.7461 23.3966 21.6307C23.4644 21.5153 23.5001 21.3839 23.5 21.25V17.7241C23.5001 17.6582 23.4828 17.5935 23.45 17.5364C23.4171 17.4793 23.3698 17.4319 23.3127 17.3989C23.2557 17.3659 23.191 17.3485 23.1251 17.3485C23.0593 17.3485 22.9945 17.3658 22.9375 17.3988L16.3722 21.1511C16.2588 21.2159 16.1306 21.25 16 21.25Z" fill="url(#paint0_linear_7635_19256)"/>
<path d="M27.2461 12.9297C27.2461 12.9297 27.2461 12.926 27.2461 12.9246C27.234 12.8057 27.1937 12.6914 27.1284 12.5913C27.0632 12.4912 26.975 12.4081 26.8711 12.3489L16.3711 6.34893C16.2578 6.28414 16.1295 6.25006 15.999 6.25006C15.8684 6.25006 15.7401 6.28414 15.6268 6.34893L5.12676 12.3489C5.01201 12.4145 4.91663 12.5093 4.8503 12.6237C4.78396 12.738 4.74902 12.8678 4.74902 13C4.74902 13.1322 4.78396 13.262 4.8503 13.3764C4.91663 13.4907 5.01201 13.5855 5.12676 13.6511L15.6268 19.6511C15.7401 19.7159 15.8684 19.75 15.999 19.75C16.1295 19.75 16.2578 19.7159 16.3711 19.6511L25.6093 14.3725C25.6235 14.3643 25.6397 14.3599 25.6562 14.36C25.6727 14.36 25.6889 14.3643 25.7032 14.3726C25.7174 14.3809 25.7293 14.3928 25.7375 14.4071C25.7457 14.4214 25.75 14.4376 25.7499 14.4541V21.2289C25.7499 21.6325 26.0602 21.9789 26.4638 21.9991C26.5652 22.004 26.6665 21.9882 26.7617 21.9528C26.8568 21.9173 26.9438 21.863 27.0173 21.7929C27.0908 21.7229 27.1493 21.6386 27.1893 21.5453C27.2293 21.452 27.2499 21.3515 27.2499 21.25V13C27.2498 12.9765 27.2486 12.9531 27.2461 12.9297Z" fill="url(#paint1_linear_7635_19256)"/>
<defs>
<linearGradient id="paint0_linear_7635_19256" x1="16" y1="17.3485" x2="16" y2="27.224" gradientUnits="userSpaceOnUse">
<stop stop-color="#4A4A4A"/>
<stop/>
<stop offset="0.225869" stop-color="#000414"/>
<stop offset="0.558892" stop-color="#000A40"/>
</linearGradient>
<linearGradient id="paint1_linear_7635_19256" x1="15.9995" y1="6.25006" x2="15.9995" y2="24.7618" gradientUnits="userSpaceOnUse">
<stop stop-color="#4A4A4A"/>
<stop/>
<stop offset="0.225869" stop-color="#000414"/>
<stop offset="0.558892" stop-color="#000A40"/>
</linearGradient>
</defs>
</svg>
