<svg width="22" height="30" viewBox="0 0 22 30" fill="none" xmlns="http://www.w3.org/2000/svg">
<rect width="21.4319" height="10.0015" rx="5.00077" fill="#FF665A"/>
<path d="M0 5.00077C0 2.23892 2.23892 0 5.00077 0H10.7159V10.0015H5.00077C2.23892 10.0015 0 7.76262 0 5.00077Z" fill="#FF3A00"/>
<path d="M0 15.002C0 12.2402 2.23892 10.0013 5.00077 10.0013H10.7159V20.0028H5.00077C2.23892 20.0028 0 17.7639 0 15.002Z" fill="#AD54FF"/>
<path d="M0 24.9992C0 22.2374 2.23892 19.9985 5.00077 19.9985H10.7159V24.642C10.7159 27.6012 8.31709 30 5.35797 30H5.00077C2.23892 30 0 27.7611 0 24.9992Z" fill="#00D37C"/>
<circle cx="15.7168" cy="15.002" r="5.00077" fill="#00BFFF"/>
</svg>
