<svg width="68" height="32" viewBox="0 0 68 32" fill="none" xmlns="http://www.w3.org/2000/svg">
<rect width="68" height="32" rx="16" fill="white"/>
<circle cx="16" cy="16" r="12" fill="url(#paint0_linear_5972_7127)"/>
<path d="M15.6471 8.94141H18.5295C18.7559 8.94141 18.9412 9.13001 18.9412 9.36052V11.037C18.9412 11.2675 18.7559 11.4561 18.5295 11.4561H16.4887L18.7945 13.1326H21.4118C22.3203 13.1326 23.0589 13.8844 23.0589 14.8091V20.6767C23.0589 21.6014 22.3203 22.3532 21.4118 22.3532H16.8824V19.4193C16.8824 18.7252 16.3291 18.162 15.6471 18.162C14.9651 18.162 14.4118 18.7252 14.4118 19.4193V22.3532H9.88241C8.97395 22.3532 8.23535 21.6014 8.23535 20.6767V14.8091C8.23535 13.8844 8.97395 13.1326 9.88241 13.1326H12.4997L14.8236 11.443V9.77964C14.8236 9.31599 15.1916 8.94141 15.6471 8.94141ZM16.8824 15.2282C16.8824 14.8947 16.7523 14.5749 16.5206 14.3391C16.2889 14.1033 15.9747 13.9708 15.6471 13.9708C15.3195 13.9708 15.0053 14.1033 14.7736 14.3391C14.542 14.5749 14.4118 14.8947 14.4118 15.2282C14.4118 15.5616 14.542 15.8815 14.7736 16.1173C15.0053 16.3531 15.3195 16.4855 15.6471 16.4855C15.9747 16.4855 16.2889 16.3531 16.5206 16.1173C16.7523 15.8815 16.8824 15.5616 16.8824 15.2282ZM10.2942 14.8091C10.0677 14.8091 9.88241 14.9977 9.88241 15.2282V16.9046C9.88241 17.1352 10.0677 17.3238 10.2942 17.3238H11.1177C11.3442 17.3238 11.5295 17.1352 11.5295 16.9046V15.2282C11.5295 14.9977 11.3442 14.8091 11.1177 14.8091H10.2942ZM19.7648 15.2282V16.9046C19.7648 17.1352 19.9501 17.3238 20.1765 17.3238H21.0001C21.2265 17.3238 21.4118 17.1352 21.4118 16.9046V15.2282C21.4118 14.9977 21.2265 14.8091 21.0001 14.8091H20.1765C19.9501 14.8091 19.7648 14.9977 19.7648 15.2282ZM10.2942 18.162C10.0677 18.162 9.88241 18.3506 9.88241 18.5811V20.2576C9.88241 20.4881 10.0677 20.6767 10.2942 20.6767H11.1177C11.3442 20.6767 11.5295 20.4881 11.5295 20.2576V18.5811C11.5295 18.3506 11.3442 18.162 11.1177 18.162H10.2942ZM20.1765 18.162C19.9501 18.162 19.7648 18.3506 19.7648 18.5811V20.2576C19.7648 20.4881 19.9501 20.6767 20.1765 20.6767H21.0001C21.2265 20.6767 21.4118 20.4881 21.4118 20.2576V18.5811C21.4118 18.3506 21.2265 18.162 21.0001 18.162H20.1765Z" fill="white"/>
<path d="M42.1423 11.75H34.8142V10.5469H37.7263V9.30273H39.2439V10.5469H42.1423V11.75ZM38.4783 12.2285C39.0707 12.2285 39.5948 12.3219 40.0505 12.5088C40.5063 12.6956 40.8595 12.96 41.1101 13.3018C41.3653 13.6436 41.4952 14.0378 41.4998 14.4844C41.4952 14.931 41.3653 15.3252 41.1101 15.667C40.8595 16.0088 40.5063 16.2731 40.0505 16.46C39.5948 16.6468 39.0707 16.7402 38.4783 16.7402C37.8858 16.7402 37.3595 16.6468 36.8992 16.46C36.4389 16.2731 36.0811 16.0088 35.8259 15.667C35.5707 15.3252 35.4431 14.931 35.4431 14.4844C35.4431 14.0378 35.5707 13.6436 35.8259 13.3018C36.0811 12.96 36.4389 12.6956 36.8992 12.5088C37.3595 12.3219 37.8858 12.2285 38.4783 12.2285ZM38.4783 13.377C37.9998 13.377 37.6192 13.4749 37.3367 13.6709C37.0587 13.8669 36.9197 14.138 36.9197 14.4844C36.9197 14.8307 37.0587 15.0996 37.3367 15.291C37.6192 15.4824 37.9998 15.5736 38.4783 15.5645C38.9568 15.5736 39.3373 15.4824 39.6199 15.291C39.907 15.0996 40.0505 14.8307 40.0505 14.4844C40.0505 14.138 39.907 13.8669 39.6199 13.6709C39.3373 13.4749 38.9568 13.377 38.4783 13.377ZM44.5486 12.6387H46.2712V13.8828H44.5486V17.0957H43.031V9.35742H44.5486V12.6387ZM44.5486 21.7168H43.031V18.8867H36.3181V17.6699H44.5486V21.7168ZM56.051 11.75C56.051 12.4427 56.0419 13.0397 56.0237 13.541C56.01 14.0423 55.9713 14.6188 55.9075 15.2705C55.8437 15.9176 55.7411 16.6172 55.5998 17.3691L54.1096 17.2188C54.2965 16.2116 54.4127 15.3047 54.4582 14.498C54.5084 13.6914 54.5334 12.7754 54.5334 11.75V11.709H47.0549V10.4922H56.051V11.75ZM57.1858 20.1172H45.9202V18.873H48.4495V14.9355H49.967V18.873H51.5393V14.9355H53.0295V18.873H57.1858V20.1172Z" fill="black"/>
<defs>
<linearGradient id="paint0_linear_5972_7127" x1="16" y1="4" x2="16" y2="32.2085" gradientUnits="userSpaceOnUse">
<stop/>
<stop/>
<stop offset="0.447917" stop-color="#000414"/>
<stop offset="0.598958" stop-color="#000A40"/>
</linearGradient>
</defs>
</svg>
