<svg width="68" height="32" viewBox="0 0 68 32" fill="none" xmlns="http://www.w3.org/2000/svg">
<rect width="68" height="32" rx="16" fill="white"/>
<circle cx="16" cy="16" r="12" fill="url(#paint0_linear_5972_7151)"/>
<path d="M12.2211 18.066C12.2211 18.2373 12.2296 18.407 12.2462 18.574C11.6023 18.2988 11.0357 17.87 10.596 17.325C10.1563 16.7801 9.85698 16.1356 9.72419 15.4481C9.5914 14.7605 9.62923 14.051 9.83436 13.3814C10.0395 12.7119 10.4057 12.103 10.9008 11.6078C11.3959 11.1127 12.0049 10.7465 12.6744 10.5414C13.3439 10.3363 14.0535 10.2984 14.741 10.4312C15.4286 10.564 16.073 10.8634 16.618 11.303C17.163 11.7427 17.5918 12.3093 17.8669 12.9533C17.6999 12.9367 17.5302 12.9281 17.3589 12.9281C15.9968 12.9299 14.6911 13.4718 13.7279 14.435C12.7648 15.3981 12.2229 16.7039 12.2211 18.066ZM18.2165 14.64C18.2164 14.3772 18.1918 14.1151 18.1432 13.8568C17.8849 13.8082 17.6228 13.7836 17.36 13.7835C16.2246 13.7848 15.1361 14.2364 14.3333 15.0392C13.5304 15.8421 13.0788 16.9306 13.0776 18.066C13.0777 18.3287 13.1022 18.5909 13.1509 18.8491C13.4091 18.8978 13.6713 18.9223 13.934 18.9225C15.0694 18.9212 16.1579 18.4696 16.9608 17.6667C17.7636 16.8639 18.2152 15.7754 18.2165 14.64ZM19.0478 14.132C19.0644 14.299 19.073 14.4687 19.073 14.64C19.0714 16.0025 18.5295 17.3087 17.5661 18.2721C16.6027 19.2355 15.2965 19.7774 13.934 19.7789C13.7627 19.7789 13.5931 19.7704 13.426 19.7538C13.7012 20.3977 14.13 20.9643 14.675 21.404C15.2199 21.8437 15.8644 22.143 16.5519 22.2758C17.2395 22.4086 17.949 22.3708 18.6186 22.1656C19.2881 21.9605 19.8971 21.5943 20.3922 21.0992C20.8873 20.6041 21.2535 19.9951 21.4586 19.3256C21.6637 18.6561 21.7016 17.9465 21.5688 17.259C21.436 16.5714 21.1366 15.927 20.697 15.382C20.2573 14.837 19.6907 14.4082 19.0467 14.1331L19.0478 14.132Z" fill="white"/>
<path d="M46.0662 16.2617H41.1716V17.2939C42.2882 17.3669 43.1541 17.5924 43.7693 17.9707C44.3845 18.3444 44.6944 18.8503 44.699 19.4883C44.6944 19.9577 44.5212 20.3587 44.1795 20.6914C43.8377 21.0241 43.3477 21.2747 42.7097 21.4434C42.0717 21.6165 41.3084 21.7031 40.4197 21.7031C39.5219 21.7031 38.7494 21.6165 38.1023 21.4434C37.4597 21.2747 36.9675 21.0241 36.6257 20.6914C36.2839 20.3587 36.113 19.9577 36.113 19.4883C36.113 18.8503 36.4229 18.3421 37.0427 17.9639C37.6625 17.5856 38.5375 17.3623 39.6677 17.2939V16.2617H34.8005V15.0312H46.0662V16.2617ZM40.4197 18.4355C39.5128 18.4447 38.8246 18.5381 38.3552 18.7158C37.8858 18.889 37.6534 19.1465 37.658 19.4883C37.6534 19.8301 37.8858 20.0921 38.3552 20.2744C38.8292 20.4521 39.5173 20.541 40.4197 20.541C41.3038 20.541 41.9828 20.4521 42.4568 20.2744C42.9353 20.0921 43.1768 19.8301 43.1814 19.4883C43.1768 19.151 42.9376 18.8936 42.4636 18.7158C41.9897 18.5381 41.3084 18.4447 40.4197 18.4355ZM45.0545 11.1211H41.4929C41.575 11.4629 41.7892 11.7842 42.1355 12.085C42.4864 12.3857 42.9513 12.641 43.53 12.8506C44.1134 13.0602 44.781 13.1992 45.533 13.2676L44.9998 14.4707C43.8878 14.3568 42.9308 14.0902 42.1287 13.6709C41.3266 13.2516 40.7569 12.7275 40.4197 12.0986C40.0824 12.7275 39.5151 13.2539 38.7175 13.6777C37.9246 14.097 36.9744 14.3613 35.867 14.4707L35.3474 13.2676C36.0811 13.1992 36.7351 13.0602 37.3093 12.8506C37.8836 12.641 38.3461 12.3857 38.697 12.085C39.0479 11.7796 39.2667 11.4583 39.3533 11.1211H35.8259V9.9043H45.0545V11.1211ZM49.3928 10.0684C50.0217 10.0638 50.5891 10.1868 51.095 10.4375C51.6008 10.6836 51.9973 11.0322 52.2844 11.4834C52.5761 11.9346 52.7242 12.4473 52.7288 13.0215C52.7242 13.5911 52.5761 14.1016 52.2844 14.5527C51.9973 14.9993 51.6008 15.3503 51.095 15.6055C50.5891 15.8561 50.0217 15.9837 49.3928 15.9883C48.7593 15.9837 48.1874 15.8561 47.677 15.6055C47.1711 15.3503 46.7724 14.9993 46.4807 14.5527C46.1936 14.1016 46.0523 13.5911 46.0569 13.0215C46.0523 12.4473 46.1936 11.9368 46.4807 11.4902C46.7724 11.0391 47.1711 10.6882 47.677 10.4375C48.1874 10.1868 48.7593 10.0638 49.3928 10.0684ZM49.3928 11.3398C49.0373 11.3398 48.7183 11.4105 48.4358 11.5518C48.1578 11.693 47.939 11.8913 47.7795 12.1465C47.62 12.3971 47.5426 12.6888 47.5471 13.0215C47.5426 13.3542 47.6177 13.6481 47.7727 13.9033C47.9322 14.154 48.1532 14.3499 48.4358 14.4912C48.7183 14.6279 49.0373 14.6986 49.3928 14.7031C49.7437 14.6986 50.0582 14.6279 50.3362 14.4912C50.6187 14.3499 50.8398 14.154 50.9993 13.9033C51.1588 13.6481 51.2385 13.3542 51.2385 13.0215C51.2385 12.6888 51.1588 12.3971 50.9993 12.1465C50.8398 11.8913 50.6187 11.693 50.3362 11.5518C50.0582 11.4105 49.7437 11.3398 49.3928 11.3398ZM55.6682 12.2832H57.3909V13.5137H55.6682V16.6172H54.1506V9.35742H55.6682V12.2832ZM51.6487 16.9043C52.4872 16.9043 53.2164 17 53.8362 17.1914C54.4605 17.3828 54.9413 17.6608 55.2786 18.0254C55.6158 18.3854 55.7867 18.8138 55.7913 19.3105C55.7867 19.8073 55.6158 20.2357 55.2786 20.5957C54.9413 20.9557 54.4605 21.2292 53.8362 21.416C53.2164 21.6074 52.4872 21.7031 51.6487 21.7031C50.801 21.7031 50.0605 21.6074 49.427 21.416C48.7981 21.2292 48.3127 20.9557 47.9709 20.5957C47.6337 20.2357 47.4651 19.8073 47.4651 19.3105C47.4651 18.8138 47.636 18.3854 47.9778 18.0254C48.3196 17.6608 48.8049 17.3828 49.4338 17.1914C50.0627 17 50.801 16.9043 51.6487 16.9043ZM51.6487 18.1211C50.7965 18.1211 50.1379 18.2236 49.6731 18.4287C49.2128 18.6292 48.9827 18.9232 48.9827 19.3105C48.9827 19.6979 49.2128 19.9919 49.6731 20.1924C50.1334 20.3883 50.7919 20.4863 51.6487 20.4863C52.5009 20.4863 53.1526 20.3883 53.6038 20.1924C54.0595 19.9919 54.2873 19.6979 54.2873 19.3105C54.2873 18.9232 54.0595 18.6292 53.6038 18.4287C53.1526 18.2236 52.5009 18.1211 51.6487 18.1211Z" fill="black"/>
<defs>
<linearGradient id="paint0_linear_5972_7151" x1="16" y1="4" x2="16" y2="32.2085" gradientUnits="userSpaceOnUse">
<stop/>
<stop/>
<stop offset="0.447917" stop-color="#000414"/>
<stop offset="0.598958" stop-color="#000A40"/>
</linearGradient>
</defs>
</svg>
