<svg width="17" height="11" viewBox="0 0 17 11" fill="none" xmlns="http://www.w3.org/2000/svg">
<path id="Union" fill-rule="evenodd" clip-rule="evenodd" d="M12.9109 1.44616C14.2337 2.30038 15.4137 3.49525 16.3233 4.90188C16.4381 5.07984 16.4995 5.28701 16.5001 5.49881C16.5007 5.7106 16.4406 5.91813 16.3267 6.09675C15.4206 7.51506 14.2429 8.71441 12.9209 9.56588C11.4637 10.504 9.84465 11 8.239 11C6.59725 11 5.01943 10.5188 3.55334 9.56897C2.25122 8.72644 1.08281 7.52984 0.174967 6.10913C0.0571006 5.92625 -0.00373934 5.71247 0.000177936 5.49494C0.00409521 5.2774 0.0725929 5.06595 0.196967 4.88744C1.29869 3.30791 2.56712 2.08106 3.96722 1.24128C5.34015 0.417656 6.77737 0 8.239 0C9.83193 0 11.4476 0.500157 12.9109 1.44616ZM6.4173 8.24385C6.95999 8.60646 7.59801 8.8 8.25068 8.8C9.12559 8.799 9.96438 8.451 10.583 7.83235C11.2017 7.21369 11.5497 6.37491 11.5507 5.5C11.5507 4.84732 11.3571 4.2093 10.9945 3.66662C10.6319 3.12394 10.1165 2.70097 9.51354 2.4512C8.91054 2.20143 8.24702 2.13608 7.60689 2.26341C6.96675 2.39074 6.37875 2.70503 5.91723 3.16655C5.45572 3.62806 5.14143 4.21606 5.01409 4.8562C4.88676 5.49634 4.95211 6.15986 5.20188 6.76286C5.45165 7.36585 5.87462 7.88124 6.4173 8.24385ZM10.4505 5.50143C10.4505 6.71646 9.46556 7.70143 8.25054 7.70143C7.03551 7.70143 6.05054 6.71646 6.05054 5.50143C6.05054 4.28641 7.03551 3.30143 8.25054 3.30143C9.46556 3.30143 10.4505 4.28641 10.4505 5.50143Z" fill="black"/>
</svg>
