<svg width="20" height="21" viewBox="0 0 20 21" fill="none" xmlns="http://www.w3.org/2000/svg">
<path d="M10 2.375C5.51992 2.375 1.875 6.01992 1.875 10.5C1.875 14.9801 5.51992 18.625 10 18.625C14.4801 18.625 18.125 14.9801 18.125 10.5C18.125 6.01992 14.4801 2.375 10 2.375ZM13.125 11.125H10.625V13.625C10.625 13.7908 10.5592 13.9497 10.4419 14.0669C10.3247 14.1842 10.1658 14.25 10 14.25C9.83424 14.25 9.67527 14.1842 9.55806 14.0669C9.44085 13.9497 9.375 13.7908 9.375 13.625V11.125H6.875C6.70924 11.125 6.55027 11.0592 6.43306 10.9419C6.31585 10.8247 6.25 10.6658 6.25 10.5C6.25 10.3342 6.31585 10.1753 6.43306 10.0581C6.55027 9.94085 6.70924 9.875 6.875 9.875H9.375V7.375C9.375 7.20924 9.44085 7.05027 9.55806 6.93306C9.67527 6.81585 9.83424 6.75 10 6.75C10.1658 6.75 10.3247 6.81585 10.4419 6.93306C10.5592 7.05027 10.625 7.20924 10.625 7.375V9.875H13.125C13.2908 9.875 13.4497 9.94085 13.5669 10.0581C13.6842 10.1753 13.75 10.3342 13.75 10.5C13.75 10.6658 13.6842 10.8247 13.5669 10.9419C13.4497 11.0592 13.2908 11.125 13.125 11.125Z" fill="black"/>
</svg>
