<svg width="17" height="14" viewBox="0 0 17 14" fill="none" xmlns="http://www.w3.org/2000/svg">
<path d="M2.131 13.125C1.94503 13.1241 1.76699 13.0496 1.63592 12.9176C1.50486 12.7857 1.43146 12.6071 1.43182 12.4212C1.43345 12.3505 1.44448 12.2803 1.46463 12.2125L1.96831 10.3906C1.98936 10.3234 1.96557 10.2555 1.93467 10.202L1.92866 10.191C1.92647 10.1875 1.91608 10.173 1.9087 10.1623C1.90131 10.1516 1.89284 10.1402 1.88518 10.1289L1.87999 10.1216C1.24401 9.15765 0.905058 8.02821 0.905181 6.8734C0.900259 5.29867 1.51631 3.8109 2.64041 2.68215C3.80362 1.51676 5.35948 0.875001 7.02526 0.875001C8.43838 0.874303 9.80959 1.35497 10.913 2.23781C11.9917 3.10598 12.7415 4.31594 13.0242 5.64703C13.1112 6.0514 13.1551 6.46387 13.1549 6.8775C13.1549 8.48887 12.5358 10.0023 11.4115 11.1396C10.2773 12.288 8.7542 12.9186 7.12315 12.9186C6.54893 12.9186 5.8142 12.772 5.46147 12.6725C5.03709 12.5538 4.63487 12.399 4.59057 12.3826C4.54369 12.3647 4.49393 12.3554 4.44374 12.3553C4.38929 12.3549 4.33534 12.3656 4.28514 12.3867L4.2619 12.3957L2.41674 13.0624C2.32612 13.1005 2.22927 13.1218 2.131 13.125Z" fill="#FFC700"/>
</svg>
