<svg width="49" height="24" viewBox="0 0 49 24" fill="none" xmlns="http://www.w3.org/2000/svg">
<rect width="49" height="24" rx="8" fill="#F6F6F6"/>
<path d="M9.20086 18C9.01868 17.9991 8.84427 17.9261 8.71587 17.7968C8.58748 17.6676 8.51558 17.4927 8.51593 17.3105C8.51753 17.2413 8.52834 17.1726 8.54808 17.1062L9.04148 15.3214C9.0621 15.2555 9.0388 15.1891 9.00853 15.1366L9.00264 15.1259C9.0005 15.1224 8.99032 15.1082 8.98308 15.0978C8.97585 15.0873 8.96755 15.0761 8.96005 15.0651L8.95496 15.0579C8.33195 14.1136 7.99991 13.0072 8.00003 11.876C7.99521 10.3334 8.5987 8.87598 9.69988 7.77027C10.8394 6.62866 12.3635 6 13.9953 6C15.3796 5.99932 16.7229 6.47017 17.8038 7.335C18.8605 8.18545 19.595 9.37071 19.872 10.6746C19.9572 11.0708 20.0001 11.4748 20 11.88C20 13.4585 19.3936 14.9411 18.2921 16.0551C17.181 17.1801 15.689 17.7978 14.0912 17.7978C13.5287 17.7978 12.809 17.6542 12.4634 17.5567C12.0477 17.4404 11.6537 17.2888 11.6103 17.2728C11.5644 17.2552 11.5156 17.2461 11.4664 17.246C11.4131 17.2457 11.3603 17.2561 11.3111 17.2768L11.2883 17.2856L9.48077 17.9387C9.392 17.976 9.29712 17.9968 9.20086 18Z" fill="#999999"/>
<path d="M28.0723 9.65234H25.709V11.9375C26.2493 11.9342 26.7262 11.9163 27.1396 11.8838C27.5531 11.8512 27.9681 11.7943 28.3848 11.7129L28.4824 12.5918C27.9876 12.6829 27.4993 12.7448 27.0176 12.7773C26.5358 12.8099 25.9434 12.8262 25.2402 12.8262H24.6348V8.77344H28.0723V9.65234ZM31.8418 13.8613H30.8066V11.1172H29.8887V13.0703H28.873V8.19727H29.8887V10.2285H30.8066V8.04102H31.8418V13.8613ZM29.3613 13.7246C29.3613 14.0664 29.4818 14.3952 29.7227 14.7109C29.9635 15.0267 30.3053 15.2985 30.748 15.5264C31.1908 15.7542 31.7018 15.9089 32.2812 15.9902L31.8223 16.8301C31.1354 16.7161 30.5316 16.5062 30.0107 16.2002C29.4899 15.8942 29.0928 15.5182 28.8193 15.0723C28.5459 15.515 28.1471 15.8893 27.623 16.1953C27.1022 16.5046 26.5 16.7161 25.8164 16.8301L25.3672 15.9902C25.9401 15.9089 26.4463 15.7542 26.8857 15.5264C27.3285 15.2985 27.6702 15.0267 27.9111 14.7109C28.152 14.3952 28.2741 14.0664 28.2773 13.7246V13.4316H29.3613V13.7246ZM39.0156 8.99805C39.0156 9.4082 39.0042 9.78092 38.9814 10.1162C38.9619 10.4482 38.9131 10.8177 38.835 11.2246H40.002V12.084H31.9355V11.2246H37.7412C37.8128 10.8633 37.8617 10.5296 37.8877 10.2236C37.9137 9.91439 37.9284 9.59701 37.9316 9.27148H32.9316V8.41211H39.0156V8.99805ZM39.0059 15.1797H33.957V15.9316H39.2305V16.7812H32.873V14.3496H37.9219V13.6367H32.8633V12.7871H39.0059V15.1797Z" fill="#999999"/>
<rect width="49" height="24" rx="8" fill="#F6F6F6"/>
<path d="M9.20086 18C9.01868 17.9991 8.84427 17.9261 8.71587 17.7968C8.58748 17.6676 8.51558 17.4927 8.51593 17.3105C8.51753 17.2413 8.52834 17.1726 8.54808 17.1062L9.04148 15.3214C9.0621 15.2555 9.0388 15.1891 9.00853 15.1366L9.00264 15.1259C9.0005 15.1224 8.99032 15.1082 8.98308 15.0978C8.97585 15.0873 8.96755 15.0761 8.96005 15.0651L8.95496 15.0579C8.33195 14.1136 7.99991 13.0072 8.00003 11.876C7.99521 10.3334 8.5987 8.87598 9.69988 7.77027C10.8394 6.62866 12.3635 6 13.9953 6C15.3796 5.99932 16.7229 6.47017 17.8038 7.335C18.8605 8.18545 19.595 9.37071 19.872 10.6746C19.9572 11.0708 20.0001 11.4748 20 11.88C20 13.4585 19.3936 14.9411 18.2921 16.0551C17.181 17.1801 15.689 17.7978 14.0912 17.7978C13.5287 17.7978 12.809 17.6542 12.4634 17.5567C12.0477 17.4404 11.6537 17.2888 11.6103 17.2728C11.5644 17.2552 11.5156 17.2461 11.4664 17.246C11.4131 17.2457 11.3603 17.2561 11.3111 17.2768L11.2883 17.2856L9.48077 17.9387C9.392 17.976 9.29712 17.9968 9.20086 18Z" fill="#999999"/>
<path d="M28.0723 9.65234H25.709V11.9375C26.2493 11.9342 26.7262 11.9163 27.1396 11.8838C27.5531 11.8512 27.9681 11.7943 28.3848 11.7129L28.4824 12.5918C27.9876 12.6829 27.4993 12.7448 27.0176 12.7773C26.5358 12.8099 25.9434 12.8262 25.2402 12.8262H24.6348V8.77344H28.0723V9.65234ZM31.8418 13.8613H30.8066V11.1172H29.8887V13.0703H28.873V8.19727H29.8887V10.2285H30.8066V8.04102H31.8418V13.8613ZM29.3613 13.7246C29.3613 14.0664 29.4818 14.3952 29.7227 14.7109C29.9635 15.0267 30.3053 15.2985 30.748 15.5264C31.1908 15.7542 31.7018 15.9089 32.2812 15.9902L31.8223 16.8301C31.1354 16.7161 30.5316 16.5062 30.0107 16.2002C29.4899 15.8942 29.0928 15.5182 28.8193 15.0723C28.5459 15.515 28.1471 15.8893 27.623 16.1953C27.1022 16.5046 26.5 16.7161 25.8164 16.8301L25.3672 15.9902C25.9401 15.9089 26.4463 15.7542 26.8857 15.5264C27.3285 15.2985 27.6702 15.0267 27.9111 14.7109C28.152 14.3952 28.2741 14.0664 28.2773 13.7246V13.4316H29.3613V13.7246ZM39.0156 8.99805C39.0156 9.4082 39.0042 9.78092 38.9814 10.1162C38.9619 10.4482 38.9131 10.8177 38.835 11.2246H40.002V12.084H31.9355V11.2246H37.7412C37.8128 10.8633 37.8617 10.5296 37.8877 10.2236C37.9137 9.91439 37.9284 9.59701 37.9316 9.27148H32.9316V8.41211H39.0156V8.99805ZM39.0059 15.1797H33.957V15.9316H39.2305V16.7812H32.873V14.3496H37.9219V13.6367H32.8633V12.7871H39.0059V15.1797Z" fill="#999999"/>
<rect width="49" height="24" rx="8" fill="#F6F6F6"/>
<path d="M9.20086 18C9.01868 17.9991 8.84427 17.9261 8.71587 17.7968C8.58748 17.6676 8.51558 17.4927 8.51593 17.3105C8.51753 17.2413 8.52834 17.1726 8.54808 17.1062L9.04148 15.3214C9.0621 15.2555 9.0388 15.1891 9.00853 15.1366L9.00264 15.1259C9.0005 15.1224 8.99032 15.1082 8.98308 15.0978C8.97585 15.0873 8.96755 15.0761 8.96005 15.0651L8.95496 15.0579C8.33195 14.1136 7.99991 13.0072 8.00003 11.876C7.99521 10.3334 8.5987 8.87598 9.69988 7.77027C10.8394 6.62866 12.3635 6 13.9953 6C15.3796 5.99932 16.7229 6.47017 17.8038 7.335C18.8605 8.18545 19.595 9.37071 19.872 10.6746C19.9572 11.0708 20.0001 11.4748 20 11.88C20 13.4585 19.3936 14.9411 18.2921 16.0551C17.181 17.1801 15.689 17.7978 14.0912 17.7978C13.5287 17.7978 12.809 17.6542 12.4634 17.5567C12.0477 17.4404 11.6537 17.2888 11.6103 17.2728C11.5644 17.2552 11.5156 17.2461 11.4664 17.246C11.4131 17.2457 11.3603 17.2561 11.3111 17.2768L11.2883 17.2856L9.48077 17.9387C9.392 17.976 9.29712 17.9968 9.20086 18Z" fill="#999999"/>
<path d="M28.0723 9.65234H25.709V11.9375C26.2493 11.9342 26.7262 11.9163 27.1396 11.8838C27.5531 11.8512 27.9681 11.7943 28.3848 11.7129L28.4824 12.5918C27.9876 12.6829 27.4993 12.7448 27.0176 12.7773C26.5358 12.8099 25.9434 12.8262 25.2402 12.8262H24.6348V8.77344H28.0723V9.65234ZM31.8418 13.8613H30.8066V11.1172H29.8887V13.0703H28.873V8.19727H29.8887V10.2285H30.8066V8.04102H31.8418V13.8613ZM29.3613 13.7246C29.3613 14.0664 29.4818 14.3952 29.7227 14.7109C29.9635 15.0267 30.3053 15.2985 30.748 15.5264C31.1908 15.7542 31.7018 15.9089 32.2812 15.9902L31.8223 16.8301C31.1354 16.7161 30.5316 16.5062 30.0107 16.2002C29.4899 15.8942 29.0928 15.5182 28.8193 15.0723C28.5459 15.515 28.1471 15.8893 27.623 16.1953C27.1022 16.5046 26.5 16.7161 25.8164 16.8301L25.3672 15.9902C25.9401 15.9089 26.4463 15.7542 26.8857 15.5264C27.3285 15.2985 27.6702 15.0267 27.9111 14.7109C28.152 14.3952 28.2741 14.0664 28.2773 13.7246V13.4316H29.3613V13.7246ZM39.0156 8.99805C39.0156 9.4082 39.0042 9.78092 38.9814 10.1162C38.9619 10.4482 38.9131 10.8177 38.835 11.2246H40.002V12.084H31.9355V11.2246H37.7412C37.8128 10.8633 37.8617 10.5296 37.8877 10.2236C37.9137 9.91439 37.9284 9.59701 37.9316 9.27148H32.9316V8.41211H39.0156V8.99805ZM39.0059 15.1797H33.957V15.9316H39.2305V16.7812H32.873V14.3496H37.9219V13.6367H32.8633V12.7871H39.0059V15.1797Z" fill="#999999"/>
</svg>
