<svg width="17" height="14" viewBox="0 0 17 14" fill="none" xmlns="http://www.w3.org/2000/svg">
<path fill-rule="evenodd" clip-rule="evenodd" d="M4.363 12.9616C4.69902 13.122 5.06664 13.2054 5.439 13.2056H10.785C11.3811 13.2056 11.9577 12.9925 12.4106 12.6049C12.8635 12.2173 13.163 11.6806 13.255 11.0916L13.881 7.08856C13.9258 6.80318 13.9082 6.51149 13.8295 6.23354C13.7508 5.9556 13.6128 5.69801 13.425 5.4785C13.2372 5.25898 13.0041 5.08275 12.7417 4.96192C12.4793 4.84109 12.1939 4.77854 11.905 4.77856H8.622V2.42156C8.62247 2.06163 8.50343 1.71173 8.28356 1.42676C8.06368 1.1418 7.75542 0.937891 7.40715 0.847045C7.05887 0.7562 6.69028 0.783556 6.35923 0.924819C6.02818 1.06608 5.7534 1.31326 5.578 1.62756L3.501 5.33756C3.37567 5.56153 3.30991 5.81391 3.31 6.07056V11.5126C3.30996 11.7959 3.39014 12.0734 3.54128 12.313C3.69241 12.5526 3.90832 12.7446 4.164 12.8666L4.363 12.9616ZM0.997 5.52156C0.866119 5.52143 0.736496 5.5471 0.61554 5.59709C0.494584 5.64709 0.384668 5.72043 0.292075 5.81293C0.199482 5.90543 0.126028 6.01527 0.0759115 6.13618C0.0257953 6.25708 -6.5967e-08 6.38668 0 6.51756V11.6296C0 11.894 0.105041 12.1476 0.292015 12.3345C0.478988 12.5215 0.732579 12.6266 0.997 12.6266H1.493C1.62561 12.6266 1.75279 12.5739 1.84655 12.4801C1.94032 12.3863 1.993 12.2592 1.993 12.1266V6.02056C1.993 5.88795 1.94032 5.76078 1.84655 5.66701C1.75279 5.57324 1.62561 5.52056 1.493 5.52056L0.997 5.52156Z" fill="#000C76"/>
</svg>
