<svg width="56" height="24" viewBox="0 0 56 24" fill="none" xmlns="http://www.w3.org/2000/svg">
<rect width="56" height="24" rx="8" fill="#8784FF"/>
<g clip-path="url(#clip0_6393_11750)">
<path fill-rule="evenodd" clip-rule="evenodd" d="M11.7802 17.1087C12.0683 17.2462 12.3834 17.3176 12.7025 17.3178H17.2848C17.7958 17.3178 18.2899 17.1352 18.6782 16.8029C19.0664 16.4707 19.3231 16.0106 19.402 15.5058L19.9385 12.0747C19.9769 11.83 19.9618 11.58 19.8944 11.3418C19.8269 11.1035 19.7086 10.8828 19.5477 10.6946C19.3867 10.5064 19.1869 10.3554 18.962 10.2518C18.7371 10.1483 18.4924 10.0946 18.2448 10.0947H15.4308V8.07437C15.4312 7.76586 15.3292 7.46594 15.1407 7.22168C14.9523 6.97743 14.688 6.80265 14.3895 6.72478C14.091 6.64692 13.7751 6.67036 13.4913 6.79145C13.2075 6.91253 12.972 7.1244 12.8217 7.3938L11.0414 10.5738C10.934 10.7658 10.8776 10.9821 10.8777 11.2021V15.8667C10.8776 16.1095 10.9464 16.3474 11.0759 16.5528C11.2055 16.7581 11.3905 16.9226 11.6097 17.0272L11.7802 17.1087ZM8.8951 10.7315C8.78292 10.7314 8.67181 10.7534 8.56813 10.7963C8.46446 10.8391 8.37024 10.902 8.29088 10.9813C8.21151 11.0605 8.14855 11.1547 8.10559 11.2583C8.06264 11.362 8.04053 11.473 8.04053 11.5852V15.9669C8.04053 16.1936 8.13056 16.411 8.29083 16.5712C8.45109 16.7315 8.66845 16.8215 8.8951 16.8215H9.32024C9.43391 16.8215 9.54291 16.7764 9.62329 16.696C9.70366 16.6156 9.74881 16.5066 9.74881 16.3929V11.1592C9.74881 11.0456 9.70366 10.9366 9.62329 10.8562C9.54291 10.7758 9.43391 10.7307 9.32024 10.7307L8.8951 10.7315Z" fill="white"/>
</g>
<path d="M28.8438 11.5566H32.3496V12.4355H24.2832V11.5566H27.7695V10.668H28.8438V11.5566ZM31.6172 9.11523H29.0879C29.1562 9.32682 29.3158 9.52214 29.5664 9.70117C29.8171 9.88021 30.1458 10.0299 30.5527 10.1504C30.9629 10.2676 31.4316 10.3424 31.959 10.375L31.6172 11.1855C30.8001 11.1237 30.1035 10.9593 29.5273 10.6924C28.9512 10.4255 28.5475 10.0837 28.3164 9.66699C28.0853 10.0837 27.68 10.4255 27.1006 10.6924C26.5244 10.9561 25.8294 11.1204 25.0156 11.1855L24.6641 10.375C25.1784 10.3457 25.639 10.2725 26.0459 10.1553C26.4561 10.0348 26.7865 9.88509 27.0371 9.70605C27.291 9.52376 27.4554 9.32682 27.5303 9.11523H25.0254V8.28516H31.6172V9.11523ZM31.5879 14.2422H25.0254V13.4219H27.7598V12.709H28.8535V13.4219H31.5879V14.2422ZM28.2969 14.5645C29.1595 14.5645 29.8252 14.6637 30.2939 14.8623C30.766 15.0609 31.002 15.349 31.002 15.7266C31.002 16.1074 30.766 16.3971 30.2939 16.5957C29.8252 16.7975 29.1595 16.8984 28.2969 16.8984C27.431 16.8984 26.7669 16.7992 26.3047 16.6006C25.8424 16.402 25.6113 16.1107 25.6113 15.7266C25.6113 15.349 25.8424 15.0609 26.3047 14.8623C26.7669 14.6637 27.431 14.5645 28.2969 14.5645ZM28.2969 15.2969C27.7728 15.2969 27.3789 15.3311 27.1152 15.3994C26.8548 15.4678 26.7246 15.5768 26.7246 15.7266C26.7246 16.026 27.2487 16.1758 28.2969 16.1758C29.3418 16.1758 29.8691 16.026 29.8789 15.7266C29.8757 15.5768 29.7438 15.4678 29.4834 15.3994C29.223 15.3311 28.8275 15.2969 28.2969 15.2969ZM34.3086 8.68555C34.7513 8.68555 35.1452 8.81413 35.4902 9.07129C35.8353 9.3252 36.1055 9.68815 36.3008 10.1602C36.4993 10.6289 36.6003 11.1758 36.6035 11.8008C36.6003 12.4323 36.4993 12.984 36.3008 13.4561C36.1055 13.9281 35.8353 14.291 35.4902 14.5449C35.1452 14.7988 34.7513 14.9258 34.3086 14.9258C33.8626 14.9258 33.4655 14.7988 33.1172 14.5449C32.7689 14.2878 32.4971 13.9232 32.3018 13.4512C32.1064 12.9792 32.0104 12.429 32.0137 11.8008C32.0104 11.179 32.1064 10.6322 32.3018 10.1602C32.4971 9.68815 32.7689 9.3252 33.1172 9.07129C33.4655 8.81413 33.8626 8.68555 34.3086 8.68555ZM34.3086 9.66211C34.0612 9.66211 33.8431 9.74837 33.6543 9.9209C33.4655 10.0902 33.319 10.3359 33.2148 10.6582C33.1107 10.9772 33.0586 11.3581 33.0586 11.8008C33.0586 12.2467 33.1107 12.6309 33.2148 12.9531C33.319 13.2754 33.4655 13.5228 33.6543 13.6953C33.8431 13.8646 34.0612 13.9492 34.3086 13.9492C34.5592 13.9492 34.779 13.8646 34.9678 13.6953C35.1566 13.5228 35.3014 13.2754 35.4023 12.9531C35.5065 12.6309 35.5586 12.2467 35.5586 11.8008C35.5586 11.3581 35.5065 10.9756 35.4023 10.6533C35.3014 10.3311 35.1566 10.0853 34.9678 9.91602C34.779 9.74674 34.5592 9.66211 34.3086 9.66211ZM38.8496 11.4297H40.207V12.3477H38.8496V16.8691H37.7656V8.04102H38.8496V11.4297ZM47.6445 15.7949H39.5781V14.9062H41.4434V12.6748C41.0853 12.4665 40.807 12.2077 40.6084 11.8984C40.4131 11.5892 40.3171 11.2409 40.3203 10.8535C40.3171 10.3945 40.4554 9.98763 40.7354 9.63281C41.0153 9.27799 41.4043 9.00456 41.9023 8.8125C42.4004 8.61719 42.9635 8.51953 43.5918 8.51953C44.2233 8.51953 44.7881 8.61719 45.2861 8.8125C45.7874 9.00456 46.1781 9.27799 46.458 9.63281C46.7412 9.98438 46.8828 10.3913 46.8828 10.8535C46.8828 11.2311 46.7868 11.5745 46.5947 11.8838C46.4059 12.1898 46.1374 12.4453 45.7891 12.6504V14.9062H47.6445V15.7949ZM43.5918 9.37891C43.1523 9.37891 42.765 9.43913 42.4297 9.55957C42.0977 9.67676 41.8389 9.84603 41.6533 10.0674C41.471 10.2887 41.3815 10.5508 41.3848 10.8535C41.3815 11.153 41.471 11.4134 41.6533 11.6348C41.8389 11.8561 42.0993 12.027 42.4346 12.1475C42.7699 12.2679 43.1556 12.3281 43.5918 12.3281C44.028 12.3281 44.4137 12.2679 44.749 12.1475C45.0876 12.027 45.3496 11.8561 45.5352 11.6348C45.724 11.4134 45.8184 11.153 45.8184 10.8535C45.8184 10.554 45.724 10.2936 45.5352 10.0723C45.3496 9.84766 45.0892 9.67676 44.7539 9.55957C44.4186 9.43913 44.0312 9.37891 43.5918 9.37891ZM44.6855 14.9062V13.0654C44.3405 13.1403 43.9759 13.1777 43.5918 13.1777C43.224 13.1777 42.8659 13.1419 42.5176 13.0703V14.9062H44.6855Z" fill="white"/>
<defs>
<clipPath id="clip0_6393_11750">
<rect width="12" height="12" fill="white" transform="translate(8 6)"/>
</clipPath>
</defs>
</svg>
