<svg width="104" height="54" viewBox="0 0 104 54" fill="none" xmlns="http://www.w3.org/2000/svg">
<g filter="url(#filter0_d_7781_13945)">
<rect x="10" y="8" width="84" height="34" rx="17" fill="white" shape-rendering="crispEdges"/>
<path d="M34.2637 29.6992H23.0527V28.6055H27.9883V26.459H24.4199V22.5625H31.6113V20.8398H24.3926V19.7734H32.8965V23.6016H25.7051V25.3926H33.1836V26.459H29.2734V28.6055H34.2637V29.6992ZM43.8594 21.4688C43.8594 22.1842 43.8503 22.804 43.832 23.3281C43.8184 23.8522 43.7796 24.4583 43.7158 25.1465C43.652 25.8301 43.5495 26.5775 43.4082 27.3887L42.082 27.2656C42.2324 26.5091 42.3441 25.7936 42.417 25.1191C42.4899 24.4447 42.5332 23.8454 42.5469 23.3213C42.5651 22.7926 42.5742 22.1751 42.5742 21.4688V21.2227H35.3555V20.1562H43.8594V21.4688ZM45.3223 29.4258H34.1523V28.3457H45.3223V29.4258ZM48.5332 19.8281C49.1393 19.8281 49.6794 20.0036 50.1533 20.3545C50.6318 20.7054 51.0033 21.2067 51.2676 21.8584C51.5365 22.5055 51.6732 23.2598 51.6777 24.1211C51.6732 24.987 51.5365 25.7458 51.2676 26.3975C51.0033 27.0446 50.6318 27.5459 50.1533 27.9014C49.6794 28.2523 49.1393 28.4277 48.5332 28.4277C47.9225 28.4277 47.3802 28.2523 46.9062 27.9014C46.4323 27.5459 46.0609 27.0446 45.792 26.3975C45.5277 25.7458 45.3978 24.987 45.4023 24.1211C45.3978 23.2598 45.5277 22.5055 45.792 21.8584C46.0609 21.2113 46.4323 20.7122 46.9062 20.3613C47.3802 20.0059 47.9225 19.8281 48.5332 19.8281ZM48.5332 20.9902C48.1595 20.9902 47.8291 21.1178 47.542 21.373C47.2594 21.6283 47.0384 21.9928 46.8789 22.4668C46.724 22.9362 46.6465 23.4876 46.6465 24.1211C46.6465 24.7591 46.724 25.3151 46.8789 25.7891C47.0384 26.263 47.2594 26.6276 47.542 26.8828C47.8291 27.138 48.1595 27.2656 48.5332 27.2656C48.9115 27.2656 49.2441 27.138 49.5312 26.8828C49.8184 26.6276 50.0394 26.263 50.1943 25.7891C50.3538 25.3151 50.4336 24.7591 50.4336 24.1211C50.4336 23.4876 50.3538 22.9362 50.1943 22.4668C50.0394 21.9928 49.8184 21.6283 49.5312 21.373C49.2441 21.1178 48.9115 20.9902 48.5332 20.9902ZM54.7949 23.7109H56.7637V24.8047H54.7949V31.1621H53.4961V18.9121H54.7949V23.7109ZM67.5488 25.5156H62.5586V26.8008H61.2734V25.5156H56.3516V24.4355H67.5488V25.5156ZM62.5723 27.6758C62.5723 28.0814 62.7477 28.4574 63.0986 28.8037C63.4495 29.1455 63.9349 29.4326 64.5547 29.665C65.179 29.8929 65.8854 30.0456 66.6738 30.123L66.2773 31.1074C65.2611 30.998 64.3678 30.7656 63.5977 30.4102C62.832 30.0592 62.2669 29.6104 61.9023 29.0635C61.5332 29.6058 60.9658 30.0547 60.2002 30.4102C59.4346 30.7702 58.5527 31.0026 57.5547 31.1074L57.1309 30.123C57.9056 30.0456 58.6051 29.8906 59.2295 29.6582C59.8538 29.4212 60.3438 29.1318 60.6992 28.79C61.0547 28.4437 61.2324 28.0723 61.2324 27.6758V27.334H62.5723V27.6758ZM61.9297 19.0898C62.832 19.0898 63.6113 19.1787 64.2676 19.3564C64.9238 19.5296 65.4274 19.7871 65.7783 20.1289C66.1292 20.4661 66.3047 20.8763 66.3047 21.3594C66.3047 21.8333 66.1292 22.2389 65.7783 22.5762C65.4274 22.9134 64.9238 23.1709 64.2676 23.3486C63.6113 23.5264 62.832 23.6152 61.9297 23.6152C61.0319 23.6152 60.2549 23.5264 59.5986 23.3486C58.9424 23.1709 58.4365 22.9134 58.0811 22.5762C57.7301 22.2389 57.5547 21.8333 57.5547 21.3594C57.5547 20.8763 57.7301 20.4661 58.0811 20.1289C58.4365 19.7871 58.9424 19.5296 59.5986 19.3564C60.2549 19.1787 61.0319 19.0898 61.9297 19.0898ZM61.9297 20.0742C61.3008 20.0697 60.7562 20.1175 60.2959 20.2178C59.8402 20.318 59.4915 20.4661 59.25 20.6621C59.0085 20.8535 58.89 21.0859 58.8945 21.3594C58.89 21.6237 59.0085 21.8493 59.25 22.0361C59.4915 22.223 59.8402 22.3665 60.2959 22.4668C60.7562 22.5671 61.3008 22.6172 61.9297 22.6172C62.5586 22.6172 63.1009 22.5671 63.5566 22.4668C64.0124 22.3665 64.361 22.223 64.6025 22.0361C64.8441 21.8493 64.9648 21.6237 64.9648 21.3594C64.9648 21.0859 64.8441 20.8535 64.6025 20.6621C64.361 20.4661 64.0124 20.318 63.5566 20.2178C63.1009 20.1175 62.5586 20.0697 61.9297 20.0742Z" fill="black"/>
<path d="M79.3334 20.9167V20.3333C79.3334 20.0112 79.0723 19.75 78.7501 19.75H73.5001C73.1779 19.75 72.9167 20.0112 72.9167 20.3333V29.6667C72.9167 29.9888 73.1779 30.25 73.5001 30.25H78.7501C79.0723 30.25 79.3334 29.9888 79.3334 29.6667V29.0833" stroke="black" stroke-width="1.33333" stroke-linecap="round"/>
<path d="M75.8335 25H82.2502" stroke="black" stroke-width="1.33333" stroke-linecap="round"/>
<path d="M80.2085 22.9583L82.2502 24.9999L80.2085 27.0416" stroke="black" stroke-width="1.33333" stroke-linecap="round"/>
</g>
<defs>
<filter id="filter0_d_7781_13945" x="0" y="0" width="104" height="54" filterUnits="userSpaceOnUse" color-interpolation-filters="sRGB">
<feFlood flood-opacity="0" result="BackgroundImageFix"/>
<feColorMatrix in="SourceAlpha" type="matrix" values="0 0 0 0 0 0 0 0 0 0 0 0 0 0 0 0 0 0 127 0" result="hardAlpha"/>
<feOffset dy="2"/>
<feGaussianBlur stdDeviation="5"/>
<feComposite in2="hardAlpha" operator="out"/>
<feColorMatrix type="matrix" values="0 0 0 0 0.694118 0 0 0 0 0.694118 0 0 0 0 0.694118 0 0 0 0.25 0"/>
<feBlend mode="normal" in2="BackgroundImageFix" result="effect1_dropShadow_7781_13945"/>
<feBlend mode="normal" in="SourceGraphic" in2="effect1_dropShadow_7781_13945" result="shape"/>
</filter>
</defs>
</svg>
