<svg width="68" height="68" viewBox="0 0 68 68" fill="none" xmlns="http://www.w3.org/2000/svg">
<circle cx="34" cy="34" r="34" fill="white"/>
<path d="M46.4688 20.9375H21.5312C20.4293 20.9387 19.3728 21.3769 18.5936 22.1561C17.8144 22.9353 17.3762 23.9918 17.375 25.0938V42.9062C17.3762 44.0082 17.8144 45.0647 18.5936 45.8439C19.3728 46.6231 20.4293 47.0613 21.5312 47.0625H46.4688C47.5707 47.0613 48.6272 46.6231 49.4064 45.8439C50.1856 45.0647 50.6238 44.0082 50.625 42.9062V25.0938C50.6238 23.9918 50.1856 22.9353 49.4064 22.1561C48.6272 21.3769 47.5707 20.9387 46.4688 20.9375ZM45.4163 27.8124L34.7288 36.1249C34.5204 36.2869 34.264 36.3749 34 36.3749C33.736 36.3749 33.4796 36.2869 33.2712 36.1249L22.5837 27.8124C22.4581 27.7176 22.3526 27.5987 22.2734 27.4628C22.1941 27.3268 22.1427 27.1765 22.1221 27.0205C22.1014 26.8645 22.112 26.706 22.1532 26.5541C22.1943 26.4022 22.2652 26.2601 22.3618 26.1358C22.4584 26.0116 22.5787 25.9078 22.7158 25.8305C22.8528 25.7532 23.0039 25.7039 23.1601 25.6854C23.3164 25.667 23.4748 25.6798 23.626 25.7231C23.7773 25.7664 23.9185 25.8393 24.0413 25.9376L34 33.6831L43.9587 25.9376C44.2077 25.7496 44.5207 25.6671 44.8301 25.708C45.1394 25.749 45.4202 25.91 45.6118 26.1564C45.8033 26.4027 45.8902 26.7145 45.8536 27.0244C45.817 27.3343 45.66 27.6174 45.4163 27.8124Z" fill="#000C76"/>
</svg>
