<svg width="40" height="30" viewBox="0 0 40 30" fill="none" xmlns="http://www.w3.org/2000/svg">
<path d="M12.25 17.25C13.4926 17.25 14.5 16.2426 14.5 15C14.5 13.7574 13.4926 12.75 12.25 12.75C11.0074 12.75 10 13.7574 10 15C10 16.2426 11.0074 17.25 12.25 17.25Z" fill="#BCBCBC"/>
<path d="M19.75 17.25C20.9926 17.25 22 16.2426 22 15C22 13.7574 20.9926 12.75 19.75 12.75C18.5074 12.75 17.5 13.7574 17.5 15C17.5 16.2426 18.5074 17.25 19.75 17.25Z" fill="#BCBCBC"/>
<path d="M27.25 17.25C28.4926 17.25 29.5 16.2426 29.5 15C29.5 13.7574 28.4926 12.75 27.25 12.75C26.0074 12.75 25 13.7574 25 15C25 16.2426 26.0074 17.25 27.25 17.25Z" fill="#BCBCBC"/>
</svg>
