<svg width="16" height="26" viewBox="0 0 16 26" fill="none" xmlns="http://www.w3.org/2000/svg">
<path id="Vector" d="M13.3664 3.21588C13.1648 3.419 12.9664 3.57988 12.8 3.70013M13.3664 3.21588C13.8528 2.72025 14.4 1.9175 14.4 0.812501C14.4 0.597013 14.3157 0.39035 14.1657 0.237977C14.0157 0.0856038 13.8122 0 13.6 0H2.4C2.29487 -0.000189393 2.19074 0.0206659 2.09355 0.0613749C1.99636 0.102084 1.90803 0.161848 1.8336 0.237251M13.3664 3.21588L13.0115 2.86366C13.0112 2.86399 13.0109 2.86432 13.0105 2.86465C13.0102 2.86499 13.0099 2.86532 13.0095 2.86566L13.3664 3.21588ZM12.8 3.70013L1.8336 0.237251M12.8 3.70013V10.9005V3.70013ZM1.8336 0.237251L2.18944 0.588503C2.18959 0.58835 2.18974 0.588197 2.18989 0.588045C2.19004 0.587898 2.19018 0.587751 2.19033 0.587604L1.8336 0.237251ZM2.9898 2.86499C2.98959 2.86478 2.98938 2.86456 2.98916 2.86434L2.6336 3.21588L2.99046 2.86566C2.99024 2.86544 2.99002 2.86521 2.9898 2.86499ZM12.6567 11.4005C12.6571 11.4008 12.6576 11.4011 12.6581 11.4014L12.6598 11.4025L12.9248 10.9785L12.6567 11.4005ZM8 25.1068C7.95487 25.248 7.9085 25.3688 7.86313 25.4605C7.84564 25.4959 7.83025 25.5229 7.81753 25.5426C7.81128 25.5523 7.80622 25.5594 7.80249 25.5643C7.79901 25.5689 7.79719 25.5708 7.79719 25.5708L7.79723 25.5708C7.79752 25.5705 7.80093 25.5669 7.80773 25.5614C7.81452 25.5559 7.82592 25.5476 7.84216 25.5387C7.8759 25.5203 7.93035 25.5 8 25.5C8.06965 25.5 8.1241 25.5203 8.15784 25.5387C8.17408 25.5476 8.18548 25.5559 8.19227 25.5614C8.19907 25.5669 8.20248 25.5705 8.20277 25.5708L8.20281 25.5708C8.20281 25.5708 8.20099 25.5689 8.19751 25.5643C8.19378 25.5594 8.18872 25.5523 8.18247 25.5426C8.16975 25.5229 8.15436 25.4959 8.13687 25.4605C8.0915 25.3688 8.04513 25.248 8 25.1068ZM1.872 11.8804L2.20271 12.2554C2.20299 12.2551 2.20327 12.2549 2.20354 12.2547C2.20377 12.2544 2.20401 12.2542 2.20424 12.254L1.872 11.8804Z" stroke="#000C76"/>
</svg>
