<svg width="75" height="54" viewBox="0 0 50 54" fill="none" xmlns="http://www.w3.org/2000/svg">
<path d="M32.6923 46.2856C32.6923 48.3316 31.8819 50.2938 30.4393 51.7405C28.9967 53.1872 27.0401 54 25 54C22.9599 54 21.0033 53.1872 19.5607 51.7405C18.1181 50.2938 17.3077 48.3316 17.3077 46.2856H32.6923ZM44.2308 42.4285H2.30769C1.69565 42.4285 1.10868 42.1846 0.675907 41.7506C0.243131 41.3166 0 40.728 0 40.1142C0 39.5004 0.243131 38.9117 0.675907 38.4777C1.10868 38.0437 1.69565 37.7999 2.30769 37.7999H5.76923V23.1426C5.76923 13.8082 12.3846 6.01671 21.1731 4.24241C21.1194 3.70609 21.1784 3.16443 21.3463 2.65238C21.5142 2.14033 21.7872 1.66925 22.1478 1.26952C22.5084 0.869799 22.9485 0.550301 23.4397 0.331638C23.931 0.112975 24.4625 0 25 0C25.5375 0 26.069 0.112975 26.5603 0.331638C27.0515 0.550301 27.4916 0.869799 27.8522 1.26952C28.2128 1.66925 28.4858 2.14033 28.6537 2.65238C28.8216 3.16443 28.8806 3.70609 28.8269 4.24241C33.1735 5.12905 37.0811 7.4947 39.8881 10.9389C42.6952 14.3831 44.2293 18.6943 44.2308 23.1426V37.7999H47.6923C48.3043 37.7999 48.8913 38.0437 49.3241 38.4777C49.7569 38.9117 50 39.5004 50 40.1142C50 40.728 49.7569 41.3166 49.3241 41.7506C48.8913 42.1846 48.3043 42.4285 47.6923 42.4285H44.2308Z" fill="white"/>
</svg>
