<svg width="24" height="24" viewBox="0 0 24 24" fill="none" xmlns="http://www.w3.org/2000/svg">
<path d="M1 22.9995L7.38762 16.6118L1 22.9995ZM7.38762 16.6118L12.4415 21.6657C12.5892 21.8132 12.7708 21.9223 12.9704 21.9834C13.17 22.0445 13.3816 22.0558 13.5865 22.0162C13.7915 21.9766 13.9836 21.8874 14.1462 21.7564C14.3087 21.6253 14.4366 21.4565 14.5188 21.2646L17.3996 14.5435C17.4656 14.3892 17.5615 14.2494 17.6816 14.1321C17.8017 14.0148 17.9438 13.9224 18.0996 13.8601L22.1967 12.221C22.3928 12.1425 22.5665 12.0165 22.702 11.8544C22.8376 11.6923 22.9308 11.4991 22.9733 11.2921C23.0158 11.0851 23.0064 10.8708 22.9457 10.6684C22.8851 10.466 22.7752 10.2818 22.6259 10.1322L13.8672 1.37354C13.7177 1.22423 13.5335 1.11434 13.331 1.05371C13.1286 0.993085 12.9143 0.983615 12.7073 1.02615C12.5004 1.06869 12.3072 1.1619 12.1451 1.29744C11.9829 1.43298 11.857 1.60661 11.7785 1.80279L10.1394 5.89981C10.0771 6.05568 9.98461 6.19775 9.86734 6.31787C9.75006 6.438 9.61026 6.53383 9.45593 6.59989L2.73488 9.4807C2.54297 9.56285 2.37411 9.69078 2.24308 9.85329C2.11206 10.0158 2.02285 10.208 1.98327 10.4129C1.94369 10.6179 1.95494 10.8294 2.01603 11.029C2.07713 11.2287 2.18621 11.4103 2.33373 11.558L7.38762 16.6118Z" fill="#000C76"/>
<path d="M1 22.9995L7.38762 16.6118M7.38762 16.6118L12.4415 21.6657C12.5892 21.8132 12.7708 21.9223 12.9704 21.9834C13.17 22.0445 13.3816 22.0558 13.5865 22.0162C13.7915 21.9766 13.9836 21.8874 14.1462 21.7564C14.3087 21.6253 14.4366 21.4565 14.5187 21.2646L17.3996 14.5435C17.4656 14.3892 17.5615 14.2494 17.6816 14.1321C17.8017 14.0148 17.9438 13.9224 18.0996 13.8601L22.1967 12.221C22.3928 12.1425 22.5665 12.0165 22.702 11.8544C22.8376 11.6923 22.9308 11.4991 22.9733 11.2921C23.0158 11.0851 23.0064 10.8708 22.9457 10.6684C22.8851 10.466 22.7752 10.2818 22.6259 10.1322L13.8672 1.37354C13.7177 1.22423 13.5335 1.11434 13.331 1.05371C13.1286 0.993085 12.9143 0.983615 12.7073 1.02615C12.5004 1.06869 12.3072 1.1619 12.1451 1.29744C11.9829 1.43298 11.857 1.60661 11.7785 1.80279L10.1394 5.89981C10.0771 6.05568 9.98461 6.19775 9.86734 6.31787C9.75006 6.438 9.61026 6.53383 9.45593 6.59989L2.73488 9.4807C2.54297 9.56285 2.37411 9.69078 2.24308 9.85329C2.11206 10.0158 2.02285 10.208 1.98327 10.4129C1.94369 10.6179 1.95494 10.8294 2.01603 11.029C2.07713 11.2287 2.18621 11.4103 2.33373 11.558L7.38762 16.6118Z" stroke="#000C76" stroke-linecap="round" stroke-linejoin="round"/>
</svg>
