<svg width="16" height="27" viewBox="0 0 16 27" fill="none" xmlns="http://www.w3.org/2000/svg">
<path id="Vector" d="M1.8336 0.981463C1.90803 0.906969 1.99636 0.847924 2.09355 0.807706C2.19074 0.767487 2.29487 0.746883 2.4 0.747072H13.6C13.8122 0.747072 14.0157 0.831643 14.1657 0.98218C14.3157 1.13272 14.4 1.33689 14.4 1.54978C14.4 2.64147 13.8528 3.43455 13.3664 3.9242C13.1648 4.12488 12.9664 4.28382 12.8 4.40262V11.5162L12.9248 11.5933C13.2496 11.7972 13.6864 12.0974 14.1264 12.4843C14.976 13.2292 16 14.4365 16 15.9986C16 16.2115 15.9157 16.4156 15.7657 16.5662C15.6157 16.7167 15.4122 16.8013 15.2 16.8013H8.8V24.0257C8.8 24.4688 8.4416 26.4338 8 26.4338C7.5584 26.4338 7.2 24.4688 7.2 24.0257V16.8013H0.8C0.587827 16.8013 0.384344 16.7167 0.234315 16.5662C0.0842856 16.4156 0 16.2115 0 15.9986C0 14.4365 1.024 13.2292 1.872 12.4843C2.28592 12.1237 2.73025 11.7998 3.2 11.5162V4.40262C2.99823 4.25927 2.80877 4.09924 2.6336 3.9242C2.1472 3.43455 1.6 2.63986 1.6 1.54978C1.59981 1.4443 1.62035 1.33981 1.66043 1.2423C1.70051 1.14478 1.75936 1.05615 1.8336 0.981463Z" fill="#000C76"/>
</svg>
