<svg width="82" height="42" viewBox="0 0 82 42" fill="none" xmlns="http://www.w3.org/2000/svg">
<rect x="0.5" y="0.5" width="81" height="41" rx="20.5" stroke="#D1D1D1"/>
<circle cx="21" cy="21" r="17" fill="#E5E5F2"/>
<path d="M20.5 11H24.5833C24.9042 11 25.1667 11.2672 25.1667 11.5938V13.9687C25.1667 14.2953 24.9042 14.5625 24.5833 14.5625H21.6922L24.9589 16.9375H28.6667C29.9536 16.9375 31 18.0025 31 19.3125V27.625C31 28.935 29.9536 30 28.6667 30H22.25V25.8437C22.25 24.8604 21.4661 24.0625 20.5 24.0625C19.5339 24.0625 18.75 24.8604 18.75 25.8437V30H12.3333C11.0464 30 10 28.935 10 27.625V19.3125C10 18.0025 11.0464 16.9375 12.3333 16.9375H16.0411L19.3333 14.5439V12.1875C19.3333 11.5307 19.8547 11 20.5 11ZM22.25 19.9062C22.25 19.4338 22.0656 18.9808 21.7374 18.6467C21.4092 18.3127 20.9641 18.125 20.5 18.125C20.0359 18.125 19.5908 18.3127 19.2626 18.6467C18.9344 18.9808 18.75 19.4338 18.75 19.9062C18.75 20.3787 18.9344 20.8317 19.2626 21.1658C19.5908 21.4998 20.0359 21.6875 20.5 21.6875C20.9641 21.6875 21.4092 21.4998 21.7374 21.1658C22.0656 20.8317 22.25 20.3787 22.25 19.9062ZM12.9167 19.3125C12.5958 19.3125 12.3333 19.5797 12.3333 19.9062V22.2812C12.3333 22.6078 12.5958 22.875 12.9167 22.875H14.0833C14.4042 22.875 14.6667 22.6078 14.6667 22.2812V19.9062C14.6667 19.5797 14.4042 19.3125 14.0833 19.3125H12.9167ZM26.3333 19.9062V22.2812C26.3333 22.6078 26.5958 22.875 26.9167 22.875H28.0833C28.4042 22.875 28.6667 22.6078 28.6667 22.2812V19.9062C28.6667 19.5797 28.4042 19.3125 28.0833 19.3125H26.9167C26.5958 19.3125 26.3333 19.5797 26.3333 19.9062ZM12.9167 24.0625C12.5958 24.0625 12.3333 24.3297 12.3333 24.6562V27.0312C12.3333 27.3578 12.5958 27.625 12.9167 27.625H14.0833C14.4042 27.625 14.6667 27.3578 14.6667 27.0312V24.6562C14.6667 24.3297 14.4042 24.0625 14.0833 24.0625H12.9167ZM26.9167 24.0625C26.5958 24.0625 26.3333 24.3297 26.3333 24.6562V27.0312C26.3333 27.3578 26.5958 27.625 26.9167 27.625H28.0833C28.4042 27.625 28.6667 27.3578 28.6667 27.0312V24.6562C28.6667 24.3297 28.4042 24.0625 28.0833 24.0625H26.9167Z" fill="#000C76"/>
<path d="M52.156 16.6953H44.8552V15.6562H47.863V14.3574H49.1619V15.6562H52.156V16.6953ZM48.5056 17.2422C49.089 17.2467 49.6039 17.3424 50.0505 17.5293C50.5017 17.7116 50.8504 17.9714 51.0964 18.3086C51.3471 18.6413 51.4724 19.0286 51.4724 19.4707C51.4724 19.9128 51.3471 20.3024 51.0964 20.6396C50.8504 20.9769 50.5017 21.2389 50.0505 21.4258C49.6039 21.6081 49.089 21.6992 48.5056 21.6992C47.9177 21.6992 47.3982 21.6081 46.947 21.4258C46.4959 21.2389 46.1449 20.9769 45.8943 20.6396C45.6482 20.3024 45.5252 19.9128 45.5252 19.4707C45.5252 19.0286 45.6482 18.6413 45.8943 18.3086C46.1449 17.9714 46.4959 17.7116 46.947 17.5293C47.3982 17.3424 47.9177 17.2467 48.5056 17.2422ZM48.5056 18.2402C48.1593 18.2402 47.8562 18.2904 47.5964 18.3906C47.3367 18.4909 47.1339 18.6344 46.988 18.8213C46.8468 19.0081 46.7784 19.2246 46.783 19.4707C46.7784 19.849 46.9311 20.1475 47.241 20.3662C47.5554 20.5804 47.977 20.6875 48.5056 20.6875C49.0297 20.6875 49.4513 20.5804 49.7703 20.3662C50.0893 20.1475 50.2511 19.849 50.2556 19.4707C50.2511 19.2246 50.1759 19.0081 50.03 18.8213C49.8842 18.6344 49.6791 18.4909 49.4148 18.3906C49.1505 18.2904 48.8474 18.2402 48.5056 18.2402ZM54.4666 17.7344H56.2439V18.8145H54.4666V22.0684H53.1677V14.4121H54.4666V17.7344ZM54.4666 26.6621H53.1677V23.75H46.3728V22.6973H54.4666V26.6621ZM65.9143 16.9004V17.0508C65.9052 18.0671 65.8733 18.9603 65.8186 19.7305C65.7685 20.5007 65.65 21.3893 65.4631 22.3965L64.1916 22.2598C64.3238 21.5716 64.4195 20.9222 64.4788 20.3115C64.5426 19.6963 64.5813 19.1449 64.595 18.6572C64.6086 18.165 64.6155 17.5794 64.6155 16.9004V16.6406H57.1096V15.5879H65.9143V16.9004ZM67.1311 25.0078H55.9612V23.9277H58.5998V19.9629H59.8987V23.9277H61.6623V19.9629H62.9338V23.9277H67.1311V25.0078Z" fill="#868686"/>
</svg>
