<svg width="17" height="16" viewBox="0 0 17 16" fill="none" xmlns="http://www.w3.org/2000/svg">
<path d="M16.2548 14.394L12.6277 10.7669C13.5009 9.60434 13.9723 8.18932 13.9707 6.73536C13.9707 3.02151 10.9492 0 7.23536 0C3.52151 0 0.5 3.02151 0.5 6.73536C0.5 10.4492 3.52151 13.4707 7.23536 13.4707C8.68932 13.4723 10.1043 13.0009 11.2669 12.1277L14.894 15.7548C15.0776 15.9189 15.3171 16.0065 15.5632 15.9996C15.8094 15.9927 16.0436 15.8919 16.2177 15.7177C16.3919 15.5436 16.4927 15.3094 16.4996 15.0632C16.5065 14.8171 16.4189 14.5776 16.2548 14.394ZM2.42439 6.73536C2.42439 5.78384 2.70655 4.85369 3.23518 4.06253C3.76382 3.27137 4.51519 2.65473 5.39428 2.2906C6.27337 1.92647 7.2407 1.8312 8.17393 2.01683C9.10717 2.20246 9.9644 2.66066 10.6372 3.33349C11.3101 4.00632 11.7683 4.86355 11.9539 5.79679C12.1395 6.73002 12.0442 7.69735 11.6801 8.57644C11.316 9.45553 10.6994 10.2069 9.90819 10.7355C9.11703 11.2642 8.18688 11.5463 7.23536 11.5463C5.95988 11.5448 4.73708 11.0374 3.83518 10.1355C2.93328 9.23364 2.42592 8.01084 2.42439 6.73536Z" fill="#404572"/>
</svg>
