<svg width="56" height="38" viewBox="0 0 56 38" fill="none" xmlns="http://www.w3.org/2000/svg">
<rect width="56" height="38" rx="12" fill="#919CFF"/>
<path d="M27.6348 19.7344H16.4512V18.668H27.6348V19.7344ZM26.3359 17.6016H17.8457V13.3496H26.2539V14.416H19.1309V16.5488H26.3359V17.6016ZM22.0293 20.6914C22.9089 20.6914 23.6631 20.778 24.292 20.9512C24.9255 21.1243 25.4108 21.3796 25.748 21.7168C26.0853 22.0495 26.2539 22.4505 26.2539 22.9199C26.2539 23.3893 26.0853 23.7904 25.748 24.123C25.4108 24.4557 24.9255 24.7087 24.292 24.8818C23.6585 25.055 22.9043 25.1393 22.0293 25.1348C21.1497 25.1393 20.391 25.055 19.7529 24.8818C19.1149 24.7087 18.625 24.4557 18.2832 24.123C17.946 23.7904 17.7773 23.3893 17.7773 22.9199C17.7773 22.4505 17.946 22.0495 18.2832 21.7168C18.625 21.3796 19.1126 21.1243 19.7461 20.9512C20.3841 20.778 21.1452 20.6914 22.0293 20.6914ZM22.0293 21.6895C21.0905 21.6986 20.3659 21.8102 19.8555 22.0244C19.3451 22.234 19.0898 22.5326 19.0898 22.9199C19.0898 23.3073 19.3451 23.6081 19.8555 23.8223C20.3659 24.0319 21.0905 24.1367 22.0293 24.1367C22.9544 24.1367 23.6722 24.0319 24.1826 23.8223C24.6976 23.6081 24.9551 23.3073 24.9551 22.9199C24.9551 22.5326 24.6999 22.234 24.1895 22.0244C23.679 21.8102 22.959 21.6986 22.0293 21.6895ZM38.748 20.6504H27.5371V19.5977H32.5V18.4355H28.9727V15.3184H36.041V14.2246H28.9453V13.1992H37.3398V16.2754H30.2578V17.4238H37.5859V18.4355H33.7852V19.5977H38.748V20.6504ZM37.4082 25.0664H36.0957V22.5508H28.7949V21.5117H37.4082V25.0664Z" fill="#F0F4FF"/>
<rect width="56" height="38" rx="12" fill="#919CFF"/>
<path d="M27.6348 19.7344H16.4512V18.668H27.6348V19.7344ZM26.3359 17.6016H17.8457V13.3496H26.2539V14.416H19.1309V16.5488H26.3359V17.6016ZM22.0293 20.6914C22.9089 20.6914 23.6631 20.778 24.292 20.9512C24.9255 21.1243 25.4108 21.3796 25.748 21.7168C26.0853 22.0495 26.2539 22.4505 26.2539 22.9199C26.2539 23.3893 26.0853 23.7904 25.748 24.123C25.4108 24.4557 24.9255 24.7087 24.292 24.8818C23.6585 25.055 22.9043 25.1393 22.0293 25.1348C21.1497 25.1393 20.391 25.055 19.7529 24.8818C19.1149 24.7087 18.625 24.4557 18.2832 24.123C17.946 23.7904 17.7773 23.3893 17.7773 22.9199C17.7773 22.4505 17.946 22.0495 18.2832 21.7168C18.625 21.3796 19.1126 21.1243 19.7461 20.9512C20.3841 20.778 21.1452 20.6914 22.0293 20.6914ZM22.0293 21.6895C21.0905 21.6986 20.3659 21.8102 19.8555 22.0244C19.3451 22.234 19.0898 22.5326 19.0898 22.9199C19.0898 23.3073 19.3451 23.6081 19.8555 23.8223C20.3659 24.0319 21.0905 24.1367 22.0293 24.1367C22.9544 24.1367 23.6722 24.0319 24.1826 23.8223C24.6976 23.6081 24.9551 23.3073 24.9551 22.9199C24.9551 22.5326 24.6999 22.234 24.1895 22.0244C23.679 21.8102 22.959 21.6986 22.0293 21.6895ZM38.748 20.6504H27.5371V19.5977H32.5V18.4355H28.9727V15.3184H36.041V14.2246H28.9453V13.1992H37.3398V16.2754H30.2578V17.4238H37.5859V18.4355H33.7852V19.5977H38.748V20.6504ZM37.4082 25.0664H36.0957V22.5508H28.7949V21.5117H37.4082V25.0664Z" fill="#F0F4FF"/>
<rect width="56" height="38" rx="12" fill="#919CFF"/>
<path d="M27.6348 19.7344H16.4512V18.668H27.6348V19.7344ZM26.3359 17.6016H17.8457V13.3496H26.2539V14.416H19.1309V16.5488H26.3359V17.6016ZM22.0293 20.6914C22.9089 20.6914 23.6631 20.778 24.292 20.9512C24.9255 21.1243 25.4108 21.3796 25.748 21.7168C26.0853 22.0495 26.2539 22.4505 26.2539 22.9199C26.2539 23.3893 26.0853 23.7904 25.748 24.123C25.4108 24.4557 24.9255 24.7087 24.292 24.8818C23.6585 25.055 22.9043 25.1393 22.0293 25.1348C21.1497 25.1393 20.391 25.055 19.7529 24.8818C19.1149 24.7087 18.625 24.4557 18.2832 24.123C17.946 23.7904 17.7773 23.3893 17.7773 22.9199C17.7773 22.4505 17.946 22.0495 18.2832 21.7168C18.625 21.3796 19.1126 21.1243 19.7461 20.9512C20.3841 20.778 21.1452 20.6914 22.0293 20.6914ZM22.0293 21.6895C21.0905 21.6986 20.3659 21.8102 19.8555 22.0244C19.3451 22.234 19.0898 22.5326 19.0898 22.9199C19.0898 23.3073 19.3451 23.6081 19.8555 23.8223C20.3659 24.0319 21.0905 24.1367 22.0293 24.1367C22.9544 24.1367 23.6722 24.0319 24.1826 23.8223C24.6976 23.6081 24.9551 23.3073 24.9551 22.9199C24.9551 22.5326 24.6999 22.234 24.1895 22.0244C23.679 21.8102 22.959 21.6986 22.0293 21.6895ZM38.748 20.6504H27.5371V19.5977H32.5V18.4355H28.9727V15.3184H36.041V14.2246H28.9453V13.1992H37.3398V16.2754H30.2578V17.4238H37.5859V18.4355H33.7852V19.5977H38.748V20.6504ZM37.4082 25.0664H36.0957V22.5508H28.7949V21.5117H37.4082V25.0664Z" fill="#F0F4FF"/>
</svg>
