<svg width="17" height="11" viewBox="0 0 17 11" fill="none" xmlns="http://www.w3.org/2000/svg">
<path d="M8.25054 7.70151C9.46556 7.70151 10.4505 6.71654 10.4505 5.50151C10.4505 4.28649 9.46556 3.30151 8.25054 3.30151C7.03551 3.30151 6.05054 4.28649 6.05054 5.50151C6.05054 6.71654 7.03551 7.70151 8.25054 7.70151Z" fill="#575757"/>
<path d="M16.3233 4.90188C15.4137 3.49525 14.2337 2.30038 12.9109 1.44616C11.4476 0.500156 9.83193 0 8.239 0C6.77737 0 5.34015 0.417656 3.96722 1.24128C2.56712 2.08106 1.29869 3.30791 0.196967 4.88744C0.0725929 5.06595 0.00409521 5.2774 0.000177936 5.49494C-0.00373934 5.71247 0.0571006 5.92625 0.174967 6.10913C1.08281 7.52984 2.25122 8.72644 3.55334 9.56897C5.01944 10.5188 6.59725 11 8.239 11C9.84465 11 11.4637 10.504 12.9209 9.56588C14.2429 8.71441 15.4206 7.51506 16.3267 6.09675C16.4406 5.91813 16.5007 5.7106 16.5001 5.49881C16.4995 5.28701 16.4381 5.07984 16.3233 4.90188ZM8.25068 8.8C7.59801 8.8 6.95999 8.60646 6.4173 8.24385C5.87462 7.88124 5.45165 7.36585 5.20188 6.76286C4.95211 6.15986 4.88676 5.49634 5.01409 4.8562C5.14143 4.21606 5.45572 3.62806 5.91723 3.16655C6.37875 2.70503 6.96675 2.39074 7.60689 2.26341C8.24702 2.13608 8.91054 2.20143 9.51354 2.4512C10.1165 2.70097 10.6319 3.12394 10.9945 3.66662C11.3571 4.2093 11.5507 4.84732 11.5507 5.5C11.5497 6.37491 11.2017 7.21369 10.583 7.83235C9.96438 8.451 9.12559 8.799 8.25068 8.8Z" fill="#575757"/>
</svg>
