<svg width="28" height="28" viewBox="0 0 28 28" fill="none" xmlns="http://www.w3.org/2000/svg">
<path d="M15.8562 14.0003L21.0515 8.80501C21.2981 8.55888 21.4367 8.22488 21.4371 7.87648C21.4374 7.52809 21.2993 7.19385 21.0531 6.94728C20.807 6.70071 20.473 6.56201 20.1246 6.56171C19.7762 6.5614 19.442 6.6995 19.1954 6.94564L14.0001 12.1409L8.80477 6.94564C8.5582 6.69907 8.22378 6.56055 7.87508 6.56055C7.52638 6.56055 7.19196 6.69907 6.94539 6.94564C6.69882 7.1922 6.5603 7.52662 6.5603 7.87532C6.5603 8.22402 6.69882 8.55844 6.94539 8.80501L12.1407 14.0003L6.94539 19.1956C6.69882 19.4422 6.5603 19.7766 6.5603 20.1253C6.5603 20.474 6.69882 20.8084 6.94539 21.055C7.19196 21.3016 7.52638 21.4401 7.87508 21.4401C8.22378 21.4401 8.5582 21.3016 8.80477 21.055L14.0001 15.8597L19.1954 21.055C19.442 21.3016 19.7764 21.4401 20.1251 21.4401C20.4738 21.4401 20.8082 21.3016 21.0548 21.055C21.3013 20.8084 21.4399 20.474 21.4399 20.1253C21.4399 19.7766 21.3013 19.4422 21.0548 19.1956L15.8562 14.0003Z" fill="black"/>
</svg>
