<svg width="26" height="19" viewBox="0 0 26 19" fill="none" xmlns="http://www.w3.org/2000/svg">
<path d="M17.3332 9.49999C16.2195 9.49999 15.1427 9.00448 14.2999 8.10522C13.4803 7.22809 12.9798 6.0584 12.8915 4.81261C12.7973 3.48369 13.2041 2.26165 14.0366 1.37102C14.8692 0.480397 16.0332 0 17.3332 0C18.624 0 19.7913 0.489033 20.6211 1.3775C21.459 2.2746 21.8669 3.49448 21.7727 4.81207C21.6822 6.05948 21.1822 7.22863 20.3643 8.10468C19.5237 9.00448 18.4474 9.49999 17.3332 9.49999ZM24.4739 19H10.193C9.96336 19.0012 9.73654 18.9499 9.52994 18.8501C9.32335 18.7502 9.1425 18.6045 9.00131 18.424C8.85154 18.2284 8.74811 18.0016 8.69877 17.7605C8.64943 17.5195 8.65546 17.2704 8.71639 17.032C9.17247 15.207 10.3024 13.6935 11.9837 12.6555C13.476 11.7346 15.3756 11.2273 17.3332 11.2273C19.3292 11.2273 21.179 11.7131 22.6799 12.6334C24.3651 13.6659 25.4966 15.1881 25.9505 17.0352C26.0107 17.2738 26.0161 17.5229 25.9662 17.7638C25.9163 18.0048 25.8124 18.2314 25.6623 18.4267C25.5213 18.6063 25.3409 18.7514 25.1349 18.8507C24.9289 18.9501 24.7028 19.0011 24.4739 19ZM7.09573 9.7159C5.18962 9.7159 3.51371 7.94976 3.35825 5.77934C3.28134 4.66741 3.62909 3.63914 4.33325 2.88508C5.02983 2.13858 6.01241 1.72727 7.09573 1.72727C8.17906 1.72727 9.15406 2.14074 9.85443 2.89156C10.564 3.65156 10.9107 4.67766 10.8294 5.78042C10.674 7.9503 8.9986 9.7159 7.09573 9.7159ZM10.6523 11.4135C9.69951 10.9493 8.46289 10.7172 7.09628 10.7172C5.50053 10.7172 3.95083 11.1317 2.73209 11.8842C1.35031 12.7386 0.420811 13.9828 0.0454382 15.485C-0.00949462 15.701 -0.0146903 15.9267 0.0302398 16.1451C0.0751699 16.3634 0.169063 16.5688 0.304895 16.7459C0.433783 16.9108 0.598902 17.044 0.787554 17.1353C0.976205 17.2267 1.18336 17.2737 1.3931 17.2727H7.40557C7.50705 17.2727 7.6053 17.2372 7.68321 17.1724C7.76111 17.1076 7.81372 17.0176 7.83186 16.9181C7.83781 16.8841 7.8454 16.8501 7.85406 16.8166C8.31339 14.9781 9.38968 13.4247 10.98 12.2922C11.0385 12.2502 11.0855 12.1943 11.1169 12.1296C11.1482 12.0649 11.1629 11.9934 11.1595 11.9216C11.1561 11.8499 11.1348 11.7801 11.0975 11.7186C11.0602 11.6571 11.0081 11.6058 10.9459 11.5695C10.8608 11.5198 10.7633 11.4675 10.6523 11.4135Z" fill="url(#paint0_linear_7281_16800)"/>
<defs>
<linearGradient id="paint0_linear_7281_16800" x1="13" y1="-8.52541e-09" x2="13" y2="22.3318" gradientUnits="userSpaceOnUse">
<stop/>
<stop/>
<stop offset="0.447917" stop-color="#000414"/>
<stop offset="0.598958" stop-color="#000A40"/>
</linearGradient>
</defs>
</svg>
