<svg width="46" height="41" viewBox="0 0 46 41" fill="none" xmlns="http://www.w3.org/2000/svg">
<g filter="url(#filter0_d_7281_16799)">
<path d="M27.3332 19.5C26.2195 19.5 25.1427 19.0045 24.2999 18.1052C23.4803 17.2281 22.9798 16.0584 22.8915 14.8126C22.7973 13.4837 23.2041 12.2616 24.0366 11.371C24.8692 10.4804 26.0332 10 27.3332 10C28.624 10 29.7913 10.489 30.6211 11.3775C31.459 12.2746 31.8669 13.4945 31.7727 14.8121C31.6822 16.0595 31.1822 17.2286 30.3643 18.1047C29.5237 19.0045 28.4474 19.5 27.3332 19.5ZM34.4739 29H20.193C19.9634 29.0012 19.7365 28.9499 19.5299 28.8501C19.3234 28.7502 19.1425 28.6045 19.0013 28.424C18.8515 28.2284 18.7481 28.0016 18.6988 27.7605C18.6494 27.5195 18.6555 27.2704 18.7164 27.032C19.1725 25.207 20.3024 23.6935 21.9837 22.6555C23.476 21.7346 25.3756 21.2273 27.3332 21.2273C29.3292 21.2273 31.179 21.7131 32.6799 22.6334C34.3651 23.6659 35.4966 25.1881 35.9505 27.0352C36.0107 27.2738 36.0161 27.5229 35.9662 27.7638C35.9163 28.0048 35.8124 28.2314 35.6623 28.4267C35.5213 28.6063 35.3409 28.7514 35.1349 28.8507C34.9289 28.9501 34.7028 29.0011 34.4739 29ZM17.0957 19.7159C15.1896 19.7159 13.5137 17.9498 13.3583 15.7793C13.2813 14.6674 13.6291 13.6391 14.3332 12.8851C15.0298 12.1386 16.0124 11.7273 17.0957 11.7273C18.1791 11.7273 19.1541 12.1407 19.8544 12.8916C20.564 13.6516 20.9107 14.6777 20.8294 15.7804C20.674 17.9503 18.9986 19.7159 17.0957 19.7159ZM20.6523 21.4135C19.6995 20.9493 18.4629 20.7172 17.0963 20.7172C15.5005 20.7172 13.9508 21.1317 12.7321 21.8842C11.3503 22.7386 10.4208 23.9828 10.0454 25.485C9.99051 25.701 9.98531 25.9267 10.0302 26.1451C10.0752 26.3634 10.1691 26.5688 10.3049 26.7459C10.4338 26.9108 10.5989 27.044 10.7876 27.1353C10.9762 27.2267 11.1834 27.2737 11.3931 27.2727H17.4056C17.507 27.2727 17.6053 27.2372 17.6832 27.1724C17.7611 27.1076 17.8137 27.0176 17.8319 26.9181C17.8378 26.8841 17.8454 26.8501 17.8541 26.8166C18.3134 24.9781 19.3897 23.4247 20.98 22.2922C21.0385 22.2502 21.0855 22.1943 21.1169 22.1296C21.1482 22.0649 21.1629 21.9934 21.1595 21.9216C21.1561 21.8499 21.1348 21.7801 21.0975 21.7186C21.0602 21.6571 21.0081 21.6058 20.9459 21.5695C20.8608 21.5198 20.7633 21.4675 20.6523 21.4135Z" fill="url(#paint0_linear_7281_16799)"/>
</g>
<defs>
<filter id="filter0_d_7281_16799" x="-7" y="-8" width="60" height="60" filterUnits="userSpaceOnUse" color-interpolation-filters="sRGB">
<feFlood flood-opacity="0" result="BackgroundImageFix"/>
<feColorMatrix in="SourceAlpha" type="matrix" values="0 0 0 0 0 0 0 0 0 0 0 0 0 0 0 0 0 0 127 0" result="hardAlpha"/>
<feOffset dy="2"/>
<feGaussianBlur stdDeviation="5"/>
<feComposite in2="hardAlpha" operator="out"/>
<feColorMatrix type="matrix" values="0 0 0 0 0.694118 0 0 0 0 0.694118 0 0 0 0 0.694118 0 0 0 0.25 0"/>
<feBlend mode="normal" in2="BackgroundImageFix" result="effect1_dropShadow_7281_16799"/>
<feBlend mode="normal" in="SourceGraphic" in2="effect1_dropShadow_7281_16799" result="shape"/>
</filter>
<linearGradient id="paint0_linear_7281_16799" x1="23" y1="10" x2="23" y2="32.3318" gradientUnits="userSpaceOnUse">
<stop/>
<stop/>
<stop offset="0.447917" stop-color="#000414"/>
<stop offset="0.598958" stop-color="#000A40"/>
</linearGradient>
</defs>
</svg>
