<svg width="21" height="21" viewBox="0 0 21 21" fill="none" xmlns="http://www.w3.org/2000/svg">
<path d="M9.21951 0C7.86109 0 6.5583 0.552109 5.59775 1.53487C4.63719 2.51763 4.09756 3.85054 4.09756 5.24037C4.09756 6.6302 4.63719 7.96311 5.59775 8.94587C6.5583 9.92863 7.86109 10.4807 9.21951 10.4807C10.5779 10.4807 11.8807 9.92863 12.8413 8.94587C13.8018 7.96311 14.3415 6.6302 14.3415 5.24037C14.3415 3.85054 13.8018 2.51763 12.8413 1.53487C11.8807 0.552109 10.5779 0 9.21951 0ZM9.21951 11.5288C6.7661 11.5288 4.53293 12.2562 2.89083 13.2812C2.07132 13.7927 1.37063 14.3963 0.864585 15.0524C0.366732 15.696 0 16.4684 0 17.2932C0 18.1789 0.421024 18.8769 1.02746 19.3747C1.60112 19.8463 2.35815 20.1587 3.16229 20.3767C4.77878 20.8137 6.93615 20.9615 9.21951 20.9615L9.92122 20.9562C10.0928 20.9538 10.261 20.9074 10.4104 20.8211C10.5599 20.7349 10.6858 20.6116 10.7765 20.4626C10.8673 20.3137 10.92 20.1437 10.9298 19.9685C10.9397 19.7932 10.9064 19.6182 10.8329 19.4596C10.4436 18.6187 10.2424 17.6996 10.2439 16.7692C10.2439 15.457 10.6362 14.2412 11.3062 13.234C11.4058 13.0844 11.4658 12.9108 11.4803 12.7304C11.4948 12.5499 11.4634 12.3687 11.3892 12.2044C11.3149 12.04 11.2003 11.8982 11.0565 11.7927C10.9127 11.6871 10.7446 11.6215 10.5686 11.6022C10.1281 11.554 9.67741 11.5288 9.21951 11.5288ZM19.07 14.1165C19.1384 13.9973 19.183 13.8654 19.2013 13.7284C19.2196 13.5915 19.2112 13.4522 19.1767 13.3186C19.1422 13.1849 19.0821 13.0596 19.0001 12.9498C18.918 12.84 18.8155 12.7479 18.6985 12.6788C18.5815 12.6097 18.4523 12.5649 18.3184 12.5471C18.1844 12.5293 18.0483 12.5388 17.9179 12.575C17.7875 12.6112 17.6655 12.6735 17.5587 12.7581C17.4519 12.8428 17.3626 12.9483 17.2958 13.0684L16.9516 13.6784C16.5803 13.6073 16.1993 13.6069 15.8279 13.6774L15.4847 13.0684C15.4179 12.9483 15.3286 12.8428 15.2218 12.7581C15.115 12.6735 14.9929 12.6112 14.8626 12.575C14.7322 12.5388 14.5961 12.5293 14.4621 12.5471C14.3282 12.5649 14.199 12.6097 14.082 12.6788C13.965 12.7479 13.8625 12.84 13.7804 12.9498C13.6984 13.0596 13.6383 13.1849 13.6038 13.3186C13.5693 13.4522 13.5609 13.5915 13.5792 13.7284C13.5975 13.8654 13.6421 13.9973 13.7104 14.1165L14.0536 14.7244C13.8085 15.0185 13.6185 15.3564 13.4933 15.7211H12.8049C12.5332 15.7211 12.2726 15.8315 12.0805 16.0281C11.8884 16.2246 11.7805 16.4912 11.7805 16.7692C11.7805 17.0472 11.8884 17.3137 12.0805 17.5103C12.2726 17.7068 12.5332 17.8173 12.8049 17.8173H13.4922C13.6187 18.1815 13.8093 18.5189 14.0546 18.8129L13.7104 19.4219C13.6421 19.5411 13.5975 19.673 13.5792 19.8099C13.5609 19.9469 13.5693 20.0862 13.6038 20.2198C13.6383 20.3534 13.6984 20.4788 13.7804 20.5886C13.8625 20.6984 13.965 20.7905 14.082 20.8596C14.199 20.9287 14.3282 20.9734 14.4621 20.9913C14.5961 21.0091 14.7322 20.9996 14.8626 20.9634C14.9929 20.9272 15.115 20.8649 15.2218 20.7802C15.3286 20.6956 15.4179 20.5901 15.4847 20.4699L15.8289 19.861C16.1966 19.9302 16.5767 19.9323 16.9526 19.861L17.2958 20.4699C17.3626 20.5901 17.4519 20.6956 17.5587 20.7802C17.6655 20.8649 17.7875 20.9272 17.9179 20.9634C18.0483 20.9996 18.1844 21.0091 18.3184 20.9913C18.4523 20.9734 18.5815 20.9287 18.6985 20.8596C18.8155 20.7905 18.918 20.6984 19.0001 20.5886C19.0821 20.4788 19.1422 20.3534 19.1767 20.2198C19.2112 20.0862 19.2196 19.9469 19.2013 19.8099C19.183 19.673 19.1384 19.5411 19.07 19.4219L18.7269 18.814C18.9748 18.5163 19.1633 18.1778 19.2872 17.8173H19.9756C20.2473 17.8173 20.5079 17.7068 20.7 17.5103C20.8921 17.3137 21 17.0472 21 16.7692C21 16.4912 20.8921 16.2246 20.7 16.0281C20.5079 15.8315 20.2473 15.7211 19.9756 15.7211H19.2882C19.1616 15.357 18.971 15.0195 18.7259 14.7254L19.07 14.1165Z" fill="url(#paint0_linear_8126_11335)"/>
<defs>
<linearGradient id="paint0_linear_8126_11335" x1="10.5" y1="-9.42283e-09" x2="10.5" y2="24.6825" gradientUnits="userSpaceOnUse">
<stop/>
<stop/>
<stop offset="0.447917" stop-color="#000414"/>
<stop offset="0.598958" stop-color="#000A40"/>
</linearGradient>
</defs>
</svg>
