<svg width="40" height="43" viewBox="0 0 40 43" fill="none" xmlns="http://www.w3.org/2000/svg">
<g filter="url(#filter0_d_7281_16795)">
<path d="M23.0769 27.8571C23.0769 28.6907 22.7527 29.4901 22.1757 30.0795C21.5987 30.6689 20.8161 31 20 31C19.1839 31 18.4013 30.6689 17.8243 30.0795C17.2473 29.4901 16.9231 28.6907 16.9231 27.8571H23.0769ZM27.6923 26.2857H10.9231C10.6783 26.2857 10.4435 26.1863 10.2704 26.0095C10.0973 25.8327 10 25.5929 10 25.3428C10 25.0927 10.0973 24.8529 10.2704 24.6761C10.4435 24.4993 10.6783 24.3999 10.9231 24.3999H12.3077V18.4285C12.3077 14.6256 14.9538 11.4513 18.4692 10.7284C18.4478 10.5099 18.4714 10.2892 18.5385 10.0806C18.6057 9.87199 18.7149 9.68006 18.8591 9.51721C19.0033 9.35436 19.1794 9.2242 19.3759 9.13511C19.5724 9.04603 19.785 9 20 9C20.215 9 20.4276 9.04603 20.6241 9.13511C20.8206 9.2242 20.9967 9.35436 21.1409 9.51721C21.2851 9.68006 21.3943 9.87199 21.4615 10.0806C21.5286 10.2892 21.5522 10.5099 21.5308 10.7284C23.2694 11.0896 24.8324 12.0534 25.9553 13.4566C27.0781 14.8598 27.6917 16.6162 27.6923 18.4285V24.3999H29.0769C29.3217 24.3999 29.5565 24.4993 29.7296 24.6761C29.9027 24.8529 30 25.0927 30 25.3428C30 25.5929 29.9027 25.8327 29.7296 26.0095C29.5565 26.1863 29.3217 26.2857 29.0769 26.2857H27.6923Z" fill="url(#paint0_linear_7281_16795)"/>
</g>
<defs>
<filter id="filter0_d_7281_16795" x="-10" y="-8" width="60" height="60" filterUnits="userSpaceOnUse" color-interpolation-filters="sRGB">
<feFlood flood-opacity="0" result="BackgroundImageFix"/>
<feColorMatrix in="SourceAlpha" type="matrix" values="0 0 0 0 0 0 0 0 0 0 0 0 0 0 0 0 0 0 127 0" result="hardAlpha"/>
<feOffset dy="2"/>
<feGaussianBlur stdDeviation="5"/>
<feComposite in2="hardAlpha" operator="out"/>
<feColorMatrix type="matrix" values="0 0 0 0 0.694118 0 0 0 0 0.694118 0 0 0 0 0.694118 0 0 0 0.25 0"/>
<feBlend mode="normal" in2="BackgroundImageFix" result="effect1_dropShadow_7281_16795"/>
<feBlend mode="normal" in="SourceGraphic" in2="effect1_dropShadow_7281_16795" result="shape"/>
</filter>
<linearGradient id="paint0_linear_7281_16795" x1="20" y1="9" x2="20" y2="34.8578" gradientUnits="userSpaceOnUse">
<stop/>
<stop/>
<stop offset="0.447917" stop-color="#000414"/>
<stop offset="0.598958" stop-color="#000A40"/>
</linearGradient>
</defs>
</svg>
