<svg width="20" height="22" viewBox="0 0 20 22" fill="none" xmlns="http://www.w3.org/2000/svg">
<path d="M13.0769 18.8571C13.0769 19.6907 12.7527 20.4901 12.1757 21.0795C11.5987 21.6689 10.8161 22 10 22C9.18395 22 8.40132 21.6689 7.82429 21.0795C7.24725 20.4901 6.92308 19.6907 6.92308 18.8571H13.0769ZM17.6923 17.2857H0.923077C0.678262 17.2857 0.443473 17.1863 0.270363 17.0095C0.0972525 16.8327 0 16.5929 0 16.3428C0 16.0927 0.0972525 15.8529 0.270363 15.6761C0.443473 15.4993 0.678262 15.3999 0.923077 15.3999H2.30769V9.42846C2.30769 5.62557 4.95385 2.45125 8.46923 1.72839C8.44776 1.50989 8.47136 1.28921 8.53851 1.0806C8.60567 0.871986 8.71488 0.680065 8.85911 0.517214C9.00334 0.354362 9.17939 0.224197 9.3759 0.135112C9.5724 0.0460267 9.78501 0 10 0C10.215 0 10.4276 0.0460267 10.6241 0.135112C10.8206 0.224197 10.9967 0.354362 11.1409 0.517214C11.2851 0.680065 11.3943 0.871986 11.4615 1.0806C11.5286 1.28921 11.5522 1.50989 11.5308 1.72839C13.2694 2.08961 14.8324 3.0534 15.9553 4.45659C17.0781 5.85979 17.6917 7.61619 17.6923 9.42846V15.3999H19.0769C19.3217 15.3999 19.5565 15.4993 19.7296 15.6761C19.9027 15.8529 20 16.0927 20 16.3428C20 16.5929 19.9027 16.8327 19.7296 17.0095C19.5565 17.1863 19.3217 17.2857 19.0769 17.2857H17.6923Z" fill="url(#paint0_linear_7281_16796)"/>
<defs>
<linearGradient id="paint0_linear_7281_16796" x1="10" y1="-9.87153e-09" x2="10" y2="25.8578" gradientUnits="userSpaceOnUse">
<stop/>
<stop/>
<stop offset="0.447917" stop-color="#000414"/>
<stop offset="0.598958" stop-color="#000A40"/>
</linearGradient>
</defs>
</svg>
