<svg width="254" height="254" viewBox="0 0 254 254" fill="none" xmlns="http://www.w3.org/2000/svg">
<circle cx="127" cy="127" r="127" fill="#DBDFFF"/>
<path d="M152.549 65.6858C146.316 58.956 137.61 55.25 128 55.25C118.34 55.25 109.605 58.9336 103.4 65.6217C97.1286 72.3835 94.0728 81.5733 94.7903 91.4966C96.2125 111.074 111.11 127 128 127C144.89 127 159.763 111.077 161.207 91.503C161.934 81.6694 158.859 72.4988 152.549 65.6858Z" fill="#373C6B"/>
<path d="M184.374 198.75H71.6244C70.1486 198.769 68.6871 198.459 67.3462 197.842C66.0053 197.226 64.8187 196.318 63.8728 195.185C61.7908 192.696 60.9516 189.298 61.573 185.861C64.2764 170.864 72.7135 158.266 85.9744 149.422C97.7555 141.571 112.679 137.25 127.999 137.25C143.32 137.25 158.243 141.574 170.024 149.422C183.285 158.263 191.722 170.86 194.426 185.857C195.047 189.294 194.208 192.693 192.126 195.182C191.18 196.315 189.994 197.224 188.653 197.841C187.312 198.458 185.85 198.769 184.374 198.75Z" fill="#373C6B"/>
</svg>
