<svg width="29" height="29" viewBox="0 0 29 29" fill="none" xmlns="http://www.w3.org/2000/svg">
<circle cx="14.5" cy="14.5" r="14.5" fill="white"/>
<path d="M14.5 16.4029C15.5511 16.4029 16.4032 15.5509 16.4032 14.4998C16.4032 13.4487 15.5511 12.5967 14.5 12.5967C13.449 12.5967 12.5969 13.4487 12.5969 14.4998C12.5969 15.5509 13.449 16.4029 14.5 16.4029Z" fill="#414463"/>
<path d="M23.0002 16.2445L22.9815 16.2295L21.7302 15.2482C21.651 15.1855 21.5877 15.1049 21.5457 15.013C21.5036 14.9211 21.484 14.8206 21.4884 14.7197V14.2613C21.4844 14.161 21.5043 14.0612 21.5464 13.9701C21.5885 13.879 21.6516 13.7991 21.7306 13.7372L22.9815 12.7555L23.0002 12.7404C23.1931 12.5797 23.3225 12.3556 23.3654 12.1082C23.4082 11.8608 23.3617 11.6062 23.2341 11.39L21.5407 8.45996C21.5387 8.45719 21.537 8.45428 21.5355 8.45123C21.4072 8.23799 21.2083 8.07642 20.9733 7.99458C20.7382 7.91273 20.482 7.91579 20.2489 8.00321L20.2351 8.00836L18.7641 8.60031C18.6713 8.63785 18.5708 8.65279 18.4711 8.6439C18.3713 8.635 18.2751 8.60254 18.1904 8.54917C18.0604 8.46723 17.9282 8.38978 17.7939 8.31683C17.7069 8.26962 17.6321 8.20261 17.5757 8.1212C17.5193 8.0398 17.4828 7.94628 17.4692 7.84818L17.2476 6.2785L17.2428 6.24995C17.1946 6.00683 17.0641 5.78772 16.8733 5.62945C16.6826 5.47118 16.4431 5.3834 16.1953 5.38086H12.8046C12.5532 5.38166 12.3102 5.47115 12.1184 5.63354C11.9265 5.79594 11.7981 6.02082 11.7559 6.26859L11.7523 6.29079L11.5314 7.86364C11.5179 7.96146 11.4817 8.05476 11.4257 8.13612C11.3698 8.21748 11.2956 8.28465 11.2091 8.33229C11.0735 8.40524 10.9411 8.48256 10.8126 8.56304C10.728 8.61609 10.6321 8.64831 10.5326 8.65706C10.4332 8.66581 10.333 8.65085 10.2405 8.6134L8.76834 8.01867L8.75447 8.01312C8.52112 7.9256 8.26448 7.92266 8.02919 8.00481C7.7939 8.08696 7.59485 8.249 7.46669 8.46273L7.46153 8.47145L5.76577 11.4035C5.63795 11.6199 5.5913 11.8748 5.63416 12.1225C5.67702 12.3702 5.80658 12.5945 5.99969 12.7555L6.01833 12.7705L7.26963 13.7518C7.34887 13.8145 7.41211 13.8951 7.45416 13.987C7.4962 14.0789 7.51585 14.1794 7.51149 14.2803V14.7387C7.51546 14.839 7.49557 14.9388 7.45346 15.0299C7.41134 15.121 7.34821 15.2009 7.26924 15.2628L6.01833 16.2445L5.99969 16.2596C5.80677 16.4203 5.67731 16.6444 5.63446 16.8918C5.5916 17.1392 5.63814 17.3938 5.76577 17.61L7.45915 20.54C7.4611 20.5428 7.46283 20.5457 7.46431 20.5488C7.59262 20.762 7.79156 20.9236 8.02659 21.0054C8.26162 21.0873 8.51789 21.0842 8.7509 20.9968L8.76478 20.9916L10.2345 20.3997C10.3274 20.3621 10.4278 20.3472 10.5276 20.3561C10.6273 20.365 10.7235 20.3975 10.8083 20.4508C10.9383 20.533 11.0705 20.6105 11.2047 20.6832C11.2918 20.7304 11.3665 20.7974 11.423 20.8788C11.4794 20.9602 11.5158 21.0537 11.5295 21.1518L11.7499 22.7215L11.7547 22.75C11.803 22.9936 11.9338 23.213 12.1251 23.3713C12.3163 23.5296 12.5563 23.6171 12.8046 23.6191H16.1953C16.4466 23.6183 16.6896 23.5289 16.8815 23.3665C17.0733 23.2041 17.2017 22.9792 17.244 22.7314L17.2476 22.7092L17.4684 21.1364C17.4822 21.0384 17.5187 20.9449 17.575 20.8636C17.6313 20.7822 17.7059 20.7151 17.7927 20.6677C17.9283 20.5948 18.0607 20.5174 18.1892 20.437C18.2738 20.3839 18.3698 20.3517 18.4692 20.3429C18.5687 20.3342 18.6688 20.3491 18.7613 20.3866L20.2335 20.9793L20.2474 20.9849C20.4807 21.0726 20.7374 21.0756 20.9727 20.9934C21.208 20.9113 21.4071 20.7491 21.5351 20.5353C21.5367 20.5323 21.5384 20.5294 21.5403 20.5266L23.2337 17.5969C23.3617 17.3805 23.4085 17.1256 23.3658 16.8778C23.323 16.63 23.1934 16.4055 23.0002 16.2445ZM17.6682 14.6491C17.6394 15.2631 17.4327 15.8554 17.0734 16.3542C16.7141 16.8529 16.2177 17.2365 15.6444 17.4583C15.0712 17.6801 14.4458 17.7305 13.8444 17.6035C13.243 17.4765 12.6915 17.1775 12.2569 16.7428C11.8223 16.3081 11.5233 15.7566 11.3964 15.1552C11.2694 14.5537 11.32 13.9284 11.5418 13.3552C11.7637 12.7819 12.1473 12.2855 12.6461 11.9263C13.1449 11.5671 13.7372 11.3605 14.3512 11.3317C14.792 11.3123 15.232 11.3848 15.6433 11.5447C16.0545 11.7045 16.428 11.9482 16.74 12.2602C17.052 12.5722 17.2956 12.9457 17.4554 13.357C17.6152 13.7683 17.6877 14.2083 17.6682 14.6491Z" fill="#414463"/>
</svg>
