<svg width="22" height="21" viewBox="0 0 22 21" fill="none" xmlns="http://www.w3.org/2000/svg">
<path d="M11.5893 9.69209L10.4438 8.44693C10.1815 8.16176 9.82583 8.00108 9.45472 8.00001C9.08361 7.99893 8.72721 8.15756 8.46344 8.44121L0.499291 16.4274C0.209295 16.7244 0.0188891 17.1029 0.00134018 17.5267C-0.00710331 17.7369 0.0244197 17.9467 0.0939413 18.1431C0.163463 18.3394 0.26949 18.5181 0.405404 18.668L2.11642 20.5476C2.11734 20.5488 2.11836 20.55 2.1195 20.5509C2.3839 20.8373 2.74165 20.9987 3.11496 21H3.16673C3.55675 20.9843 3.90598 20.7855 4.18325 20.4675L11.5845 11.8535C11.7158 11.7121 11.82 11.5439 11.8913 11.3587C11.9626 11.1734 11.9995 10.9747 12 10.7739C12.0004 10.5731 11.9644 10.3741 11.8939 10.1885C11.8235 10.0028 11.7199 9.83416 11.5893 9.69209Z" fill="url(#paint0_linear_7181_19690)"/>
<path d="M21.7194 7.60254L21.7049 7.58762L20.1005 5.95548C20.0066 5.85921 19.895 5.78303 19.7722 5.73133C19.6494 5.67963 19.5179 5.65344 19.3852 5.65427C19.1702 5.65447 18.9608 5.72416 18.7864 5.85347C18.7864 5.83278 18.7892 5.81257 18.7906 5.79477C18.8117 5.48201 18.8445 5.00949 18.5472 4.58125C18.1938 4.09161 17.8057 3.62939 17.3862 3.19836C17.3851 3.19696 17.3838 3.19567 17.3824 3.19451C16.7589 2.56321 15.4017 1.37423 13.3226 0.502827C12.5341 0.170223 11.6899 -0.000595344 10.8376 1.55896e-06C9.36012 1.55896e-06 8.23654 0.685192 7.80631 1.0913C7.56269 1.33046 7.34051 1.59167 7.14246 1.87176C7.04784 2.006 6.9979 2.16803 7.00007 2.33378C7.00223 2.49952 7.05638 2.66012 7.15447 2.7917C7.25256 2.92327 7.38935 3.01879 7.54449 3.06406C7.69964 3.10933 7.86485 3.10192 8.01557 3.04294C8.14687 2.99249 8.281 2.95023 8.41725 2.91639C8.701 2.85471 8.992 2.83607 9.281 2.86106C9.8985 2.9135 10.6288 3.22867 10.9518 3.49091C11.4996 3.9437 11.7632 4.55382 11.8067 5.46805C11.8151 5.65186 11.4453 6.3409 10.8704 7.12714C10.7609 7.27551 10.7074 7.45966 10.7199 7.64546C10.7324 7.83125 10.81 8.0061 10.9383 8.1376L12.5492 9.79332C12.6846 9.93278 12.8668 10.0136 13.0584 10.0192C13.25 10.0247 13.4363 9.95455 13.5791 9.82315C14.0347 9.40501 14.7285 8.77467 14.971 8.62022C15.331 8.39262 15.5885 8.34883 15.6592 8.34114C15.8426 8.32265 16.0271 8.36263 16.1877 8.45566C16.1885 8.46389 16.1876 8.47221 16.1851 8.48008C16.1826 8.48795 16.1786 8.4952 16.1732 8.50137L16.088 8.58461L16.0739 8.59808C15.9798 8.69449 15.9051 8.80908 15.8543 8.93527C15.8034 9.06146 15.7773 9.19674 15.7775 9.33333C15.7778 9.46992 15.8043 9.60512 15.8555 9.73114C15.9068 9.85715 15.9818 9.9715 16.0763 10.0676L17.6802 11.6992C17.7742 11.7954 17.8858 11.8716 18.0086 11.9232C18.1314 11.9748 18.2629 12.0009 18.3955 12C18.6619 12.0004 18.9178 11.8933 19.1081 11.7016L21.7063 9.06386C21.7152 9.05472 21.7241 9.04509 21.7325 9.03547C21.9068 8.83908 22.0024 8.58217 22 8.31635C21.9975 8.05054 21.8973 7.79552 21.7194 7.60254Z" fill="url(#paint1_linear_7181_19690)"/>
<defs>
<linearGradient id="paint0_linear_7181_19690" x1="6" y1="8" x2="6" y2="23.2796" gradientUnits="userSpaceOnUse">
<stop/>
<stop/>
<stop offset="0.447917" stop-color="#000414"/>
<stop offset="0.598958" stop-color="#000A40"/>
</linearGradient>
<linearGradient id="paint1_linear_7181_19690" x1="14.5" y1="-5.38447e-09" x2="14.5" y2="14.1043" gradientUnits="userSpaceOnUse">
<stop/>
<stop/>
<stop offset="0.447917" stop-color="#000414"/>
<stop offset="0.598958" stop-color="#000A40"/>
</linearGradient>
</defs>
</svg>
