<svg width="42" height="43" viewBox="0 0 42 43" fill="none" xmlns="http://www.w3.org/2000/svg">
<g filter="url(#filter0_d_7281_16789)">
<path d="M21.5893 19.6921L20.4438 18.4469C20.1815 18.1618 19.8258 18.0011 19.4547 18C19.0836 17.9989 18.7272 18.1576 18.4634 18.4412L10.4993 26.4274C10.2093 26.7244 10.0189 27.1029 10.0013 27.5267C9.9929 27.7369 10.0244 27.9467 10.0939 28.1431C10.1635 28.3394 10.2695 28.5181 10.4054 28.668L12.1164 30.5476C12.1173 30.5488 12.1184 30.55 12.1195 30.5509C12.3839 30.8373 12.7416 30.9987 13.115 31H13.1667C13.5568 30.9843 13.906 30.7855 14.1833 30.4675L21.5845 21.8535C21.7158 21.7121 21.82 21.5439 21.8913 21.3587C21.9626 21.1734 21.9995 20.9747 22 20.7739C22.0004 20.5731 21.9644 20.3741 21.8939 20.1885C21.8235 20.0028 21.7199 19.8342 21.5893 19.6921Z" fill="url(#paint0_linear_7281_16789)"/>
<path d="M31.7194 17.6025L31.7049 17.5876L30.1005 15.9555C30.0066 15.8592 29.895 15.783 29.7722 15.7313C29.6494 15.6796 29.5179 15.6534 29.3852 15.6543C29.1702 15.6545 28.9608 15.7242 28.7864 15.8535C28.7864 15.8328 28.7892 15.8126 28.7906 15.7948C28.8117 15.482 28.8445 15.0095 28.5472 14.5812C28.1938 14.0916 27.8057 13.6294 27.3862 13.1984C27.3851 13.197 27.3838 13.1957 27.3824 13.1945C26.7589 12.5632 25.4017 11.3742 23.3226 10.5028C22.5341 10.1702 21.6899 9.9994 20.8376 10C19.3601 10 18.2365 10.6852 17.8063 11.0913C17.5627 11.3305 17.3405 11.5917 17.1425 11.8718C17.0478 12.006 16.9979 12.168 17.0001 12.3338C17.0022 12.4995 17.0564 12.6601 17.1545 12.7917C17.2526 12.9233 17.3893 13.0188 17.5445 13.0641C17.6996 13.1093 17.8649 13.1019 18.0156 13.0429C18.1469 12.9925 18.281 12.9502 18.4173 12.9164C18.701 12.8547 18.992 12.8361 19.281 12.8611C19.8985 12.9135 20.6288 13.2287 20.9518 13.4909C21.4996 13.9437 21.7632 14.5538 21.8067 15.4681C21.8151 15.6519 21.4453 16.3409 20.8704 17.1271C20.7609 17.2755 20.7074 17.4597 20.7199 17.6455C20.7324 17.8313 20.81 18.0061 20.9383 18.1376L22.5492 19.7933C22.6846 19.9328 22.8668 20.0136 23.0584 20.0192C23.25 20.0247 23.4363 19.9546 23.5791 19.8231C24.0347 19.405 24.7285 18.7747 24.971 18.6202C25.331 18.3926 25.5885 18.3488 25.6592 18.3411C25.8426 18.3226 26.0271 18.3626 26.1877 18.4557C26.1885 18.4639 26.1876 18.4722 26.1851 18.4801C26.1826 18.4879 26.1786 18.4952 26.1732 18.5014L26.088 18.5846L26.0739 18.5981C25.9798 18.6945 25.9051 18.8091 25.8543 18.9353C25.8034 19.0615 25.7773 19.1967 25.7775 19.3333C25.7778 19.4699 25.8043 19.6051 25.8555 19.7311C25.9068 19.8572 25.9818 19.9715 26.0763 20.0676L27.6802 21.6992C27.7742 21.7954 27.8858 21.8716 28.0086 21.9232C28.1314 21.9748 28.2629 22.0009 28.3955 22C28.6619 22.0004 28.9178 21.8933 29.1081 21.7016L31.7063 19.0639C31.7152 19.0547 31.7241 19.0451 31.7325 19.0355C31.9068 18.8391 32.0024 18.5822 32 18.3164C31.9975 18.0505 31.8973 17.7955 31.7194 17.6025Z" fill="url(#paint1_linear_7281_16789)"/>
</g>
<defs>
<filter id="filter0_d_7281_16789" x="-10" y="-8" width="60" height="60" filterUnits="userSpaceOnUse" color-interpolation-filters="sRGB">
<feFlood flood-opacity="0" result="BackgroundImageFix"/>
<feColorMatrix in="SourceAlpha" type="matrix" values="0 0 0 0 0 0 0 0 0 0 0 0 0 0 0 0 0 0 127 0" result="hardAlpha"/>
<feOffset dy="2"/>
<feGaussianBlur stdDeviation="5"/>
<feComposite in2="hardAlpha" operator="out"/>
<feColorMatrix type="matrix" values="0 0 0 0 0.694118 0 0 0 0 0.694118 0 0 0 0 0.694118 0 0 0 0.25 0"/>
<feBlend mode="normal" in2="BackgroundImageFix" result="effect1_dropShadow_7281_16789"/>
<feBlend mode="normal" in="SourceGraphic" in2="effect1_dropShadow_7281_16789" result="shape"/>
</filter>
<linearGradient id="paint0_linear_7281_16789" x1="16" y1="18" x2="16" y2="33.2796" gradientUnits="userSpaceOnUse">
<stop/>
<stop/>
<stop offset="0.447917" stop-color="#000414"/>
<stop offset="0.598958" stop-color="#000A40"/>
</linearGradient>
<linearGradient id="paint1_linear_7281_16789" x1="24.5" y1="10" x2="24.5" y2="24.1043" gradientUnits="userSpaceOnUse">
<stop/>
<stop/>
<stop offset="0.447917" stop-color="#000414"/>
<stop offset="0.598958" stop-color="#000A40"/>
</linearGradient>
</defs>
</svg>
