<svg width="74" height="36" viewBox="0 0 74 36" fill="none" xmlns="http://www.w3.org/2000/svg">
<rect width="74" height="36" rx="18" fill="#000C76"/>
<circle cx="18" cy="18" r="14" fill="white"/>
<path d="M18 10H21.5C21.775 10 22 10.225 22 10.5V12.5C22 12.775 21.775 13 21.5 13H19.0219L21.8219 15H25C26.1031 15 27 15.8969 27 17V24C27 25.1031 26.1031 26 25 26H19.5V22.5C19.5 21.6719 18.8281 21 18 21C17.1719 21 16.5 21.6719 16.5 22.5V26H11C9.89688 26 9 25.1031 9 24V17C9 15.8969 9.89688 15 11 15H14.1781L17 12.9844V11C17 10.4469 17.4469 10 18 10ZM19.5 17.5C19.5 17.1022 19.342 16.7206 19.0607 16.4393C18.7794 16.158 18.3978 16 18 16C17.6022 16 17.2206 16.158 16.9393 16.4393C16.658 16.7206 16.5 17.1022 16.5 17.5C16.5 17.8978 16.658 18.2794 16.9393 18.5607C17.2206 18.842 17.6022 19 18 19C18.3978 19 18.7794 18.842 19.0607 18.5607C19.342 18.2794 19.5 17.8978 19.5 17.5ZM11.5 17C11.225 17 11 17.225 11 17.5V19.5C11 19.775 11.225 20 11.5 20H12.5C12.775 20 13 19.775 13 19.5V17.5C13 17.225 12.775 17 12.5 17H11.5ZM23 17.5V19.5C23 19.775 23.225 20 23.5 20H24.5C24.775 20 25 19.775 25 19.5V17.5C25 17.225 24.775 17 24.5 17H23.5C23.225 17 23 17.225 23 17.5ZM11.5 21C11.225 21 11 21.225 11 21.5V23.5C11 23.775 11.225 24 11.5 24H12.5C12.775 24 13 23.775 13 23.5V21.5C13 21.225 12.775 21 12.5 21H11.5ZM23.5 21C23.225 21 23 21.225 23 21.5V23.5C23 23.775 23.225 24 23.5 24H24.5C24.775 24 25 23.775 25 23.5V21.5C25 21.225 24.775 21 24.5 21H23.5Z" fill="#FF0000"/>
<path d="M44.7052 14.4531H38.4473V13.5625H41.0255V12.4492H42.1388V13.5625H44.7052V14.4531ZM41.5763 14.9219C42.0763 14.9258 42.5177 15.0078 42.9005 15.168C43.2872 15.3242 43.586 15.5469 43.797 15.8359C44.0118 16.1211 44.1192 16.4531 44.1192 16.832C44.1192 17.2109 44.0118 17.5449 43.797 17.834C43.586 18.123 43.2872 18.3477 42.9005 18.5078C42.5177 18.6641 42.0763 18.7422 41.5763 18.7422C41.0723 18.7422 40.627 18.6641 40.2403 18.5078C39.8536 18.3477 39.5528 18.123 39.338 17.834C39.127 17.5449 39.0216 17.2109 39.0216 16.832C39.0216 16.4531 39.127 16.1211 39.338 15.8359C39.5528 15.5469 39.8536 15.3242 40.2403 15.168C40.627 15.0078 41.0723 14.9258 41.5763 14.9219ZM41.5763 15.7773C41.2794 15.7773 41.0196 15.8203 40.797 15.9062C40.5743 15.9922 40.4005 16.1152 40.2755 16.2754C40.1544 16.4355 40.0958 16.6211 40.0997 16.832C40.0958 17.1562 40.2266 17.4121 40.4923 17.5996C40.7618 17.7832 41.1231 17.875 41.5763 17.875C42.0255 17.875 42.3868 17.7832 42.6602 17.5996C42.9337 17.4121 43.0723 17.1562 43.0763 16.832C43.0723 16.6211 43.0079 16.4355 42.8829 16.2754C42.7579 16.1152 42.5821 15.9922 42.3555 15.9062C42.129 15.8203 41.8692 15.7773 41.5763 15.7773ZM46.6856 15.3438H48.2091V16.2695H46.6856V19.0586H45.5723V12.4961H46.6856V15.3438ZM46.6856 22.9961H45.5723V20.5H39.7481V19.5977H46.6856V22.9961ZM56.498 14.6289V14.7578C56.4902 15.6289 56.4628 16.3945 56.4159 17.0547C56.373 17.7148 56.2714 18.4766 56.1112 19.3398L55.0214 19.2227C55.1347 18.6328 55.2167 18.0762 55.2675 17.5527C55.3222 17.0254 55.3554 16.5527 55.3671 16.1348C55.3788 15.7129 55.3847 15.2109 55.3847 14.6289V14.4062H48.9511V13.5039H56.498V14.6289ZM57.5409 21.5781H47.9667V20.6523H50.2284V17.2539H51.3417V20.6523H52.8534V17.2539H53.9433V20.6523H57.5409V21.5781Z" fill="white"/>
</svg>
