<svg width="84" height="36" viewBox="0 0 84 36" fill="none" xmlns="http://www.w3.org/2000/svg">
<rect x="0.5" y="0.5" width="83" height="35" rx="17.5" stroke="#D1D1D1"/>
<circle cx="18" cy="18" r="14" fill="#E5E5F2"/>
<path d="M24 12H12C11.4697 12.0005 10.9614 12.2019 10.5864 12.5598C10.2115 12.9177 10.0006 13.4029 10 13.9091V22.0909C10.0006 22.5971 10.2115 23.0823 10.5864 23.4402C10.9614 23.7981 11.4697 23.9995 12 24H24C24.5303 23.9995 25.0386 23.7981 25.4136 23.4402C25.7885 23.0823 25.9994 22.5971 26 22.0909V13.9091C25.9994 13.4029 25.7885 12.9177 25.4136 12.5598C25.0386 12.2019 24.5303 12.0005 24 12ZM23.4936 15.1578L18.3507 18.976C18.2504 19.0504 18.127 19.0908 18 19.0908C17.873 19.0908 17.7496 19.0504 17.6493 18.976L12.5064 15.1578C12.446 15.1143 12.3953 15.0597 12.3571 14.9973C12.319 14.9348 12.2942 14.8658 12.2843 14.7941C12.2744 14.7225 12.2795 14.6496 12.2993 14.5799C12.3191 14.5101 12.3532 14.4448 12.3997 14.3878C12.4462 14.3307 12.504 14.283 12.57 14.2475C12.6359 14.212 12.7086 14.1893 12.7838 14.1809C12.859 14.1724 12.9352 14.1783 13.008 14.1982C13.0808 14.218 13.1487 14.2515 13.2079 14.2967L18 17.8544L22.7921 14.2967C22.912 14.2103 23.0626 14.1724 23.2115 14.1912C23.3603 14.21 23.4955 14.284 23.5876 14.3972C23.6798 14.5103 23.7216 14.6536 23.704 14.7959C23.6864 14.9383 23.6108 15.0683 23.4936 15.1578Z" fill="#FF6523"/>
<path d="M47.424 20.2422H46.3107V16.5977H44.131V15.6719H46.3107V12.5078H47.424V20.2422ZM44.2013 13.293C44.1974 14.1953 43.9963 15.0234 43.5978 15.7773C43.2033 16.5312 42.6388 17.1875 41.9045 17.7461C41.1701 18.3047 40.299 18.7461 39.2912 19.0703L38.8224 18.1797C39.6037 17.9258 40.2931 17.6035 40.8908 17.2129C41.4884 16.8184 41.967 16.3672 42.3263 15.8594C42.6857 15.3477 42.9025 14.8008 42.9767 14.2188H39.3615V13.293H44.2013ZM47.6935 22.7734H40.6623V19.4453H41.7873V21.8711H47.6935V22.7734ZM51.623 13.2461C52.1699 13.2422 52.6602 13.3457 53.0938 13.5566C53.5273 13.7676 53.8652 14.0645 54.1074 14.4473C54.3535 14.8262 54.4785 15.2578 54.4824 15.7422C54.4785 16.2266 54.3535 16.6602 54.1074 17.043C53.8652 17.4219 53.5273 17.7188 53.0938 17.9336C52.6602 18.1445 52.1699 18.25 51.623 18.25C51.0762 18.25 50.584 18.1445 50.1465 17.9336C49.7129 17.7188 49.373 17.4219 49.127 17.043C48.8809 16.6602 48.7598 16.2266 48.7637 15.7422C48.7598 15.2578 48.8809 14.8262 49.127 14.4473C49.373 14.0645 49.7129 13.7676 50.1465 13.5566C50.584 13.3457 51.0762 13.2422 51.623 13.2461ZM51.623 14.207C51.2832 14.207 50.9785 14.2715 50.709 14.4004C50.4434 14.5254 50.2344 14.7051 50.082 14.9395C49.9336 15.1699 49.8613 15.4375 49.8652 15.7422C49.8613 16.0469 49.9336 16.3164 50.082 16.5508C50.2344 16.7812 50.4434 16.9609 50.709 17.0898C50.9785 17.2148 51.2832 17.2773 51.623 17.2773C51.9629 17.2773 52.2656 17.2148 52.5312 17.0898C52.8008 16.9609 53.0117 16.7812 53.1641 16.5508C53.3164 16.3164 53.3926 16.0469 53.3926 15.7422C53.3926 15.4375 53.3164 15.1699 53.1641 14.9395C53.0117 14.7051 52.8008 14.5254 52.5312 14.4004C52.2656 14.2715 51.9629 14.207 51.623 14.207ZM56.8848 23.0195H55.7715V12.4961H56.8848V23.0195ZM48.2598 19.832C49.5566 19.832 50.7676 19.8105 51.8926 19.7676C53.0215 19.7207 54.0957 19.625 55.1152 19.4805L55.1973 20.2891C54.1504 20.4922 53.0859 20.6211 52.0039 20.6758C50.9258 20.7305 49.7246 20.7578 48.4004 20.7578L48.2598 19.832ZM65.9823 15.2148H67.5057V16.1641H65.9823V18.8242H64.869V12.4961H65.9823V15.2148ZM65.9823 22.8672H59.2791V19.375H65.9823V22.8672ZM60.369 21.9648H64.8807V20.2539H60.369V21.9648ZM64.0018 14.4531H57.744V13.5625H60.3221V12.4141H61.4354V13.5625H64.0018V14.4531ZM60.8729 14.9102C61.3729 14.9102 61.8143 14.9883 62.1971 15.1445C62.5838 15.3008 62.8827 15.5215 63.0936 15.8066C63.3084 16.0879 63.4159 16.4141 63.4159 16.7852C63.4159 17.1602 63.3084 17.4902 63.0936 17.7754C62.8827 18.0566 62.5838 18.2754 62.1971 18.4316C61.8143 18.5879 61.3729 18.668 60.8729 18.6719C60.3651 18.668 59.9178 18.5879 59.5311 18.4316C59.1444 18.2754 58.8455 18.0566 58.6346 17.7754C58.4237 17.4902 58.3182 17.1602 58.3182 16.7852C58.3182 16.4141 58.4237 16.0879 58.6346 15.8066C58.8495 15.5215 59.1483 15.3008 59.5311 15.1445C59.9178 14.9883 60.3651 14.9102 60.8729 14.9102ZM60.8729 15.7656C60.576 15.7617 60.3162 15.8008 60.0936 15.8828C59.8709 15.9648 59.6971 16.084 59.5721 16.2402C59.451 16.3965 59.3924 16.5781 59.3963 16.7852C59.3924 17.1094 59.5233 17.3652 59.7889 17.5527C60.0584 17.7363 60.4198 17.8281 60.8729 17.8281C61.3221 17.8281 61.6834 17.7363 61.9569 17.5527C62.2303 17.3652 62.369 17.1094 62.3729 16.7852C62.369 16.5781 62.3045 16.3965 62.1795 16.2402C62.0545 16.084 61.8787 15.9648 61.6522 15.8828C61.4256 15.8008 61.1659 15.7617 60.8729 15.7656Z" fill="black"/>
</svg>
