<svg width="74" height="36" viewBox="0 0 74 36" fill="none" xmlns="http://www.w3.org/2000/svg">
<rect x="0.5" y="0.5" width="73" height="35" rx="17.5" stroke="#D1D1D1"/>
<circle cx="18" cy="18" r="14" fill="#E5E5F2"/>
<path d="M13.2182 20.6406C13.2182 20.8547 13.2289 21.0668 13.2497 21.2756C12.4448 20.9316 11.7365 20.3956 11.1869 19.7144C10.6373 19.0332 10.2631 18.2276 10.0971 17.3682C9.93115 16.5088 9.97843 15.6218 10.2348 14.7849C10.4912 13.948 10.949 13.1868 11.5679 12.5679C12.1868 11.949 12.948 11.4912 13.7849 11.2348C14.6218 10.9784 15.5088 10.9311 16.3682 11.0971C17.2276 11.2631 18.0332 11.6373 18.7144 12.1869C19.3956 12.7365 19.9316 13.4448 20.2756 14.2497C20.0668 14.2289 19.8547 14.2182 19.6406 14.2182C17.938 14.2205 16.3057 14.8979 15.1018 16.1018C13.8979 17.3057 13.2205 18.938 13.2182 20.6406ZM20.7125 16.3581C20.7123 16.0297 20.6817 15.7019 20.6208 15.3792C20.2981 15.3183 19.9703 15.2877 19.6419 15.2875C18.2227 15.2891 16.862 15.8536 15.8585 16.8571C14.8549 17.8607 14.2904 19.2213 14.2888 20.6406C14.289 20.969 14.3197 21.2967 14.3805 21.6195C14.7033 21.6803 15.031 21.711 15.3594 21.7112C16.7787 21.7096 18.1393 21.1451 19.1429 20.1415C20.1464 19.138 20.7109 17.7773 20.7125 16.3581ZM21.7517 15.7231C21.7724 15.9319 21.7831 16.144 21.7831 16.3581C21.7812 18.0612 21.1038 19.6939 19.8995 20.8982C18.6953 22.1024 17.0625 22.7798 15.3594 22.7818C15.1453 22.7818 14.9332 22.7711 14.7244 22.7503C15.0684 23.5552 15.6044 24.2635 16.2856 24.8131C16.9668 25.3627 17.7724 25.7369 18.6318 25.9029C19.4912 26.0689 20.3782 26.0216 21.2151 25.7652C22.052 25.5088 22.8132 25.051 23.4321 24.4321C24.051 23.8132 24.5088 23.052 24.7652 22.2151C25.0216 21.3782 25.0689 20.4912 24.9029 19.6318C24.7369 18.7724 24.3627 17.9668 23.8131 17.2856C23.2635 16.6044 22.5552 16.0684 21.7503 15.7244L21.7517 15.7231Z" fill="#0FA958"/>
<path d="M47.1895 20.2422H46.0763V17.5117H43.4688C43.2188 17.8125 42.9102 18.0469 42.543 18.2148C42.1759 18.3789 41.7755 18.4609 41.3419 18.4609C40.8184 18.4609 40.3477 18.3477 39.9298 18.1211C39.5118 17.8945 39.1837 17.5801 38.9454 17.1777C38.7071 16.7754 38.588 16.3203 38.588 15.8125C38.588 15.3008 38.7071 14.8438 38.9454 14.4414C39.1837 14.0352 39.5118 13.7188 39.9298 13.4922C40.3477 13.2617 40.8184 13.1445 41.3419 13.1406C41.7716 13.1445 42.168 13.2305 42.5313 13.3984C42.8985 13.5625 43.2071 13.793 43.4571 14.0898H46.0763V12.5078H47.1895V20.2422ZM47.4708 22.7734H40.3692V19.4336H41.4825V21.8711H47.4708V22.7734ZM41.3419 14.1367C41.0177 14.1367 40.7266 14.207 40.4688 14.3477C40.2149 14.4883 40.0157 14.6855 39.8712 14.9395C39.7266 15.1934 39.6544 15.4844 39.6544 15.8125C39.6544 16.1406 39.7266 16.4316 39.8712 16.6855C40.0157 16.9355 40.2149 17.1309 40.4688 17.2715C40.7266 17.4082 41.0177 17.4766 41.3419 17.4766C41.6583 17.4766 41.9415 17.4082 42.1915 17.2715C42.4454 17.1309 42.6446 16.9336 42.7891 16.6797C42.9337 16.4258 43.0059 16.1367 43.0059 15.8125C43.0059 15.4883 42.9337 15.1992 42.7891 14.9453C42.6446 14.6875 42.4454 14.4883 42.1915 14.3477C41.9376 14.207 41.6544 14.1367 41.3419 14.1367ZM43.9493 14.9922C44.0313 15.2617 44.0723 15.5352 44.0723 15.8125C44.0723 16.0898 44.0333 16.3555 43.9552 16.6094H46.0763V14.9922H43.9493ZM56.2167 15.1328H57.7402V16.0703H56.2167V18.6133H55.1034V12.4961H56.2167V15.1328ZM50.6034 20.0664H55.1034V19.0469H56.2167V22.8672H49.5019V19.0469H50.6034V20.0664ZM55.1034 21.9766V20.9336H50.6034V21.9766H55.1034ZM54.2362 14.418H47.9784V13.5273H50.5566V12.4023H51.6698V13.5273H54.2362V14.418ZM51.1073 14.8516C51.6073 14.8516 52.0487 14.9277 52.4316 15.0801C52.8183 15.2285 53.1171 15.4414 53.328 15.7188C53.5429 15.9961 53.6503 16.3203 53.6503 16.6914C53.6503 17.0586 53.5429 17.3828 53.328 17.6641C53.1171 17.9414 52.8183 18.1562 52.4316 18.3086C52.0487 18.4609 51.6073 18.5352 51.1073 18.5312C50.5995 18.5352 50.1523 18.4609 49.7655 18.3086C49.3827 18.1562 49.0839 17.9414 48.8691 17.6641C48.6581 17.3828 48.5527 17.0586 48.5527 16.6914C48.5527 16.3203 48.6581 15.9961 48.8691 15.7188C49.08 15.4414 49.3788 15.2285 49.7655 15.0801C50.1523 14.9277 50.5995 14.8516 51.1073 14.8516ZM51.1073 15.6836C50.8144 15.6797 50.5546 15.7207 50.328 15.8066C50.1054 15.8887 49.9316 16.0078 49.8066 16.1641C49.6855 16.3164 49.6269 16.4922 49.6308 16.6914C49.6269 16.8945 49.6855 17.0742 49.8066 17.2305C49.9316 17.3828 50.1054 17.502 50.328 17.5879C50.5507 17.6699 50.8105 17.7109 51.1073 17.7109C51.4003 17.7109 51.6601 17.6699 51.8866 17.5879C52.1132 17.502 52.289 17.3828 52.414 17.2305C52.539 17.0742 52.6034 16.8945 52.6073 16.6914C52.6034 16.4883 52.539 16.3105 52.414 16.1582C52.289 16.0059 52.1132 15.8887 51.8866 15.8066C51.6601 15.7207 51.4003 15.6797 51.1073 15.6836Z" fill="black"/>
</svg>
