<svg width="74" height="36" viewBox="0 0 74 36" fill="none" xmlns="http://www.w3.org/2000/svg">
<rect x="0.5" y="0.5" width="73" height="35" rx="17.5" stroke="#D1D1D1"/>
<circle cx="18" cy="18" r="14" fill="#E5E5F2"/>
<path d="M25 13.5582V21.3594C24.9995 21.4335 24.9813 21.5066 24.9466 21.5738C24.9119 21.6411 24.8615 21.701 24.7987 21.7495C23.6846 22.6096 22.6193 22.9197 21.6035 22.9197C20.2247 22.9197 18.937 22.3515 17.739 21.8243C15.803 20.9694 14.1201 20.2289 12.1667 21.6045V24.4799C12.1667 24.6179 12.1052 24.7501 11.9958 24.8477C11.8864 24.9452 11.738 25 11.5833 25C11.4286 25 11.2803 24.9452 11.1709 24.8477C11.0615 24.7501 11 24.6179 11 24.4799V13.5582C11.0006 13.4841 11.0189 13.411 11.0537 13.3437C11.0885 13.2765 11.1391 13.2166 11.202 13.1682C13.827 11.1411 16.1829 12.1794 18.2596 13.0954C20.2604 13.9782 21.9951 14.7414 24.0346 13.1682C24.1189 13.103 24.2224 13.0608 24.3328 13.0465C24.4432 13.0322 24.5558 13.0464 24.6575 13.0874C24.7591 13.1285 24.8453 13.1947 24.9061 13.2781C24.9668 13.3615 24.9994 13.4588 25 13.5582Z" fill="#FFC700"/>
<path d="M42.3028 15.5898C42.3028 16.1719 42.42 16.748 42.6544 17.3184C42.8927 17.8887 43.2208 18.3984 43.6388 18.8477C44.0606 19.293 44.5372 19.6289 45.0684 19.8555L44.4591 20.7227C43.8458 20.4531 43.3028 20.0469 42.8302 19.5039C42.3575 18.957 41.9981 18.3301 41.752 17.623C41.5059 18.377 41.1446 19.0527 40.668 19.6504C40.1954 20.248 39.6583 20.6953 39.0567 20.9922L38.4122 20.1133C38.9278 19.8711 39.3966 19.5098 39.8184 19.0293C40.2403 18.5449 40.5704 18 40.8087 17.3945C41.0509 16.7852 41.1739 16.1836 41.1778 15.5898V14.4766H38.7755V13.5508H44.6934V14.4766H42.3028V15.5898ZM47.1309 22.9961H46.0177V12.4961H47.1309V22.9961ZM57.5644 19.5508H53.2753V22.9961H52.1855V19.5508H47.955V18.6719H57.5644V19.5508ZM50.2519 14.2891H55.2441V12.918H56.3573V17.4766H49.1503V12.918H50.2519V14.2891ZM55.2441 16.5859V15.1797H50.2519V16.5859H55.2441Z" fill="black"/>
</svg>
