<svg width="47" height="15" viewBox="0 0 47 15" fill="none" xmlns="http://www.w3.org/2000/svg">
<path d="M10.4746 11.7891H0.794922V10.7227H4.97852V8.53125H6.26758V10.7227H10.4746V11.7891ZM9.60742 5.03906H6.29688C6.32812 5.48438 6.49805 5.9043 6.80664 6.29883C7.11914 6.69336 7.55273 7.03125 8.10742 7.3125C8.66211 7.58984 9.31055 7.77734 10.0527 7.875L9.57227 8.89453C8.6582 8.76562 7.85938 8.50781 7.17578 8.12109C6.49219 7.73047 5.97461 7.24414 5.62305 6.66211C5.26758 7.24414 4.75 7.73047 4.07031 8.12109C3.39062 8.50781 2.5957 8.76562 1.68555 8.89453L1.19336 7.875C1.93945 7.77734 2.58984 7.58984 3.14453 7.3125C3.70312 7.03125 4.13672 6.69336 4.44531 6.29883C4.75391 5.9043 4.92578 5.48438 4.96094 5.03906H1.65039V3.98438H4.97852V2.61328H6.26758V3.98438H9.60742V5.03906ZM20.0137 13.043H18.7012V2.44922H20.0137V13.043ZM16.8496 3.57422C16.8496 5.25781 16.4688 6.73633 15.707 8.00977C14.9453 9.2793 13.6816 10.332 11.916 11.168L11.2363 10.125C12.5996 9.47656 13.625 8.70117 14.3125 7.79883C15.0039 6.89258 15.4082 5.82812 15.5254 4.60547H11.7754V3.57422H16.8496ZM29.916 6.82031H31.4043V7.91016H29.916V13.043H28.6035V2.44922H29.916V6.82031ZM21.4082 10.1016C22.5645 10.1016 23.4668 10.0938 24.1152 10.0781V9.08789C23.7324 9.02148 23.3965 8.90039 23.1074 8.72461C22.8223 8.54883 22.6016 8.32812 22.4453 8.0625C22.2891 7.79297 22.2129 7.49609 22.2168 7.17188C22.2129 6.77734 22.3184 6.42969 22.5332 6.12891C22.748 5.82812 23.0508 5.5957 23.4414 5.43164C23.832 5.26367 24.2793 5.17969 24.7832 5.17969C25.2793 5.17969 25.7207 5.26367 26.1074 5.43164C26.498 5.5957 26.8027 5.82812 27.0215 6.12891C27.2441 6.42969 27.3574 6.77734 27.3613 7.17188C27.3574 7.5 27.2754 7.79688 27.1152 8.0625C26.9551 8.32812 26.7285 8.55078 26.4355 8.73047C26.1465 8.90625 25.8105 9.02539 25.4277 9.08789V10.0312C26.4395 9.97656 27.3105 9.89844 28.041 9.79688L28.123 10.7461C27.1152 10.9258 26.084 11.043 25.0293 11.0977C23.9746 11.1523 22.8301 11.1797 21.5957 11.1797L21.4082 10.1016ZM27.9238 4.69922H21.6074V3.66797H24.1152V2.49609H25.4277V3.66797H27.9238V4.69922ZM24.7832 6.17578C24.373 6.18359 24.0469 6.27539 23.8047 6.45117C23.5664 6.62305 23.4473 6.86328 23.4473 7.17188C23.4473 7.47656 23.5684 7.71484 23.8105 7.88672C24.0527 8.05859 24.377 8.14062 24.7832 8.13281C25.1855 8.14062 25.5059 8.05859 25.7441 7.88672C25.9863 7.71094 26.1074 7.47266 26.1074 7.17188C26.1074 6.86719 25.9863 6.62695 25.7441 6.45117C25.5059 6.27539 25.1855 6.18359 24.7832 6.17578Z" fill="#878787"/>
<path d="M42.9986 1.75C44.8088 2.78275 45.9981 4.7665 45.9981 7C45.9981 8.18669 45.6463 9.34672 44.9871 10.3334C44.3279 11.3201 43.391 12.0891 42.2948 12.5433C41.1986 12.9974 39.9924 13.1162 38.8287 12.8847C37.665 12.6532 36.5961 12.0818 35.7571 11.2426C34.9181 10.4035 34.3467 9.33443 34.1153 8.17054C33.8838 7.00665 34.0026 5.80025 34.4567 4.7039C34.9107 3.60754 35.6796 2.67047 36.6662 2.01118C37.6527 1.35189 38.8126 1 39.9991 1" stroke="#868686" stroke-linecap="round" stroke-linejoin="round"/>
<path d="M43.0005 4.75488V1.75488H46" stroke="#868686" stroke-linecap="round" stroke-linejoin="round"/>
</svg>
